ply
format ascii 1.0
element vertex 108
property float x
property float y
property float z
element edge 54
property int vertex1
property int vertex2
end_header
-84.808334 75.438103 -126.235435
-85.427551 74.731834 -126.249374
-84.340752 76.115631 -126.198067
-84.808334 75.438103 -126.235435
-85.427551 74.731827 -126.249359
-86.607536 73.787590 -126.207649
-83.356621 77.954048 -126.028542
-84.340752 76.115631 -126.198067
-86.607536 73.787590 -126.207649
-87.851852 73.159500 -126.104507
-83.173576 78.391899 -125.973793
-83.356621 77.954048 -126.028542
-87.851852 73.159500 -126.104507
-89.163589 72.849533 -125.936317
-82.540855 80.544670 -125.625015
-83.173576 78.391899 -125.973793
-89.163582 72.849541 -125.936302
-90.540527 72.844788 -125.699738
-82.375153 81.246864 -125.493332
-82.540840 80.544662 -125.625000
-90.540527 72.844788 -125.699738
-91.976685 73.108894 -125.394249
-82.041580 84.058815 -124.865425
-82.375137 81.246849 -125.493317
-91.976685 73.108894 -125.394249
-93.463486 73.596443 -125.021515
-82.042847 84.617035 -124.722603
-82.041580 84.058823 -124.865440
-93.463493 73.596443 -125.021507
-94.997833 74.281952 -124.577965
-82.107582 86.840767 -124.129196
-82.042847 84.617035 -124.722603
-94.997833 74.281952 -124.577965
-95.037445 74.304924 -124.565125
-82.525345 89.586212 -123.312126
-82.107582 86.840767 -124.129196
-95.037445 74.304924 -124.565125
-96.649017 75.373077 -124.000748
-83.292915 92.281410 -122.418678
-82.525345 89.586212 -123.312126
-96.649017 75.373077 -124.000748
-98.349449 76.579155 -123.357697
-84.421478 94.916908 -121.449951
-83.292915 92.281403 -122.418678
-98.349442 76.579155 -123.357689
-98.413269 76.630753 -123.331696
-84.803391 95.580711 -121.184631
-84.421478 94.916908 -121.449951
-98.413269 76.630753 -123.331696
-100.243553 78.340759 -122.522850
-86.010361 97.478378 -120.404137
-84.803391 95.580711 -121.184631
-100.243553 78.340759 -122.522850
-100.932854 79.012611 -122.203712
-87.450111 99.246300 -119.626167
-86.010361 97.478378 -120.404137
-100.932838 79.012611 -122.203705
-102.375023 80.701256 -121.462189
-88.121109 99.960793 -119.299171
-87.450111 99.246315 -119.626198
-102.375023 80.701256 -121.462189
-102.967323 81.416862 -121.145416
-89.670166 101.292671 -118.641876
-88.121117 99.960800 -119.299187
-102.967331 81.416862 -121.145424
-104.549248 83.850609 -120.157280
-91.125656 102.293190 -118.092575
-89.670166 101.292671 -118.641876
-104.549248 83.850609 -120.157280
-105.695610 86.333214 -119.235115
-91.657364 102.588989 -117.908920
-91.125656 102.293190 -118.092575
-105.695610 86.333214 -119.235115
-106.301697 88.896095 -118.408173
-93.447182 103.246017 -117.375877
-91.657364 102.588989 -117.908920
-106.301689 88.896080 -118.408173
-106.350571 91.560165 -117.680153
-95.126404 103.513321 -116.966591
-93.447174 103.246002 -117.375877
-106.350571 91.560165 -117.680153
-106.278671 91.938370 -117.598038
-96.699249 103.439102 -116.679749
-95.126404 103.513321 -116.966591
-106.278671 91.938370 -117.598038
-105.739128 94.374374 -117.095070
-98.172775 103.062645 -116.510139
-96.699249 103.439102 -116.679749
-105.739128 94.374374 -117.095070
-105.693146 94.490311 -117.077751
-99.538956 102.442017 -116.440292
-98.172768 103.062645 -116.510139
-105.693146 94.490311 -117.077751
-104.855461 96.360352 -116.837006
-100.803230 101.635139 -116.435646
-99.538956 102.442017 -116.440292
-104.855469 96.360344 -116.836998
-104.390808 97.362778 -116.714081
-101.969269 100.678299 -116.465584
-100.803230 101.635139 -116.435646
-104.390816 97.362785 -116.714104
-103.967873 98.040230 -116.661591
-102.144241 100.491554 -116.478668
-101.969269 100.678307 -116.465591
-103.967873 98.040230 -116.661591
-102.984978 99.413643 -116.569672
-102.984978 99.413643 -116.569672
-102.144241 100.491554 -116.478668
0 1
2 3
4 5
6 7
8 9
10 11
12 13
14 15
16 17
18 19
20 21
22 23
24 25
26 27
28 29
30 31
32 33
34 35
36 37
38 39
40 41
42 43
44 45
46 47
48 49
50 51
52 53
54 55
56 57
58 59
60 61
62 63
64 65
66 67
68 69
70 71
72 73
74 75
76 77
78 79
80 81
82 83
84 85
86 87
88 89
90 91
92 93
94 95
96 97
98 99
100 101
102 103
104 105
106 107
