ply
format ascii 1.0
element vertex 184
property float x
property float y
property float z
element edge 92
property int vertex1
property int vertex2
end_header
-78.132133 163.990707 -63.771790
-77.133751 164.371948 -63.137268
-79.499954 163.644180 -64.336601
-78.132141 163.990738 -63.771809
-77.133751 164.371948 -63.137283
-76.899086 164.472763 -62.971901
-80.896492 163.422592 -64.701523
-79.499954 163.644180 -64.336601
-76.899078 164.472717 -62.971897
-75.771782 165.039474 -61.991966
-82.294136 163.259979 -64.924011
-80.896492 163.422592 -64.701523
-75.771782 165.039474 -61.991966
-74.727303 165.714905 -60.728138
-83.671692 163.097351 -65.050514
-82.294136 163.259964 -64.924011
-74.727303 165.714905 -60.728138
-74.675545 165.752945 -60.657215
-85.050049 162.881592 -65.122742
-83.671692 163.097351 -65.050514
-74.675545 165.752945 -60.657215
-73.709877 166.556961 -59.281979
-86.454285 162.608887 -65.147583
-85.050049 162.881592 -65.122742
-73.709877 166.556961 -59.281979
-73.043175 167.297897 -58.038040
-87.873932 162.294128 -65.108986
-86.454285 162.608887 -65.147583
-73.043175 167.297897 -58.038040
-72.882904 167.497879 -57.694492
-89.305138 161.951889 -64.988335
-87.873932 162.294128 -65.108986
-72.882904 167.497879 -57.694492
-72.267670 168.266525 -56.221928
-90.756615 161.592056 -64.793121
-89.305138 161.951889 -64.988327
-72.267670 168.266525 -56.221928
-72.060577 168.495117 -55.601696
-92.231651 161.221420 -64.567245
-90.756615 161.592056 -64.793121
-72.060577 168.495117 -55.601696
-71.882484 168.645340 -54.961136
-93.731384 160.847076 -64.352974
-92.231651 161.221420 -64.567245
-95.248520 160.477905 -64.183617
-93.731384 160.847092 -64.352974
-96.757492 160.125458 -64.048912
-95.248520 160.477905 -64.183617
-98.260063 159.790756 -63.916264
-96.757492 160.125458 -64.048912
-99.762764 159.475464 -63.749619
-98.260056 159.790741 -63.916264
-101.274704 159.181824 -63.514568
-99.762764 159.475464 -63.749619
-102.801468 158.908585 -63.194252
-101.274704 159.181824 -63.514568
-104.346878 158.652176 -62.768559
-102.801453 158.908569 -63.194244
-105.915443 158.402786 -62.201721
-104.346863 158.652176 -62.768566
-106.725906 158.272415 -61.835712
-105.915443 158.402786 -62.201721
-107.529053 158.135544 -61.412437
-106.725906 158.272430 -61.835720
-109.187248 157.778824 -60.275036
-107.529053 158.135544 -61.412437
-109.919678 157.547134 -59.550026
-109.187210 157.778809 -60.275032
-110.844879 157.026215 -58.021606
-109.919678 157.547134 -59.550026
-111.186859 156.689880 -57.166103
-110.844879 157.026215 -58.021606
-111.637833 155.608994 -54.598526
-111.186859 156.689880 -57.166103
-111.741074 154.488495 -51.864059
-111.637833 155.608994 -54.598526
-111.742004 153.563644 -49.107300
-111.741074 154.488495 -51.864059
-111.690201 152.794464 -46.490147
-111.741997 153.563644 -49.107311
-111.537529 152.042328 -44.035599
-111.690201 152.794464 -46.490147
-111.232025 151.321304 -42.044079
-111.537529 152.042328 -44.035599
-111.180679 151.197800 -41.747746
-111.232025 151.321304 -42.044079
-110.620224 150.169250 -39.520466
-111.180679 151.197800 -41.747746
-109.863182 148.996994 -37.306839
-110.620224 150.169250 -39.520466
-109.856522 148.989395 -37.292690
-109.863182 148.996994 -37.306839
-108.921707 147.739670 -35.095360
-109.856544 148.989395 -37.292694
-108.415855 147.175537 -34.117493
-108.921707 147.739655 -35.095371
-107.780579 146.449860 -32.893204
-108.415855 147.175537 -34.117493
-107.012566 145.694687 -31.618561
-107.780579 146.449860 -32.893204
-106.433861 145.149780 -30.703238
-107.012566 145.694687 -31.618561
-105.588432 144.479492 -29.532303
-106.433861 145.149780 -30.703238
-104.791389 143.900742 -28.471134
-105.588417 144.479492 -29.532299
-104.156693 143.491104 -27.670311
-104.791389 143.900742 -28.471134
-102.883438 142.780060 -26.162893
-104.156685 143.491135 -27.670311
-102.787872 142.721252 -26.039539
-102.883438 142.780060 -26.162893
-101.509354 142.116867 -24.689924
-102.787872 142.721252 -26.039539
-100.772850 141.728348 -23.901161
-101.509354 142.116867 -24.689924
-100.229317 141.441422 -23.342966
-100.772850 141.728348 -23.901161
-98.892014 140.915833 -22.293427
-100.229317 141.441422 -23.342964
-98.304161 140.640945 -21.775812
-98.892014 140.915833 -22.293427
-97.505043 140.276779 -21.087255
-98.304153 140.640945 -21.775826
-96.102303 139.733536 -20.002565
-97.505043 140.276779 -21.087255
-95.749146 139.554642 -19.668346
-96.102295 139.733536 -20.002567
-94.706566 139.012466 -18.664263
-95.749146 139.554642 -19.668346
-93.566414 138.352417 -17.459290
-94.706566 139.012466 -18.664263
-93.289696 138.155045 -17.110168
-93.566414 138.352417 -17.459290
-91.855537 137.104630 -15.218507
-93.289696 138.155045 -17.110168
-91.812805 137.068939 -15.155210
-91.855553 137.104645 -15.218508
-90.549301 135.686966 -12.859964
-91.812805 137.068939 -15.155210
-90.439560 135.525040 -12.611190
-90.549301 135.686966 -12.859964
-89.628220 134.158615 -10.630290
-90.439560 135.525040 -12.611190
-88.924881 132.477554 -8.463907
-89.628220 134.158615 -10.630290
-88.920395 132.467590 -8.451378
-88.924881 132.477554 -8.463907
-88.359344 130.635147 -6.288409
-88.920395 132.467590 -8.451393
-87.998360 128.669754 -4.158320
-88.359344 130.635147 -6.288409
-87.809952 126.574928 -2.083790
-87.998360 128.669754 -4.158320
-87.794258 124.333237 -0.063780
-87.809952 126.574928 -2.083790
-87.950943 122.167519 1.750894
-87.794258 124.333237 -0.063780
-87.969406 121.942085 1.938094
-87.950943 122.167519 1.750894
-88.258644 119.465553 3.971998
-87.969406 121.942085 1.938094
-88.610695 116.960152 6.080562
-88.258636 119.465553 3.971986
-88.878304 115.581886 7.245918
-88.610695 116.960152 6.080562
-89.094841 114.422699 8.246139
-88.878304 115.581886 7.245918
-89.497192 111.930695 10.451318
-89.094841 114.422699 8.246139
-89.847633 109.963760 12.168649
-89.497192 111.930695 10.451318
-89.950783 109.398483 12.656570
-89.847626 109.963753 12.168647
-90.288437 106.884338 14.860666
-89.950783 109.398483 12.656570
-90.555321 104.317215 17.128363
-90.288437 106.884338 14.860666
-90.673111 103.335205 17.990734
-90.555336 104.317238 17.128353
-90.834373 101.610924 19.541475
-90.673111 103.335205 17.990734
-90.919769 98.820168 22.190502
-90.834373 101.610924 19.541475
0 1
2 3
4 5
6 7
8 9
10 11
12 13
14 15
16 17
18 19
20 21
22 23
24 25
26 27
28 29
30 31
32 33
34 35
36 37
38 39
40 41
42 43
44 45
46 47
48 49
50 51
52 53
54 55
56 57
58 59
60 61
62 63
64 65
66 67
68 69
70 71
72 73
74 75
76 77
78 79
80 81
82 83
84 85
86 87
88 89
90 91
92 93
94 95
96 97
98 99
100 101
102 103
104 105
106 107
108 109
110 111
112 113
114 115
116 117
118 119
120 121
122 123
124 125
126 127
128 129
130 131
132 133
134 135
136 137
138 139
140 141
142 143
144 145
146 147
148 149
150 151
152 153
154 155
156 157
158 159
160 161
162 163
164 165
166 167
168 169
170 171
172 173
174 175
176 177
178 179
180 181
182 183
