ply
format ascii 1.0
element vertex 316
property float x
property float y
property float z
element edge 158
property int vertex1
property int vertex2
end_header
-124.885147 151.301224 -50.813347
-123.838684 151.511154 -50.317833
-126.369194 150.970367 -51.188210
-124.885147 151.301224 -50.813347
-123.838684 151.511154 -50.317833
-123.490677 151.576981 -50.130878
-127.903267 150.658783 -51.344723
-126.369202 150.970367 -51.188202
-123.490677 151.576981 -50.130878
-122.239052 151.734131 -49.161655
-129.426926 150.401962 -51.348118
-127.903267 150.658783 -51.344723
-122.239052 151.734131 -49.161652
-121.194542 151.694366 -47.826454
-130.957977 150.205200 -51.255150
-129.426926 150.401962 -51.348118
-121.194542 151.694351 -47.826462
-121.111649 151.685684 -47.718472
-132.511505 150.080872 -51.106907
-130.957977 150.205200 -51.255157
-121.111649 151.685684 -47.718472
-119.867348 151.452805 -45.754433
-134.037231 150.026657 -50.927509
-132.511505 150.080872 -51.106907
-119.867348 151.452805 -45.754433
-119.664734 151.396576 -45.358841
-135.467285 149.977905 -50.708664
-134.037231 150.026657 -50.927509
-119.664734 151.396576 -45.358841
-118.507843 151.024139 -43.240913
-136.784988 149.864151 -50.426987
-135.467285 149.977921 -50.708668
-118.507874 151.024139 -43.240913
-118.400101 150.976761 -43.013344
-137.995758 149.629227 -50.049824
-136.784988 149.864151 -50.426987
-118.400101 150.976761 -43.013344
-117.296822 150.377960 -40.843323
-139.289963 149.231537 -49.532417
-137.995758 149.629227 -50.049824
-117.296822 150.377960 -40.843323
-117.094856 150.251862 -40.495346
-140.731216 148.748260 -48.814648
-139.289963 149.231552 -49.532425
-117.094856 150.251862 -40.495346
-116.251045 149.498169 -38.717327
-142.339310 148.328918 -47.793819
-140.731216 148.748260 -48.814648
-116.251045 149.498169 -38.717327
-115.705162 148.968811 -37.683056
-142.699524 148.272186 -47.503445
-142.339310 148.328918 -47.793819
-115.705162 148.968811 -37.683056
-115.191368 148.362335 -36.608528
-144.081055 148.171921 -46.413849
-142.699524 148.272186 -47.503445
-115.191368 148.362335 -36.608528
-114.292847 147.325150 -34.955181
-145.768753 148.314743 -44.741375
-144.081055 148.171921 -46.413849
-114.292839 147.325134 -34.955185
-114.052811 147.033768 -34.512516
-146.193481 148.401581 -44.187363
-145.768753 148.314743 -44.741375
-114.052788 147.033783 -34.512531
-112.789665 145.608826 -32.399094
-147.368439 148.643265 -42.632431
-146.193466 148.401566 -44.187382
-112.789665 145.608826 -32.399094
-112.780342 145.599838 -32.385860
-148.180954 148.832733 -41.285587
-147.368439 148.643265 -42.632431
-112.780342 145.599838 -32.385860
-111.360397 144.197205 -30.256235
-148.885193 148.938614 -40.100594
-148.180954 148.832733 -41.285587
-111.360397 144.197205 -30.256235
-111.207191 144.063278 -30.045839
-149.641586 148.988159 -38.613605
-148.885193 148.938614 -40.100594
-111.207191 144.063278 -30.045839
-109.817703 142.843918 -28.088310
-150.378098 148.901688 -37.195545
-149.641586 148.988159 -38.613605
-109.817703 142.843918 -28.088310
-109.694214 142.741196 -27.920059
-150.866562 148.751022 -36.122997
-150.378067 148.901688 -37.195538
-109.694229 142.741196 -27.920059
-108.207985 141.616150 -26.021315
-151.811050 148.196915 -33.841213
-150.866562 148.751022 -36.122997
-108.207985 141.616150 -26.021315
-108.110565 141.541443 -25.891548
-151.889893 148.131836 -33.626236
-151.811050 148.196915 -33.841213
-108.110565 141.541443 -25.891548
-106.712410 140.658859 -24.251133
-152.699417 147.232025 -31.087904
-151.889893 148.131836 -33.626236
-106.712410 140.658859 -24.251133
-106.199829 140.349075 -23.639029
-153.072952 146.739304 -29.916899
-152.699417 147.232025 -31.087904
-106.199829 140.349075 -23.639029
-105.228035 139.819336 -22.527073
-153.452667 146.111023 -28.521418
-153.072952 146.739304 -29.916899
-105.228027 139.819321 -22.527073
-104.172470 139.289597 -21.363106
-154.057785 144.855087 -25.950335
-153.452682 146.111053 -28.521435
-104.172478 139.289597 -21.363121
-103.820740 139.086395 -20.939335
-154.163528 144.658997 -25.568525
-154.057785 144.855087 -25.950335
-103.820747 139.086411 -20.939337
-102.485565 138.478180 -19.614077
-154.628708 143.502274 -23.331318
-154.163528 144.658997 -25.568525
-102.485565 138.478180 -19.614077
-102.065140 138.236420 -19.150932
-155.093292 142.257401 -20.873714
-154.628708 143.502274 -23.331318
-102.065140 138.236420 -19.150932
-101.178055 137.708069 -18.198256
-155.145386 142.129654 -20.611319
-155.093292 142.257401 -20.873714
-101.178055 137.708069 -18.198256
-99.974655 137.018661 -17.026043
-155.540436 140.839096 -17.746157
-155.145386 142.129654 -20.611319
-99.974655 137.018661 -17.026043
-99.842964 136.925262 -16.877920
-155.846619 140.063293 -15.719414
-155.540436 140.839096 -17.746157
-99.842964 136.925262 -16.877920
-98.450043 136.083191 -15.490614
-155.990601 139.732269 -14.794582
-155.846619 140.063293 -15.719414
-98.450043 136.083191 -15.490614
-97.878807 135.699417 -14.863546
-156.302490 138.703690 -11.982394
-155.990601 139.732269 -14.794582
-97.878807 135.699417 -14.863546
-97.021240 135.046295 -13.812942
-156.507416 138.244354 -10.835835
-156.302490 138.703690 -11.982408
-97.021240 135.046295 -13.812942
-96.123421 134.317993 -12.652710
-156.758133 137.577408 -9.386360
-156.507401 138.244370 -10.835837
-96.123421 134.317993 -12.652710
-95.593941 133.774643 -11.840092
-157.133240 136.189560 -7.133924
-156.758133 137.577408 -9.386360
-95.593933 133.774658 -11.840091
-94.750221 132.828842 -10.495584
-157.171692 136.080048 -6.986992
-157.133240 136.189560 -7.133924
-94.750221 132.828842 -10.495584
-94.107697 131.861969 -9.269989
-157.551208 134.369370 -5.045787
-157.171692 136.080048 -6.986992
-94.107697 131.861969 -9.269989
-93.681732 131.166504 -8.449271
-157.811417 133.206818 -3.914176
-157.551208 134.369370 -5.045787
-93.681740 131.166519 -8.449284
-92.903885 129.264084 -6.453429
-158.046921 132.197144 -2.981634
-157.811417 133.206818 -3.914176
-92.903885 129.264084 -6.453429
-92.306961 127.188789 -4.471957
-158.475967 130.172806 -1.130252
-158.046921 132.197144 -2.981634
-92.306961 127.188789 -4.471957
-92.071388 125.882317 -3.297310
-158.565994 129.852966 -0.823554
-158.475967 130.172806 -1.130252
-92.071388 125.882317 -3.297310
-91.917511 124.972588 -2.482701
-159.163956 127.586456 1.516719
-158.565994 129.852966 -0.823554
-91.917511 124.972588 -2.482701
-91.820160 123.621506 -1.318217
-159.165909 127.580948 1.522808
-159.163956 127.586456 1.516719
-159.854370 125.690170 3.594969
-159.165939 127.580978 1.522794
-91.820160 123.621506 -1.318217
-91.760681 122.650993 -0.478100
-159.944656 125.494896 3.799121
-159.854340 125.690147 3.594968
-91.760681 122.650993 -0.478100
-91.786690 120.259109 1.548951
-160.601959 124.186234 5.046879
-159.944656 125.494896 3.799121
-91.786690 120.259109 1.548951
-91.910812 117.833466 3.623888
-161.254868 123.330482 5.730801
-160.601959 124.186234 5.046879
-91.910812 117.833488 3.623874
-92.096191 115.391678 5.763532
-161.510406 122.958473 5.997951
-161.254868 123.330482 5.730801
-92.096191 115.391678 5.763532
-92.329552 113.315056 7.601243
-162.654724 122.101448 6.513349
-161.510406 122.958473 5.997951
-92.329552 113.315056 7.601243
-92.378815 112.919968 7.952316
-163.974899 121.587967 6.734613
-162.654724 122.101448 6.513349
-92.378815 112.919968 7.952316
-92.642120 110.459061 10.177437
-165.430496 121.402008 6.715828
-163.974899 121.587967 6.734613
-92.642120 110.459061 10.177437
-92.837959 108.021759 12.422514
-167.028397 121.546165 6.462035
-165.430496 121.402008 6.715828
-92.837959 108.021759 12.422514
-93.043167 105.562973 14.671919
-168.795792 122.048706 5.971976
-167.028381 121.546165 6.462035
-93.043167 105.562973 14.671919
-93.110794 104.914040 15.258336
-169.915237 122.600510 5.526467
-168.795792 122.048706 5.971976
-93.110794 104.914040 15.258336
-93.267967 103.032692 16.982027
-170.770706 123.036903 5.191132
-169.915237 122.600510 5.526467
-93.267982 103.032730 16.982019
-93.358261 100.439644 19.433266
-172.870926 124.315041 4.273893
-170.770706 123.036903 5.191132
-93.358261 100.439644 19.433266
-93.362267 97.697197 22.091131
-173.569214 124.837349 3.911510
-172.870926 124.315041 4.273893
-175.159805 125.996887 3.080053
-173.569214 124.837349 3.911510
-176.405197 126.939430 2.341858
-175.159805 125.996887 3.080053
-177.597473 127.757423 1.602620
-176.405197 126.939415 2.341867
-178.923218 128.610550 0.664804
-177.597473 127.757423 1.602620
-180.120331 129.307892 -0.294471
-178.923218 128.610550 0.664804
-181.251968 129.939667 -1.330305
-180.120331 129.307907 -0.294470
-182.685211 130.694565 -2.782963
-181.251968 129.939667 -1.330305
-183.504791 131.114349 -3.670880
-182.685211 130.694565 -2.782963
-185.297195 132.061310 -5.727243
-183.504791 131.114349 -3.670880
-185.770782 132.310455 -6.264615
-185.297195 132.061310 -5.727243
-188.028900 133.578354 -8.756591
-185.770782 132.310455 -6.264615
-188.173599 133.654083 -8.901587
-188.028900 133.578354 -8.756591
-190.716873 134.933929 -11.361095
-188.173599 133.654083 -8.901587
-190.804398 134.973877 -11.442549
-190.716888 134.933914 -11.361084
-193.321716 135.895355 -13.700481
-190.804398 134.973877 -11.442549
-193.442001 135.930893 -13.810419
-193.321716 135.895355 -13.700481
-195.813019 136.301239 -15.944762
-193.442001 135.930893 -13.810419
-195.873062 136.302246 -15.999660
-195.813049 136.301270 -15.944763
-197.925293 136.116028 -18.019470
-195.873062 136.302246 -15.999660
-198.376221 136.015503 -18.483250
-197.925293 136.116028 -18.019470
-199.939789 135.552139 -20.121239
-198.376221 136.015503 -18.483250
-201.180740 135.114777 -21.322014
-199.939789 135.552139 -20.121239
-202.035492 134.833282 -22.122057
-201.180740 135.114777 -21.322014
-204.225464 134.269180 -23.819532
-202.035492 134.833282 -22.122057
-205.026566 134.133179 -24.425402
-204.225464 134.269180 -23.819532
-206.382568 133.965332 -25.415157
-205.026566 134.133179 -24.425402
-208.372086 133.748581 -26.668133
-206.382568 133.965332 -25.415157
-209.987610 133.534637 -27.738306
-208.372070 133.748581 -26.668129
-210.198074 133.499207 -27.883768
-209.987595 133.534637 -27.738287
-212.051559 133.039093 -28.958805
-210.198074 133.499207 -27.883768
-214.002823 132.407455 -29.811739
-212.051559 133.039093 -28.958805
-216.114288 131.790741 -30.577732
-214.002823 132.407455 -29.811739
-217.479462 131.524689 -31.070419
-216.114288 131.790741 -30.577732
-218.369690 131.397675 -31.383085
-217.479462 131.524689 -31.070419
-220.477600 131.100967 -32.013897
-218.369690 131.397675 -31.383085
-222.478973 130.739944 -32.601467
-220.477646 131.100983 -32.013905
-224.502075 130.258194 -33.374763
-222.478973 130.739944 -32.601467
0 1
2 3
4 5
6 7
8 9
10 11
12 13
14 15
16 17
18 19
20 21
22 23
24 25
26 27
28 29
30 31
32 33
34 35
36 37
38 39
40 41
42 43
44 45
46 47
48 49
50 51
52 53
54 55
56 57
58 59
60 61
62 63
64 65
66 67
68 69
70 71
72 73
74 75
76 77
78 79
80 81
82 83
84 85
86 87
88 89
90 91
92 93
94 95
96 97
98 99
100 101
102 103
104 105
106 107
108 109
110 111
112 113
114 115
116 117
118 119
120 121
122 123
124 125
126 127
128 129
130 131
132 133
134 135
136 137
138 139
140 141
142 143
144 145
146 147
148 149
150 151
152 153
154 155
156 157
158 159
160 161
162 163
164 165
166 167
168 169
170 171
172 173
174 175
176 177
178 179
180 181
182 183
184 185
186 187
188 189
190 191
192 193
194 195
196 197
198 199
200 201
202 203
204 205
206 207
208 209
210 211
212 213
214 215
216 217
218 219
220 221
222 223
224 225
226 227
228 229
230 231
232 233
234 235
236 237
238 239
240 241
242 243
244 245
246 247
248 249
250 251
252 253
254 255
256 257
258 259
260 261
262 263
264 265
266 267
268 269
270 271
272 273
274 275
276 277
278 279
280 281
282 283
284 285
286 287
288 289
290 291
292 293
294 295
296 297
298 299
300 301
302 303
304 305
306 307
308 309
310 311
312 313
314 315
