ply
format ascii 1.0
element vertex 300
property float x
property float y
property float z
element edge 150
property int vertex1
property int vertex2
end_header
-129.096710 150.477951 -38.852196
-129.878372 150.637024 -38.962097
-128.359833 150.339020 -38.747601
-129.096710 150.477951 -38.852196
-129.878372 150.637024 -38.962097
-131.320160 150.904694 -39.024109
-126.794266 150.073593 -38.406002
-128.359833 150.339020 -38.747601
-131.320160 150.904694 -39.024109
-132.675003 151.084488 -38.967316
-125.323807 149.812393 -37.909401
-126.794273 150.073578 -38.405994
-132.675003 151.084488 -38.967316
-134.008362 151.139053 -38.803452
-124.473312 149.560287 -37.439823
-125.323807 149.812393 -37.909401
-134.008362 151.139053 -38.803452
-135.390961 151.082169 -38.530594
-123.941010 149.375366 -37.135235
-124.473312 149.560287 -37.439823
-135.390961 151.082169 -38.530590
-136.819519 150.931183 -38.135315
-122.553513 148.707809 -36.154297
-123.941010 149.375366 -37.135235
-136.819519 150.931183 -38.135315
-138.287674 150.701630 -37.596626
-121.995369 148.337006 -35.635479
-122.553513 148.707809 -36.154297
-138.287674 150.701630 -37.596626
-138.712494 150.619156 -37.394524
-121.076401 147.745148 -34.824707
-121.995369 148.337006 -35.635479
-138.712494 150.619156 -37.394524
-139.776413 150.396713 -36.889774
-119.913467 146.888733 -33.599350
-121.076401 147.745148 -34.824707
-139.776413 150.396713 -36.889774
-141.274643 150.009476 -36.049244
-119.556519 146.632690 -33.221256
-119.913452 146.888763 -33.599365
-141.274643 150.009476 -36.049244
-142.783524 149.493713 -34.994545
-118.118347 145.483719 -31.481934
-119.556519 146.632690 -33.221256
-142.783524 149.493713 -34.994545
-143.066086 149.367722 -34.737423
-118.102608 145.470901 -31.462601
-118.118347 145.483719 -31.481934
-143.066086 149.367722 -34.737423
-144.309784 148.777557 -33.561623
-116.738480 144.236145 -29.648783
-118.102608 145.470947 -31.462603
-144.309784 148.777557 -33.561623
-145.500580 148.054016 -32.093060
-116.564819 144.054581 -29.390520
-116.738480 144.236145 -29.648783
-145.500580 148.054016 -32.093060
-145.800537 147.856476 -31.683012
-115.345810 142.895050 -27.786970
-116.564819 144.054581 -29.390520
-145.800537 147.856476 -31.683012
-147.179413 146.748077 -29.302721
-114.990349 142.544586 -27.301123
-115.345810 142.895050 -27.786970
-147.179413 146.748077 -29.302721
-147.190536 146.736725 -29.277861
-113.869072 141.538300 -25.890171
-114.990349 142.544586 -27.301123
-147.190552 146.736725 -29.277874
-148.307587 145.460098 -26.459719
-113.316246 141.042877 -25.170269
-113.869057 141.538284 -25.890169
-148.307587 145.460098 -26.459719
-148.312943 145.453049 -26.444500
-112.359932 140.253250 -23.993557
-113.316246 141.042877 -25.170269
-148.312943 145.453049 -26.444500
-149.069397 144.142303 -23.757252
-111.573425 139.623550 -23.037527
-112.359932 140.253250 -23.993557
-149.069397 144.142303 -23.757252
-149.209808 143.894562 -23.278456
-110.845711 139.061417 -22.181561
-111.573425 139.623550 -23.037527
-149.209778 143.894547 -23.278452
-149.732864 142.726746 -21.091927
-109.748955 138.257889 -20.965595
-110.845711 139.061417 -22.181561
-149.732864 142.726746 -21.091927
-150.074921 142.029373 -19.812822
-109.332939 137.943924 -20.495251
-109.748947 138.257889 -20.965611
-150.074921 142.029373 -19.812822
-150.415222 141.259460 -18.356386
-107.822304 136.922760 -18.978428
-109.332939 137.943924 -20.495251
-150.415222 141.259460 -18.356386
-151.031616 140.076263 -15.926204
-107.805588 136.910797 -18.960958
-107.822304 136.922760 -18.978428
-151.031616 140.076263 -15.926204
-151.132034 139.893890 -15.526814
-106.301636 135.909866 -17.509306
-107.805588 136.910797 -18.960958
-151.132034 139.893890 -15.526814
-151.775101 138.667786 -12.752007
-105.781601 135.561874 -17.014776
-106.301636 135.909866 -17.509306
-151.775085 138.667786 -12.752023
-152.010925 138.286224 -11.896793
-104.764503 134.837753 -16.004019
-105.781601 135.561874 -17.014776
-152.010925 138.286224 -11.896793
-152.414246 137.438171 -10.162224
-103.767990 134.144882 -15.026988
-104.764503 134.837738 -16.004017
-152.414246 137.438171 -10.162224
-152.878708 136.358124 -8.358814
-103.254135 133.724396 -14.458096
-103.767990 134.144882 -15.026988
-152.878708 136.358124 -8.358814
-153.006393 136.013550 -7.877151
-101.871078 132.652863 -12.969626
-103.254150 133.724396 -14.458097
-153.006393 136.013550 -7.877151
-153.459213 134.180511 -5.759772
-101.768867 132.554626 -12.841020
-101.871078 132.652863 -12.969626
-153.459213 134.180511 -5.759772
-153.615646 133.606873 -5.170590
-100.279503 131.152618 -10.987033
-101.768867 132.554626 -12.841020
-153.615646 133.606873 -5.170590
-153.924850 132.022247 -3.660028
-100.200691 131.075134 -10.885954
-100.279503 131.152618 -10.987033
-153.924850 132.022247 -3.660028
-154.219070 130.321457 -2.093206
-98.841560 129.362915 -8.843332
-100.200691 131.075134 -10.885954
-154.219070 130.321457 -2.093207
-154.328049 129.698349 -1.510030
-98.747276 129.208618 -8.675336
-98.841568 129.362900 -8.843348
-154.328049 129.698349 -1.510030
-154.608887 127.400658 0.759579
-97.792259 127.455704 -6.860292
-98.747276 129.208603 -8.675337
-154.608902 127.400658 0.759566
-154.686096 126.990395 1.196770
-97.064407 125.528870 -5.059371
-97.792259 127.455704 -6.860292
-154.686096 126.990395 1.196770
-154.980164 125.269310 3.074287
-97.003815 125.363525 -4.906504
-97.064407 125.528870 -5.059371
-154.980164 125.269310 3.074287
-155.187973 124.156288 4.297596
-96.470459 123.123352 -2.934516
-97.003815 125.363525 -4.906504
-155.187973 124.156288 4.297596
-155.389847 123.219894 5.300569
-96.151604 120.819489 -0.910966
-96.470459 123.123352 -2.934516
-155.389847 123.219894 5.300569
-155.670670 121.609566 6.854781
-95.992012 118.496414 1.161755
-96.151604 120.819489 -0.910966
-155.670670 121.609566 6.854781
-155.778488 121.138458 7.263694
-95.939011 116.160538 3.289641
-95.992012 118.496414 1.161755
-155.778488 121.138458 7.263694
-156.131241 119.152893 8.707145
-95.950058 113.811798 5.475124
-95.939003 116.160538 3.289628
-156.131241 119.152893 8.707145
-156.211319 118.842590 8.904057
-95.997627 111.695427 7.474496
-95.950058 113.811798 5.475124
-156.211319 118.842590 8.904057
-156.739349 116.802292 10.058493
-96.003891 111.444839 7.713147
-95.997627 111.695427 7.474496
-156.739319 116.802284 10.058493
-156.966095 116.251640 10.345952
-96.065369 109.069504 9.991385
-96.003891 111.444839 7.713147
-156.966095 116.251640 10.345952
-157.557907 114.767120 11.095867
-96.100845 106.698540 12.297313
-96.065369 109.069504 9.991385
-157.557907 114.767120 11.095867
-158.409836 113.505234 11.747219
-96.120941 104.327972 14.622842
-96.100845 106.698540 12.297313
-158.409851 113.505249 11.747211
-158.545914 113.269112 11.869761
-96.124649 101.914597 17.005329
-96.120941 104.327972 14.622842
-158.545914 113.269112 11.869761
-159.636627 112.238518 12.449003
-96.099167 99.386871 19.508549
-96.124657 101.914642 17.005320
-159.636627 112.238518 12.449003
-160.823151 111.707214 12.802740
-96.033165 96.665451 22.193808
-96.099167 99.386871 19.508549
-160.823151 111.707214 12.802740
-162.092484 111.533272 12.977932
-162.092484 111.533272 12.977932
-163.447433 111.647057 12.992446
-163.447403 111.647057 12.992445
-164.893768 112.000351 12.845642
-164.893768 112.000351 12.845642
-166.457016 112.586708 12.506879
-166.457016 112.586708 12.506879
-167.605316 113.172195 12.109295
-167.605316 113.172188 12.109303
-168.159607 113.438370 11.903594
-168.159607 113.438370 11.903594
-169.986099 114.492943 11.005733
-169.986099 114.492943 11.005733
-170.927399 115.161369 10.394044
-170.927399 115.161369 10.394044
-172.070480 115.945053 9.624861
-172.070480 115.945053 9.624861
-173.589890 117.151154 8.470495
-173.589890 117.151154 8.470495
-174.546661 117.910637 7.767185
-174.546661 117.910629 7.767185
-176.109955 119.321236 6.611527
-176.109955 119.321236 6.611527
-177.498825 120.583466 5.716197
-177.498825 120.583466 5.716197
-178.609375 121.643364 5.040097
-178.609375 121.643364 5.040097
-180.741394 123.607193 3.828231
-180.741394 123.607193 3.828231
-181.024765 123.867668 3.661359
-181.024765 123.867668 3.661359
-183.278305 125.798653 2.222045
-183.278290 125.798630 2.222054
-183.790787 126.168167 1.868719
-183.790787 126.168167 1.868719
-185.453323 127.245720 0.530242
-185.453323 127.245720 0.530242
-186.525681 127.809265 -0.468176
-186.525681 127.809265 -0.468176
-187.648270 128.335526 -1.632238
-187.648270 128.335526 -1.632238
-189.146362 128.931244 -3.260828
-189.146362 128.931244 -3.260828
-189.988541 129.237503 -4.192480
-189.988541 129.237503 -4.192480
-191.771286 129.846985 -6.105202
-191.771271 129.846985 -6.105203
-192.571869 130.128494 -6.937445
-192.571869 130.128494 -6.937445
-194.420013 130.784973 -8.722290
-194.420013 130.784973 -8.722290
-195.418884 131.136795 -9.619039
-195.418884 131.136795 -9.619039
-197.031387 131.634644 -10.969131
-197.031387 131.634644 -10.969131
-198.424118 131.997086 -12.095987
-198.424149 131.997086 -12.095974
-199.543152 132.216461 -12.974002
-199.543152 132.216461 -12.974002
-201.559067 132.430069 -14.495640
-201.559067 132.430069 -14.495640
-201.960175 132.451065 -14.796280
-201.960175 132.451065 -14.796280
-204.273422 132.374954 -16.405048
-204.273422 132.374954 -16.405048
-204.931320 132.329544 -16.880468
-204.931320 132.329544 -16.880468
-206.514359 132.142914 -17.998795
-206.514343 132.142914 -17.998793
-208.513306 131.795609 -19.465830
-208.513306 131.795609 -19.465830
-208.596329 131.779175 -19.532642
-208.596329 131.779175 -19.532642
-210.587524 131.235123 -20.958752
-210.587524 131.235123 -20.958752
-212.609772 130.560989 -22.333418
-212.609772 130.560989 -22.333418
-212.721649 130.525558 -22.416115
-212.721649 130.525558 -22.416115
-214.760925 129.878159 -23.634779
-214.760925 129.878159 -23.634779
-217.026886 129.347641 -24.634512
-217.026886 129.347641 -24.634512
-218.782883 129.130325 -25.531073
-218.782883 129.130325 -25.531073
-219.228165 129.090027 -25.784264
-219.228180 129.090057 -25.784264
-221.214401 128.794937 -26.752544
-221.214401 128.794937 -26.752544
-223.021515 128.257217 -27.663279
0 1
2 3
4 5
6 7
8 9
10 11
12 13
14 15
16 17
18 19
20 21
22 23
24 25
26 27
28 29
30 31
32 33
34 35
36 37
38 39
40 41
42 43
44 45
46 47
48 49
50 51
52 53
54 55
56 57
58 59
60 61
62 63
64 65
66 67
68 69
70 71
72 73
74 75
76 77
78 79
80 81
82 83
84 85
86 87
88 89
90 91
92 93
94 95
96 97
98 99
100 101
102 103
104 105
106 107
108 109
110 111
112 113
114 115
116 117
118 119
120 121
122 123
124 125
126 127
128 129
130 131
132 133
134 135
136 137
138 139
140 141
142 143
144 145
146 147
148 149
150 151
152 153
154 155
156 157
158 159
160 161
162 163
164 165
166 167
168 169
170 171
172 173
174 175
176 177
178 179
180 181
182 183
184 185
186 187
188 189
190 191
192 193
194 195
196 197
198 199
200 201
202 203
204 205
206 207
208 209
210 211
212 213
214 215
216 217
218 219
220 221
222 223
224 225
226 227
228 229
230 231
232 233
234 235
236 237
238 239
240 241
242 243
244 245
246 247
248 249
250 251
252 253
254 255
256 257
258 259
260 261
262 263
264 265
266 267
268 269
270 271
272 273
274 275
276 277
278 279
280 281
282 283
284 285
286 287
288 289
290 291
292 293
294 295
296 297
298 299
