ply
format ascii 1.0
element vertex 312
property float x
property float y
property float z
element edge 156
property int vertex1
property int vertex2
end_header
-64.132568 16.263294 -136.571991
-64.056938 17.180742 -136.587051
-64.332542 14.320210 -136.567505
-64.132568 16.263294 -136.571991
-64.056938 17.180742 -136.587051
-63.937763 20.011721 -136.642944
-63.937763 20.011721 -136.642944
-63.928864 22.817104 -136.659119
-63.928864 22.817104 -136.659119
-63.990387 25.598923 -136.583618
-63.990387 25.598923 -136.583618
-64.111404 28.397308 -136.398407
-64.111404 28.397308 -136.398407
-64.323166 31.224121 -136.130829
-64.323166 31.224123 -136.130814
-64.675400 34.079697 -135.811890
-64.675407 34.079697 -135.811890
-64.808792 34.799423 -135.727890
-64.808792 34.799423 -135.727890
-65.288933 36.961033 -135.474335
-65.288933 36.961033 -135.474335
-66.273460 39.842014 -135.131958
-66.273460 39.842014 -135.131958
-66.324158 39.947430 -135.119156
-66.324158 39.947430 -135.119156
-67.678993 41.815720 -134.882706
-67.678986 41.815720 -134.882706
-68.969284 42.613785 -134.766296
-68.969292 42.613789 -134.766296
-70.207603 42.697800 -134.739731
-70.207603 42.697800 -134.739731
-71.378487 42.340252 -134.770828
-71.378487 42.340252 -134.770828
-72.487511 41.787468 -134.811050
-72.487495 41.787468 -134.811050
-73.544258 41.203712 -134.819473
-73.544258 41.203712 -134.819473
-74.571342 40.656422 -134.768051
-74.571342 40.656422 -134.768051
-75.633759 40.153881 -134.654633
-75.633766 40.153889 -134.654663
-76.399834 39.847160 -134.548615
-76.399834 39.847160 -134.548615
-76.741310 39.704475 -134.500381
-76.741310 39.704475 -134.500381
-77.911079 39.409920 -134.317657
-77.911079 39.409920 -134.317657
-79.116539 39.304928 -134.129791
-79.116539 39.304928 -134.129791
-80.322769 39.382179 -133.935333
-80.322769 39.382179 -133.935333
-81.534256 39.661823 -133.714127
-81.534256 39.661823 -133.714127
-81.610474 39.693447 -133.697952
-81.610474 39.693447 -133.697952
-82.748856 40.099854 -133.455444
-82.748848 40.099850 -133.455444
-83.976479 40.561462 -133.168839
-83.976479 40.561462 -133.168839
-85.229202 41.057430 -132.857330
-85.229202 41.057430 -132.857330
-86.528717 41.703018 -132.507065
-86.528725 41.703018 -132.507065
-87.204002 42.181919 -132.301712
-87.204002 42.181915 -132.301712
-87.903519 42.667698 -132.090927
-87.903519 42.667698 -132.090927
-89.245628 43.455166 -131.710663
-89.245628 43.455166 -131.710663
-90.608376 44.382496 -131.296814
-90.608376 44.382492 -131.296814
-90.964874 44.702400 -131.173264
-90.964874 44.702400 -131.173264
-92.013062 45.560741 -130.818130
-92.013062 45.560741 -130.818130
-93.383553 46.552277 -130.356125
-93.383553 46.552277 -130.356125
-94.133827 47.223705 -130.072205
-94.133827 47.223705 -130.072205
-94.845520 47.859520 -129.798111
-94.845528 47.859524 -129.798126
-96.297882 48.956436 -129.262589
-96.297882 48.956436 -129.262589
-97.128471 49.684731 -128.937973
-97.128471 49.684731 -128.937973
-97.860054 50.327385 -128.654053
-97.860054 50.327385 -128.654053
-99.402550 51.534061 -128.089264
-99.402550 51.534073 -128.089264
-100.045990 52.117599 -127.840210
-100.045990 52.117599 -127.840210
-101.002106 52.967159 -127.470764
-101.002106 52.967159 -127.470764
-102.569588 54.308037 -126.857628
-102.569588 54.308037 -126.857628
-102.805397 54.536736 -126.757416
-102.805397 54.536736 -126.757416
-104.163727 55.745995 -126.183563
-104.163727 55.745995 -126.183563
-105.464737 56.926140 -125.610130
-105.464737 56.926140 -125.610130
-105.827095 57.261742 -125.447273
-105.827095 57.261742 -125.447273
-107.516525 58.685459 -124.715439
-107.516525 58.685459 -124.715439
-108.144615 59.275352 -124.432411
-108.144615 59.275352 -124.432411
-109.311623 60.306847 -123.923485
-109.311623 60.306847 -123.923485
-110.698212 61.613117 -123.301208
-110.698219 61.613121 -123.301201
-111.134804 62.041340 -123.097984
-111.134789 62.041336 -123.097984
-112.928810 63.848629 -122.211861
-112.928810 63.848629 -122.211861
-113.025467 63.959076 -122.158714
-113.025467 63.959076 -122.158714
-114.753784 65.878372 -121.167824
-114.753784 65.878372 -121.167824
-115.101334 66.300308 -120.947617
-115.101334 66.300308 -120.947617
-116.680107 68.206787 -119.896851
-116.680107 68.206787 -119.896851
-117.017799 68.622345 -119.661018
-117.017807 68.622345 -119.661018
-118.847435 70.887611 -118.351570
-118.847435 70.887611 -118.351570
-118.867599 70.911552 -118.337234
-118.867599 70.911552 -118.337234
-120.672791 73.180153 -117.031654
-120.672791 73.180153 -117.031654
-121.325272 73.950569 -116.573723
-121.325272 73.950569 -116.573723
-122.526909 75.414925 -115.730339
-122.526917 75.414917 -115.730331
-124.118988 77.398872 -114.617798
-124.118973 77.398880 -114.617790
-124.326309 77.633881 -114.477959
-124.326309 77.633865 -114.477959
-126.044121 79.840508 -113.268227
-126.044121 79.840508 -113.268227
-127.262062 81.317513 -112.425323
-127.262062 81.317513 -112.425323
-127.867325 82.005829 -112.016457
-127.867325 82.005829 -112.016457
-129.572968 84.184906 -110.825241
-129.572968 84.184898 -110.825241
-130.744217 85.555954 -110.044334
-130.744217 85.555954 -110.044334
-131.438721 86.318611 -109.596519
-131.438721 86.318611 -109.596519
-133.208984 88.458649 -108.435913
-133.208984 88.458649 -108.435913
-134.506485 89.911415 -107.611633
-134.506485 89.911415 -107.611633
-135.102890 90.522568 -107.240913
-135.102905 90.522575 -107.240929
-136.938782 92.547859 -106.055710
-136.938782 92.547859 -106.055710
-138.471634 94.141754 -105.058212
-138.471634 94.141754 -105.058212
-138.854034 94.496696 -104.814682
-138.854034 94.496696 -104.814682
-140.766068 96.410194 -103.549034
-140.766068 96.410187 -103.549034
-142.570648 98.159912 -102.352631
-142.570618 98.159897 -102.352631
-142.723877 98.291283 -102.254951
-142.723877 98.291283 -102.254951
-144.725372 100.127922 -100.929955
-144.725372 100.127922 -100.929955
-146.292465 101.464111 -99.880966
-146.292465 101.464111 -99.880966
-146.866379 101.858627 -99.511208
-146.866379 101.858627 -99.511208
-149.032318 103.153954 -98.104530
-149.032318 103.153954 -98.104530
-149.516251 103.320076 -97.817192
-149.516251 103.320076 -97.817192
-151.167358 103.752571 -96.868874
-151.167358 103.752571 -96.868874
-152.941605 103.726257 -96.029915
-152.941605 103.726257 -96.029915
-154.462814 103.315414 -95.470184
-154.462814 103.315414 -95.470184
-155.751617 102.576035 -95.144203
-155.751602 102.576035 -95.144196
-156.807098 101.495651 -95.046684
-156.807098 101.495651 -95.046684
-157.299301 100.524620 -95.172516
-157.299301 100.524620 -95.172516
-157.582184 100.007927 -95.233360
-157.582184 100.007927 -95.233360
-158.054108 98.171410 -95.682564
-158.054108 98.171410 -95.682564
-158.057587 97.983521 -95.745476
-158.057587 97.983536 -95.745468
-158.048538 95.891144 -96.400818
-158.048538 95.891144 -96.400818
-158.030350 95.779320 -96.439247
-158.030350 95.779320 -96.439247
-157.574356 93.672058 -97.143082
-157.574356 93.672058 -97.143082
-157.422272 92.954437 -97.358322
-157.422272 92.954437 -97.358322
-156.966644 91.554314 -97.820335
-156.966644 91.554314 -97.820335
-156.156403 89.464912 -98.527634
-156.156403 89.464912 -98.527634
-156.021561 89.068817 -98.652092
-156.021545 89.068825 -98.652100
-155.284134 87.381012 -99.238655
-155.284134 87.381012 -99.238655
-154.201172 85.352043 -100.004745
-154.201187 85.352028 -100.004738
-153.369263 83.687729 -100.603699
-153.369263 83.687729 -100.603699
-153.185410 83.297226 -100.738892
-153.185410 83.297226 -100.738892
-152.005554 81.275414 -101.513611
-152.005554 81.275414 -101.513611
-150.685043 79.266609 -102.328865
-150.685089 79.266624 -102.328873
-149.333176 77.232056 -103.163841
-149.333176 77.232056 -103.163841
-147.993576 75.154945 -104.020874
-147.993576 75.154945 -104.020874
-146.682037 73.034462 -104.911644
-146.682022 73.034470 -104.911636
-145.384888 70.893089 -105.837738
-145.384903 70.893089 -105.837746
-144.081375 68.735115 -106.791885
-144.081375 68.735115 -106.791885
-142.773941 66.557426 -107.755615
-142.773941 66.557426 -107.755615
-141.479401 64.347878 -108.708366
-141.479401 64.347885 -108.708366
-140.215942 62.098152 -109.644432
-140.215942 62.098152 -109.644432
-138.992493 59.810474 -110.564873
-138.992493 59.810474 -110.564873
-137.810822 57.487103 -111.473885
-137.810822 57.487099 -111.473885
-136.668579 55.130058 -112.378181
-136.668579 55.130058 -112.378181
-135.560684 52.744064 -113.286804
-135.560684 52.744064 -113.286804
-134.487045 50.333824 -114.206680
-134.487045 50.333820 -114.206688
-133.460358 47.904297 -115.137535
-133.460358 47.904297 -115.137535
-132.510193 45.460220 -116.060471
-132.510193 45.460220 -116.060471
-132.132034 44.367409 -116.454750
-132.132034 44.367409 -116.454750
-131.669693 42.997086 -116.947945
-131.669693 42.997086 -116.947945
-131.593719 42.740849 -117.034645
-131.593719 42.740849 -117.034645
-130.955139 40.511154 -117.782608
-130.955139 40.511154 -117.782608
-130.369324 38.004868 -118.558464
-130.369324 38.004875 -118.558456
-129.919281 35.485451 -119.264748
-129.919281 35.485451 -119.264748
-129.688828 33.181530 -119.803764
-129.688828 33.181530 -119.803764
-129.682877 32.945984 -119.848244
-129.682877 32.945984 -119.848244
-129.837738 30.389370 -120.194473
-129.837738 30.389370 -120.194473
-129.848907 30.341576 -120.196129
-129.848877 30.341572 -120.196098
-130.362564 28.802479 -120.160118
-130.362564 28.802479 -120.160118
-131.071228 27.852055 -119.910263
-131.071228 27.852055 -119.910263
-131.639297 27.444201 -119.641388
-131.639297 27.444199 -119.641380
-131.876083 27.275047 -119.526176
-131.876099 27.275047 -119.526176
-132.773239 26.998943 -119.017082
-132.773239 26.998943 -119.017082
-133.755936 26.952776 -118.406921
-133.755936 26.952776 -118.406921
-134.214661 27.013372 -118.109184
-134.214645 27.013372 -118.109184
-134.814835 27.080320 -117.723770
-134.814835 27.080320 -117.723770
-135.917023 27.306038 -117.009552
-135.917023 27.306038 -117.009552
-137.039368 27.595078 -116.280876
-137.039368 27.595078 -116.280876
-138.176071 27.932007 -115.538628
-138.176056 27.932011 -115.538628
-139.327133 28.317865 -114.778824
-139.327133 28.317865 -114.778824
-140.150681 28.618368 -114.230370
-140.150726 28.618368 -114.230385
-140.492157 28.736612 -114.003899
-140.492157 28.736612 -114.003899
-141.633560 29.066549 -113.257034
-141.633560 29.066549 -113.257034
-142.759171 29.325371 -112.533218
-142.759171 29.325371 -112.533218
-143.878937 29.525692 -111.828323
-143.878937 29.525692 -111.828323
-145.010880 29.663485 -111.140312
-145.010910 29.663488 -111.140335
-146.165970 29.725105 -110.472466
-146.165970 29.725105 -110.472466
-147.352509 29.687653 -109.826767
0 1
2 3
4 5
6 7
8 9
10 11
12 13
14 15
16 17
18 19
20 21
22 23
24 25
26 27
28 29
30 31
32 33
34 35
36 37
38 39
40 41
42 43
44 45
46 47
48 49
50 51
52 53
54 55
56 57
58 59
60 61
62 63
64 65
66 67
68 69
70 71
72 73
74 75
76 77
78 79
80 81
82 83
84 85
86 87
88 89
90 91
92 93
94 95
96 97
98 99
100 101
102 103
104 105
106 107
108 109
110 111
112 113
114 115
116 117
118 119
120 121
122 123
124 125
126 127
128 129
130 131
132 133
134 135
136 137
138 139
140 141
142 143
144 145
146 147
148 149
150 151
152 153
154 155
156 157
158 159
160 161
162 163
164 165
166 167
168 169
170 171
172 173
174 175
176 177
178 179
180 181
182 183
184 185
186 187
188 189
190 191
192 193
194 195
196 197
198 199
200 201
202 203
204 205
206 207
208 209
210 211
212 213
214 215
216 217
218 219
220 221
222 223
224 225
226 227
228 229
230 231
232 233
234 235
236 237
238 239
240 241
242 243
244 245
246 247
248 249
250 251
252 253
254 255
256 257
258 259
260 261
262 263
264 265
266 267
268 269
270 271
272 273
274 275
276 277
278 279
280 281
282 283
284 285
286 287
288 289
290 291
292 293
294 295
296 297
298 299
300 301
302 303
304 305
306 307
308 309
310 311
