ply
format ascii 1.0
element vertex 398
property float x
property float y
property float z
element edge 199
property int vertex1
property int vertex2
end_header
-57.563740 16.764166 -136.393967
-57.343437 13.948789 -136.133469
-57.749771 19.219543 -136.527054
-57.563740 16.764166 -136.393967
-57.771267 19.594418 -136.539337
-57.749771 19.219543 -136.527054
-57.958004 22.436356 -136.568817
-57.771267 19.594418 -136.539337
-58.161240 25.289738 -136.490860
-57.958004 22.436356 -136.568817
-58.389187 28.158958 -136.320862
-58.161240 25.289738 -136.490860
-58.646732 31.042389 -136.080933
-58.389187 28.158958 -136.320862
-58.802216 32.560902 -135.933548
-58.646740 31.042391 -136.080917
-58.941303 33.936165 -135.790527
-58.802216 32.560902 -135.933548
-59.260731 36.835381 -135.466461
-58.941307 33.936172 -135.790543
-59.634640 39.737816 -135.119186
-59.260731 36.835381 -135.466461
-60.117886 42.646511 -134.755905
-59.634640 39.737816 -135.119186
-60.361576 43.757935 -134.614334
-60.117886 42.646503 -134.755905
-60.788368 45.562092 -134.384766
-60.361576 43.757935 -134.614334
-61.649948 48.461605 -134.010818
-60.788368 45.562092 -134.384766
-61.964203 49.269924 -133.899628
-61.649948 48.461605 -134.010818
-62.920063 51.307083 -133.590622
-61.964203 49.269924 -133.899628
-63.456692 52.206947 -133.434113
-62.920063 51.307083 -133.590622
-64.864418 53.801655 -133.100281
-63.456692 52.206947 -133.434113
-65.243958 54.057877 -133.032913
-64.864410 53.801670 -133.100281
-66.208435 54.594387 -132.871292
-65.243958 54.057877 -133.032913
-67.500221 54.762123 -132.745575
-66.208435 54.594387 -132.871292
-68.755806 54.495510 -132.700623
-67.500221 54.762123 -132.745575
-69.916367 53.877853 -132.733398
-68.755806 54.495502 -132.700623
-69.972641 53.846508 -132.735199
-69.916367 53.877853 -132.733398
-71.158150 52.934803 -132.830048
-69.972633 53.846512 -132.735214
-72.319160 51.988094 -132.936310
-71.158150 52.934803 -132.830048
-73.339622 50.946243 -133.071686
-72.319160 51.988094 -132.936310
-73.428055 50.844070 -133.085510
-73.339622 50.946243 -133.071686
-74.500282 49.724331 -133.211594
-73.428047 50.844067 -133.085510
-75.560150 48.783276 -133.259415
-74.500282 49.724331 -133.211594
-76.287796 48.079540 -133.279404
-75.560150 48.783276 -133.259415
-76.613861 47.748272 -133.285858
-76.287796 48.079540 -133.279404
-77.721329 46.986721 -133.218826
-76.613884 47.748272 -133.285873
-78.890663 46.475445 -133.087418
-77.721329 46.986721 -133.218826
-80.089798 46.138248 -132.934433
-78.890663 46.475445 -133.087418
-81.292198 45.976307 -132.760361
-80.089790 46.138248 -132.934418
-82.500229 45.995014 -132.551743
-81.292198 45.976307 -132.760361
-83.715187 46.174149 -132.299667
-82.500229 45.995014 -132.551743
-84.961411 46.484604 -132.001160
-83.715179 46.174149 -132.299667
-86.257423 46.960926 -131.655319
-84.961411 46.484604 -132.001160
-87.304710 47.589077 -131.333542
-86.257423 46.960926 -131.655319
-87.651314 47.820236 -131.224365
-87.304710 47.589077 -131.333542
-89.062675 48.655144 -130.812775
-87.651306 47.820236 -131.224365
-90.470627 49.512566 -130.412979
-89.062675 48.655144 -130.812775
-91.152962 50.102283 -130.188599
-90.470627 49.512566 -130.412979
-91.955818 50.796246 -129.922424
-91.152962 50.102283 -130.188599
-93.369408 51.852226 -129.465118
-91.955818 50.796246 -129.922424
-94.181999 52.623528 -129.155334
-93.369408 51.852226 -129.465118
-94.872406 53.284500 -128.880493
-94.181999 52.623528 -129.155334
-96.361443 54.473282 -128.302429
-94.872406 53.284500 -128.880493
-96.993828 55.078136 -128.031647
-96.361435 54.473282 -128.302429
-97.976471 55.969265 -127.615456
-96.993820 55.078133 -128.031631
-99.602013 57.292488 -126.957840
-97.976471 55.969265 -127.615456
-99.798607 57.482742 -126.873169
-99.602013 57.292488 -126.957840
-101.270538 58.744217 -126.271599
-99.798607 57.482742 -126.873169
-102.540634 59.871799 -125.738480
-101.270546 58.744228 -126.271614
-102.957466 60.269882 -125.555107
-102.540634 59.871799 -125.738480
-104.593887 61.601177 -124.869881
-102.957466 60.269882 -125.555107
-105.276772 62.238770 -124.558830
-104.593887 61.601177 -124.869881
-106.317886 63.165867 -124.087601
-105.276772 62.238785 -124.558838
-107.996880 64.579796 -123.338173
-106.317886 63.165867 -124.087601
-108.058762 64.638306 -123.309067
-107.996880 64.579796 -123.338173
-109.831451 66.108994 -122.520576
-108.058762 64.638306 -123.309067
-110.689743 66.891724 -122.120934
-109.831451 66.108994 -122.520576
-111.692482 67.805305 -121.648605
-110.689743 66.891724 -122.120934
-113.177719 69.189941 -120.919044
-111.692482 67.805305 -121.648605
-113.561417 69.577133 -120.716927
-113.177719 69.189949 -120.919044
-115.446823 71.473465 -119.670021
-113.561394 69.577133 -120.716927
-115.456390 71.483810 -119.664276
-115.446823 71.473465 -119.670021
-117.487312 73.720589 -118.384789
-115.456390 71.483810 -119.664276
-117.508698 73.744659 -118.370659
-117.487312 73.720589 -118.384789
-119.423004 76.004776 -117.058037
-117.508698 73.744659 -118.370659
-119.775116 76.406982 -116.815643
-119.422997 76.004784 -117.058014
-121.295975 78.239754 -115.746101
-119.775116 76.406982 -116.815643
-122.408524 79.573456 -114.966179
-121.295975 78.239746 -115.746109
-123.150116 80.447792 -114.450104
-122.408524 79.573456 -114.966179
-124.821129 82.671425 -113.236954
-123.150116 80.447792 -114.450104
-125.598557 83.649139 -112.686813
-124.821129 82.671425 -113.236954
-126.565773 84.864990 -112.006828
-125.598557 83.649139 -112.686813
-128.140930 87.091766 -110.867363
-126.565773 84.864967 -112.006828
-129.735092 89.307533 -109.757149
-128.140930 87.091766 -110.867363
-130.013733 89.720093 -109.561073
-129.735092 89.307533 -109.757149
-131.234482 91.506912 -108.705307
-130.013718 89.720093 -109.561089
-132.530472 93.703300 -107.710541
-131.234497 91.506912 -108.705330
-133.539505 95.908638 -106.760078
-132.530472 93.703300 -107.710541
-133.683182 96.458763 -106.551529
-133.539505 95.908638 -106.760078
-133.909195 98.257462 -105.932304
-133.683197 96.458771 -106.551529
-133.667450 99.288689 -105.715599
-133.909195 98.257462 -105.932281
-132.746414 100.541229 -105.713211
-133.667450 99.288689 -105.715599
-131.594223 101.382805 -105.943932
-132.746414 100.541229 -105.713211
-131.392838 101.490082 -105.997322
-131.594223 101.382805 -105.943932
-130.327484 102.009995 -106.297928
-131.392838 101.490082 -105.997322
-129.009552 102.532509 -106.711761
-130.327484 102.009995 -106.297928
-127.679977 103.030006 -107.141739
-129.009552 102.532509 -106.711761
-126.360649 103.550140 -107.562737
-127.679993 103.030006 -107.141747
-125.067635 104.112473 -107.959404
-126.360649 103.550140 -107.562737
-123.805771 104.710785 -108.320129
-125.067635 104.112473 -107.959404
-122.571899 105.338882 -108.633263
-123.805771 104.710785 -108.320129
-121.377396 106.027420 -108.869301
-122.571899 105.338882 -108.633263
-120.287216 106.992210 -108.933022
-121.377396 106.027420 -108.869301
-120.175102 107.184578 -108.906723
-120.287216 106.992210 -108.933022
-119.276337 108.213837 -108.842361
-120.175102 107.184578 -108.906723
-118.092453 109.156685 -108.873268
-119.276344 108.213821 -108.842361
-117.162582 110.448242 -108.692177
-118.092453 109.156685 -108.873268
-117.104805 110.594032 -108.656227
-117.162575 110.448227 -108.692184
-116.082161 111.963020 -108.461746
-117.104805 110.594032 -108.656227
-115.128448 113.489899 -108.157936
-116.082161 111.963005 -108.461739
-114.198608 115.086617 -107.776649
-115.128418 113.489929 -108.157913
-115.128418 113.489929 -108.157913
-115.128448 113.489899 -108.157936
-113.604225 116.367348 -107.389076
-114.198608 115.086617 -107.776649
-113.378723 116.997551 -107.167374
-113.604225 116.367348 -107.389076
-112.427109 118.696091 -106.666969
-113.378723 116.997543 -107.167374
-112.267471 119.186081 -106.478912
-112.427109 118.696091 -106.666969
-111.636322 120.805466 -105.877068
-112.267464 119.186073 -106.478928
-111.289337 121.883110 -105.427002
-111.636322 120.805466 -105.877068
-110.957863 123.064758 -104.878464
-111.289337 121.883110 -105.427002
-110.603325 124.390900 -104.185829
-110.957863 123.064751 -104.878456
-110.386047 125.377335 -103.590279
-110.603325 124.390900 -104.185829
-110.082184 126.703461 -102.696983
-110.386047 125.377335 -103.590279
-109.867157 127.801170 -101.862961
-110.082191 126.703461 -102.696991
-109.616287 128.903336 -100.975189
-109.867157 127.801170 -101.862961
-109.340370 130.483276 -99.621834
-109.616287 128.903336 -100.975189
-109.191345 131.089920 -99.115532
-109.340370 130.483276 -99.621841
-108.942230 133.318573 -97.229652
-109.191345 131.089920 -99.115532
-108.885254 133.702103 -96.927567
-108.942223 133.318558 -97.229660
-108.706192 135.664917 -95.420471
-108.885254 133.702103 -96.927567
-108.677452 137.328003 -94.181183
-108.706192 135.664917 -95.420471
-108.638603 138.045395 -93.676292
-108.677452 137.328003 -94.181183
-108.780716 140.287933 -91.946098
-108.638603 138.045395 -93.676292
-108.815582 141.026642 -91.343529
-108.780724 140.287949 -91.946114
-108.832993 142.351151 -90.184700
-108.815590 141.026642 -91.343536
-108.889503 144.045959 -88.410965
-108.832993 142.351151 -90.184700
-108.874046 144.168335 -88.274010
-108.889503 144.045959 -88.410965
-108.668648 145.846573 -86.158684
-108.874046 144.168335 -88.274010
-108.535629 146.487366 -85.277519
-108.668648 145.846573 -86.158684
-108.155342 147.517700 -83.870216
-108.535629 146.487366 -85.277519
-107.775696 148.514557 -82.498398
-108.155342 147.517700 -83.870216
-107.370422 149.238449 -81.568489
-107.775681 148.514557 -82.498390
-106.854080 150.160324 -80.378220
-107.370422 149.238449 -81.568489
-106.191475 150.981964 -79.389343
-106.854080 150.160324 -80.378220
-105.851997 151.381287 -78.874161
-106.191475 150.981964 -79.389343
-104.741516 152.266525 -77.801765
-105.851997 151.381287 -78.874161
-104.019104 152.698822 -77.287476
-104.741524 152.266541 -77.801765
-103.539284 152.966583 -76.945808
-104.019081 152.698822 -77.287476
-102.240479 153.530045 -76.302002
-103.539284 152.966583 -76.945808
-100.872238 154.017365 -75.792961
-102.240479 153.530045 -76.302002
-99.466576 154.467056 -75.359924
-100.872231 154.017365 -75.792953
-98.201561 154.843002 -75.030037
-99.466583 154.467087 -75.359940
-98.039772 154.890213 -74.989136
-98.201561 154.843002 -75.030037
-96.586464 155.270386 -74.724861
-98.039772 154.890213 -74.989136
-95.096634 155.606583 -74.565552
-96.586464 155.270386 -74.724861
-93.558075 155.918701 -74.496269
-95.096634 155.606567 -74.565559
-91.970795 156.229523 -74.511894
-93.558075 155.918701 -74.496269
-90.343117 156.556366 -74.614090
-91.970795 156.229523 -74.511894
-88.723618 156.863480 -74.821785
-90.343102 156.556351 -74.614082
-87.099419 157.077942 -75.159935
-88.723618 156.863480 -74.821785
-86.980286 157.086090 -75.193947
-87.099419 157.077942 -75.159935
-85.409988 157.117798 -75.694717
-86.980286 157.086090 -75.193947
-83.604767 156.985062 -76.393364
-85.409988 157.117813 -75.694725
-81.616219 156.705429 -77.302879
-83.604767 156.985062 -76.393364
-81.079956 156.609558 -77.581802
-81.616219 156.705429 -77.302879
-79.368996 156.208221 -78.636444
-81.079971 156.609589 -77.581787
-77.533195 155.683243 -79.879211
-79.368996 156.208221 -78.636444
-76.851158 155.401352 -80.444435
-77.533195 155.683243 -79.879211
-74.962807 154.486404 -82.059204
-76.851158 155.401352 -80.444435
-73.586388 153.535034 -83.493141
-74.962807 154.486404 -82.059204
-72.910446 153.045807 -84.186966
-73.586388 153.535049 -83.493134
-71.207924 151.455887 -86.305435
-72.910446 153.045807 -84.186966
-69.791473 149.785049 -88.448578
-71.207924 151.455887 -86.305435
-68.609413 148.086258 -90.593826
-69.791473 149.785049 -88.448578
-67.623749 146.343781 -92.714272
-68.609413 148.086258 -90.593826
-66.805038 144.529968 -94.795624
-67.623749 146.343781 -92.714264
-66.131050 142.616959 -96.839737
-66.805038 144.529968 -94.795624
-65.704964 141.145065 -98.332413
-66.131050 142.616959 -96.839737
-65.546303 140.604752 -98.866920
-65.704964 141.145065 -98.332420
-64.937767 138.527969 -100.862915
-65.546303 140.604752 -98.866920
-64.263474 136.402313 -102.805115
-64.937767 138.527969 -100.862915
-63.417313 134.231339 -104.656151
-64.263474 136.402313 -102.805115
-62.238232 132.008881 -106.388855
-63.417309 134.231354 -104.656128
-61.355469 130.874298 -107.198288
-62.238232 132.008881 -106.388855
-60.113026 129.756210 -107.937813
-61.355469 130.874313 -107.198296
-58.834785 129.092987 -108.316383
-60.113026 129.756210 -107.937813
-56.904518 128.908157 -108.254700
-58.834785 129.092987 -108.316383
-55.189404 129.393906 -107.685600
-56.904518 128.908157 -108.254700
-54.142860 130.022995 -107.073349
-55.189400 129.393906 -107.685585
-53.626057 130.386078 -106.728516
-54.142860 130.022995 -107.073349
-52.205563 131.810760 -105.424553
-53.626060 130.386093 -106.728516
-51.667744 132.488815 -104.805519
-52.205563 131.810760 -105.424553
-50.932690 133.600052 -103.783676
-51.667744 132.488815 -104.805519
-50.228146 134.835358 -102.623779
-50.932690 133.600052 -103.783676
-49.802013 135.731415 -101.775162
-50.228146 134.835358 -102.623795
-49.199352 137.130783 -100.444527
-49.802013 135.731415 -101.775162
-48.788513 138.275055 -99.365318
-49.199352 137.130783 -100.444527
-48.408749 139.415329 -98.295334
-48.788513 138.275055 -99.365318
-47.911785 141.209915 -96.632660
-48.408749 139.415329 -98.295334
-47.780956 141.702988 -96.179085
-47.911785 141.209915 -96.632660
-47.305901 144.000748 -94.098152
-47.780949 141.702972 -96.179092
-47.219883 144.468185 -93.680702
-47.305901 144.000748 -94.098152
0 1
2 3
4 5
6 7
8 9
10 11
12 13
14 15
16 17
18 19
20 21
22 23
24 25
26 27
28 29
30 31
32 33
34 35
36 37
38 39
40 41
42 43
44 45
46 47
48 49
50 51
52 53
54 55
56 57
58 59
60 61
62 63
64 65
66 67
68 69
70 71
72 73
74 75
76 77
78 79
80 81
82 83
84 85
86 87
88 89
90 91
92 93
94 95
96 97
98 99
100 101
102 103
104 105
106 107
108 109
110 111
112 113
114 115
116 117
118 119
120 121
122 123
124 125
126 127
128 129
130 131
132 133
134 135
136 137
138 139
140 141
142 143
144 145
146 147
148 149
150 151
152 153
154 155
156 157
158 159
160 161
162 163
164 165
166 167
168 169
170 171
172 173
174 175
176 177
178 179
180 181
182 183
184 185
186 187
188 189
190 191
192 193
194 195
196 197
198 199
200 201
202 203
204 205
206 207
208 209
210 211
212 213
214 215
216 217
218 219
220 221
222 223
224 225
226 227
228 229
230 231
232 233
234 235
236 237
238 239
240 241
242 243
244 245
246 247
248 249
250 251
252 253
254 255
256 257
258 259
260 261
262 263
264 265
266 267
268 269
270 271
272 273
274 275
276 277
278 279
280 281
282 283
284 285
286 287
288 289
290 291
292 293
294 295
296 297
298 299
300 301
302 303
304 305
306 307
308 309
310 311
312 313
314 315
316 317
318 319
320 321
322 323
324 325
326 327
328 329
330 331
332 333
334 335
336 337
338 339
340 341
342 343
344 345
346 347
348 349
350 351
352 353
354 355
356 357
358 359
360 361
362 363
364 365
366 367
368 369
370 371
372 373
374 375
376 377
378 379
380 381
382 383
384 385
386 387
388 389
390 391
392 393
394 395
396 397
