ply
format ascii 1.0
element vertex 46
property float x
property float y
property float z
element edge 23
property int vertex1
property int vertex2
end_header
-213.350189 122.452309 -9.345325
-215.204727 122.312263 -10.380099
-212.627991 122.445923 -8.894899
-213.350189 122.452309 -9.345325
-215.204727 122.312263 -10.380099
-217.857071 121.913933 -11.658802
-209.979767 122.216042 -7.140497
-212.627945 122.445892 -8.894898
-209.656815 122.163956 -6.914222
-209.979767 122.216042 -7.140497
-207.034958 121.544609 -4.929880
-209.656815 122.163956 -6.914222
-206.617798 121.434258 -4.603049
-207.034958 121.544609 -4.929880
-203.974014 120.560173 -2.272791
-206.617798 121.434258 -4.603049
-203.556686 120.386017 -1.849663
-203.974014 120.560173 -2.272791
-201.767120 119.582825 0.059390
-203.556686 120.386017 -1.849663
-199.946167 118.467842 2.232324
-201.767151 119.582840 0.059379
-198.473099 117.143295 4.127030
-199.946167 118.467842 2.232324
-197.333862 115.592812 5.661286
-198.473099 117.143295 4.127030
-196.478271 113.740898 6.874386
-197.333862 115.592812 5.661286
-196.181259 112.548004 7.467201
-196.478271 113.740898 6.874386
-195.965317 111.555054 7.919547
-196.181259 112.548004 7.467201
-195.892014 109.995674 8.556030
-195.965317 111.555054 7.919547
-195.879166 109.151306 8.895745
-195.892014 109.995674 8.556030
-196.046753 108.073044 9.299151
-195.879181 109.151306 8.895738
-196.346558 106.650154 9.825548
-196.046753 108.073044 9.299151
-196.411591 106.482391 9.879955
-196.346558 106.650154 9.825548
-197.072540 105.283051 10.188126
-196.411606 106.482414 9.879957
-197.837982 104.175591 10.347558
-197.072540 105.283051 10.188126
0 1
2 3
4 5
6 7
8 9
10 11
12 13
14 15
16 17
18 19
20 21
22 23
24 25
26 27
28 29
30 31
32 33
34 35
36 37
38 39
40 41
42 43
44 45
