ply
format ascii 1.0
element vertex 26
property float x
property float y
property float z
element edge 13
property int vertex1
property int vertex2
end_header
-49.066322 14.362107 -134.653534
-48.164028 15.823655 -134.499969
-49.972794 13.022070 -134.852188
-49.066322 14.362108 -134.653580
-48.164028 15.823655 -134.499969
-47.756817 16.432920 -134.434021
-47.756817 16.432922 -134.434021
-46.457458 18.498787 -134.228622
-46.457458 18.498787 -134.228622
-46.393147 18.612446 -134.218277
-46.393147 18.612446 -134.218277
-45.162155 20.623741 -133.978561
-45.162155 20.623741 -133.978561
-44.713474 21.401718 -133.873154
-44.713474 21.401718 -133.873154
-43.848309 22.821526 -133.634415
-43.848309 22.821526 -133.634415
-42.994408 24.199867 -133.363602
-42.994408 24.199867 -133.363602
-42.473122 25.025040 -133.187134
-42.473122 25.025040 -133.187134
-41.135494 27.025011 -132.720306
-41.135494 27.025011 -132.720306
-41.050259 27.155758 -132.690079
-41.050259 27.155758 -132.690079
-39.593014 29.233124 -132.181793
0 1
2 3
4 5
6 7
8 9
10 11
12 13
14 15
16 17
18 19
20 21
22 23
24 25
