ply
format ascii 1.0
element vertex 468
property float x
property float y
property float z
element edge 234
property int vertex1
property int vertex2
end_header
-120.978241 111.864273 -106.898315
-120.898239 112.017700 -106.859955
-122.113464 110.829315 -106.943314
-120.978241 111.864288 -106.898331
-120.898239 112.017700 -106.859955
-119.938622 113.180733 -106.679070
-123.363167 110.123802 -106.780426
-122.113464 110.829315 -106.943314
-119.938622 113.180733 -106.679070
-118.771896 114.256416 -106.599426
-124.627258 109.519333 -106.523705
-123.363167 110.123802 -106.780426
-118.771896 114.256416 -106.599426
-118.283005 115.156509 -106.353378
-125.931038 108.990929 -106.176117
-124.627258 109.519333 -106.523705
-118.283005 115.156509 -106.353378
-117.882614 115.940498 -106.117966
-127.301224 108.565483 -105.736359
-125.931038 108.990929 -106.176117
-117.882645 115.940506 -106.117950
-116.824791 117.273094 -105.827187
-128.751740 108.253250 -105.217789
-127.301224 108.565483 -105.736359
-116.824791 117.273094 -105.827187
-116.523727 118.014023 -105.544792
-130.270538 108.045197 -104.647789
-128.751740 108.253250 -105.217789
-116.523727 118.014023 -105.544800
-115.993690 119.161804 -105.107941
-131.844025 107.935463 -104.038490
-130.270538 108.045189 -104.647797
-115.993690 119.161804 -105.107941
-115.258453 120.719490 -104.493767
-133.484421 107.941254 -103.380447
-131.844025 107.935463 -104.038490
-115.258453 120.719490 -104.493767
-115.137489 121.097778 -104.319542
-135.229309 108.120743 -102.642914
-133.484421 107.941254 -103.380447
-115.137489 121.097771 -104.319534
-114.306763 123.105591 -103.473160
-135.400223 108.146591 -102.568855
-135.229309 108.120743 -102.642914
-114.306763 123.105591 -103.473160
-114.227547 123.412918 -103.321564
-137.053665 108.410172 -101.849586
-135.400223 108.146591 -102.568855
-114.227547 123.412918 -103.321564
-113.701073 125.458946 -102.272430
-138.892090 108.693474 -101.048561
-137.053665 108.410172 -101.849586
-113.701073 125.458946 -102.272430
-113.603050 125.936989 -101.999435
-140.642029 109.060898 -100.246429
-138.892090 108.693474 -101.048561
-113.603050 125.936981 -101.999443
-113.321091 127.973801 -100.657578
-140.829926 109.118622 -100.153938
-140.642029 109.060898 -100.246429
-113.321091 127.973801 -100.657562
-113.276390 128.226395 -100.477226
-142.851379 109.669220 -99.144043
-140.829910 109.118622 -100.153938
-113.276390 128.226395 -100.477226
-113.140030 130.343933 -98.743645
-144.443649 110.188026 -98.263626
-142.851379 109.669220 -99.144043
-113.140030 130.343933 -98.743645
-113.079414 130.749512 -98.394020
-145.032791 110.474907 -97.889275
-144.443649 110.188019 -98.263626
-113.079414 130.749512 -98.394020
-112.928337 132.429062 -96.870331
-147.066071 111.550102 -96.470520
-145.032791 110.474907 -97.889275
-112.928337 132.429047 -96.870331
-112.819290 133.881866 -95.536095
-147.743835 112.091789 -95.892860
-147.066071 111.550102 -96.470520
-112.819290 133.881866 -95.536095
-112.724510 134.566330 -94.931931
-148.963806 113.101433 -94.791206
-147.743835 112.091789 -95.892860
-112.724510 134.566330 -94.931931
-112.828529 136.766907 -93.007339
-150.399338 114.753075 -93.177536
-148.963806 113.101433 -94.791206
-112.828529 136.766907 -93.007339
-112.843147 138.041580 -91.979340
-151.518997 116.447464 -91.565178
-150.399338 114.753067 -93.177551
-112.843163 138.041580 -91.979340
-112.834602 139.039062 -91.198868
-152.396851 118.186272 -89.907433
-151.518997 116.447464 -91.565178
-112.834610 139.039062 -91.198875
-113.136322 141.132889 -89.403168
-153.109573 119.998367 -88.209976
-152.396851 118.186272 -89.907433
-113.136322 141.132889 -89.403168
-113.376335 142.877167 -87.713913
-153.715790 121.905243 -86.518333
-153.109558 119.998360 -88.209976
-113.376335 142.877167 -87.713913
-113.383141 143.018158 -87.568550
-153.966248 122.877434 -85.721619
-153.715790 121.905243 -86.518333
-113.383141 143.018158 -87.568550
-113.668045 144.606613 -85.577988
-154.260162 123.925255 -84.884132
-153.966248 122.877434 -85.721619
-113.668045 144.606613 -85.577988
-114.013153 145.982742 -83.345055
-154.806366 125.950035 -83.336327
-154.260162 123.925255 -84.884132
-114.013153 145.982742 -83.345055
-114.370949 147.217361 -80.938065
-155.295654 127.898964 -81.822876
-154.806366 125.950050 -83.336342
-114.370949 147.217361 -80.938065
-114.736130 148.158493 -78.837120
-155.538254 129.056900 -80.861603
-155.295654 127.898964 -81.822876
-114.736130 148.158493 -78.837120
-114.801109 148.338303 -78.424141
-155.659668 129.704102 -80.279480
-155.538254 129.056900 -80.861603
-114.801109 148.338303 -78.424141
-115.394676 149.365219 -75.865433
-155.968246 131.272690 -78.596313
-155.659668 129.704102 -80.279480
-115.394669 149.365219 -75.865448
-116.187431 150.353912 -73.273476
-156.200851 132.687561 -76.693840
-155.968246 131.272690 -78.596313
-116.187431 150.353912 -73.273476
-116.477242 150.633575 -72.528526
-156.319946 133.434921 -75.530312
-156.200851 132.687561 -76.693840
-116.477242 150.633575 -72.528526
-117.231125 151.367401 -70.644531
-156.364960 134.012360 -74.595749
-156.319946 133.434921 -75.530312
-117.231125 151.367401 -70.644531
-118.670784 152.387497 -67.994675
-156.577866 135.296234 -72.347237
-156.364960 134.012360 -74.595749
-118.670784 152.387497 -67.994675
-119.197380 152.619736 -67.290802
-156.944672 136.581985 -70.046516
-156.577866 135.296234 -72.347237
-119.197380 152.619736 -67.290802
-120.980064 153.045639 -65.361923
-157.659897 137.828888 -67.734123
-156.944656 136.581955 -70.046516
-120.980064 153.045639 -65.361923
-120.991753 153.046539 -65.351944
-120.991745 153.046524 -65.351936
-122.658905 153.048050 -64.103882
-158.561096 138.545410 -66.192444
-157.659897 137.828888 -67.734123
-122.658905 153.048050 -64.103882
-124.253876 152.889633 -63.183228
-159.132950 138.910065 -65.352104
-158.561096 138.545410 -66.192444
-124.253876 152.889633 -63.183228
-125.770004 152.634018 -62.476353
-160.514542 139.276657 -64.060120
-159.132950 138.910065 -65.352104
-125.769997 152.634018 -62.476349
-125.893822 152.606812 -62.427929
-162.317169 139.514465 -62.722363
-160.514542 139.276657 -64.060120
-125.893822 152.606812 -62.427929
-127.209518 152.257858 -61.974350
-162.326385 139.514679 -62.716927
-162.317169 139.514465 -62.722363
-127.209518 152.257858 -61.974350
-128.647385 151.754730 -61.653534
-164.108215 139.544449 -61.723484
-162.326385 139.514679 -62.716927
-128.647385 151.754730 -61.653534
-130.129517 151.193008 -61.441540
-165.892532 139.512100 -60.886391
-164.108215 139.544449 -61.723484
-130.129517 151.193024 -61.441540
-131.685120 150.653015 -61.283070
-167.677322 139.467270 -60.132553
-165.892502 139.512100 -60.886383
-131.685120 150.653015 -61.283070
-133.254761 150.218231 -61.136288
-168.167648 139.460037 -59.927769
-167.677322 139.467270 -60.132553
-133.254761 150.218231 -61.136288
-134.752594 149.865738 -61.002243
-169.458282 139.407211 -59.440628
-168.167648 139.460037 -59.927769
-134.752579 149.865738 -61.002247
-136.171631 149.525055 -60.897057
-171.218857 139.283630 -58.846867
-169.458282 139.407211 -59.440628
-136.171631 149.525055 -60.897057
-137.521042 149.134247 -60.834717
-172.973511 139.110504 -58.306808
-171.218857 139.283630 -58.846867
-137.521042 149.134247 -60.834717
-138.885590 148.652084 -60.811199
-174.734940 138.909927 -57.781597
-172.973511 139.110504 -58.306808
-138.885590 148.652100 -60.811207
-140.290100 148.112625 -60.792770
-175.963242 138.764618 -57.412380
-174.734940 138.909927 -57.781597
-140.290100 148.112625 -60.792770
-141.736511 147.561722 -60.740452
-176.510910 138.700821 -57.244061
-175.963242 138.764618 -57.412380
-141.736511 147.561722 -60.740452
-142.603989 147.255051 -60.666283
-178.290741 138.451385 -56.754955
-176.510895 138.700821 -57.244061
-142.603989 147.255051 -60.666283
-143.223160 147.044495 -60.610996
-180.068192 138.167572 -56.315880
-178.290741 138.451385 -56.754955
-143.223160 147.044495 -60.610996
-144.735886 146.591644 -60.371254
-181.846573 137.863037 -55.901958
-180.068192 138.167572 -56.315880
-144.735886 146.591644 -60.371254
-144.757126 146.586166 -60.366188
-183.627350 137.542572 -55.501835
-181.846573 137.863037 -55.901958
-144.757126 146.586166 -60.366188
-146.289413 146.222763 -59.977825
-185.411774 137.201233 -55.124943
-183.627350 137.542572 -55.501835
-146.289413 146.222763 -59.977825
-147.904266 145.972870 -59.358658
-186.076157 137.056625 -55.016460
-185.411774 137.201233 -55.124943
-147.904266 145.972870 -59.358658
-149.603409 145.904724 -58.343529
-187.201813 136.826141 -54.805603
-186.076157 137.056625 -55.016479
-149.603409 145.904739 -58.343529
-150.684723 145.994980 -57.334583
-188.992599 136.384613 -54.630260
-187.201797 136.826126 -54.805603
-150.684723 145.994980 -57.334583
-151.414078 146.092606 -56.448040
-190.779724 135.845093 -54.697414
-188.992599 136.384613 -54.630260
-151.414078 146.092606 -56.448040
-152.245300 146.241608 -54.913013
-192.565048 135.179886 -55.142193
-190.779724 135.845093 -54.697414
-152.245300 146.241608 -54.913013
-153.132980 146.352890 -52.343529
-192.633896 135.148544 -55.176605
-192.565048 135.179886 -55.142193
-153.132980 146.352890 -52.343529
-153.227219 146.356537 -52.031525
-194.351395 134.429825 -55.997108
-192.633911 135.148544 -55.176590
-153.227219 146.356537 -52.031525
-153.779617 146.390915 -49.571793
-196.114319 133.594772 -57.377277
-194.351395 134.429825 -55.997108
-153.779617 146.390915 -49.571793
-154.343399 146.521057 -46.615993
-196.707184 133.262024 -58.044891
-196.114319 133.594772 -57.377277
-154.343399 146.521057 -46.615993
-154.833557 146.767151 -44.260628
-197.829147 132.689560 -59.139118
-196.707184 133.262024 -58.044891
-154.833557 146.767151 -44.260628
-154.954865 146.848892 -43.646317
-199.024673 131.929855 -60.583385
-197.829147 132.689575 -59.139111
-154.954865 146.848892 -43.646328
-155.569183 147.218567 -40.818607
-199.471207 131.658691 -61.030376
-199.024673 131.929855 -60.583385
-155.569183 147.218567 -40.818607
-156.169586 147.444000 -38.141853
-201.070648 130.463379 -62.755688
-199.471207 131.658691 -61.030376
-156.169586 147.444000 -38.141853
-156.436813 147.450012 -37.147110
-201.117554 130.420532 -62.810570
-201.070648 130.463379 -62.755688
-156.436813 147.450012 -37.147110
-156.822952 147.365906 -35.608841
-202.666992 129.116028 -64.198967
-201.117554 130.420532 -62.810570
-156.822952 147.365906 -35.608841
-157.397568 146.985168 -33.092167
-203.319321 128.450348 -64.815620
-202.666992 129.116028 -64.198967
-157.397568 146.985168 -33.092167
-157.882507 146.495682 -31.081745
-204.272659 127.562004 -65.546738
-203.319321 128.450348 -64.815620
-157.882507 146.495682 -31.081745
-158.012375 146.341629 -30.539627
-205.949783 125.945831 -66.804688
-204.272659 127.562004 -65.546738
-158.012375 146.341629 -30.539627
-158.533691 145.508118 -27.978001
-206.023590 125.869904 -66.864319
-205.949783 125.945831 -66.804688
-158.533691 145.508118 -27.978016
-158.987305 144.491608 -25.410339
-207.723236 124.398598 -67.980621
-206.023590 125.869904 -66.864319
-158.987305 144.491608 -25.410339
-159.018768 144.428238 -25.262094
-209.537338 122.917747 -69.153435
-207.723206 124.398598 -67.980614
-159.018753 144.428238 -25.262098
-159.396866 143.317276 -22.773012
-209.570755 122.891602 -69.174469
-209.537354 122.917755 -69.153427
-159.396866 143.317276 -22.773012
-159.680588 142.070786 -20.039074
-211.493744 121.518188 -70.255577
-209.570755 122.891602 -69.174469
-159.680588 142.070786 -20.039074
-159.749695 141.862289 -19.564741
-213.476089 120.192909 -71.229385
-211.493744 121.518188 -70.255577
-159.749695 141.862289 -19.564741
-160.003891 140.858810 -17.143749
-214.038208 119.789108 -71.515564
-213.476089 120.192909 -71.229385
-160.003891 140.858810 -17.143749
-160.247375 139.795258 -14.187572
-215.509903 118.808205 -72.146965
-214.038208 119.789108 -71.515564
-160.247375 139.795258 -14.187572
-160.284210 139.707596 -13.932459
-217.643082 117.477341 -72.900284
-215.509903 118.808205 -72.146965
-160.284210 139.707596 -13.932459
-160.593643 138.779648 -11.350038
-219.555481 116.167709 -73.612190
-217.643082 117.477341 -72.900284
-160.593643 138.779663 -11.350050
-160.881439 137.958313 -9.408079
-219.840439 115.962990 -73.720146
-219.555481 116.167709 -73.612190
-160.881439 137.958313 -9.408079
-161.018738 137.639648 -8.758319
-222.226044 114.375137 -74.449837
-219.840454 115.963013 -73.720154
-161.018738 137.639648 -8.758319
-161.519608 136.230057 -6.499121
-224.910629 112.620445 -75.068649
-222.226044 114.375137 -74.449837
-161.519608 136.230057 -6.499121
-161.619156 135.989105 -6.184745
-161.619156 135.989105 -6.184745
-162.304352 134.393768 -4.333418
-162.304352 134.393768 -4.333418
-162.530273 133.877304 -3.780769
-162.530273 133.877304 -3.780771
-163.405945 132.281036 -2.098371
-163.405945 132.281036 -2.098371
-163.516495 132.067993 -1.878785
-163.516495 132.067993 -1.878785
-164.561768 130.800003 -0.547173
-164.561768 130.800003 -0.547173
-165.450378 130.059586 0.183310
-165.450378 130.059586 0.183310
-165.645905 129.886307 0.337969
-165.645905 129.886307 0.337969
-166.941864 129.410934 0.710515
-166.941864 129.410934 0.710515
-168.476791 129.314484 0.695257
-168.476791 129.314484 0.695257
-170.248474 129.611938 0.348743
-170.248459 129.611938 0.348742
-170.374176 129.658463 0.304651
-170.374176 129.658463 0.304651
-172.207520 130.295959 -0.310765
-172.207520 130.295959 -0.310765
-174.215775 131.186600 -1.277012
-174.215775 131.186600 -1.277012
-174.427765 131.305267 -1.419329
-174.427765 131.305267 -1.419329
-176.332352 132.266937 -2.803643
-176.332352 132.266937 -2.803643
-177.110397 132.671646 -3.500737
-177.110397 132.671646 -3.500737
-178.643677 133.416199 -4.978386
-178.643677 133.416199 -4.978386
-179.534286 133.856110 -5.902873
-179.534286 133.856110 -5.902873
-181.263107 134.770798 -7.747340
-181.263107 134.770798 -7.747340
-181.920746 135.138077 -8.437103
-181.920746 135.138077 -8.437103
-184.144806 136.512726 -10.791126
-184.144775 136.512726 -10.791126
-184.241531 136.571487 -10.889001
-184.241531 136.571457 -10.888984
-186.417191 137.975266 -13.246102
-186.417191 137.975266 -13.246102
-187.057007 138.358337 -13.964503
-187.057007 138.358337 -13.964503
-188.415878 139.045792 -15.548422
-188.415878 139.045792 -15.548422
-189.643082 139.497238 -17.198868
-189.643082 139.497238 -17.198868
-190.174942 139.604019 -17.927725
-190.174942 139.604019 -17.927725
-191.772675 139.742050 -20.534193
-191.772675 139.742050 -20.534193
-191.981186 139.737396 -20.912851
-191.981186 139.737396 -20.912851
-193.345322 139.583115 -23.373552
-193.345322 139.583115 -23.373552
-194.193863 139.449448 -25.065407
-194.193863 139.449448 -25.065407
-194.920181 139.318329 -26.382961
-194.920197 139.318344 -26.382946
-196.290482 139.108109 -28.970535
-196.290482 139.108109 -28.970535
-196.565979 139.058640 -29.411802
-196.565979 139.058640 -29.411802
-198.281250 138.743500 -32.085480
-198.281235 138.743515 -32.085480
-198.550186 138.679260 -32.393852
-198.550186 138.679260 -32.393852
-200.287628 138.265961 -34.225388
-200.287628 138.265961 -34.225388
-202.052414 137.788132 -35.309723
-202.052414 137.788132 -35.309723
-202.276794 137.731400 -35.437534
-202.276794 137.731400 -35.437534
-204.289734 137.218857 -36.112732
-204.289734 137.218857 -36.112732
-206.279221 136.778290 -36.374607
-206.279221 136.778290 -36.374607
-208.201279 136.385925 -36.443146
-208.201279 136.385925 -36.443146
-210.057571 135.984695 -36.461636
-210.057571 135.984695 -36.461636
-211.844803 135.515305 -36.529896
-211.844803 135.515305 -36.529896
-213.644440 134.934799 -36.684795
-213.644440 134.934799 -36.684795
-215.484802 134.277252 -36.902901
-215.484802 134.277252 -36.902901
-217.362122 133.589264 -37.150532
-217.362122 133.589264 -37.150532
-219.258804 132.909912 -37.398857
-219.258804 132.909912 -37.398857
-221.183182 132.242447 -37.687733
-221.183228 132.242462 -37.687744
-223.204483 131.562775 -38.129948
-223.204483 131.562775 -38.129948
-223.690994 131.401566 -38.288994
-223.690994 131.401566 -38.288994
-225.402756 130.864304 -38.843708
0 1
2 3
4 5
6 7
8 9
10 11
12 13
14 15
16 17
18 19
20 21
22 23
24 25
26 27
28 29
30 31
32 33
34 35
36 37
38 39
40 41
42 43
44 45
46 47
48 49
50 51
52 53
54 55
56 57
58 59
60 61
62 63
64 65
66 67
68 69
70 71
72 73
74 75
76 77
78 79
80 81
82 83
84 85
86 87
88 89
90 91
92 93
94 95
96 97
98 99
100 101
102 103
104 105
106 107
108 109
110 111
112 113
114 115
116 117
118 119
120 121
122 123
124 125
126 127
128 129
130 131
132 133
134 135
136 137
138 139
140 141
142 143
144 145
146 147
148 149
150 151
152 153
154 155
156 157
158 159
160 161
162 163
164 165
166 167
168 169
170 171
172 173
174 175
176 177
178 179
180 181
182 183
184 185
186 187
188 189
190 191
192 193
194 195
196 197
198 199
200 201
202 203
204 205
206 207
208 209
210 211
212 213
214 215
216 217
218 219
220 221
222 223
224 225
226 227
228 229
230 231
232 233
234 235
236 237
238 239
240 241
242 243
244 245
246 247
248 249
250 251
252 253
254 255
256 257
258 259
260 261
262 263
264 265
266 267
268 269
270 271
272 273
274 275
276 277
278 279
280 281
282 283
284 285
286 287
288 289
290 291
292 293
294 295
296 297
298 299
300 301
302 303
304 305
306 307
308 309
310 311
312 313
314 315
316 317
318 319
320 321
322 323
324 325
326 327
328 329
330 331
332 333
334 335
336 337
338 339
340 341
342 343
344 345
346 347
348 349
350 351
352 353
354 355
356 357
358 359
360 361
362 363
364 365
366 367
368 369
370 371
372 373
374 375
376 377
378 379
380 381
382 383
384 385
386 387
388 389
390 391
392 393
394 395
396 397
398 399
400 401
402 403
404 405
406 407
408 409
410 411
412 413
414 415
416 417
418 419
420 421
422 423
424 425
426 427
428 429
430 431
432 433
434 435
436 437
438 439
440 441
442 443
444 445
446 447
448 449
450 451
452 453
454 455
456 457
458 459
460 461
462 463
464 465
466 467
