ply
format ascii 1.0
element vertex 30
property float x
property float y
property float z
element edge 15
property int vertex1
property int vertex2
end_header
-173.964844 95.883057 18.153643
-172.343338 94.795807 18.619999
-175.421524 96.457047 17.863892
-173.964844 95.883057 18.153643
-172.343338 94.795807 18.619999
-172.314072 94.772949 18.629745
-176.731552 96.666550 17.685469
-175.421524 96.457047 17.863892
-172.314072 94.772949 18.629745
-170.442047 92.973175 19.410038
-177.923813 96.603554 17.587002
-176.731552 96.666550 17.685469
-170.442047 92.973175 19.410038
-169.367950 91.651749 20.020447
-179.026764 96.338089 17.552588
-177.923813 96.603554 17.587002
-180.060440 95.924751 17.573503
-179.026764 96.338089 17.552588
-181.020584 95.373863 17.655909
-180.060425 95.924736 17.573502
-181.411148 95.025482 17.732430
-181.020584 95.373863 17.655909
-181.849121 94.659119 17.811390
-181.411148 95.025482 17.732430
-182.657242 94.012947 17.939819
-181.849121 94.659119 17.811390
-183.438705 93.373436 18.049999
-182.657242 94.012947 17.939819
-184.044388 92.635506 18.194027
-183.438705 93.373436 18.049999
0 1
2 3
4 5
6 7
8 9
10 11
12 13
14 15
16 17
18 19
20 21
22 23
24 25
26 27
28 29
