ply
format ascii 1.0
element vertex 398
property float x
property float y
property float z
element edge 199
property int vertex1
property int vertex2
end_header
-46.611927 33.291534 -133.780472
-47.586815 32.349243 -134.135208
-46.317688 33.602333 -133.673477
-46.611938 33.291538 -133.780487
-47.586819 32.349247 -134.135223
-48.820423 31.605307 -134.562805
-45.029091 35.291176 -133.181107
-46.317680 33.602333 -133.673477
-48.820423 31.605307 -134.562805
-49.978653 31.523851 -134.912460
-44.430923 36.158352 -132.946121
-45.029091 35.291176 -133.181107
-49.978653 31.523851 -134.912460
-51.073292 32.365482 -135.125931
-43.733719 37.218616 -132.665009
-44.430923 36.158352 -132.946121
-51.073288 32.365482 -135.125931
-51.724075 33.592319 -135.149338
-42.528370 39.045456 -132.166733
-43.733719 37.218616 -132.665009
-51.724083 33.592319 -135.149368
-52.136913 34.580120 -135.130203
-42.434826 39.190723 -132.126953
-42.528370 39.045456 -132.166733
-52.136913 34.580120 -135.130203
-52.683758 36.605537 -135.013336
-41.107765 41.208992 -131.558380
-42.434826 39.190723 -132.126953
-52.683758 36.605537 -135.013336
-53.244099 39.035534 -134.846680
-40.597038 41.940430 -131.341980
-41.107765 41.208992 -131.558380
-53.244099 39.035534 -134.846680
-53.344540 39.586872 -134.802963
-39.754581 43.118496 -130.988739
-40.597038 41.940422 -131.341980
-53.344540 39.586872 -134.802963
-53.830170 42.550331 -134.553772
-38.374241 44.843479 -130.448730
-39.754581 43.118496 -130.988739
-53.830173 42.550327 -134.553757
-54.321880 45.510498 -134.294952
-38.369869 44.848835 -130.447083
-38.374241 44.843479 -130.448730
-54.321880 45.510498 -134.294952
-54.507790 46.550865 -134.202454
-54.507790 46.550865 -134.202454
-54.817417 48.465004 -134.020065
-54.817417 48.465004 -134.020065
-55.362450 51.403374 -133.717041
-55.362450 51.403374 -133.717041
-55.935101 53.840874 -133.428787
-55.935101 53.840874 -133.428787
-56.044907 54.315014 -133.365158
-56.044907 54.315014 -133.365158
-56.843227 57.183949 -132.917755
-56.843231 57.183952 -132.917740
-57.345840 58.571873 -132.649979
-57.345844 58.571873 -132.649963
-57.911758 60.017971 -132.328781
-57.911758 60.017971 -132.328781
-58.772713 61.722710 -131.884735
-58.772713 61.722710 -131.884735
-59.438225 62.814289 -131.560074
-59.438225 62.814289 -131.560074
-60.250908 63.899658 -131.201157
-60.250908 63.899658 -131.201157
-61.769455 65.331146 -130.660217
-61.769463 65.331146 -130.660217
-62.115330 65.551567 -130.565491
-62.115334 65.551575 -130.565491
-63.300781 66.225876 -130.281097
-63.300781 66.225876 -130.281097
-64.766731 66.592293 -130.074646
-64.766731 66.592293 -130.074646
-66.160965 66.524712 -129.995193
-66.160965 66.524712 -129.995178
-67.483559 66.086899 -130.009583
-67.483559 66.086899 -130.009583
-68.736961 65.285706 -130.104111
-68.736961 65.285706 -130.104111
-68.792412 65.229492 -130.112778
-68.792404 65.229485 -130.112778
-69.941948 64.250732 -130.246216
-69.941925 64.250732 -130.246216
-71.114845 63.105850 -130.405121
-71.114845 63.105854 -130.405136
-71.796692 62.217510 -130.543594
-71.796692 62.217510 -130.543594
-72.232460 61.675507 -130.624191
-72.232460 61.675507 -130.624191
-73.349609 60.340649 -130.810989
-73.349609 60.340649 -130.810989
-74.100754 59.272434 -130.971771
-74.100754 59.272434 -130.971771
-74.423012 58.810406 -131.040146
-74.422997 58.810406 -131.040146
-75.507347 57.500259 -131.201965
-75.507347 57.500259 -131.201965
-76.384026 56.352947 -131.339417
-76.384026 56.352947 -131.339432
-76.559669 56.106350 -131.369156
-76.559669 56.106350 -131.369156
-77.649605 54.976440 -131.446289
-77.649612 54.976448 -131.446320
-78.775284 54.043316 -131.458176
-78.775284 54.043316 -131.458176
-79.583580 53.402370 -131.459183
-79.583580 53.402370 -131.459183
-79.916267 53.136108 -131.461380
-79.916267 53.136108 -131.461380
-81.108154 52.562103 -131.390182
-81.108147 52.562099 -131.390182
-82.324585 52.260796 -131.261261
-82.324585 52.260796 -131.261261
-83.558716 52.175640 -131.081238
-83.558716 52.175640 -131.081238
-84.813606 52.294163 -130.844940
-84.813606 52.294159 -130.844940
-86.119072 52.635788 -130.543381
-86.119072 52.635788 -130.543381
-86.932266 53.025089 -130.318634
-86.932266 53.025089 -130.318634
-87.511475 53.315838 -130.157913
-87.511475 53.315838 -130.157913
-88.938019 54.049522 -129.770050
-88.938019 54.049522 -129.770050
-90.390137 54.841568 -129.386261
-90.390137 54.841568 -129.386261
-91.237640 55.492744 -129.128342
-91.237633 55.492744 -129.128342
-91.913673 56.037312 -128.916031
-91.913673 56.037312 -128.916031
-93.385025 57.093525 -128.463989
-93.385033 57.093525 -128.463989
-94.392906 57.983330 -128.097931
-94.392906 57.983330 -128.097931
-94.913414 58.476318 -127.892693
-94.913414 58.476318 -127.892693
-96.416412 59.680893 -127.307907
-96.416412 59.680893 -127.307907
-97.231354 60.435402 -126.953972
-97.231354 60.435402 -126.953972
-98.044044 61.180050 -126.595367
-98.044029 61.180042 -126.595367
-99.663368 62.456108 -125.911835
-99.663368 62.456108 -125.911835
-100.058586 62.826664 -125.732292
-100.058586 62.826675 -125.732292
-101.388748 63.965816 -125.150757
-101.388748 63.965816 -125.150757
-102.833588 65.183380 -124.522705
-102.833588 65.183380 -124.522705
-103.125305 65.459259 -124.388718
-103.125298 65.459259 -124.388725
-104.846230 66.851936 -123.643570
-104.846230 66.851936 -123.643570
-105.590630 67.518707 -123.303398
-105.590630 67.518707 -123.303398
-106.660347 68.474846 -122.811737
-106.660347 68.474846 -122.811737
-108.281754 69.837357 -122.082184
-108.281738 69.837364 -122.082184
-108.490242 70.034119 -121.983292
-108.490242 70.034119 -121.983292
-110.352982 71.612282 -121.138397
-110.352982 71.612282 -121.138397
-110.924347 72.135010 -120.868187
-110.924347 72.135010 -120.868187
-112.305176 73.424217 -120.199394
-112.305176 73.424217 -120.199394
-113.356667 74.425789 -119.670868
-113.356667 74.425789 -119.670868
-114.306534 75.399727 -119.161674
-114.306534 75.399727 -119.161674
-115.566643 76.709740 -118.452278
-115.566643 76.709732 -118.452271
-116.403923 77.644157 -117.946663
-116.403908 77.644150 -117.946663
-117.586334 78.982063 -117.203163
-117.586327 78.982063 -117.203163
-118.740585 80.377480 -116.434250
-118.740585 80.377480 -116.434250
-119.460930 81.243950 -115.945992
-119.460930 81.243950 -115.945992
-121.144836 83.509651 -114.736237
-121.144836 83.509651 -114.736237
-121.694016 84.294266 -114.328445
-121.694016 84.294266 -114.328445
-122.722816 85.770164 -113.560280
-122.722809 85.770157 -113.560287
-124.075134 88.064034 -112.480118
-124.075134 88.064034 -112.480118
-125.189453 90.397087 -111.503067
-125.189453 90.397087 -111.503067
-125.872063 92.806160 -110.685295
-125.872070 92.806160 -110.685310
-125.883743 93.241058 -110.581947
-125.883743 93.241058 -110.581947
-125.569275 95.428604 -110.187408
-125.569275 95.428604 -110.187408
-125.532516 95.514549 -110.180977
-125.532516 95.514549 -110.180977
-124.666763 96.780991 -110.205872
-124.666786 96.780983 -110.205879
-123.664810 97.791840 -110.324127
-123.664810 97.791840 -110.324127
-122.805534 98.670135 -110.399788
-122.805534 98.670135 -110.399788
-122.644493 98.822960 -110.416000
-122.644493 98.822960 -110.416000
-121.549789 99.750534 -110.551918
-121.549789 99.750534 -110.551918
-120.411079 100.607231 -110.714134
-120.411079 100.607231 -110.714134
-119.301048 101.534538 -110.833359
-119.301048 101.534538 -110.833359
-118.677208 102.326897 -110.816360
-118.677200 102.326874 -110.816360
-118.324730 102.778656 -110.801559
-118.324730 102.778656 -110.801559
-117.238518 103.822701 -110.837555
-117.238518 103.822685 -110.837540
-116.148026 104.916939 -110.841545
-116.148026 104.916939 -110.841545
-115.761864 105.602592 -110.749123
-115.761864 105.602592 -110.749123
-115.227646 106.449310 -110.648521
-115.227646 106.449310 -110.648521
-114.142830 107.635925 -110.603325
-114.142830 107.635910 -110.603333
-113.551620 108.719566 -110.427521
-113.551620 108.719566 -110.427521
-113.272003 109.315094 -110.310875
-113.272003 109.315094 -110.310875
-112.246132 110.655418 -110.151321
-112.246132 110.655418 -110.151321
-111.715759 111.735703 -109.909843
-111.715767 111.735687 -109.909851
-111.401207 112.445152 -109.731354
-111.401192 112.445145 -109.731346
-110.399269 113.953247 -109.431877
-110.399269 113.953247 -109.431877
-110.069984 114.706757 -109.224663
-110.069984 114.706757 -109.224663
-109.529037 115.867264 -108.913116
-109.529037 115.867264 -108.913116
-108.658684 117.650764 -108.451881
-108.658684 117.650764 -108.451881
-108.620193 117.765396 -108.416428
-108.620186 117.765388 -108.416420
-107.744034 119.686722 -107.888100
-107.744034 119.686722 -107.888100
-107.437935 120.495338 -107.622482
-107.437943 120.495331 -107.622490
-106.985741 121.780563 -107.137611
-106.985741 121.780563 -107.137611
-106.509796 123.087914 -106.562843
-106.509796 123.087914 -106.562843
-106.259308 123.912720 -106.129425
-106.259308 123.912712 -106.129425
-105.706718 125.520554 -105.198151
-105.706718 125.520554 -105.198151
-105.526352 126.161827 -104.776314
-105.526352 126.161827 -104.776314
-104.979790 127.903564 -103.590721
-104.979790 127.903564 -103.590729
-104.796906 128.631714 -103.064514
-104.796906 128.631714 -103.064514
-104.331635 130.334381 -101.875801
-104.331635 130.334381 -101.875801
-104.118782 131.398819 -101.131470
-104.118797 131.398834 -101.131470
-103.804741 132.824860 -100.196053
-103.804741 132.824860 -100.196053
-103.591309 134.321884 -99.180046
-103.591309 134.321884 -99.180046
-103.426132 135.264023 -98.553848
-103.426140 135.264023 -98.553856
-103.225830 137.050491 -97.226082
-103.225830 137.050491 -97.226082
-103.136391 137.541229 -96.850578
-103.136391 137.541229 -96.850578
-102.833015 139.357239 -95.284714
-102.833000 139.357224 -95.284698
-102.744362 139.653549 -95.017876
-102.744362 139.653549 -95.017876
-102.200020 141.216934 -93.480957
-102.200020 141.216934 -93.480957
-101.958488 141.650406 -93.038216
-101.958488 141.650421 -93.038239
-101.271309 142.739792 -91.888588
-101.271309 142.739792 -91.888588
-100.451775 143.697113 -90.915550
-100.451775 143.697113 -90.915550
-100.148766 144.046997 -90.565315
-100.148788 144.046982 -90.565323
-98.899429 145.126465 -89.607552
-98.899429 145.126465 -89.607552
-97.606308 146.064682 -88.868660
-97.606308 146.064682 -88.868660
-97.540161 146.102005 -88.843681
-97.540161 146.102005 -88.843681
-96.238739 146.789230 -88.391769
-96.238754 146.789230 -88.391769
-94.792969 147.335800 -88.100929
-94.792984 147.335815 -88.100937
-93.264862 147.722168 -87.972885
-93.264862 147.722168 -87.972885
-91.644829 147.943115 -88.025345
-91.644829 147.943115 -88.025345
-89.907043 147.973633 -88.307274
-89.907051 147.973633 -88.307274
-88.008331 147.767380 -88.913857
-88.008331 147.767380 -88.913857
-87.402336 147.631058 -89.204704
-87.402336 147.631058 -89.204704
-85.830971 147.149094 -90.144745
-85.830971 147.149094 -90.144745
-84.063393 146.349854 -91.558884
-84.063393 146.349854 -91.558884
-83.198677 145.797546 -92.455223
-83.198677 145.797562 -92.455223
-82.063377 144.899780 -93.808098
-82.063354 144.899780 -93.808083
-80.595322 143.307053 -95.942154
-80.595322 143.307053 -95.942154
-79.354797 141.568329 -97.959404
-79.354797 141.568329 -97.959404
-78.253426 139.672028 -99.922874
-78.253418 139.672043 -99.922882
-77.282036 137.645142 -101.866158
-77.282036 137.645142 -101.866158
-76.444298 135.507126 -103.829193
-76.444298 135.507126 -103.829193
-75.738533 133.323837 -105.815796
-75.738533 133.323853 -105.815796
-75.103485 131.136154 -107.747948
-75.103485 131.136154 -107.747948
-74.459961 128.927475 -109.549202
-74.459961 128.927475 -109.549202
-73.726982 126.660500 -111.140533
-73.726982 126.660500 -111.140533
-72.830894 124.253571 -112.531670
-72.830894 124.253571 -112.531670
-71.726486 121.720573 -113.774109
-71.726486 121.720573 -113.774109
-70.353836 119.112411 -114.917610
-70.353844 119.112411 -114.917618
-69.758698 118.192802 -115.304749
-69.758698 118.192802 -115.304749
-68.576416 116.497742 -116.010269
-68.576416 116.497742 -116.010269
-67.076698 114.830963 -116.703957
-67.076698 114.830963 -116.703957
-66.059952 113.950386 -117.078064
-66.059952 113.950386 -117.078064
-64.885124 113.156418 -117.430649
-64.885124 113.156425 -117.430649
-62.936432 112.417007 -117.818687
-62.936432 112.417007 -117.818687
-61.159317 112.253052 -117.986374
-61.159317 112.253052 -117.986374
-59.514637 112.502983 -117.950935
-59.514637 112.502983 -117.950935
-57.963528 113.038597 -117.725792
-57.963528 113.038597 -117.725792
-56.452431 113.773125 -117.329445
-56.452427 113.773125 -117.329453
-54.960068 114.692139 -116.778488
-54.960068 114.692139 -116.778488
-54.692486 114.905373 -116.650948
-54.692486 114.905373 -116.650948
-53.500698 115.771530 -116.085213
-53.500698 115.771530 -116.085213
-52.061573 116.814461 -115.309433
-52.061565 116.814438 -115.309418
-51.021301 117.672127 -114.623146
-51.021301 117.672127 -114.623146
-50.630405 118.000481 -114.347588
-50.630405 118.000473 -114.347595
-49.144478 119.171394 -113.292892
-49.144478 119.171394 -113.292892
-47.882652 120.239571 -112.337776
-47.882652 120.239563 -112.337776
-47.622173 120.483337 -112.129211
-47.622173 120.483337 -112.129211
-46.068733 121.829880 -110.961716
-46.068733 121.829880 -110.961716
-44.992756 122.822853 -110.120193
-44.992756 122.822853 -110.120193
-44.550880 123.280540 -109.740967
-44.550880 123.280540 -109.740967
-43.007973 124.697731 -108.497704
-43.007973 124.697731 -108.497704
-42.276131 125.369698 -107.902992
-42.276131 125.369698 -107.902992
-41.414974 126.241219 -107.162849
0 1
2 3
4 5
6 7
8 9
10 11
12 13
14 15
16 17
18 19
20 21
22 23
24 25
26 27
28 29
30 31
32 33
34 35
36 37
38 39
40 41
42 43
44 45
46 47
48 49
50 51
52 53
54 55
56 57
58 59
60 61
62 63
64 65
66 67
68 69
70 71
72 73
74 75
76 77
78 79
80 81
82 83
84 85
86 87
88 89
90 91
92 93
94 95
96 97
98 99
100 101
102 103
104 105
106 107
108 109
110 111
112 113
114 115
116 117
118 119
120 121
122 123
124 125
126 127
128 129
130 131
132 133
134 135
136 137
138 139
140 141
142 143
144 145
146 147
148 149
150 151
152 153
154 155
156 157
158 159
160 161
162 163
164 165
166 167
168 169
170 171
172 173
174 175
176 177
178 179
180 181
182 183
184 185
186 187
188 189
190 191
192 193
194 195
196 197
198 199
200 201
202 203
204 205
206 207
208 209
210 211
212 213
214 215
216 217
218 219
220 221
222 223
224 225
226 227
228 229
230 231
232 233
234 235
236 237
238 239
240 241
242 243
244 245
246 247
248 249
250 251
252 253
254 255
256 257
258 259
260 261
262 263
264 265
266 267
268 269
270 271
272 273
274 275
276 277
278 279
280 281
282 283
284 285
286 287
288 289
290 291
292 293
294 295
296 297
298 299
300 301
302 303
304 305
306 307
308 309
310 311
312 313
314 315
316 317
318 319
320 321
322 323
324 325
326 327
328 329
330 331
332 333
334 335
336 337
338 339
340 341
342 343
344 345
346 347
348 349
350 351
352 353
354 355
356 357
358 359
360 361
362 363
364 365
366 367
368 369
370 371
372 373
374 375
376 377
378 379
380 381
382 383
384 385
386 387
388 389
390 391
392 393
394 395
396 397
