ply
format ascii 1.0
element vertex 230
property float x
property float y
property float z
element edge 115
property int vertex1
property int vertex2
end_header
-135.858871 36.792236 -115.505516
-135.497650 37.224869 -115.649689
-136.749084 36.362099 -115.051086
-135.858871 36.792236 -115.505516
-135.497635 37.224861 -115.649696
-135.129868 37.729958 -115.786530
-137.732269 36.239250 -114.494896
-136.749084 36.362099 -115.051086
-135.129868 37.729950 -115.786514
-134.635025 39.372108 -115.816307
-138.776794 36.326084 -113.869942
-137.732269 36.239250 -114.494896
-134.635025 39.372108 -115.816307
-134.598618 39.959572 -115.743134
-139.856003 36.575508 -113.199982
-138.776794 36.326084 -113.869942
-134.598618 39.959572 -115.743134
-134.716629 42.537106 -115.260750
-139.868668 36.578564 -113.192101
-139.856018 36.575508 -113.199974
-134.716629 42.537106 -115.260750
-134.749054 42.807392 -115.199173
-140.975754 36.899158 -112.496338
-139.868668 36.578564 -113.192101
-134.749054 42.807392 -115.199173
-135.178131 45.064899 -114.603302
-142.067627 37.190521 -111.815811
-140.975723 36.899158 -112.496338
-135.178131 45.064899 -114.603302
-135.864807 47.556015 -113.849121
-143.151413 37.437927 -111.153328
-142.067627 37.190521 -111.815811
-135.864807 47.556015 -113.849121
-136.693512 50.018394 -113.050095
-144.233017 37.640034 -110.516121
-143.151413 37.437927 -111.153328
-136.693497 50.018394 -113.050095
-137.633194 52.448086 -112.224419
-145.315750 37.796009 -109.913338
-144.233017 37.640034 -110.516121
-137.633194 52.448086 -112.224419
-138.660782 54.843327 -111.378761
-146.389954 37.906712 -109.357735
-145.315750 37.796009 -109.913338
-138.660782 54.843327 -111.378761
-139.756744 57.202984 -110.516350
-147.414871 37.980438 -108.852600
-146.389954 37.906712 -109.357735
-139.756744 57.202991 -110.516350
-140.905823 59.526196 -109.637535
-148.385452 38.012249 -108.371658
-147.414886 37.980442 -108.852638
-140.905823 59.526196 -109.637535
-142.100662 61.812729 -108.741714
-149.304932 37.998615 -107.887779
-148.385452 38.012249 -108.371658
-142.100662 61.812729 -108.741714
-143.339722 64.058167 -107.828705
-143.339722 64.058167 -107.828705
-144.623215 66.257332 -106.898201
-144.623215 66.257332 -106.898201
-145.951309 68.413498 -105.952248
-145.951309 68.413498 -105.952248
-147.321655 70.536766 -105.005539
-147.321640 70.536766 -105.005531
-148.730362 72.632591 -104.076378
-148.730362 72.632591 -104.076378
-150.173203 74.705101 -103.182198
-150.173203 74.705101 -103.182198
-151.635452 76.736115 -102.331512
-151.635452 76.736115 -102.331512
-153.088470 78.724327 -101.510811
-153.088455 78.724304 -101.510811
-154.487823 80.681396 -100.709366
-154.487823 80.681396 -100.709366
-155.662598 82.505440 -99.985252
-155.662598 82.505440 -99.985252
-155.742386 82.639168 -99.933350
-155.742386 82.639168 -99.933350
-156.979065 84.583466 -99.135033
-156.979065 84.583466 -99.135056
-158.269836 86.493263 -98.293655
-158.269836 86.493263 -98.293655
-159.511749 88.396622 -97.440842
-159.511749 88.396622 -97.440842
-160.438934 90.068123 -96.729202
-160.438934 90.068123 -96.729202
-160.571228 90.340324 -96.618416
-160.571228 90.340309 -96.618408
-161.627533 92.264793 -95.762566
-161.627533 92.264793 -95.762566
-162.673813 94.159836 -94.863617
-162.673813 94.159836 -94.863617
-163.259018 95.423264 -94.270981
-163.259018 95.423264 -94.270981
-163.521072 96.076012 -93.965309
-163.521072 96.076012 -93.965309
-164.354523 97.952850 -92.976204
-164.354523 97.952850 -92.976204
-164.971634 99.648186 -92.049011
-164.971649 99.648186 -92.049011
-165.025940 99.870476 -91.933411
-165.025940 99.870476 -91.933411
-165.556061 101.856461 -90.840073
-165.556061 101.856461 -90.840080
-165.835617 103.264091 -90.089211
-165.835617 103.264091 -90.089211
-165.891663 103.968330 -89.754158
-165.891663 103.968330 -89.754158
-166.055008 106.196022 -88.732422
-166.055008 106.196022 -88.732422
-166.061615 106.338951 -88.670258
-166.061615 106.338951 -88.670258
-165.901611 108.559097 -87.840324
-165.901611 108.559090 -87.840324
-165.874664 108.866997 -87.726624
-165.874664 108.866997 -87.726624
-165.375107 110.935188 -87.084702
-165.375107 110.935188 -87.084702
-165.338455 111.034256 -87.058105
-165.338455 111.034256 -87.058105
-164.697052 112.754089 -86.551361
-164.697052 112.754089 -86.551361
-164.316132 113.582100 -86.305954
-164.316132 113.582100 -86.305954
-163.934204 114.473373 -85.995895
-163.934204 114.473373 -85.995895
-163.271774 116.024422 -85.367264
-163.271774 116.024422 -85.367271
-163.191635 116.245102 -85.261246
-163.191635 116.245102 -85.261246
-162.594162 118.300064 -84.116119
-162.594162 118.300064 -84.116119
-162.585709 118.339233 -84.091942
-162.585709 118.339233 -84.091942
-162.333664 120.524590 -82.663757
-162.333664 120.524590 -82.663757
-162.307892 121.253555 -82.187798
-162.307892 121.253555 -82.187798
-162.368805 122.726509 -81.215218
-162.368820 122.726509 -81.215225
-162.652206 124.825020 -79.785873
-162.652206 124.825020 -79.785873
-162.873550 125.778198 -79.081657
-162.873550 125.778198 -79.081657
-163.129578 126.760475 -78.315102
-163.129578 126.760475 -78.315102
-163.817276 128.477585 -76.722748
-163.817276 128.477585 -76.722748
-164.729416 129.978607 -74.968376
-164.729416 129.978607 -74.968376
-165.921204 131.172287 -73.146729
-165.921204 131.172287 -73.146729
-165.985321 131.227753 -73.052536
-165.985321 131.227753 -73.052536
-167.888672 132.147278 -70.988914
-167.888672 132.147278 -70.988914
-168.487762 132.301636 -70.492577
-168.487762 132.301636 -70.492577
-170.601807 132.676056 -69.002159
-170.601807 132.676056 -69.002159
-170.972809 132.716980 -68.783539
-170.972809 132.716980 -68.783554
-172.537384 132.794083 -68.029190
-172.537384 132.794083 -68.029190
-174.372803 132.763916 -67.352493
-174.372803 132.763916 -67.352486
-176.150772 132.622772 -66.859100
-176.150772 132.622772 -66.859100
-177.912766 132.369339 -66.540535
-177.912766 132.369339 -66.540535
-179.660065 132.010376 -66.405098
-179.660065 132.010376 -66.405098
-181.393188 131.550156 -66.449265
-181.393188 131.550156 -66.449265
-183.090469 130.996048 -66.651337
-183.090469 130.996048 -66.651337
-184.727249 130.332596 -66.968819
-184.727234 130.332596 -66.968819
-186.304413 129.525391 -67.370255
-186.304413 129.525391 -67.370255
-187.509354 128.747879 -67.748322
-187.509369 128.747910 -67.748306
-187.824860 128.523315 -67.853355
-187.824860 128.523315 -67.853355
-189.363098 127.350609 -68.388153
-189.363098 127.350609 -68.388153
-190.964706 126.111115 -68.964386
-190.964706 126.111115 -68.964386
-191.964691 125.334114 -69.369156
-191.964691 125.334114 -69.369156
-192.622635 124.849907 -69.640877
-192.622635 124.849907 -69.640877
-194.355621 123.715637 -70.345291
-194.355591 123.715645 -70.345291
-196.124298 122.706245 -71.051559
-196.124298 122.706245 -71.051559
-197.600555 121.896729 -71.664894
-197.600555 121.896729 -71.664894
-197.911331 121.732964 -71.792007
-197.911331 121.732964 -71.792007
-199.743332 120.800591 -72.534645
-199.743332 120.800591 -72.534645
-201.618591 119.904282 -73.279198
-201.618591 119.904282 -73.279198
-203.501633 118.995949 -74.035072
-203.501633 118.995949 -74.035072
-204.520996 118.454117 -74.465012
-204.520996 118.454117 -74.465012
-205.366547 118.004593 -74.791603
-205.366531 118.004593 -74.791595
-207.259491 116.984695 -75.386086
-207.259491 116.984695 -75.386086
-209.258118 115.856049 -75.826393
-209.258118 115.856049 -75.826393
-211.348160 114.503456 -76.261810
-211.348160 114.503456 -76.261810
-211.367020 114.489540 -76.266502
-211.367020 114.489540 -76.266502
-213.552429 112.977814 -76.766609
-213.552429 112.977814 -76.766609
-215.888382 111.460129 -77.392120
-215.888382 111.460129 -77.392120
-218.086304 109.915665 -78.179855
-218.086304 109.915665 -78.179855
-218.233994 109.804268 -78.238800
-218.234009 109.804283 -78.238815
-220.756561 108.037918 -79.115303
-220.756561 108.037918 -79.115303
-223.647552 106.125481 -79.828209
0 1
2 3
4 5
6 7
8 9
10 11
12 13
14 15
16 17
18 19
20 21
22 23
24 25
26 27
28 29
30 31
32 33
34 35
36 37
38 39
40 41
42 43
44 45
46 47
48 49
50 51
52 53
54 55
56 57
58 59
60 61
62 63
64 65
66 67
68 69
70 71
72 73
74 75
76 77
78 79
80 81
82 83
84 85
86 87
88 89
90 91
92 93
94 95
96 97
98 99
100 101
102 103
104 105
106 107
108 109
110 111
112 113
114 115
116 117
118 119
120 121
122 123
124 125
126 127
128 129
130 131
132 133
134 135
136 137
138 139
140 141
142 143
144 145
146 147
148 149
150 151
152 153
154 155
156 157
158 159
160 161
162 163
164 165
166 167
168 169
170 171
172 173
174 175
176 177
178 179
180 181
182 183
184 185
186 187
188 189
190 191
192 193
194 195
196 197
198 199
200 201
202 203
204 205
206 207
208 209
210 211
212 213
214 215
216 217
218 219
220 221
222 223
224 225
226 227
228 229
