ply
format ascii 1.0
element vertex 112
property float x
property float y
property float z
element edge 56
property int vertex1
property int vertex2
end_header
-169.326447 143.910126 -48.704605
-169.484161 143.883453 -48.735542
-167.844604 144.161850 -48.299736
-169.326447 143.910126 -48.704605
-169.484161 143.883453 -48.735542
-171.162888 143.636185 -48.709713
-166.234497 144.459167 -47.176720
-167.844620 144.161850 -48.299740
-171.162888 143.636185 -48.709713
-171.991364 143.536072 -48.556541
-165.416855 144.639389 -46.098961
-166.234497 144.459167 -47.176720
-171.991364 143.536072 -48.556541
-172.885040 143.437683 -48.380684
-164.620102 144.898590 -44.403809
-165.416855 144.639389 -46.098961
-172.885040 143.437683 -48.380684
-174.629623 143.306656 -47.794834
-164.256989 145.076721 -43.277107
-164.620102 144.898590 -44.403809
-174.629623 143.306656 -47.794834
-176.380310 143.225876 -47.035728
-163.783813 145.506973 -40.501007
-164.256958 145.076721 -43.277122
-176.380310 143.225876 -47.035728
-178.127167 143.168442 -46.111317
-163.629730 145.851852 -37.791553
-163.783813 145.506973 -40.501007
-178.127167 143.168457 -46.111324
-178.737228 143.149857 -45.718452
-163.681870 146.014908 -35.135326
-163.629730 145.851852 -37.791553
-178.737228 143.149857 -45.718452
-179.871674 143.105560 -44.865173
-163.864594 145.951828 -32.484684
-163.681870 146.014908 -35.135326
-179.871674 143.105560 -44.865173
-181.613937 142.985016 -43.295036
-164.122513 145.662842 -29.849243
-163.864594 145.951828 -32.484684
-181.613937 142.985016 -43.295036
-181.771194 142.971069 -43.125721
-164.219177 145.540970 -29.127405
-164.122513 145.662842 -29.849243
-181.771164 142.971039 -43.125729
-183.313858 142.803299 -40.916576
-164.467270 145.133255 -27.260763
-164.219177 145.540970 -29.127405
-183.313858 142.803299 -40.916576
-183.604141 142.764160 -40.403797
-164.751495 144.325348 -24.747330
-164.467270 145.133255 -27.260777
-183.604141 142.764160 -40.403797
-184.650040 142.639511 -37.498425
-164.965057 143.277496 -22.298836
-164.751495 144.325348 -24.747330
-184.650040 142.639511 -37.498425
-184.821487 142.645264 -36.629097
-164.976303 143.228165 -22.193195
-164.965057 143.277496 -22.298836
-184.821487 142.645264 -36.629097
-185.162903 142.760925 -34.416897
-165.268005 141.929703 -19.536163
-164.976303 143.228165 -22.193195
-185.162903 142.760925 -34.416897
-185.294708 143.144638 -31.394079
-165.515976 140.810852 -17.223269
-165.268005 141.929703 -19.536163
-185.294708 143.144638 -31.394079
-185.137390 143.560318 -28.509583
-165.604202 140.569733 -16.697412
-165.515961 140.810837 -17.223270
-185.137390 143.560318 -28.509583
-184.737595 143.780060 -25.809225
-166.209793 139.333542 -13.722731
-165.604202 140.569733 -16.697412
-184.737595 143.780060 -25.809240
-184.117203 143.581940 -23.297930
-166.347183 139.134949 -13.214997
-166.209793 139.333542 -13.722731
-184.117203 143.581940 -23.297930
-183.651932 143.286301 -21.983013
-167.366653 138.181229 -10.790824
-166.347183 139.134949 -13.214997
-183.651932 143.286301 -21.983013
-183.175461 142.902008 -20.791096
-167.501068 138.076126 -10.524399
-167.366653 138.181244 -10.790843
-183.175461 142.902008 -20.791096
-181.854095 141.805099 -18.261206
-168.907654 137.447662 -8.965033
-167.501068 138.076126 -10.524399
-181.854095 141.805099 -18.261206
-180.853241 141.013794 -16.720255
-170.414108 137.153091 -8.208177
-168.907654 137.447662 -8.965033
-180.853241 141.013794 -16.720255
-180.115265 140.468018 -15.682026
-172.057312 137.195236 -8.256027
-170.414108 137.153091 -8.208177
-180.115265 140.468018 -15.682026
-178.121918 139.209152 -13.119740
-173.844772 137.543900 -9.062057
-172.057312 137.195236 -8.256027
-178.121918 139.209152 -13.119740
-178.050522 139.172104 -13.037402
-175.498901 138.064072 -10.369220
-173.844772 137.543900 -9.062057
-178.050522 139.172104 -13.037402
-175.801010 138.169022 -10.640273
-175.801010 138.169022 -10.640273
-175.498901 138.064072 -10.369203
0 1
2 3
4 5
6 7
8 9
10 11
12 13
14 15
16 17
18 19
20 21
22 23
24 25
26 27
28 29
30 31
32 33
34 35
36 37
38 39
40 41
42 43
44 45
46 47
48 49
50 51
52 53
54 55
56 57
58 59
60 61
62 63
64 65
66 67
68 69
70 71
72 73
74 75
76 77
78 79
80 81
82 83
84 85
86 87
88 89
90 91
92 93
94 95
96 97
98 99
100 101
102 103
104 105
106 107
108 109
110 111
