ply
format ascii 1.0
element vertex 160
property float x
property float y
property float z
element edge 80
property int vertex1
property int vertex2
end_header
-122.600716 116.337845 -104.133080
-122.904457 115.966652 -104.221153
-121.821449 117.223503 -103.934158
-122.600731 116.337845 -104.133087
-122.904465 115.966667 -104.221161
-124.148476 115.065193 -104.232277
-120.682915 118.376389 -103.701462
-121.821449 117.223503 -103.934158
-124.148476 115.065193 -104.232277
-125.479622 114.371201 -104.091934
-120.076805 119.305962 -103.368187
-120.682915 118.376389 -103.701462
-125.479622 114.371201 -104.091934
-126.870422 113.828835 -103.842232
-119.719147 119.947807 -103.104691
-120.076805 119.305962 -103.368187
-126.870422 113.828835 -103.842232
-128.335144 113.452019 -103.474274
-118.709732 121.493553 -102.525200
-119.719162 119.947807 -103.104691
-128.335144 113.452019 -103.474274
-129.887634 113.244362 -102.990875
-118.478996 122.061707 -102.253716
-118.709732 121.493553 -102.525200
-129.887634 113.244362 -102.990875
-131.534836 113.204277 -102.399689
-117.881516 123.528603 -101.571648
-118.478996 122.061707 -102.253716
-131.534836 113.204277 -102.399689
-133.308517 113.379959 -101.668922
-117.469559 124.758949 -100.985367
-117.881516 123.528603 -101.571648
-133.308517 113.379944 -101.668915
-133.675995 113.460930 -101.497169
-117.193008 125.838211 -100.445580
-117.469559 124.758942 -100.985367
-133.676010 113.460930 -101.497185
-135.263168 113.855568 -100.723831
-116.884483 127.359245 -99.647354
-117.193008 125.838196 -100.445580
-135.263168 113.855568 -100.723831
-137.293640 114.453331 -99.645615
-116.748306 128.388260 -99.055214
-116.884483 127.359245 -99.647354
-137.293640 114.453331 -99.645615
-137.671768 114.599777 -99.419693
-116.626945 129.729065 -98.199722
-116.748306 128.388260 -99.055214
-137.671768 114.599777 -99.419693
-139.583466 115.507561 -98.137268
-116.571228 131.136642 -97.169167
-116.626945 129.729065 -98.199722
-139.583466 115.507561 -98.137268
-140.466034 115.975937 -97.484558
-116.529243 131.883865 -96.576004
-116.571228 131.136642 -97.169167
-140.466034 115.975937 -97.484558
-142.200317 117.170845 -95.964806
-116.637489 133.922928 -94.760773
-116.529243 131.883850 -96.576004
-142.200317 117.170845 -95.964806
-142.622375 117.474281 -95.571671
-116.638939 134.472336 -94.255501
-116.637489 133.922928 -94.760773
-142.622375 117.474281 -95.571678
-144.294434 119.079460 -93.688225
-116.691956 135.988739 -92.845291
-116.638947 134.472321 -94.255493
-144.294434 119.079460 -93.688225
-145.632660 120.766426 -91.843536
-116.946625 138.023773 -90.925873
-116.691956 135.988739 -92.845291
-145.632660 120.766426 -91.843536
-146.699020 122.547462 -90.049759
-117.120316 139.401779 -89.592857
-116.946617 138.023788 -90.925888
-146.699020 122.547462 -90.049751
-147.527222 124.454330 -88.324989
-117.181664 139.976822 -89.019112
-117.120316 139.401779 -89.592857
-147.527222 124.454330 -88.324989
-148.184906 126.492485 -86.682632
-117.595451 141.684814 -87.060501
-117.181664 139.976822 -89.019112
-148.184906 126.492485 -86.682632
-148.692001 128.557846 -85.138199
-118.094391 143.090927 -84.952515
-117.595451 141.684814 -87.060501
-148.692001 128.557877 -85.138206
-148.913818 130.162613 -83.946045
-118.701820 144.271301 -82.585175
-118.094391 143.090927 -84.952515
-148.913818 130.162613 -83.946045
-148.947296 130.557541 -83.639206
-119.508797 145.262466 -79.997017
-118.701820 144.271301 -82.585175
-148.947296 130.557541 -83.639206
-148.935623 132.373672 -82.095276
-120.012215 145.642776 -78.750809
-119.508797 145.262466 -79.997017
-148.935623 132.373672 -82.095276
-148.810776 133.088440 -81.401955
-120.707558 146.069061 -77.228195
-120.012215 145.642776 -78.750809
-148.810776 133.088440 -81.401955
-148.534103 133.993103 -80.412376
-122.435768 146.693008 -74.477295
-120.707558 146.069061 -77.228195
-148.534103 133.993103 -80.412376
-148.083588 134.961960 -79.225754
-122.505089 146.707947 -74.391884
-122.435760 146.693008 -74.477303
-148.083588 134.961960 -79.225754
-147.713699 135.559814 -78.459480
-124.592728 146.997009 -72.375641
-122.505089 146.707932 -74.391891
-147.713699 135.559814 -78.459480
-147.064545 136.457687 -77.281296
-125.784096 147.111374 -71.534088
-124.592728 146.997009 -72.375641
-147.064545 136.457687 -77.281296
-146.427612 137.209335 -76.327057
-126.578171 147.188568 -71.039619
-125.784096 147.111374 -71.534088
-146.427612 137.209335 -76.327057
-145.926224 137.775864 -75.623764
-128.351181 147.221176 -70.266327
-126.578171 147.188568 -71.039619
-145.926224 137.775879 -75.623764
-144.736786 138.971191 -74.297783
-129.952042 147.109802 -69.811981
-128.351166 147.221191 -70.266335
-144.736786 138.971191 -74.297783
-144.607300 139.099091 -74.162956
-131.445419 146.833038 -69.574615
-129.952042 147.109802 -69.811981
-144.607300 139.099091 -74.162956
-143.528519 140.108002 -73.181358
-132.897949 146.406723 -69.506569
-131.445419 146.833038 -69.574615
-143.528519 140.108002 -73.181358
-142.286240 141.150024 -72.311424
-134.326981 145.869644 -69.572723
-132.897919 146.406723 -69.506569
-142.286240 141.150024 -72.311424
-142.043137 141.351334 -72.149033
-135.742783 145.255493 -69.750565
-134.326981 145.869644 -69.572723
-142.043137 141.351303 -72.149048
-141.038010 142.141983 -71.547096
-137.125031 144.581436 -70.040161
-135.742783 145.255493 -69.750565
-141.038010 142.141983 -71.547096
-139.758148 143.011292 -70.978806
-138.150909 144.001205 -70.370506
-137.125031 144.581436 -70.040161
-139.758148 143.011292 -70.978806
-138.456253 143.820831 -70.478035
-138.456253 143.820831 -70.478035
-138.150909 144.001205 -70.370506
0 1
2 3
4 5
6 7
8 9
10 11
12 13
14 15
16 17
18 19
20 21
22 23
24 25
26 27
28 29
30 31
32 33
34 35
36 37
38 39
40 41
42 43
44 45
46 47
48 49
50 51
52 53
54 55
56 57
58 59
60 61
62 63
64 65
66 67
68 69
70 71
72 73
74 75
76 77
78 79
80 81
82 83
84 85
86 87
88 89
90 91
92 93
94 95
96 97
98 99
100 101
102 103
104 105
106 107
108 109
110 111
112 113
114 115
116 117
118 119
120 121
122 123
124 125
126 127
128 129
130 131
132 133
134 135
136 137
138 139
140 141
142 143
144 145
146 147
148 149
150 151
152 153
154 155
156 157
158 159
