ply
format ascii 1.0
element vertex 216
property float x
property float y
property float z
element edge 108
property int vertex1
property int vertex2
end_header
-78.915382 15.289648 -135.668732
-79.457619 16.585398 -135.551102
-79.457626 16.585403 -135.551102
-80.117439 18.079237 -135.434341
-80.117439 18.079237 -135.434341
-80.866524 19.452229 -135.311569
-80.866524 19.452229 -135.311569
-81.672798 20.825525 -135.173981
-81.672798 20.825525 -135.173981
-82.197304 21.555096 -135.079483
-82.197304 21.555096 -135.079483
-83.502678 23.232933 -134.825882
-83.502678 23.232933 -134.825882
-83.747681 23.531048 -134.775711
-83.747681 23.531048 -134.775711
-84.788712 24.579174 -134.561005
-84.788712 24.579174 -134.561005
-86.078598 25.803263 -134.287704
-86.078598 25.803263 -134.287704
-86.512672 26.201078 -134.194809
-86.512672 26.201078 -134.194809
-87.355865 26.860958 -134.017838
-87.355865 26.860960 -134.017838
-88.615402 27.773359 -133.753677
-88.615402 27.773359 -133.753677
-89.878174 28.670250 -133.481979
-89.878174 28.670250 -133.481979
-90.105217 28.821154 -133.432465
-90.105217 28.821154 -133.432465
-91.114799 29.399929 -133.212326
-91.114799 29.399925 -133.212326
-92.335823 30.029795 -132.937210
-92.335823 30.029795 -132.937210
-93.550270 30.613420 -132.649445
-93.550270 30.613420 -132.649445
-94.763229 31.160759 -132.346344
-94.763229 31.160757 -132.346359
-95.058701 31.278362 -132.271362
-95.058701 31.278366 -132.271362
-95.962860 31.595789 -132.041046
-95.962860 31.595789 -132.041046
-97.160866 31.963263 -131.734482
-97.160866 31.963263 -131.734482
-98.365250 32.306816 -131.427948
-98.365250 32.306816 -131.427948
-99.567581 32.649971 -131.121918
-99.567581 32.649971 -131.121918
-100.769157 33.017673 -130.808411
-100.769157 33.017673 -130.808411
-101.975075 33.446529 -130.474518
-101.975075 33.446529 -130.474518
-102.115555 33.502201 -130.433731
-102.115570 33.502213 -130.433746
-103.191658 33.906330 -130.116287
-103.191643 33.906330 -130.116287
-104.468193 34.504932 -129.714005
-104.468193 34.504932 -129.714005
-105.849022 35.366882 -129.252487
-105.849022 35.366882 -129.252487
-106.401642 35.791481 -129.060822
-106.401642 35.791481 -129.060822
-107.360786 36.560432 -128.731995
-107.360786 36.560432 -128.731995
-108.884705 38.198814 -128.151566
-108.884705 38.198814 -128.151566
-109.011581 38.350609 -128.099731
-109.011581 38.350609 -128.099731
-110.605324 40.659081 -127.342270
-110.605324 40.659077 -127.342270
-110.813354 40.999691 -127.229073
-110.813354 40.999691 -127.229073
-111.979034 43.137878 -126.510170
-111.979034 43.137878 -126.510170
-112.881493 44.962654 -125.867981
-112.881485 44.962662 -125.867981
-113.194511 45.618790 -125.630043
-113.194511 45.618790 -125.630043
-114.383965 48.084728 -124.686958
-114.383965 48.084728 -124.686958
-115.437904 50.230522 -123.818268
-115.437904 50.230522 -123.818268
-115.587013 50.529678 -123.694221
-115.587013 50.529678 -123.694221
-116.845917 52.950008 -122.653137
-116.845909 52.950012 -122.653137
-118.108055 55.358765 -121.598297
-118.108055 55.358765 -121.598297
-118.389091 55.868843 -121.367378
-118.389091 55.868843 -121.367378
-119.435989 57.749962 -120.510284
-119.435989 57.749962 -120.510284
-120.768127 60.134216 -119.424393
-120.768135 60.134212 -119.424400
-121.512901 61.421158 -118.830185
-121.512901 61.421158 -118.830185
-122.160904 62.502014 -118.323700
-122.160904 62.502014 -118.323700
-123.588654 64.851334 -117.221901
-123.588654 64.851334 -117.221901
-124.751701 66.713921 -116.339661
-124.751701 66.713921 -116.339661
-125.060127 67.177841 -116.111855
-125.060127 67.177834 -116.111862
-126.630272 69.467262 -114.968292
-126.630272 69.467262 -114.968292
-127.938133 71.297379 -114.034447
-127.938133 71.297371 -114.034447
-128.269806 71.720139 -113.805954
-128.269806 71.720139 -113.805954
-130.061218 73.917747 -112.593384
-130.061218 73.917740 -112.593369
-130.909729 74.900330 -112.032379
-130.909729 74.900330 -112.032379
-132.021637 76.051071 -111.323174
-132.021652 76.051071 -111.323181
-133.568924 77.580742 -110.346161
-133.568924 77.580742 -110.346161
-134.191010 78.103073 -109.967873
-134.191010 78.103073 -109.967873
-135.874817 79.429207 -108.951347
-135.874817 79.429207 -108.951347
-136.842163 80.011269 -108.396049
-136.842163 80.011269 -108.396049
-137.863602 80.570541 -107.818054
-137.863602 80.570541 -107.818054
-139.500885 81.009178 -106.974861
-139.500885 81.009178 -106.974861
-140.754868 80.755150 -106.436287
-140.754837 80.755157 -106.436287
-141.528061 79.687820 -106.270645
-141.528061 79.687820 -106.270645
-141.607086 78.915115 -106.375183
-141.607086 78.915115 -106.375183
-141.580978 77.459030 -106.651230
-141.580978 77.459030 -106.651230
-141.376663 76.546539 -106.906006
-141.376663 76.546539 -106.906006
-140.670120 74.285797 -107.601418
-140.670105 74.285805 -107.601402
-140.021759 72.564034 -108.159599
-140.021759 72.564034 -108.159599
-139.793152 72.023834 -108.344658
-139.793182 72.023857 -108.344673
-138.736908 69.757263 -109.168381
-138.736908 69.757263 -109.168381
-137.615768 67.467781 -110.046097
-137.615768 67.467781 -110.046097
-136.453949 65.167862 -110.981171
-136.453964 65.167862 -110.981171
-135.263977 62.866196 -111.957687
-135.263977 62.866196 -111.957687
-134.120316 60.698997 -112.900146
-134.120316 60.698997 -112.900146
-134.044662 60.559452 -112.961952
-134.044662 60.559452 -112.961952
-132.753250 58.250805 -114.000679
-132.753250 58.250805 -114.000679
-131.479980 55.913624 -115.025826
-131.479980 55.913624 -115.025826
-130.223206 53.548985 -116.044449
-130.223206 53.548985 -116.044449
-129.773956 52.710407 -116.407669
-129.773956 52.710407 -116.407669
-128.906250 51.173237 -117.096107
-128.906265 51.173237 -117.096123
-127.620880 48.778244 -118.129524
-127.620880 48.778244 -118.129524
-126.730835 47.091347 -118.842522
-126.730835 47.091347 -118.842522
-126.314888 46.376839 -119.161377
-126.314888 46.376839 -119.161377
-124.960678 43.975220 -120.207603
-124.960678 43.975220 -120.207603
-124.081406 42.375450 -120.896820
-124.081406 42.375446 -120.896805
-123.590462 41.569168 -121.269936
-123.590462 41.569168 -121.269936
-122.214424 39.165474 -122.349236
-122.214439 39.165474 -122.349236
-121.722748 38.269672 -122.740578
-121.722748 38.269672 -122.740578
-120.810379 36.774677 -123.429993
-120.810379 36.774677 -123.429993
-119.599808 34.677750 -124.337700
-119.599808 34.677750 -124.337700
-119.409828 34.390209 -124.470261
-119.409828 34.390209 -124.470261
-117.917793 32.024574 -125.501404
-117.917778 32.024567 -125.501381
-117.566772 31.446016 -125.741356
-117.566772 31.446016 -125.741356
-116.359589 29.665646 -126.532509
-116.359596 29.665646 -126.532524
-115.601135 28.449057 -127.039223
-115.601135 28.449057 -127.039223
-114.830551 27.297424 -127.537819
-114.830551 27.297424 -127.537819
-113.792900 25.585276 -128.203400
-113.792900 25.585276 -128.203400
-113.368286 24.916946 -128.458328
-113.368286 24.916946 -128.458328
-112.141045 22.876701 -129.135727
-112.141068 22.876701 -129.135727
-111.930229 22.547676 -129.236038
-111.930229 22.547676 -129.236038
-110.529030 20.477512 -129.776398
-110.529030 20.477512 -129.776398
-110.356247 20.243109 -129.828690
-110.356247 20.243109 -129.828690
-108.867142 18.438732 -130.189697
-108.867142 18.438732 -130.189697
-108.495773 18.005913 -130.261597
-108.495773 18.005913 -130.261597
-107.218025 16.677160 -130.473907
-107.218025 16.677160 -130.473907
-106.407249 15.818434 -130.579544
0 1
2 3
4 5
6 7
8 9
10 11
12 13
14 15
16 17
18 19
20 21
22 23
24 25
26 27
28 29
30 31
32 33
34 35
36 37
38 39
40 41
42 43
44 45
46 47
48 49
50 51
52 53
54 55
56 57
58 59
60 61
62 63
64 65
66 67
68 69
70 71
72 73
74 75
76 77
78 79
80 81
82 83
84 85
86 87
88 89
90 91
92 93
94 95
96 97
98 99
100 101
102 103
104 105
106 107
108 109
110 111
112 113
114 115
116 117
118 119
120 121
122 123
124 125
126 127
128 129
130 131
132 133
134 135
136 137
138 139
140 141
142 143
144 145
146 147
148 149
150 151
152 153
154 155
156 157
158 159
160 161
162 163
164 165
166 167
168 169
170 171
172 173
174 175
176 177
178 179
180 181
182 183
184 185
186 187
188 189
190 191
192 193
194 195
196 197
198 199
200 201
202 203
204 205
206 207
208 209
210 211
212 213
214 215
