ply
format ascii 1.0
element vertex 96
property float x
property float y
property float z
element edge 48
property int vertex1
property int vertex2
end_header
-127.260208 121.429886 -99.000824
-125.979622 122.201836 -98.987000
-128.727554 120.893623 -98.798798
-127.260208 121.429886 -99.000824
-125.979622 122.201843 -98.987015
-125.922417 122.242798 -98.982422
-130.329895 120.641914 -98.369408
-128.727554 120.893623 -98.798798
-125.922424 122.242790 -98.982422
-124.773613 123.476822 -98.632469
-131.503159 120.683311 -97.908264
-130.329895 120.641914 -98.369408
-124.773613 123.476822 -98.632469
-123.702232 124.911880 -98.167511
-132.110245 120.775398 -97.621765
-131.503159 120.683311 -97.908279
-123.702232 124.911880 -98.167511
-123.471474 125.361061 -97.993492
-134.149780 121.462555 -96.395813
-132.110245 120.775398 -97.621765
-123.471474 125.361061 -97.993492
-122.874046 126.875206 -97.379372
-135.128647 121.953247 -95.693306
-134.149780 121.462555 -96.395813
-122.874054 126.875206 -97.379387
-122.463089 128.196823 -96.829445
-136.660324 123.126900 -94.322876
-135.128647 121.953247 -95.693306
-122.463089 128.196823 -96.829445
-122.268005 129.186340 -96.370049
-137.216080 123.619652 -93.779922
-136.660324 123.126900 -94.322876
-122.268005 129.186340 -96.370049
-122.067696 130.705414 -95.578575
-138.605804 125.461700 -92.024551
-137.216080 123.619652 -93.779922
-122.067688 130.705399 -95.578575
-122.012268 131.957138 -94.800438
-139.550980 127.425507 -90.368828
-138.605789 125.461700 -92.024551
-122.012268 131.957138 -94.800438
-122.011360 132.875320 -94.141273
-140.119690 129.476562 -88.786751
-139.550980 127.425507 -90.368828
-122.011360 132.875320 -94.141273
-122.160126 134.765366 -92.461235
-140.184982 130.161682 -88.292007
-140.119690 129.476562 -88.786751
-122.160126 134.765366 -92.461235
-122.322342 135.858368 -91.275002
-140.246384 131.535461 -87.257591
-140.184982 130.161682 -88.292007
-122.322334 135.858368 -91.275002
-122.421623 136.494629 -90.524399
-140.029434 132.992401 -86.114777
-140.246384 131.535461 -87.257599
-122.421623 136.494644 -90.524414
-122.942421 138.020187 -88.390137
-139.899170 133.490997 -85.690086
-140.029434 132.992401 -86.114777
-122.942421 138.020187 -88.390137
-123.784187 139.269623 -86.073074
-139.290024 134.713776 -84.609169
-139.899170 133.490997 -85.690086
-123.784187 139.269623 -86.073074
-123.865067 139.333725 -85.914597
-138.871704 135.340744 -83.996704
-139.290024 134.713776 -84.609169
-123.865067 139.333710 -85.914597
-125.381424 140.082794 -83.492355
-138.268021 136.000305 -83.345741
-138.871704 135.340744 -83.996704
-125.381424 140.082794 -83.492355
-126.257111 140.264343 -82.501877
-137.078049 137.073349 -82.246521
-138.268021 136.000305 -83.345741
-126.257111 140.264343 -82.501877
-128.225952 140.372025 -81.006767
-136.902176 137.211411 -82.107819
-137.078049 137.073349 -82.246521
-128.225952 140.372025 -81.006767
-129.250549 140.294968 -80.567894
-135.782578 137.963348 -81.410065
-136.902176 137.211411 -82.107819
-129.250549 140.294968 -80.567894
-129.976349 140.223892 -80.317795
-134.435181 138.732880 -80.766548
-135.782578 137.963348 -81.410065
-129.976349 140.223862 -80.317795
-131.571579 139.887421 -80.136475
-133.046799 139.396774 -80.295372
-134.435165 138.732864 -80.766525
-131.571579 139.887421 -80.136475
-132.577652 139.560791 -80.233368
-132.577652 139.560791 -80.233368
-133.046799 139.396774 -80.295372
0 1
2 3
4 5
6 7
8 9
10 11
12 13
14 15
16 17
18 19
20 21
22 23
24 25
26 27
28 29
30 31
32 33
34 35
36 37
38 39
40 41
42 43
44 45
46 47
48 49
50 51
52 53
54 55
56 57
58 59
60 61
62 63
64 65
66 67
68 69
70 71
72 73
74 75
76 77
78 79
80 81
82 83
84 85
86 87
88 89
90 91
92 93
94 95
