ply
format ascii 1.0
element vertex 42
property float x
property float y
property float z
element edge 21
property int vertex1
property int vertex2
end_header
-219.984390 123.318527 -65.642105
-220.794647 122.712189 -66.078484
-218.838547 124.284294 -64.870705
-219.984390 123.318527 -65.642105
-220.794647 122.712204 -66.078499
-222.928970 121.306984 -66.956863
-216.979858 125.909843 -63.480686
-218.838547 124.284294 -64.870705
-222.928970 121.306984 -66.956863
-225.276016 119.921967 -67.681145
-216.756958 126.117165 -63.290955
-216.979858 125.909843 -63.480686
-215.196106 127.796646 -61.575863
-216.756958 126.117165 -63.290955
-214.740570 128.283447 -61.038960
-215.196106 127.796646 -61.575863
-213.515808 129.932755 -58.808578
-214.740570 128.283447 -61.038960
-212.983383 131.088074 -56.525753
-213.513046 129.939468 -58.797150
-213.513046 129.939468 -58.797150
-213.515808 129.932755 -58.808578
-213.046188 131.800476 -54.133537
-212.983383 131.088074 -56.525776
-213.861740 132.144379 -51.570057
-213.046188 131.800476 -54.133537
-213.866791 132.144638 -51.562428
-213.861740 132.144379 -51.570057
-215.810303 132.115234 -49.146259
-213.866791 132.144638 -51.562428
-216.050629 132.094833 -48.930103
-215.810303 132.115234 -49.146259
-217.635513 131.836685 -48.042999
-216.050629 132.094833 -48.930103
-219.359100 131.362122 -47.535908
-217.635513 131.836685 -48.042999
-221.129486 130.694885 -47.457298
-219.359100 131.362122 -47.535908
-223.014877 129.907211 -47.765858
-221.129486 130.694885 -47.457306
-225.032593 129.061356 -48.397491
-223.014877 129.907211 -47.765858
0 1
2 3
4 5
6 7
8 9
10 11
12 13
14 15
16 17
18 19
20 21
22 23
24 25
26 27
28 29
30 31
32 33
34 35
36 37
38 39
40 41
