ply
format ascii 1.0
element vertex 70
property float x
property float y
property float z
element edge 35
property int vertex1
property int vertex2
end_header
-157.943085 57.849716 -102.220222
-158.291336 57.629860 -102.089584
-157.535294 58.199280 -102.364288
-157.943085 57.849716 -102.220222
-156.923615 58.894753 -102.558014
-157.535294 58.199280 -102.364288
-156.386765 59.696201 -102.701218
-156.923615 58.894741 -102.557983
-156.150604 60.203037 -102.749191
-156.386765 59.696201 -102.701218
-156.008133 60.780296 -102.755127
-156.150604 60.203037 -102.749191
-155.786606 62.105114 -102.730995
-156.008133 60.780296 -102.755127
-155.768524 62.518162 -102.703041
-155.786606 62.105114 -102.730995
-155.953903 63.911362 -102.503647
-155.768524 62.518166 -102.703049
-156.133072 64.694359 -102.354576
-155.953903 63.911362 -102.503647
-156.837234 66.515160 -101.868355
-156.133072 64.694359 -102.354576
-156.946030 66.754417 -101.795654
-156.837234 66.515160 -101.868355
-158.100922 68.741211 -101.085739
-156.946030 66.754417 -101.795654
-159.467087 70.677910 -100.306694
-158.100906 68.741219 -101.085732
-161.025757 72.563667 -99.499252
-159.467072 70.677910 -100.306686
-162.233978 73.819427 -98.928619
-161.025757 72.563667 -99.499252
-162.773773 74.355545 -98.681190
-162.233994 73.819427 -98.928612
-164.029434 75.471992 -98.125977
-162.773773 74.355545 -98.681190
-164.685532 76.030609 -97.838806
-164.029404 75.471992 -98.125977
-166.758453 77.572166 -96.946564
-164.685516 76.030609 -97.838806
-168.981827 78.974831 -95.985199
-166.758453 77.572166 -96.946564
-171.376328 80.255714 -94.951042
-168.981827 78.974831 -95.985199
-173.992538 81.402252 -93.859276
-171.376373 80.255722 -94.951065
-174.148880 81.460266 -93.796661
-173.992538 81.402252 -93.859276
-176.999084 82.354843 -92.715851
-174.148880 81.460266 -93.796661
-179.293701 82.882431 -91.936691
-176.999084 82.354843 -92.715851
-180.464020 83.075371 -91.575737
-179.293701 82.882431 -91.936691
-183.484177 83.371895 -90.747910
-180.463989 83.075363 -91.575729
-184.702530 83.407158 -90.454994
-183.484177 83.371895 -90.747910
-187.170471 83.340019 -89.926414
-184.702530 83.407158 -90.454994
-190.407928 82.985703 -89.357033
-187.170471 83.340019 -89.926414
-190.600327 82.955193 -89.328316
-190.407928 82.985703 -89.357033
-193.889359 82.196953 -88.977730
-190.600327 82.955193 -89.328316
-197.222351 81.114006 -88.898140
-193.889389 82.196968 -88.977745
-200.673523 79.668030 -89.121048
-197.222351 81.114006 -88.898140
0 1
2 3
4 5
6 7
8 9
10 11
12 13
14 15
16 17
18 19
20 21
22 23
24 25
26 27
28 29
30 31
32 33
34 35
36 37
38 39
40 41
42 43
44 45
46 47
48 49
50 51
52 53
54 55
56 57
58 59
60 61
62 63
64 65
66 67
68 69
