ply
format ascii 1.0
element vertex 290
property float x
property float y
property float z
element edge 145
property int vertex1
property int vertex2
end_header
-71.040558 17.610548 -136.609528
-70.792290 14.712765 -136.686508
-71.431007 20.462069 -136.645493
-71.040558 17.610548 -136.609528
-71.853302 22.392376 -136.670258
-71.431007 20.462069 -136.645493
-72.077240 23.259640 -136.668320
-71.853302 22.392376 -136.670258
-73.124603 25.773718 -136.544937
-72.077240 23.259640 -136.668320
-73.245239 26.003544 -136.522034
-73.124603 25.773718 -136.544937
-74.301422 27.365271 -136.304657
-73.245239 26.003544 -136.522034
-75.486992 28.518791 -136.019058
-74.301422 27.365273 -136.304688
-75.747002 28.755156 -135.952118
-75.486992 28.518791 -136.019058
-76.695572 29.392153 -135.722351
-75.747002 28.755156 -135.952118
-77.920662 30.141405 -135.434250
-76.695572 29.392153 -135.722351
-79.151398 30.900812 -135.151428
-77.920654 30.141401 -135.434235
-80.012421 31.504120 -134.949203
-79.151398 30.900812 -135.151428
-80.392799 31.737255 -134.863815
-80.012421 31.504120 -134.949203
-81.616463 32.482582 -134.586884
-80.392799 31.737255 -134.863815
-82.849106 33.220634 -134.301163
-81.616463 32.482586 -134.586884
-84.119789 34.086933 -133.988129
-82.849106 33.220634 -134.301163
-84.253357 34.191837 -133.953308
-84.119789 34.086933 -133.988129
-85.410408 34.943855 -133.668610
-84.253365 34.191845 -133.953339
-86.702911 35.707386 -133.360687
-85.410408 34.943848 -133.668625
-88.016876 36.607082 -133.027802
-86.702911 35.707386 -133.360687
-88.214516 36.763554 -132.973709
-88.016876 36.607082 -133.027802
-89.331627 37.533989 -132.676163
-88.214516 36.763554 -132.973709
-90.620644 38.350723 -132.322723
-89.331635 37.533981 -132.676178
-91.870247 39.278618 -131.931000
-90.620644 38.350723 -132.322723
-91.943916 39.337391 -131.906372
-91.870247 39.278618 -131.931000
-93.265030 40.246384 -131.474487
-91.943916 39.337391 -131.906372
-94.595215 41.124741 -131.023819
-93.265015 40.246380 -131.474487
-95.429092 41.745972 -130.721497
-94.595215 41.124741 -131.023819
-95.978485 42.156086 -130.520599
-95.429085 41.745964 -130.721497
-97.357117 43.069740 -130.036667
-95.978485 42.156086 -130.520599
-98.775620 44.090054 -129.529266
-97.357117 43.069744 -130.036682
-98.911713 44.194767 -129.479721
-98.775620 44.090054 -129.529266
-100.209564 45.140228 -129.017670
-98.911713 44.194767 -129.479721
-101.651657 46.212990 -128.495575
-100.209564 45.140228 -129.017670
-102.150993 46.622990 -128.305557
-101.651657 46.212990 -128.495575
-103.146461 47.423798 -127.925201
-102.150993 46.622990 -128.305557
-104.693115 48.700108 -127.322388
-103.146461 47.423798 -127.925201
-105.046631 49.021683 -127.179497
-104.693115 48.700108 -127.322388
-106.342552 50.155628 -126.669502
-105.046631 49.021683 -127.179497
-107.656204 51.418095 -126.145409
-106.342552 50.155628 -126.669502
-108.089790 51.842819 -125.972351
-107.656204 51.418095 -126.145409
-109.867920 53.739933 -125.217247
-108.089783 51.842812 -125.972351
-109.943771 53.830605 -125.181923
-109.867920 53.739933 -125.217247
-111.649574 55.876301 -124.337555
-109.943779 53.830605 -125.181915
-111.927444 56.249615 -124.180779
-111.649574 55.876301 -124.337555
-113.445694 58.304909 -123.251846
-111.927444 56.249615 -124.180779
-113.696747 58.664318 -123.082756
-113.445694 58.304909 -123.251846
-115.378876 61.022995 -121.892029
-113.696747 58.664318 -123.082756
-115.394348 61.044888 -121.880577
-115.378876 61.022995 -121.892029
-117.071289 63.392067 -120.619179
-115.394348 61.044895 -121.880577
-117.520386 63.987045 -120.281898
-117.071289 63.392067 -120.619179
-118.776611 65.705513 -119.327522
-117.520386 63.987045 -120.281898
-119.941673 67.264641 -118.456848
-118.776611 65.705513 -119.327522
-120.500534 67.995621 -118.047493
-119.941681 67.264641 -118.456848
-122.163071 70.285713 -116.832352
-120.500534 67.995628 -118.047493
-122.696770 70.968727 -116.458466
-122.163071 70.285713 -116.832352
-123.904678 72.547577 -115.613785
-122.696770 70.968727 -116.458466
-125.579689 74.800415 -114.437630
-123.904678 72.547577 -115.613785
-125.674194 74.914551 -114.373650
-125.579674 74.800392 -114.437607
-127.331978 77.010643 -113.232117
-125.674194 74.914551 -114.373650
-128.781189 78.792656 -112.239578
-127.331978 77.010635 -113.232117
-129.130524 79.182297 -112.007652
-128.781189 78.792656 -112.239578
-130.955109 81.326607 -110.777786
-129.130524 79.182297 -112.007652
-131.937607 82.396469 -110.135429
-130.955109 81.326607 -110.777786
-132.939148 83.415581 -109.497162
-131.937607 82.396469 -110.135429
-134.949158 85.476776 -108.220482
-132.939148 83.415573 -109.497162
-134.988190 85.513687 -108.196350
-134.949158 85.476776 -108.220482
-137.157791 87.460129 -106.882545
-134.988174 85.513680 -108.196365
-137.872314 88.066162 -106.458626
-137.157791 87.460129 -106.882545
-139.588516 89.339134 -105.476921
-137.872314 88.066162 -106.458626
-140.553711 90.034851 -104.931442
-139.588531 89.339142 -105.476929
-142.337540 91.081345 -103.970970
-140.553711 90.034851 -104.931442
-143.003693 91.469955 -103.614128
-142.337540 91.081345 -103.970970
-145.150269 92.343086 -102.532158
-143.003693 91.469955 -103.614128
-145.926041 92.516243 -102.166016
-145.150269 92.343086 -102.532158
-147.030914 92.751396 -101.645416
-145.926041 92.516243 -102.166016
-148.565475 92.608414 -101.013367
-147.030914 92.751396 -101.645416
-149.748672 91.960014 -100.635963
-148.565475 92.608414 -101.013374
-150.170776 91.273682 -100.584122
-149.748672 91.960014 -100.635963
-150.485535 90.731590 -100.546745
-150.170776 91.273682 -100.584122
-150.754227 88.895309 -100.729019
-150.485535 90.731590 -100.546745
-150.736923 88.725983 -100.762108
-150.754227 88.895309 -100.729019
-150.399673 86.411079 -101.254684
-150.736923 88.725983 -100.762108
-150.357559 86.157860 -101.311539
-150.399658 86.411072 -101.254669
-149.737640 84.182228 -101.881279
-150.357559 86.157860 -101.311539
-149.008530 82.153610 -102.521942
-149.737640 84.182228 -101.881279
-148.947678 81.994675 -102.574303
-149.008530 82.153610 -102.521942
-147.938553 79.875053 -103.355568
-148.947678 81.994675 -102.574303
-146.806671 77.777161 -104.184280
-147.938568 79.875061 -103.355560
-145.664185 75.655457 -105.019279
-146.806671 77.777161 -104.184280
-144.875336 74.156227 -105.602592
-145.664185 75.655457 -105.019279
-144.536697 73.490395 -105.857658
-144.875336 74.156227 -105.602592
-143.356598 71.300079 -106.738449
-144.536697 73.490402 -105.857643
-142.148071 69.089394 -107.649399
-143.356598 71.300072 -106.738464
-140.917099 66.862938 -108.581215
-142.148071 69.089394 -107.649399
-139.650467 64.624420 -109.535202
-140.917099 66.862938 -108.581215
-138.870255 63.299313 -110.116592
-139.650467 64.624420 -109.535202
-138.331696 62.372749 -110.521385
-138.870270 63.299316 -110.116585
-137.033829 60.095230 -111.509758
-138.331696 62.372749 -110.521385
-135.795288 57.785400 -112.479164
-137.033829 60.095230 -111.509758
-134.608490 55.437943 -113.432236
-135.795288 57.785400 -112.479164
-133.448761 53.059254 -114.389114
-134.608490 55.437943 -113.432236
-132.275375 50.660549 -115.380875
-133.448761 53.059254 -114.389114
-132.185852 50.479565 -115.457558
-132.275375 50.660542 -115.380882
-131.125214 48.244671 -116.396477
-132.185852 50.479565 -115.457558
-130.085495 45.814022 -117.378311
-131.125214 48.244671 -116.396477
-129.103699 43.376999 -118.332687
-130.085495 45.814022 -117.378311
-128.148666 40.938541 -119.254921
-129.103699 43.376999 -118.332687
-127.213661 38.519066 -120.130989
-128.148666 40.938541 -119.254921
-127.203972 38.494980 -120.139755
-127.213661 38.519066 -120.130989
-126.286301 36.040867 -120.985802
-127.203987 38.494987 -120.139763
-125.425903 33.575626 -121.790115
-126.286301 36.040867 -120.985802
-124.630966 31.101437 -122.558022
-125.425903 33.575626 -121.790115
-123.913933 28.634201 -123.277054
-124.630943 31.101433 -122.557999
-123.281883 26.179108 -123.919838
-123.913925 28.634197 -123.277054
-123.081886 25.289692 -124.125618
-123.281883 26.179108 -123.919838
-122.752670 23.735807 -124.451904
-123.081886 25.289692 -124.125618
-122.362801 21.289011 -124.830231
-122.752670 23.735807 -124.451904
-122.241478 19.835125 -124.961899
-122.362801 21.289011 -124.830231
-122.273605 18.779158 -124.986908
-122.241478 19.835125 -124.961899
-122.425797 17.477591 -124.955200
-122.273605 18.779158 -124.986908
-122.959633 16.112696 -124.747017
-122.425797 17.477587 -124.955193
-122.968414 16.100288 -124.743324
-122.959633 16.112696 -124.747017
-123.634247 15.166471 -124.468292
-122.968414 16.100288 -124.743324
-124.420090 14.531943 -124.130623
-123.634247 15.166471 -124.468292
-125.280502 14.098638 -123.752098
-124.420090 14.531943 -124.130623
-126.197220 13.818919 -123.341171
-125.280502 14.098638 -123.752098
-127.162285 13.670712 -122.904785
-126.197220 13.818919 -123.341171
-128.160812 13.631201 -122.453705
-127.162270 13.670724 -122.904793
-129.181656 13.671309 -121.992531
-128.160812 13.631201 -122.453705
-130.205917 13.771791 -121.519257
-129.181656 13.671309 -121.992531
-131.221268 13.923406 -121.018723
-130.205917 13.771791 -121.519257
-132.239243 14.126963 -120.470444
-131.221268 13.923406 -121.018723
-132.869247 14.269288 -120.108498
-132.239243 14.126963 -120.470444
-133.259979 14.334858 -119.879059
-132.869247 14.269288 -120.108498
-134.277832 14.488306 -119.267517
-133.259964 14.334861 -119.879059
-135.300919 14.611658 -118.646469
-134.277832 14.488306 -119.267517
-136.309998 14.671312 -118.037216
-135.300919 14.611658 -118.646469
-137.285355 14.632051 -117.454605
-136.309998 14.671312 -118.037216
-138.208038 14.452204 -116.911644
-137.285355 14.632051 -117.454605
-139.069122 14.079522 -116.419090
-138.208038 14.452204 -116.911644
-139.845322 13.453770 -115.996552
-139.069153 14.079528 -116.419113
-140.256180 12.848305 -115.783188
-139.845322 13.453770 -115.996552
-140.382202 12.414748 -115.718575
-140.256180 12.848305 -115.783188
0 1
2 3
4 5
6 7
8 9
10 11
12 13
14 15
16 17
18 19
20 21
22 23
24 25
26 27
28 29
30 31
32 33
34 35
36 37
38 39
40 41
42 43
44 45
46 47
48 49
50 51
52 53
54 55
56 57
58 59
60 61
62 63
64 65
66 67
68 69
70 71
72 73
74 75
76 77
78 79
80 81
82 83
84 85
86 87
88 89
90 91
92 93
94 95
96 97
98 99
100 101
102 103
104 105
106 107
108 109
110 111
112 113
114 115
116 117
118 119
120 121
122 123
124 125
126 127
128 129
130 131
132 133
134 135
136 137
138 139
140 141
142 143
144 145
146 147
148 149
150 151
152 153
154 155
156 157
158 159
160 161
162 163
164 165
166 167
168 169
170 171
172 173
174 175
176 177
178 179
180 181
182 183
184 185
186 187
188 189
190 191
192 193
194 195
196 197
198 199
200 201
202 203
204 205
206 207
208 209
210 211
212 213
214 215
216 217
218 219
220 221
222 223
224 225
226 227
228 229
230 231
232 233
234 235
236 237
238 239
240 241
242 243
244 245
246 247
248 249
250 251
252 253
254 255
256 257
258 259
260 261
262 263
264 265
266 267
268 269
270 271
272 273
274 275
276 277
278 279
280 281
282 283
284 285
286 287
288 289
