ply
format ascii 1.0
element vertex 38
property float x
property float y
property float z
element edge 19
property int vertex1
property int vertex2
end_header
-75.884750 116.224091 13.236643
-75.777275 116.155479 13.354265
-77.093376 115.962921 12.865138
-75.884750 116.224091 13.236643
-75.777275 116.155479 13.354265
-74.803741 115.135048 14.816139
-78.328880 114.944366 13.183237
-77.093376 115.962921 12.865138
-74.803741 115.135048 14.816139
-74.646729 114.526466 15.480376
-78.339203 114.930656 13.190741
-78.328880 114.944366 13.183237
-74.646729 114.526466 15.480376
-74.481750 112.503105 17.510201
-79.567764 113.409401 14.002492
-78.339203 114.930656 13.190741
-74.481758 112.503143 17.510189
-74.613510 110.268692 19.568186
-80.790634 111.520424 15.199203
-79.567757 113.409393 14.002494
-74.613510 110.268692 19.568186
-74.824707 108.163322 21.441504
-80.805664 111.490913 15.220088
-80.790649 111.520432 15.199206
-74.824707 108.163322 21.441504
-74.853912 107.797874 21.768848
-81.971672 109.213875 16.825493
-80.805664 111.490913 15.220088
-82.274826 108.470268 17.384588
-81.971672 109.213875 16.825493
-83.078842 106.371582 18.972708
-82.274834 108.470291 17.384579
-83.352943 105.448730 19.708061
-83.078842 106.371582 18.972708
-84.082764 102.668961 21.984140
-83.352943 105.448730 19.708061
-84.152519 102.323532 22.281322
-84.082756 102.668961 21.984138
0 1
2 3
4 5
6 7
8 9
10 11
12 13
14 15
16 17
18 19
20 21
22 23
24 25
26 27
28 29
30 31
32 33
34 35
36 37
