ply
format ascii 1.0
element vertex 180
property float x
property float y
property float z
element edge 90
property int vertex1
property int vertex2
end_header
-91.611862 161.314011 -55.561657
-92.890076 160.973999 -55.706852
-91.454285 161.359436 -55.540489
-91.611862 161.314011 -55.561657
-92.890076 160.973999 -55.706852
-94.290871 160.598679 -55.716053
-90.034538 161.789841 -55.187626
-91.454285 161.359436 -55.540497
-94.290871 160.598679 -55.716053
-95.638390 160.181641 -55.574051
-88.718536 162.234756 -54.687149
-90.034538 161.789841 -55.187626
-95.638405 160.181656 -55.574051
-95.915802 160.078857 -55.510738
-87.497261 162.647797 -54.019070
-88.718536 162.234756 -54.687149
-95.915802 160.078857 -55.510738
-96.945190 159.657928 -55.246120
-86.356865 162.996338 -53.130341
-87.497261 162.647797 -54.019070
-96.945190 159.657928 -55.246120
-98.291786 159.000061 -54.737392
-85.988518 163.092606 -52.746208
-86.356865 162.996338 -53.130341
-98.291786 159.000061 -54.737392
-99.694458 158.222733 -54.010605
-85.277489 163.265564 -51.905506
-85.988518 163.092606 -52.746208
-99.694473 158.222733 -54.010593
-101.171272 157.326630 -52.942474
-84.227066 163.497498 -50.511604
-85.277489 163.265564 -51.905506
-101.171272 157.326630 -52.942474
-101.445671 157.145477 -52.677101
-83.903297 163.553436 -50.009029
-84.227066 163.497498 -50.511604
-101.445671 157.145477 -52.677101
-102.722267 156.247849 -51.109024
-83.211632 163.636703 -48.805779
-83.903290 163.553421 -50.009045
-102.722267 156.247849 -51.109024
-103.531113 155.639313 -49.821358
-82.440834 163.693115 -47.398693
-83.211632 163.636703 -48.805779
-103.531105 155.639313 -49.821373
-104.344879 154.891327 -47.941067
-82.176567 163.696045 -46.857513
-82.440834 163.693115 -47.398693
-104.344872 154.891312 -47.941059
-104.648148 154.574524 -47.093891
-81.161964 163.703735 -44.785538
-82.176552 163.696030 -46.857506
-104.648148 154.574524 -47.093891
-105.160583 153.655273 -44.544727
-81.113174 163.699875 -44.672508
-81.161964 163.703735 -44.785538
-105.160583 153.655273 -44.544727
-105.267395 152.693039 -42.182194
-80.108818 163.555206 -42.393677
-81.113174 163.699875 -44.672508
-105.267395 152.693039 -42.182194
-105.016556 151.578217 -39.908230
-80.045204 163.540176 -42.253620
-80.108818 163.555206 -42.393677
-105.016556 151.578217 -39.908230
-104.694641 150.929001 -38.704613
-79.133469 163.149643 -40.123749
-80.045204 163.540176 -42.253620
-104.694649 150.929031 -38.704613
-104.387062 150.342270 -37.681686
-78.944946 163.065384 -39.726913
-79.133469 163.149643 -40.123749
-104.387062 150.342270 -37.681686
-103.424042 149.035034 -35.478252
-78.104691 162.634766 -37.966663
-78.944946 163.065384 -39.726913
-103.424034 149.035019 -35.478264
-103.283730 148.896408 -35.242336
-77.596642 162.467773 -37.088646
-78.104691 162.634766 -37.966663
-103.283730 148.896408 -35.242336
-102.035965 147.757019 -33.282074
-77.009888 162.283005 -36.068249
-77.596642 162.467773 -37.088646
-102.035965 147.757019 -33.282074
-101.873489 147.636902 -33.067314
-75.933014 162.215454 -34.586926
-77.009888 162.283005 -36.068249
-101.873489 147.636902 -33.067314
-100.489853 146.773972 -31.468100
-75.699371 162.247238 -34.335648
-75.933014 162.215454 -34.586926
-100.489845 146.773972 -31.468102
-100.159630 146.584595 -31.107998
-74.880600 162.375122 -33.459553
-75.699371 162.247253 -34.335655
-100.159630 146.584595 -31.107998
-99.078781 146.120712 -30.139091
-99.078781 146.120712 -30.139091
-97.622215 145.621231 -28.921757
-97.622215 145.621231 -28.921757
-97.609772 145.617599 -28.911617
-97.609772 145.617599 -28.911617
-96.137589 145.381226 -27.870201
-96.137581 145.381210 -27.870197
-94.751060 145.235825 -26.808502
-94.751060 145.235825 -26.808502
-94.434959 145.196396 -26.546391
-94.434959 145.196396 -26.546391
-93.463425 145.105530 -25.786507
-93.463425 145.105530 -25.786507
-92.220924 144.935898 -24.807882
-92.220924 144.935898 -24.807884
-91.592079 144.773270 -24.260118
-91.592079 144.773270 -24.260118
-90.952065 144.588486 -23.701572
-90.952065 144.588486 -23.701572
-89.628387 144.136627 -22.496742
-89.628387 144.136627 -22.496742
-89.140465 143.910660 -21.992586
-89.140472 143.910675 -21.992596
-88.283577 143.422058 -21.018139
-88.283577 143.422058 -21.018139
-87.305908 142.683548 -19.743656
-87.305908 142.683548 -19.743656
-86.945465 142.314438 -19.182158
-86.945465 142.314438 -19.182158
-85.938339 141.169510 -17.504448
-85.938339 141.169510 -17.504448
-85.502151 140.539566 -16.613890
-85.502151 140.539551 -16.613892
-84.842186 139.568466 -15.204711
-84.842186 139.568466 -15.204711
-84.050484 137.935898 -12.861710
-84.050484 137.935898 -12.861710
-83.846443 137.354141 -12.043757
-83.846443 137.354141 -12.043757
-83.480217 136.274094 -10.529917
-83.480217 136.274094 -10.529917
-83.132401 134.511505 -8.259367
-83.132401 134.511490 -8.259380
-82.948372 132.615509 -6.039704
-82.948372 132.615509 -6.039704
-82.891998 130.602997 -3.864038
-82.891998 130.602997 -3.864038
-82.952766 128.487122 -1.733878
-82.952766 128.487122 -1.733878
-83.142654 126.260345 0.345158
-83.142654 126.260345 0.345158
-83.199493 125.882484 0.676587
-83.199493 125.882484 0.676587
-83.436913 123.919762 2.383242
-83.436913 123.919762 2.383242
-83.847908 121.458878 4.402154
-83.847916 121.458885 4.402142
-84.160965 120.131836 5.435034
-84.160965 120.131836 5.435035
-84.439369 118.868584 6.438657
-84.439369 118.868584 6.438657
-85.112457 116.247856 8.528076
-85.112457 116.247856 8.528076
-85.317711 115.585236 9.051071
-85.317711 115.585236 9.051071
-85.857285 113.617455 10.664925
-85.857285 113.617455 10.664925
-86.489990 111.378899 12.511726
-86.489990 111.378899 12.511726
-86.592186 110.995598 12.830301
-86.592186 110.995598 12.830301
-87.187859 108.403343 15.004522
-87.187859 108.403343 15.004522
-87.540527 106.803749 16.335510
-87.540527 106.803749 16.335510
-87.743050 105.726677 17.247484
-87.743065 105.726707 17.247473
-88.098534 102.999046 19.655834
-88.098534 102.999046 19.655834
-88.339653 100.878693 21.588659
-88.339653 100.878693 21.588659
-88.413193 100.104294 22.314289
0 1
2 3
4 5
6 7
8 9
10 11
12 13
14 15
16 17
18 19
20 21
22 23
24 25
26 27
28 29
30 31
32 33
34 35
36 37
38 39
40 41
42 43
44 45
46 47
48 49
50 51
52 53
54 55
56 57
58 59
60 61
62 63
64 65
66 67
68 69
70 71
72 73
74 75
76 77
78 79
80 81
82 83
84 85
86 87
88 89
90 91
92 93
94 95
96 97
98 99
100 101
102 103
104 105
106 107
108 109
110 111
112 113
114 115
116 117
118 119
120 121
122 123
124 125
126 127
128 129
130 131
132 133
134 135
136 137
138 139
140 141
142 143
144 145
146 147
148 149
150 151
152 153
154 155
156 157
158 159
160 161
162 163
164 165
166 167
168 169
170 171
172 173
174 175
176 177
178 179
