ply
format ascii 1.0
element vertex 130
property float x
property float y
property float z
element edge 65
property int vertex1
property int vertex2
end_header
-123.257774 132.071869 -12.745441
-123.614502 132.258850 -12.815674
-122.171204 131.460678 -12.478937
-123.257774 132.071869 -12.745441
-123.614502 132.258850 -12.815674
-124.991882 132.798157 -12.907545
-120.675255 130.468109 -11.927231
-122.171204 131.460678 -12.478937
-124.991890 132.798157 -12.907549
-126.320244 133.142441 -12.837885
-119.921204 129.881668 -11.549595
-120.675270 130.468140 -11.927229
-126.320244 133.142441 -12.837885
-127.634178 133.310349 -12.622396
-119.142227 129.206879 -11.086006
-119.921204 129.881668 -11.549595
-127.634178 133.310349 -12.622396
-128.940247 133.327927 -12.277767
-117.642136 127.731491 -10.009721
-119.142227 129.206879 -11.086006
-128.940247 133.327927 -12.277768
-130.239777 133.218887 -11.823261
-117.597351 127.682098 -9.972155
-117.642136 127.731491 -10.009721
-130.239777 133.218887 -11.823261
-131.539993 133.002594 -11.274977
-115.978943 125.763680 -8.420540
-117.597351 127.682098 -9.972155
-131.539993 133.002594 -11.274977
-132.845871 132.690308 -10.634581
-115.814400 125.560989 -8.245053
-115.978958 125.763695 -8.420539
-132.845856 132.690308 -10.634583
-133.372375 132.523178 -10.335224
-114.285515 123.564041 -6.392062
-115.814415 125.561005 -8.245065
-133.372375 132.523178 -10.335224
-134.150345 132.264648 -9.877234
-114.220863 123.476990 -6.306478
-114.285515 123.564041 -6.392062
-134.150345 132.264648 -9.877234
-135.450592 131.753799 -9.018017
-112.863838 121.470306 -4.259648
-114.220863 123.476990 -6.306478
-135.450592 131.753799 -9.018017
-136.713242 131.159958 -8.070720
-112.558403 120.977989 -3.743709
-112.863838 121.470306 -4.259648
-136.713242 131.159958 -8.070722
-137.511917 130.679932 -7.374943
-111.700081 119.488304 -2.183139
-112.558403 120.977989 -3.743709
-137.511917 130.679932 -7.374943
-137.924667 130.410858 -6.996845
-110.842018 117.803299 -0.461379
-111.700081 119.488304 -2.183139
-137.924667 130.410858 -6.996845
-139.091034 129.498947 -5.790164
-110.682808 117.465546 -0.123741
-110.842010 117.803276 -0.461378
-139.091034 129.498947 -5.790164
-140.033783 128.606812 -4.651852
-109.821983 115.355324 1.924565
-110.682808 117.465546 -0.123741
-140.033783 128.606812 -4.651852
-140.212936 128.424072 -4.417852
-109.028358 113.185127 3.947904
-109.821983 115.355324 1.924565
-140.212936 128.424072 -4.417852
-141.264084 127.172577 -2.807805
-109.021072 113.163841 3.967398
-109.028358 113.185127 3.947904
-141.264084 127.172577 -2.807805
-141.729813 126.511978 -1.948054
-108.341415 110.874908 6.025504
-109.021072 113.163841 3.967387
-141.729828 126.511986 -1.948064
-142.220398 125.772835 -0.979110
-107.723106 108.501808 8.126244
-108.341415 110.874908 6.025504
-142.220398 125.772835 -0.979110
-142.923325 124.517380 0.627215
-107.174751 106.078781 10.301182
-107.723106 108.501808 8.126244
-142.923325 124.517380 0.627215
-143.091507 124.187004 1.039915
-106.712456 103.644371 12.579519
-107.174751 106.078781 10.301182
-143.091507 124.187004 1.039915
-143.790588 122.527809 2.994930
-106.354446 101.241402 14.971591
-106.712456 103.644371 12.579519
-143.790588 122.527809 2.994930
-143.881790 122.282593 3.265758
-106.116280 98.829605 17.422363
-106.354446 101.241402 14.971591
-143.881790 122.282593 3.265756
-144.398972 120.472008 5.043432
-105.991547 96.242073 19.916315
-106.116295 98.829628 17.422352
-144.398972 120.472008 5.043432
-144.551453 119.820221 5.587956
-105.982010 93.302162 22.465981
-105.991547 96.242073 19.916315
-144.551453 119.820221 5.587956
-144.817734 118.185036 6.758152
-144.817734 118.185036 6.758152
-145.061172 116.187851 7.962500
-145.061172 116.187851 7.962500
-145.114288 115.605453 8.283497
-145.114288 115.605453 8.283497
-145.242584 112.822357 9.716527
-145.242584 112.822372 9.716520
-145.269653 110.360687 10.966267
-145.269653 110.360687 10.966267
-145.263901 109.962860 11.171921
-145.263901 109.962860 11.171921
-145.055405 107.143631 12.619537
-145.055405 107.143631 12.619537
-144.678940 104.355286 14.025438
-144.678940 104.355286 14.025438
-144.155334 101.559181 15.372811
-144.155334 101.559181 15.372811
-143.497467 98.702141 16.678951
-143.497467 98.702141 16.678951
-142.704163 95.709366 18.088966
-142.704178 95.709404 18.088961
-141.777374 92.600136 19.770470
-141.777374 92.600136 19.770470
-140.765457 89.397102 21.855383
0 1
2 3
4 5
6 7
8 9
10 11
12 13
14 15
16 17
18 19
20 21
22 23
24 25
26 27
28 29
30 31
32 33
34 35
36 37
38 39
40 41
42 43
44 45
46 47
48 49
50 51
52 53
54 55
56 57
58 59
60 61
62 63
64 65
66 67
68 69
70 71
72 73
74 75
76 77
78 79
80 81
82 83
84 85
86 87
88 89
90 91
92 93
94 95
96 97
98 99
100 101
102 103
104 105
106 107
108 109
110 111
112 113
114 115
116 117
118 119
120 121
122 123
124 125
126 127
128 129
