ply
format ascii 1.0
element vertex 98
property float x
property float y
property float z
element edge 49
property int vertex1
property int vertex2
end_header
-221.804962 126.351227 -20.998915
-220.912384 126.656570 -20.559755
-220.912384 126.656570 -20.559755
-219.689163 126.983627 -19.941114
-219.689163 126.983627 -19.941114
-217.516113 127.476662 -18.898266
-217.516083 127.476646 -18.898268
-215.287857 127.916542 -17.724165
-215.287857 127.916542 -17.724165
-215.267059 127.919998 -17.711554
-215.267059 127.919998 -17.711554
-213.017044 128.290161 -16.392506
-213.017044 128.290161 -16.392506
-211.012909 128.506332 -15.208266
-211.012909 128.506332 -15.208266
-210.727936 128.512573 -15.023140
-210.727936 128.512573 -15.023140
-208.319794 128.473145 -13.551959
-208.319794 128.473145 -13.551959
-207.330994 128.373672 -12.930393
-207.331009 128.373688 -12.930407
-205.694595 128.116501 -11.857881
-205.694595 128.116501 -11.857881
-203.874344 127.793304 -10.635407
-203.874344 127.793304 -10.635407
-202.900421 127.570839 -9.900393
-202.900421 127.570839 -9.900394
-200.688385 127.080086 -8.096872
-200.688385 127.080086 -8.096872
-200.072388 126.926872 -7.527878
-200.072388 126.926872 -7.527878
-197.870438 126.428520 -5.395174
-197.870438 126.428520 -5.395174
-197.282837 126.275414 -4.770685
-197.282837 126.275414 -4.770685
-195.374939 125.775658 -2.731355
-195.374939 125.775658 -2.731355
-194.483490 125.479111 -1.739628
-194.483490 125.479111 -1.739628
-193.104141 124.986649 -0.290326
-193.104141 124.986649 -0.290326
-191.466843 124.176834 1.366734
-191.466843 124.176834 1.366734
-190.983719 123.908409 1.812488
-190.983749 123.908432 1.812477
-189.015472 122.397118 3.646013
-189.015472 122.397118 3.646013
-187.555664 120.937584 4.949135
-187.555664 120.937584 4.949135
-187.162582 120.532921 5.274427
-187.162582 120.532921 5.274427
-185.504150 118.431190 6.761119
-185.504150 118.431190 6.761119
-184.073196 116.250458 8.159478
-184.073196 116.250458 8.159478
-182.955154 114.031921 9.474874
-182.955154 114.031921 9.474874
-182.634918 112.981308 10.036505
-182.634918 112.981308 10.036505
-182.298004 111.710144 10.692333
-182.298004 111.710152 10.692326
-182.269257 109.806595 11.548839
-182.269257 109.806595 11.548839
-182.293579 109.200066 11.821228
-182.293579 109.200066 11.821228
-182.673737 107.855949 12.357635
-182.673737 107.855949 12.357635
-183.103241 106.590065 12.879197
-183.103241 106.590065 12.879197
-183.270279 106.285805 12.992715
-183.270279 106.285805 12.992715
-184.009003 105.034081 13.465980
-184.009003 105.034081 13.465980
-184.551239 104.068893 13.849114
-184.551239 104.068893 13.849114
-184.720413 103.829865 13.935444
-184.720413 103.829865 13.935445
-185.492157 102.803322 14.286819
-185.492157 102.803322 14.286819
-186.201813 101.756691 14.633246
-186.201813 101.756691 14.633246
-186.227768 101.708366 14.649888
-186.227768 101.708366 14.649888
-186.930847 100.777687 14.910457
-186.930847 100.777687 14.910457
-187.663422 99.838898 15.147755
-187.663422 99.838898 15.147755
-187.951385 99.355995 15.283356
-187.951385 99.355995 15.283356
-188.299026 98.843567 15.410892
-188.299026 98.843567 15.410892
-189.031754 98.006737 15.556909
-189.031784 98.006760 15.556914
-189.790802 97.162285 15.667048
-189.790802 97.162285 15.667048
-190.012161 96.919205 15.692202
-190.012192 96.919243 15.692198
-190.644775 96.403954 15.687235
0 1
2 3
4 5
6 7
8 9
10 11
12 13
14 15
16 17
18 19
20 21
22 23
24 25
26 27
28 29
30 31
32 33
34 35
36 37
38 39
40 41
42 43
44 45
46 47
48 49
50 51
52 53
54 55
56 57
58 59
60 61
62 63
64 65
66 67
68 69
70 71
72 73
74 75
76 77
78 79
80 81
82 83
84 85
86 87
88 89
90 91
92 93
94 95
96 97
