ply
format ascii 1.0
element vertex 108
property float x
property float y
property float z
element edge 54
property int vertex1
property int vertex2
end_header
-151.928970 50.662170 -105.396347
-151.246506 51.034115 -105.679840
-152.774658 50.302135 -105.048050
-151.928970 50.662182 -105.396362
-151.246506 51.034115 -105.679840
-151.167847 51.085224 -105.711632
-153.714676 49.994640 -104.686783
-152.774658 50.302135 -105.048050
-151.167847 51.085224 -105.711632
-150.440125 51.521576 -106.001831
-150.440125 51.521576 -106.001831
-149.674103 51.946335 -106.295395
-149.674103 51.946335 -106.295395
-148.884796 52.404472 -106.589348
-148.884796 52.404472 -106.589348
-148.106949 52.946953 -106.870934
-148.106949 52.946953 -106.870934
-147.398926 53.662403 -107.109283
-147.398941 53.662403 -107.109276
-147.321167 53.782768 -107.131241
-147.321167 53.782768 -107.131241
-146.856613 54.714767 -107.240120
-146.856613 54.714767 -107.240120
-146.540634 56.218163 -107.219879
-146.540634 56.218163 -107.219879
-146.540482 56.331310 -107.207611
-146.540482 56.331314 -107.207611
-146.857269 58.745136 -106.805527
-146.857269 58.745136 -106.805527
-146.913071 58.972843 -106.756149
-146.913071 58.972843 -106.756149
-147.633240 61.054001 -106.208809
-147.633240 61.054001 -106.208809
-148.648544 63.280579 -105.506172
-148.648544 63.280579 -105.506172
-149.787354 65.443970 -104.741959
-149.787354 65.443970 -104.741959
-149.969604 65.763954 -104.621460
-149.969604 65.763954 -104.621460
-151.047775 67.559708 -103.917671
-151.047775 67.559708 -103.917671
-152.412506 69.639786 -103.059227
-152.412460 69.639778 -103.059212
-153.866089 71.683189 -102.194473
-153.866089 71.683197 -102.194481
-155.405045 73.685547 -101.345169
-155.405045 73.685547 -101.345169
-157.015884 75.616890 -100.520279
-157.015884 75.616890 -100.520279
-158.674545 77.469025 -99.701035
-158.674530 77.469009 -99.701019
-160.359543 79.242912 -98.865036
-160.359543 79.242912 -98.865036
-162.054077 80.946777 -97.989906
-162.054077 80.946777 -97.989906
-163.755524 82.607712 -97.066193
-163.755554 82.607719 -97.066200
-165.465317 84.233322 -96.099274
-165.465317 84.233322 -96.099274
-167.187256 85.827980 -95.094688
-167.187256 85.827980 -95.094688
-168.928009 87.394279 -94.057365
-168.927994 87.394272 -94.057365
-170.697205 88.934204 -92.991051
-170.697205 88.934204 -92.991051
-172.509140 90.448166 -91.898590
-172.509140 90.448166 -91.898590
-174.384659 91.933716 -90.782341
-174.384628 91.933701 -90.782341
-176.357773 93.382812 -89.643654
-176.357773 93.382812 -89.643654
-177.442505 94.108757 -89.045364
-177.442505 94.108757 -89.045364
-178.521774 94.769508 -88.477852
-178.521774 94.769508 -88.477852
-180.955078 96.089241 -87.303925
-180.955078 96.089233 -87.303932
-183.234451 97.130638 -86.362480
-183.234451 97.130638 -86.362480
-183.788345 97.330711 -86.166611
-183.788345 97.330711 -86.166611
-187.043732 98.261810 -85.205025
-187.043732 98.261810 -85.205025
-187.470535 98.333778 -85.107353
-187.470535 98.333778 -85.107353
-190.140427 98.610100 -84.608803
-190.140427 98.610100 -84.608803
-192.930573 98.523605 -84.307976
-192.930557 98.523613 -84.307976
-194.066360 98.363297 -84.255737
-194.066376 98.363297 -84.255745
-195.545242 98.112007 -84.229553
-195.545242 98.112007 -84.229553
-198.045441 97.460754 -84.318535
-198.045441 97.460754 -84.318535
-200.473999 96.620934 -84.515442
-200.473999 96.620934 -84.515442
-202.852463 95.608284 -84.779976
-202.852463 95.608284 -84.779976
-205.204575 94.419937 -85.093231
-205.204575 94.419937 -85.093231
-206.671860 93.578285 -85.326439
-206.671844 93.578293 -85.326447
-207.616638 93.038834 -85.485130
-207.616669 93.038857 -85.485130
-210.195877 91.497078 -85.981285
-210.195877 91.497078 -85.981285
-213.053452 89.837296 -86.565811
0 1
2 3
4 5
6 7
8 9
10 11
12 13
14 15
16 17
18 19
20 21
22 23
24 25
26 27
28 29
30 31
32 33
34 35
36 37
38 39
40 41
42 43
44 45
46 47
48 49
50 51
52 53
54 55
56 57
58 59
60 61
62 63
64 65
66 67
68 69
70 71
72 73
74 75
76 77
78 79
80 81
82 83
84 85
86 87
88 89
90 91
92 93
94 95
96 97
98 99
100 101
102 103
104 105
106 107
