ply
format ascii 1.0
element vertex 224
property float x
property float y
property float z
element edge 112
property int vertex1
property int vertex2
end_header
-81.353409 61.482533 -129.323563
-81.167984 61.655205 -129.316681
-82.547188 60.739639 -129.297974
-81.353409 61.482533 -129.323563
-81.167984 61.655205 -129.316681
-80.218071 62.572411 -129.280426
-83.779823 60.282913 -129.214706
-82.547188 60.739632 -129.297958
-80.218071 62.572411 -129.280426
-79.105949 63.776913 -129.219666
-85.046837 60.075882 -129.075943
-83.779823 60.282913 -129.214706
-79.105934 63.776905 -129.219650
-78.452301 64.684593 -129.147583
-86.350609 60.107502 -128.878372
-85.046837 60.075882 -129.075943
-78.452301 64.684601 -129.147583
-78.052948 65.318398 -129.090164
-87.702301 60.360905 -128.623077
-86.350609 60.107502 -128.878372
-78.052948 65.318398 -129.090164
-77.016075 66.966789 -128.948257
-89.111488 60.847439 -128.310226
-87.702301 60.360905 -128.623077
-77.016075 66.966789 -128.948257
-76.613548 67.697708 -128.879745
-89.523521 61.063869 -128.203461
-89.111488 60.847439 -128.310226
-76.613548 67.697708 -128.879745
-76.018135 68.896355 -128.761444
-90.593857 61.625965 -127.927010
-89.523521 61.063869 -128.203461
-76.018150 68.896355 -128.761444
-75.094757 70.690895 -128.588730
-92.086487 62.437801 -127.533501
-90.593864 61.625961 -127.927010
-75.094757 70.690895 -128.588730
-75.016777 70.876511 -128.568497
-93.602905 63.409809 -127.085327
-92.086487 62.437801 -127.533501
-75.016777 70.876511 -128.568497
-74.032555 73.022728 -128.331955
-93.668007 63.462494 -127.063080
-93.602905 63.409809 -127.085327
-74.032555 73.022728 -128.331955
-73.732353 73.651665 -128.257080
-95.158142 64.580078 -126.552994
-93.668015 63.462502 -127.063065
-73.732353 73.651680 -128.257095
-73.064346 75.328979 -128.024429
-96.709015 65.732574 -125.979279
-95.158134 64.580086 -126.552994
-73.064346 75.328972 -128.024429
-72.506737 76.563644 -127.832443
-96.866760 65.873161 -125.913246
-96.709015 65.732574 -125.979279
-72.506737 76.563644 -127.832443
-72.094673 77.759605 -127.614807
-98.339333 67.094620 -125.296310
-96.866760 65.873161 -125.913246
-72.094681 77.759613 -127.614822
-71.414299 79.442764 -127.275635
-99.767815 68.255592 -124.679550
-98.339333 67.094620 -125.296310
-71.414299 79.442764 -127.275635
-71.137611 80.446602 -127.049500
-100.021988 68.485603 -124.563438
-99.767815 68.255592 -124.679550
-71.137611 80.446602 -127.049500
-70.508286 82.315887 -126.602921
-101.762032 69.936005 -123.787956
-100.021980 68.485611 -124.563438
-70.508278 82.315880 -126.602913
-70.240875 83.736641 -126.237244
-102.529716 70.611008 -123.436485
-101.762032 69.936005 -123.787956
-70.240875 83.736641 -126.237244
-69.885506 85.184402 -125.856163
-103.601509 71.601067 -122.934624
-102.529724 70.611015 -123.436470
-69.885506 85.184387 -125.856171
-69.691704 88.036064 -125.067093
-105.125412 72.955833 -122.228821
-103.601509 71.601067 -122.934624
-69.691704 88.036064 -125.067093
-69.910042 90.405075 -124.382683
-105.483620 73.312698 -122.054001
-105.125412 72.955833 -122.228821
-69.910042 90.405075 -124.382690
-69.946365 90.858078 -124.251205
-107.439987 75.143120 -121.116859
-105.483620 73.312714 -122.054008
-69.946365 90.858078 -124.251205
-70.153328 91.691742 -124.001007
-107.588486 75.283920 -121.044785
-107.439987 75.143120 -121.116859
-70.153336 91.691734 -124.001015
-70.627518 93.646347 -123.411606
-109.547455 77.265564 -120.060928
-107.588486 75.283920 -121.044785
-70.627525 93.646332 -123.411598
-71.648041 96.408646 -122.554932
-109.889908 77.600800 -119.890526
-109.547455 77.265564 -120.060928
-71.648041 96.408646 -122.554932
-72.943390 99.149521 -121.691978
-111.846405 79.744576 -118.862915
-109.889900 77.600784 -119.890511
-72.943390 99.149521 -121.691978
-73.578163 100.290001 -121.326935
-112.013786 79.921722 -118.775993
-111.846405 79.744576 -118.862915
-73.578163 100.290001 -121.326935
-74.411018 101.857819 -120.820961
-113.877876 82.268784 -117.714073
-112.013802 79.921722 -118.776001
-74.411041 101.857819 -120.820976
-75.967606 104.523239 -119.913277
-114.652031 83.434441 -117.222107
-113.877876 82.268784 -117.714073
-75.967606 104.523239 -119.913277
-76.345093 105.124969 -119.695602
-115.465897 84.636414 -116.702515
-114.652031 83.434441 -117.222107
-76.345093 105.124969 -119.695602
-77.608284 107.128830 -118.931099
-116.653816 87.043205 -115.767624
-115.465897 84.636414 -116.702515
-77.608284 107.128830 -118.931099
-79.024353 109.234451 -118.043091
-117.332520 89.512833 -114.933044
-116.653809 87.043198 -115.767624
-79.024345 109.234436 -118.043068
-79.337036 109.673729 -117.845657
-117.334496 90.000870 -114.803223
-117.332520 89.512833 -114.933044
-79.337036 109.673706 -117.845642
-81.177673 112.167984 -116.657860
-117.254517 92.107880 -114.242111
-117.334496 90.000870 -114.803223
-81.177673 112.167984 -116.657860
-81.744598 112.908791 -116.286133
-117.039116 92.758728 -114.120316
-117.254517 92.107880 -114.242111
-81.744598 112.908798 -116.286140
-83.186852 114.606331 -115.387932
-116.330849 94.650444 -113.782661
-117.039116 92.758728 -114.120316
-83.186852 114.606331 -115.387932
-84.482918 116.085930 -114.579575
-116.240959 94.917297 -113.731636
-116.330849 94.650444 -113.782661
-84.482918 116.085930 -114.579575
-85.381119 116.972961 -114.062912
-115.472771 96.222801 -113.585098
-116.240974 94.917313 -113.731659
-85.381119 116.972969 -114.062912
-87.071548 118.610245 -113.071693
-114.605156 97.797798 -113.390999
-115.472771 96.222801 -113.585098
-87.071548 118.610245 -113.071693
-87.870926 119.219933 -112.657753
-114.555679 97.909897 -113.373390
-114.605156 97.797791 -113.390984
-87.870926 119.219933 -112.657753
-89.437904 120.370522 -111.847122
-113.670280 99.243454 -113.257324
-114.555679 97.909897 -113.373390
-89.437897 120.370522 -111.847115
-91.353279 121.243408 -111.089943
-112.739563 100.737297 -113.111649
-113.670280 99.243454 -113.257324
-91.353279 121.243408 -111.089943
-91.561150 121.332619 -111.011467
-112.615677 100.995804 -113.075394
-112.739563 100.737297 -113.111649
-91.561150 121.332619 -111.011467
-93.484825 121.708527 -110.515724
-111.799538 102.238419 -112.972076
-112.615677 100.995804 -113.075394
-93.484825 121.708527 -110.515724
-95.181084 121.577477 -110.319183
-110.832214 103.693153 -112.854454
-111.799553 102.238426 -112.972061
-95.181099 121.577515 -110.319191
-96.691025 121.082108 -110.309479
-110.621307 104.105942 -112.799522
-110.832214 103.693153 -112.854454
-96.691025 121.082108 -110.309479
-98.051079 120.300308 -110.408150
-109.896721 105.235405 -112.689690
-110.621292 104.105942 -112.799515
-98.051079 120.300308 -110.408150
-98.196526 120.167976 -110.435043
-108.906319 106.646774 -112.556732
-109.896721 105.235405 -112.689690
-98.196526 120.167976 -110.435043
-99.313301 119.288338 -110.562798
-108.605408 107.186607 -112.471886
-108.906319 106.646774 -112.556725
-99.313309 119.288338 -110.562798
-100.520905 118.131477 -110.740372
-107.963615 108.188881 -112.324715
-108.605408 107.186607 -112.471886
-100.520905 118.131477 -110.740372
-101.662491 116.839188 -110.950584
-106.931168 109.573784 -112.133469
-107.963615 108.188881 -112.324715
-101.662491 116.839188 -110.950584
-101.701675 116.780090 -110.962608
-106.487930 110.275726 -112.003212
-106.931168 109.573784 -112.133469
-101.701675 116.780090 -110.962608
-102.736282 115.446655 -111.182198
-105.931335 111.129761 -111.846664
-106.487930 110.275726 -112.003212
-102.736282 115.446655 -111.182175
-103.818352 114.071518 -111.377846
-104.849144 112.533325 -111.640511
-105.931343 111.129761 -111.846657
-103.818352 114.071518 -111.377846
-104.185501 113.495026 -111.481125
-104.185509 113.495033 -111.481133
-104.849144 112.533325 -111.640511
0 1
2 3
4 5
6 7
8 9
10 11
12 13
14 15
16 17
18 19
20 21
22 23
24 25
26 27
28 29
30 31
32 33
34 35
36 37
38 39
40 41
42 43
44 45
46 47
48 49
50 51
52 53
54 55
56 57
58 59
60 61
62 63
64 65
66 67
68 69
70 71
72 73
74 75
76 77
78 79
80 81
82 83
84 85
86 87
88 89
90 91
92 93
94 95
96 97
98 99
100 101
102 103
104 105
106 107
108 109
110 111
112 113
114 115
116 117
118 119
120 121
122 123
124 125
126 127
128 129
130 131
132 133
134 135
136 137
138 139
140 141
142 143
144 145
146 147
148 149
150 151
152 153
154 155
156 157
158 159
160 161
162 163
164 165
166 167
168 169
170 171
172 173
174 175
176 177
178 179
180 181
182 183
184 185
186 187
188 189
190 191
192 193
194 195
196 197
198 199
200 201
202 203
204 205
206 207
208 209
210 211
212 213
214 215
216 217
218 219
220 221
222 223
