ply
format ascii 1.0
element vertex 182
property float x
property float y
property float z
element edge 91
property int vertex1
property int vertex2
end_header
-129.273361 143.943192 -27.277096
-129.190826 143.926483 -27.274080
-130.701279 144.119659 -27.143921
-129.273361 143.943192 -27.277096
-129.190826 143.926483 -27.274080
-127.861176 143.656631 -27.225885
-132.149506 144.223648 -26.843769
-130.701279 144.119659 -27.143921
-127.861176 143.656631 -27.225885
-126.450569 143.250031 -27.004995
-133.567566 144.265594 -26.396368
-132.149506 144.223648 -26.843769
-126.450569 143.250031 -27.004995
-124.998955 142.726135 -26.609144
-134.015564 144.247116 -26.204668
-133.567566 144.265594 -26.396368
-124.998955 142.726135 -26.609144
-123.568817 142.117691 -26.011375
-134.903107 144.192123 -25.820391
-134.015564 144.247116 -26.204668
-123.568817 142.117691 -26.011375
-123.500443 142.088974 -25.980864
-136.156143 143.958374 -25.140043
-134.903091 144.192093 -25.820387
-123.500443 142.088974 -25.980864
-121.972572 141.382858 -25.133247
-137.346191 143.524673 -24.356327
-136.156143 143.958374 -25.140043
-121.972572 141.382858 -25.133244
-120.455589 140.642609 -24.108589
-138.624100 142.879501 -23.402102
-137.346191 143.524673 -24.356327
-120.455589 140.642609 -24.108589
-120.444366 140.636917 -24.100307
-139.138504 142.571701 -22.941313
-138.624100 142.879517 -23.402107
-120.444366 140.636917 -24.100307
-118.941269 139.798645 -22.849535
-140.011444 142.082657 -22.160461
-139.138504 142.571701 -22.941313
-118.941269 139.798645 -22.849535
-118.097969 139.266815 -22.044041
-141.473526 141.294159 -20.624582
-140.011444 142.082657 -22.160461
-118.097969 139.266815 -22.044041
-117.457695 138.850830 -21.418375
-142.026917 140.986725 -19.892771
-141.473526 141.294159 -20.624582
-117.457703 138.850815 -21.418373
-116.057724 137.863724 -19.989758
-142.872940 140.557343 -18.702530
-142.026917 140.986725 -19.892771
-116.057716 137.863739 -19.989773
-116.019798 137.834030 -19.948658
-143.904724 139.887360 -16.840057
-142.872940 140.557343 -18.702530
-116.019798 137.834030 -19.948658
-114.599533 136.676651 -18.452143
-144.041656 139.790543 -16.581749
-143.904724 139.887360 -16.840057
-114.599533 136.676651 -18.452143
-114.242645 136.361069 -18.078831
-145.060638 138.823090 -14.351834
-144.041656 139.790543 -16.581749
-114.242645 136.361069 -18.078831
-113.146584 135.357346 -16.985880
-145.172714 138.676529 -14.060180
-145.060638 138.823090 -14.351834
-113.146584 135.357330 -16.985876
-112.476021 134.715042 -16.352242
-146.059860 137.560043 -12.018607
-145.172684 138.676544 -14.060194
-112.476021 134.715042 -16.352242
-111.641968 133.856613 -15.551889
-146.273727 137.235168 -11.488001
-146.059860 137.560043 -12.018607
-111.641968 133.856613 -15.551889
-110.702782 132.882858 -14.676308
-147.119644 136.014465 -9.633808
-146.273727 137.235168 -11.488001
-110.702782 132.882858 -14.676308
-110.084679 132.191132 -14.057781
-147.337906 135.620010 -9.101342
-147.119629 136.014450 -9.633808
-110.084679 132.191132 -14.057781
-108.956268 130.953720 -12.937415
-148.119949 134.098740 -7.239591
-147.337906 135.620010 -9.101342
-108.956268 130.953720 -12.937415
-108.491096 130.399139 -12.423794
-148.253601 133.757919 -6.864455
-148.119949 134.098740 -7.239591
-108.491104 130.399139 -12.423795
-107.289833 129.004425 -11.073988
-148.982864 131.694031 -4.744550
-148.253601 133.757919 -6.864455
-107.289833 129.004425 -11.073988
-106.863899 128.457382 -10.521710
-148.999420 131.636337 -4.688217
-148.982864 131.694031 -4.744550
-106.863899 128.457382 -10.521710
-105.793365 127.085938 -9.065540
-149.568817 129.349518 -2.459206
-148.999420 131.636337 -4.688217
-105.793381 127.085953 -9.065551
-105.247284 126.273170 -8.185269
-149.695251 128.841110 -1.941062
-149.568817 129.349518 -2.459206
-105.247284 126.273170 -8.185269
-104.553848 125.188042 -7.005054
-150.005127 127.105728 -0.091559
-149.695251 128.841110 -1.941062
-104.553848 125.188042 -7.005054
-103.691650 123.458618 -5.187544
-150.210617 125.932587 1.220795
-150.005127 127.105728 -0.091571
-103.691666 123.458603 -5.187543
-103.581604 123.228676 -4.950365
-150.341888 125.023010 2.230124
-150.210617 125.932587 1.220795
-103.581604 123.228676 -4.950365
-102.834846 121.176987 -2.902664
-150.597672 122.969528 4.381908
-150.341888 125.023010 2.230124
-102.834846 121.176987 -2.902664
-102.215424 119.056763 -0.842680
-150.599060 122.960381 4.390992
-150.597672 122.969528 4.381908
-102.215424 119.056763 -0.842680
-101.962135 118.041725 0.135839
-150.834229 120.838669 6.307911
-150.599060 122.960381 4.390992
-101.962143 118.041748 0.135839
-101.686462 116.888969 1.246432
-151.000443 119.514206 7.333469
-150.834229 120.838669 6.307911
-101.686462 116.888969 1.246432
-101.252647 114.676315 3.373930
-151.125488 118.515282 8.040103
-151.000412 119.514214 7.333467
-101.252640 114.676323 3.373918
-100.873077 112.419579 5.538772
-151.276657 115.988441 9.602897
-151.125488 118.515282 8.040103
-100.873077 112.419579 5.538772
-100.529533 110.114265 7.752787
-151.303925 115.319489 9.977281
-151.276657 115.988441 9.602897
-100.529533 110.114265 7.752787
-100.227325 107.779755 10.024350
-151.362808 113.319244 11.020263
-151.303925 115.319489 9.977281
-100.227325 107.779755 10.024350
-99.980812 105.436058 12.358431
-151.345566 110.550613 12.318764
-151.362808 113.319260 11.020254
-99.980812 105.436058 12.358431
-99.807701 103.103462 14.753683
-151.344131 110.496658 12.342943
-151.345566 110.550613 12.318764
-99.807701 103.103462 14.753683
-99.685669 100.749573 17.200768
-151.302322 107.748695 13.542281
-151.344131 110.496658 12.342943
-99.685684 100.749596 17.200756
-99.552444 98.267883 19.724611
-151.199066 104.922859 14.720965
-151.302322 107.748695 13.542281
-99.552444 98.267883 19.724611
-99.346397 95.540169 22.347986
-151.195282 104.870125 14.742618
-151.199066 104.922859 14.720965
-151.063568 102.079231 15.900227
-151.195282 104.870125 14.742618
-150.791916 99.212791 17.124197
-151.063568 102.079231 15.900227
-150.331985 96.303566 18.461737
-150.791916 99.212791 17.124197
-149.591629 93.324646 19.978374
-150.332016 96.303596 18.461731
-148.522461 90.241653 21.790836
-149.591629 93.324646 19.978374
0 1
2 3
4 5
6 7
8 9
10 11
12 13
14 15
16 17
18 19
20 21
22 23
24 25
26 27
28 29
30 31
32 33
34 35
36 37
38 39
40 41
42 43
44 45
46 47
48 49
50 51
52 53
54 55
56 57
58 59
60 61
62 63
64 65
66 67
68 69
70 71
72 73
74 75
76 77
78 79
80 81
82 83
84 85
86 87
88 89
90 91
92 93
94 95
96 97
98 99
100 101
102 103
104 105
106 107
108 109
110 111
112 113
114 115
116 117
118 119
120 121
122 123
124 125
126 127
128 129
130 131
132 133
134 135
136 137
138 139
140 141
142 143
144 145
146 147
148 149
150 151
152 153
154 155
156 157
158 159
160 161
162 163
164 165
166 167
168 169
170 171
172 173
174 175
176 177
178 179
180 181
