ply
format ascii 1.0
element vertex 76
property float x
property float y
property float z
element edge 38
property int vertex1
property int vertex2
end_header
-39.214668 68.642784 -126.392334
-37.769627 68.702583 -126.018951
-40.625664 68.898361 -126.708061
-39.214668 68.642784 -126.392334
-42.012459 69.416420 -126.958008
-40.625664 68.898361 -126.708061
-43.382225 70.161156 -127.129684
-42.012459 69.416420 -126.958008
-44.782135 71.132668 -127.225327
-43.382225 70.161156 -127.129684
-45.282761 71.548920 -127.238792
-44.782135 71.132668 -127.225327
-46.233452 72.336433 -127.264977
-45.282761 71.548920 -127.238792
-47.744312 73.738548 -127.284264
-46.233448 72.336433 -127.264977
-48.485920 74.511757 -127.287567
-47.744324 73.738564 -127.284279
-49.306580 75.427628 -127.290634
-48.485916 74.511757 -127.287552
-50.856823 77.367523 -127.266167
-49.306580 75.427628 -127.290634
-50.948658 77.492157 -127.262413
-50.856823 77.367523 -127.266167
-52.403687 79.736595 -127.118729
-50.948658 77.492157 -127.262413
-52.837406 80.443413 -127.055038
-52.403687 79.736603 -127.118713
-53.969387 82.748291 -126.727905
-52.837406 80.443413 -127.055038
-54.266270 83.349976 -126.628899
-53.969387 82.748291 -126.727905
-55.292297 86.228958 -126.031548
-54.266254 83.349976 -126.628883
-55.855995 89.108253 -125.326569
-55.292301 86.228951 -126.031540
-55.921539 92.004654 -124.552460
-55.855995 89.108253 -125.326569
-55.480038 94.918510 -123.698730
-55.921539 92.004654 -124.552460
-55.265503 95.552155 -123.488968
-55.480038 94.918503 -123.698730
-54.581177 97.830421 -122.691200
-55.265503 95.552155 -123.488968
-54.226681 98.532181 -122.398544
-54.581177 97.830421 -122.691200
-53.148674 100.730591 -121.434807
-54.226685 98.532166 -122.398552
-53.016548 100.922821 -121.337479
-53.148674 100.730591 -121.434807
-51.663456 102.861519 -120.336388
-53.016548 100.922821 -121.337479
-51.145756 103.616356 -119.949539
-51.663456 102.861519 -120.336388
-50.227921 104.664185 -119.363617
-51.145763 103.616371 -119.949554
-48.772247 106.324432 -118.441872
-50.227913 104.664162 -119.363586
-48.634151 106.485077 -118.352585
-48.772247 106.324448 -118.441872
-47.287510 107.766899 -117.563591
-48.634151 106.485077 -118.352585
-45.773457 109.152481 -116.667999
-47.287510 107.766899 -117.563591
-45.615929 109.290596 -116.575783
-45.773457 109.152481 -116.667999
-44.202995 110.362419 -115.810074
-45.615929 109.290596 -116.575783
-42.622608 111.451874 -114.991547
-44.202995 110.362419 -115.810074
-41.682716 112.053268 -114.511063
-42.622608 111.451874 -114.991547
-41.058208 112.438797 -114.187439
-41.682713 112.053253 -114.511063
-39.501915 113.143875 -113.433311
-41.058208 112.438797 -114.187439
0 1
2 3
4 5
6 7
8 9
10 11
12 13
14 15
16 17
18 19
20 21
22 23
24 25
26 27
28 29
30 31
32 33
34 35
36 37
38 39
40 41
42 43
44 45
46 47
48 49
50 51
52 53
54 55
56 57
58 59
60 61
62 63
64 65
66 67
68 69
70 71
72 73
74 75
