ply
format ascii 1.0
element vertex 148
property float x
property float y
property float z
element edge 74
property int vertex1
property int vertex2
end_header
-140.132935 46.988079 -111.607712
-140.227325 46.628696 -111.604233
-139.915314 48.508514 -111.523293
-140.132935 46.988079 -111.607712
-140.227325 46.628696 -111.604233
-140.898422 45.708008 -111.358429
-139.977676 49.577633 -111.350365
-139.915314 48.508514 -111.523293
-140.898422 45.708008 -111.358429
-141.735596 45.245308 -110.956573
-140.415482 52.076839 -110.804512
-139.977661 49.577633 -111.350357
-141.735596 45.245308 -110.956573
-142.664749 45.030552 -110.473885
-140.570496 52.707432 -110.646317
-140.415482 52.076839 -110.804512
-142.664749 45.030552 -110.473885
-143.643646 44.948002 -109.956459
-141.123260 54.514626 -110.141670
-140.570511 52.707424 -110.646317
-143.643646 44.948002 -109.956459
-144.644485 44.921600 -109.436447
-142.040375 56.891640 -109.387840
-141.123260 54.514626 -110.141670
-144.644485 44.921600 -109.436447
-145.639282 44.906651 -108.937111
-143.089203 59.213947 -108.576714
-142.040375 56.891644 -109.387840
-145.639282 44.906651 -108.937111
-146.613281 44.873444 -108.464874
-144.238373 61.488197 -107.723198
-143.089203 59.213947 -108.576714
-146.613281 44.873444 -108.464874
-147.561569 44.806377 -108.017883
-145.468567 63.716179 -106.840424
-144.238373 61.488197 -107.723198
-147.561569 44.806377 -108.017883
-148.486862 44.700642 -107.590248
-146.766159 65.898392 -105.938484
-145.468567 63.716175 -106.840416
-148.486862 44.700642 -107.590248
-149.400986 44.567223 -107.174385
-148.120911 68.039383 -105.026207
-146.766159 65.898392 -105.938484
-149.401031 44.567230 -107.174408
-150.310242 44.430542 -106.765511
-149.526855 70.144981 -104.116478
-148.120911 68.039383 -105.026207
-150.310242 44.430542 -106.765511
-151.218109 44.316071 -106.358009
-150.979431 72.217545 -103.223167
-149.526840 70.144981 -104.116470
-152.474014 74.258049 -102.359962
-150.979431 72.217537 -103.223183
-153.995209 76.246918 -101.532143
-152.474014 74.258049 -102.359962
-155.516022 78.181427 -100.723595
-153.995209 76.246918 -101.532143
-157.004578 80.068748 -99.917465
-155.516022 78.181404 -100.723595
-158.022430 81.395027 -99.337212
-157.004578 80.068748 -99.917465
-158.428146 81.924850 -99.098839
-158.022430 81.395027 -99.337212
-159.854065 83.754654 -98.238098
-158.428146 81.924850 -99.098839
-161.290329 85.558212 -97.337875
-159.854065 83.754654 -98.238106
-162.715958 87.342224 -96.408974
-161.290329 85.558212 -97.337875
-164.111115 89.114349 -95.460396
-162.715958 87.342224 -96.408974
-165.453369 90.885880 -94.500183
-164.111099 89.114342 -95.460373
-166.610886 92.506569 -93.621208
-165.453369 90.885880 -94.500183
-166.721893 92.667404 -93.533958
-166.610886 92.506569 -93.621208
-168.001312 94.426971 -92.532265
-166.721893 92.667404 -93.533958
-169.290253 96.155441 -91.489777
-168.001312 94.426971 -92.532272
-170.556839 97.862297 -90.402458
-169.290253 96.155441 -91.489777
-171.789673 99.553444 -89.260681
-170.556839 97.862297 -90.402458
-172.995132 101.241287 -88.050919
-171.789688 99.553444 -89.260689
-174.206940 102.964272 -86.778267
-172.995132 101.241287 -88.050919
-174.705963 103.643944 -86.270119
-174.206940 102.964272 -86.778267
-175.473557 104.731010 -85.484032
-174.705963 103.643944 -86.270119
-176.842072 106.549759 -84.215096
-175.473572 104.731003 -85.484039
-177.803009 107.702576 -83.447220
-176.842072 106.549759 -84.215096
-178.366074 108.368523 -83.020767
-177.803009 107.702576 -83.447220
-180.135010 110.085770 -81.871300
-178.366074 108.368523 -83.020767
-182.360123 111.619926 -80.705849
-180.135010 110.085747 -81.871307
-183.095108 111.962410 -80.393990
-182.360123 111.619926 -80.705849
-185.648026 112.830765 -79.488113
-183.095108 111.962410 -80.393990
-186.002182 112.904205 -79.388756
-185.648026 112.830765 -79.488113
-188.470444 113.193245 -78.829361
-186.002182 112.904205 -79.388756
-190.806870 113.180847 -78.483948
-188.470428 113.193260 -78.829353
-192.811050 112.996750 -78.327194
-190.806870 113.180847 -78.483948
-193.090729 112.964012 -78.314461
-192.811081 112.996758 -78.327187
-195.342255 112.573578 -78.334717
-193.090729 112.964012 -78.314461
-197.548462 112.083931 -78.524124
-195.342255 112.573578 -78.334717
-199.677673 111.485405 -78.814011
-197.548462 112.083931 -78.524124
-201.743973 110.725090 -79.141029
-199.677673 111.485405 -78.814011
-202.442169 110.395432 -79.261009
-201.743942 110.725082 -79.141022
-203.759888 109.731430 -79.467262
-202.442184 110.395447 -79.261009
-205.834793 108.500610 -79.802879
-203.759888 109.731430 -79.467262
-208.004669 107.123314 -80.215836
-205.834793 108.500610 -79.802879
-210.259979 105.668732 -80.774048
-208.004669 107.123314 -80.215836
-212.108795 104.436005 -81.369682
-210.259979 105.668732 -80.774048
-212.535110 104.146935 -81.519753
-212.108795 104.436005 -81.369682
-214.849030 102.588013 -82.313423
-212.535110 104.146935 -81.519753
-217.379196 100.897186 -83.042435
-214.849045 102.588036 -82.313438
-219.261246 99.504745 -83.534874
-217.379196 100.897186 -83.042435
-220.179306 98.790634 -83.765114
-219.261246 99.504745 -83.534874
0 1
2 3
4 5
6 7
8 9
10 11
12 13
14 15
16 17
18 19
20 21
22 23
24 25
26 27
28 29
30 31
32 33
34 35
36 37
38 39
40 41
42 43
44 45
46 47
48 49
50 51
52 53
54 55
56 57
58 59
60 61
62 63
64 65
66 67
68 69
70 71
72 73
74 75
76 77
78 79
80 81
82 83
84 85
86 87
88 89
90 91
92 93
94 95
96 97
98 99
100 101
102 103
104 105
106 107
108 109
110 111
112 113
114 115
116 117
118 119
120 121
122 123
124 125
126 127
128 129
130 131
132 133
134 135
136 137
138 139
140 141
142 143
144 145
146 147
