ply
format ascii 1.0
element vertex 66
property float x
property float y
property float z
element edge 33
property int vertex1
property int vertex2
end_header
-109.472008 117.010841 3.166667
-108.998276 116.884285 3.332111
-110.729927 116.889328 3.144605
-109.472008 117.010841 3.166667
-108.998276 116.884285 3.332111
-108.157875 116.634499 3.650140
-111.836205 116.347702 3.518676
-110.729935 116.889336 3.144605
-108.157875 116.634499 3.650140
-106.795357 115.790100 4.565653
-111.929977 116.297707 3.553707
-111.836205 116.347702 3.518676
-106.795357 115.790108 4.565653
-106.083572 115.110748 5.256044
-113.054497 115.146248 4.465614
-111.929977 116.297707 3.553707
-106.083580 115.110756 5.256032
-105.377670 114.375496 5.993460
-114.000038 113.575363 5.749526
-113.054497 115.146248 4.465614
-105.377670 114.375496 5.993460
-104.394127 113.061455 7.274855
-114.088661 113.393196 5.899575
-114.000031 113.575371 5.749514
-104.394127 113.061455 7.274855
-103.909851 112.357590 7.958108
-114.860527 110.985817 7.914543
-114.088661 113.393181 5.899575
-103.909851 112.357590 7.958108
-103.075127 110.917175 9.355294
-114.957146 110.568169 8.266109
-114.860527 110.985817 7.914543
-103.075127 110.917175 9.355294
-102.400665 109.676933 10.588121
-115.265816 108.426315 10.090913
-114.957146 110.568169 8.266109
-102.400665 109.676933 10.588121
-101.953674 108.759796 11.520290
-115.434265 105.872696 12.298347
-115.265816 108.426315 10.090913
-101.953674 108.759796 11.520290
-100.992233 106.625313 13.781991
-115.437218 105.235344 12.855386
-115.434265 105.872696 12.298347
-100.992233 106.625313 13.781991
-100.868393 106.334076 14.100763
-115.386429 103.328033 14.528861
-115.437218 105.235344 12.855386
-100.868393 106.334091 14.100764
-100.168884 104.511963 16.126925
-115.167046 100.777359 16.767046
-115.386429 103.328033 14.528861
-100.168884 104.511963 16.126925
-99.410835 102.347572 18.542637
-114.804764 98.144890 19.039907
-115.167046 100.777359 16.767046
-99.410858 102.347610 18.542625
-99.278275 101.920555 19.010057
-114.292603 95.326981 21.408569
-114.804779 98.144920 19.039898
-99.278275 101.920555 19.010057
-98.733582 100.012169 21.055252
-113.616409 92.228928 23.940727
-114.292603 95.326981 21.408569
-98.733582 100.012169 21.055252
-98.115105 97.424171 23.716017
0 1
2 3
4 5
6 7
8 9
10 11
12 13
14 15
16 17
18 19
20 21
22 23
24 25
26 27
28 29
30 31
32 33
34 35
36 37
38 39
40 41
42 43
44 45
46 47
48 49
50 51
52 53
54 55
56 57
58 59
60 61
62 63
64 65
