ply
format ascii 1.0
element vertex 170
property float x
property float y
property float z
element edge 85
property int vertex1
property int vertex2
end_header
-63.859390 17.128674 -138.586090
-64.104271 15.693870 -138.564896
-63.480499 19.948635 -138.642273
-63.859390 17.128674 -138.586090
-64.104271 15.693870 -138.564896
-64.352097 14.342183 -138.570404
-63.167473 22.422340 -138.651245
-63.480499 19.948635 -138.642273
-63.120079 22.786217 -138.646851
-63.167473 22.422340 -138.651245
-62.837894 25.638205 -138.552048
-63.120079 22.786217 -138.646851
-62.661034 28.501579 -138.357025
-62.837894 25.638205 -138.552048
-62.536415 31.372580 -138.090424
-62.661034 28.501579 -138.357025
-62.432144 34.249226 -137.777603
-62.536419 31.372580 -138.090424
-62.421772 34.624634 -137.734619
-62.432163 34.249229 -137.777634
-62.375858 37.131248 -137.439651
-62.421772 34.624634 -137.734619
-62.413807 40.018547 -137.086105
-62.375858 37.131248 -137.439651
-62.526394 42.910267 -136.721741
-62.413807 40.018547 -137.086105
-62.707108 45.806381 -136.352432
-62.526386 42.910259 -136.721725
-62.959339 48.705379 -135.975983
-62.707108 45.806381 -136.352432
-63.301189 51.599136 -135.559464
-62.959339 48.705379 -135.975983
-63.589954 53.374481 -135.263977
-63.301189 51.599136 -135.559464
-63.777840 54.476643 -135.060272
-63.589954 53.374481 -135.263977
-64.279671 57.330894 -134.445221
-63.777840 54.476643 -135.060272
-64.784912 60.163521 -133.723495
-64.279678 57.330898 -134.445206
-65.352600 62.984791 -132.958435
-64.784912 60.163521 -133.723495
-66.115852 65.801170 -132.213852
-65.352600 62.984791 -132.958435
-66.160431 65.931572 -132.180832
-66.115845 65.801178 -132.213852
-66.994652 68.626785 -131.560806
-66.160431 65.931564 -132.180832
-67.863846 71.465851 -130.995605
-66.994652 68.626785 -131.560806
-68.520798 73.193886 -130.664246
-67.863846 71.465851 -130.995605
-68.979851 74.292892 -130.451401
-68.520798 73.193886 -130.664246
-70.077026 77.111557 -129.878860
-68.979843 74.292892 -130.451385
-70.859528 78.885094 -129.474655
-70.077026 77.111557 -129.878860
-71.360878 79.899948 -129.226318
-70.859528 78.885094 -129.474655
-72.639709 82.669136 -128.502930
-71.360878 79.899948 -129.226318
-73.235428 83.906288 -128.157883
-72.639709 82.669128 -128.502930
-74.035439 85.410065 -127.719109
-73.235428 83.906281 -128.157867
-75.370224 88.136017 -126.890274
-74.035431 85.410065 -127.719109
-75.763908 88.997795 -126.620827
-75.370224 88.136017 -126.890274
-76.688179 90.845161 -126.021744
-75.763901 88.997795 -126.620827
-77.814362 93.557678 -125.127792
-76.688179 90.845161 -126.021744
-78.707542 96.283920 -124.223206
-77.814362 93.557663 -125.127792
-79.300926 99.038940 -123.326279
-78.707542 96.283920 -124.223206
-79.554344 101.836082 -122.446190
-79.300926 99.038940 -123.326279
-79.442947 104.375397 -121.678864
-79.554352 101.836082 -122.446205
-79.422897 104.687431 -121.584152
-79.442947 104.375381 -121.678848
-78.884262 107.596085 -120.733276
-79.422897 104.687431 -121.584152
-78.774437 107.962959 -120.628960
-78.884262 107.596085 -120.733276
-77.804619 110.494705 -119.914116
-78.774445 107.962967 -120.628960
-77.762886 110.578766 -119.890793
-77.804619 110.494705 -119.914116
-76.640778 112.388344 -119.390282
-77.762871 110.578751 -119.890785
-75.498413 113.690590 -119.016396
-76.640778 112.388344 -119.390282
-75.341194 113.859299 -118.965073
-75.498413 113.690590 -119.016396
-73.916595 114.939087 -118.636497
-75.341187 113.859299 -118.965080
-72.391319 115.702217 -118.394485
-73.916595 114.939087 -118.636497
-70.793205 116.234367 -118.223976
-72.391319 115.702217 -118.394485
-69.141495 116.595718 -118.114128
-70.793198 116.234352 -118.223976
-67.451523 116.841583 -118.048538
-69.141495 116.595718 -118.114128
-65.737900 117.029099 -118.009964
-67.451523 116.841583 -118.048538
-64.014320 117.216675 -117.978485
-65.737900 117.029099 -118.009964
-62.294407 117.459602 -117.919861
-64.014320 117.216675 -117.978485
-60.592453 117.815155 -117.787262
-62.294407 117.459602 -117.919861
-59.631760 118.123795 -117.644073
-60.592453 117.815155 -117.787262
-58.927444 118.366730 -117.520821
-59.631760 118.123795 -117.644073
-57.313789 119.183662 -117.070358
-58.927444 118.366730 -117.520821
-55.766087 120.308266 -116.388878
-57.313797 119.183670 -117.070374
-54.940601 121.187790 -115.824860
-55.766087 120.308266 -116.388878
-54.345955 121.942032 -115.316505
-54.940601 121.187782 -115.824860
-53.246861 123.871704 -113.945351
-54.345955 121.942032 -115.316505
-53.104126 124.191994 -113.710197
-53.246861 123.871704 -113.945351
-52.388004 126.434357 -112.050354
-53.104118 124.191986 -113.710190
-52.156456 127.416336 -111.313354
-52.388004 126.434357 -112.050354
-51.903671 128.936890 -110.166008
-52.156452 127.416336 -111.313354
-51.664715 131.377411 -108.277184
-51.903671 128.936874 -110.166008
-51.628632 131.863846 -107.889870
-51.664715 131.377411 -108.277184
-51.573280 133.752899 -106.355118
-51.628632 131.863846 -107.889870
-51.596432 136.070648 -104.396698
-51.573280 133.752899 -106.355118
-51.600895 137.217255 -103.396088
-51.596424 136.070648 -104.396706
-51.634796 138.344849 -102.399033
-51.600895 137.217255 -103.396088
-51.737400 140.580872 -100.384872
-51.634796 138.344849 -102.399033
-51.767170 142.261795 -98.832153
-51.737400 140.580872 -100.384872
-51.780975 142.787201 -98.343147
-51.767170 142.261795 -98.832153
-51.835659 144.971268 -96.301826
-51.780972 142.787170 -98.343155
-51.812202 146.448059 -94.923691
-51.835659 144.971268 -96.301826
-51.806499 147.157181 -94.269234
-51.812202 146.448059 -94.923691
-51.786003 149.345749 -92.270058
-51.806499 147.157181 -94.269234
-51.748169 150.002823 -91.671318
-51.785999 149.345749 -92.270065
-51.688774 151.530899 -90.278374
-51.748169 150.002823 -91.671318
-51.599792 153.054810 -88.886612
-51.688774 151.530899 -90.278374
0 1
2 3
4 5
6 7
8 9
10 11
12 13
14 15
16 17
18 19
20 21
22 23
24 25
26 27
28 29
30 31
32 33
34 35
36 37
38 39
40 41
42 43
44 45
46 47
48 49
50 51
52 53
54 55
56 57
58 59
60 61
62 63
64 65
66 67
68 69
70 71
72 73
74 75
76 77
78 79
80 81
82 83
84 85
86 87
88 89
90 91
92 93
94 95
96 97
98 99
100 101
102 103
104 105
106 107
108 109
110 111
112 113
114 115
116 117
118 119
120 121
122 123
124 125
126 127
128 129
130 131
132 133
134 135
136 137
138 139
140 141
142 143
144 145
146 147
148 149
150 151
152 153
154 155
156 157
158 159
160 161
162 163
164 165
166 167
168 169
