ply
format ascii 1.0
element vertex 36
property float x
property float y
property float z
element edge 18
property int vertex1
property int vertex2
end_header
-221.593613 126.567581 -16.257408
-219.497986 126.738686 -14.884473
-219.497986 126.738686 -14.884473
-218.817810 126.726402 -14.371454
-218.817810 126.726402 -14.371454
-216.415207 126.470154 -12.367401
-216.415222 126.470154 -12.367414
-215.758423 126.318703 -11.747755
-215.758408 126.318680 -11.747755
-213.986572 125.749100 -9.977471
-213.986572 125.749100 -9.977471
-211.936142 124.744141 -7.723038
-211.936142 124.744141 -7.723038
-211.640137 124.556755 -7.366650
-211.640137 124.556755 -7.366650
-210.177063 123.567299 -5.573259
-210.177063 123.567299 -5.573259
-208.681351 122.276733 -3.475806
-208.681351 122.276733 -3.475806
-207.410919 120.918800 -1.384820
-207.410919 120.918800 -1.384820
-206.390823 119.501884 0.724195
-206.390839 119.501892 0.724182
-206.159409 119.016205 1.384665
-206.159409 119.016205 1.384665
-205.704865 117.945786 2.765836
-205.704865 117.945786 2.765836
-205.321609 116.176018 4.608428
-205.321609 116.176018 4.608428
-205.320969 115.991501 4.759795
-205.321014 115.991524 4.759798
-205.624557 114.016129 6.014369
-205.624557 114.016129 6.014369
-205.644653 113.959641 6.039732
-205.644653 113.959641 6.039732
-206.494019 112.490891 6.484617
0 1
2 3
4 5
6 7
8 9
10 11
12 13
14 15
16 17
18 19
20 21
22 23
24 25
26 27
28 29
30 31
32 33
34 35
