ply
format ascii 1.0
element vertex 132
property float x
property float y
property float z
element edge 66
property int vertex1
property int vertex2
end_header
-77.664711 16.102747 -137.912369
-77.212135 17.945704 -137.949387
-77.877319 15.273173 -137.906021
-77.664711 16.102747 -137.912369
-77.212135 17.945704 -137.949387
-76.947037 19.095787 -137.988251
-76.947052 19.095787 -137.988266
-76.602531 20.654791 -138.056366
-76.602531 20.654791 -138.056366
-76.244987 22.362179 -138.136948
-76.244987 22.362179 -138.136948
-76.034431 23.393705 -138.179611
-76.034431 23.393705 -138.179611
-75.540611 25.921572 -138.218063
-75.540611 25.921572 -138.218063
-75.495583 26.151037 -138.215363
-75.495583 26.151037 -138.215363
-75.013214 28.920296 -138.097900
-75.013214 28.920296 -138.097900
-74.836243 29.972610 -138.022995
-74.836243 29.972605 -138.022980
-74.566505 31.702366 -137.872650
-74.566513 31.702368 -137.872650
-74.186966 34.498932 -137.586777
-74.186989 34.498936 -137.586792
-74.167610 34.684708 -137.566544
-74.167610 34.684708 -137.566544
-73.946373 37.310036 -137.279984
-73.946373 37.310036 -137.279984
-73.821823 40.130226 -136.955490
-73.821823 40.130226 -136.955490
-73.834770 42.458656 -136.649612
-73.834770 42.458656 -136.649612
-73.842621 42.951252 -136.579315
-73.842606 42.951244 -136.579330
-74.081436 45.763107 -136.111191
-74.081436 45.763107 -136.111191
-74.543846 48.555931 -135.520386
-74.543846 48.555931 -135.520386
-74.568840 48.653744 -135.496872
-74.568840 48.653744 -135.496872
-75.359978 51.319450 -134.797989
-75.359978 51.319450 -134.797989
-76.515671 53.947521 -133.986115
-76.515671 53.947521 -133.986115
-76.570312 54.044456 -133.953278
-76.570312 54.044456 -133.953278
-78.095879 56.062057 -133.193924
-78.095886 56.062065 -133.193939
-78.767075 56.690292 -132.922546
-78.767075 56.690292 -132.922546
-79.568748 57.281086 -132.639496
-79.568748 57.281086 -132.639496
-80.957718 57.890831 -132.257935
-80.957718 57.890831 -132.257935
-82.289146 58.125603 -131.990723
-82.289139 58.125599 -131.990723
-83.567863 58.058514 -131.812042
-83.567863 58.058514 -131.812042
-84.799400 57.751225 -131.698242
-84.799400 57.751225 -131.698242
-85.989784 57.258015 -131.627411
-85.989784 57.258011 -131.627411
-87.143761 56.617527 -131.585403
-87.143761 56.617527 -131.585403
-87.839653 56.129906 -131.578461
-87.839653 56.129906 -131.578461
-88.255402 55.807899 -131.579987
-88.255402 55.807899 -131.579987
-89.333336 54.877815 -131.602936
-89.333336 54.877815 -131.602936
-90.396988 53.923737 -131.635071
-90.396988 53.923737 -131.635071
-91.128639 53.195793 -131.668488
-91.128639 53.195793 -131.668488
-91.427223 52.863205 -131.686584
-91.427223 52.863205 -131.686584
-92.426315 51.722507 -131.734314
-92.426315 51.722507 -131.734299
-93.411469 50.590767 -131.746368
-93.411469 50.590767 -131.746368
-93.620956 50.319176 -131.748795
-93.620956 50.319176 -131.748795
-94.347115 49.307178 -131.756729
-94.347115 49.307178 -131.756729
-95.278633 48.063553 -131.743790
-95.278618 48.063553 -131.743774
-95.693405 47.465267 -131.744995
-95.693405 47.465267 -131.744995
-96.172981 46.699139 -131.761032
-96.172981 46.699139 -131.761032
-97.060539 45.344780 -131.788071
-97.060539 45.344780 -131.788071
-97.484749 44.655144 -131.811096
-97.484749 44.655144 -131.811096
-97.909828 43.866371 -131.851364
-97.909828 43.866375 -131.851379
-98.742233 42.367565 -131.917114
-98.742233 42.367565 -131.917114
-98.988335 41.886494 -131.941284
-98.988335 41.886497 -131.941284
-99.517517 40.675900 -132.020065
-99.517517 40.675900 -132.020065
-100.181656 39.156303 -132.115280
-100.181656 39.156303 -132.115280
-100.264465 38.912140 -132.135880
-100.264465 38.912140 -132.135880
-100.940681 36.899143 -132.300064
-100.940681 36.899143 -132.300064
-101.080170 36.462620 -132.334732
-101.080170 36.462620 -132.334732
-101.523048 34.565269 -132.504974
-101.523048 34.565269 -132.504974
-101.697182 33.797310 -132.565475
-101.697166 33.797306 -132.565460
-101.974525 31.792782 -132.737488
-101.974525 31.792782 -132.737488
-102.062157 31.155054 -132.784943
-102.062164 31.155052 -132.784927
-102.193871 28.537935 -133.001587
-102.193871 28.537935 -133.001587
-102.182289 28.140507 -133.037338
-102.182274 28.140507 -133.037338
-102.114876 25.947323 -133.212753
-102.114876 25.947323 -133.212753
-101.825119 23.383345 -133.406342
-101.825119 23.383345 -133.406342
-101.338707 20.843855 -133.589737
-101.338707 20.843855 -133.589737
-100.664566 18.325869 -133.790253
-100.664566 18.325869 -133.790253
-99.820923 15.825465 -134.044968
0 1
2 3
4 5
6 7
8 9
10 11
12 13
14 15
16 17
18 19
20 21
22 23
24 25
26 27
28 29
30 31
32 33
34 35
36 37
38 39
40 41
42 43
44 45
46 47
48 49
50 51
52 53
54 55
56 57
58 59
60 61
62 63
64 65
66 67
68 69
70 71
72 73
74 75
76 77
78 79
80 81
82 83
84 85
86 87
88 89
90 91
92 93
94 95
96 97
98 99
100 101
102 103
104 105
106 107
108 109
110 111
112 113
114 115
116 117
118 119
120 121
122 123
124 125
126 127
128 129
130 131
