ply
format ascii 1.0
element vertex 734
property float x
property float y
property float z
element edge 367
property int vertex1
property int vertex2
end_header
-68.258865 14.972231 -138.647614
-67.708977 17.395424 -138.557388
-68.340363 14.650640 -138.673004
-68.258865 14.972231 -138.647614
-67.708977 17.395424 -138.557388
-67.382973 18.873583 -138.566483
-67.382973 18.873583 -138.566483
-67.108017 20.176197 -138.594437
-67.108017 20.176197 -138.594437
-66.612038 22.984304 -138.647980
-66.612038 22.984304 -138.647980
-66.509590 23.521000 -138.649490
-66.509598 23.521000 -138.649506
-66.143265 25.804096 -138.597214
-66.143265 25.804096 -138.597214
-65.788460 28.634830 -138.405243
-65.788460 28.634830 -138.405243
-65.673355 29.484457 -138.327774
-65.673355 29.484457 -138.327774
-65.451088 31.474075 -138.123047
-65.451088 31.474075 -138.123047
-65.279007 34.327583 -137.796722
-65.279015 34.327587 -137.796738
-65.172714 37.191353 -137.461166
-65.172714 37.191353 -137.461166
-65.099724 39.867409 -137.143005
-65.099724 39.867409 -137.143005
-65.093376 40.062260 -137.119324
-65.093376 40.062260 -137.119324
-65.118988 42.938511 -136.760773
-65.118988 42.938507 -136.760773
-65.261314 45.817196 -136.379745
-65.261314 45.817196 -136.379745
-65.500946 48.694458 -135.966492
-65.500946 48.694458 -135.966492
-65.845901 51.563633 -135.497925
-65.845901 51.563633 -135.497925
-66.198517 53.619225 -135.109131
-66.198517 53.619225 -135.109131
-66.345070 54.415901 -134.944290
-66.345070 54.415901 -134.944290
-66.930199 57.245537 -134.285767
-66.930199 57.245537 -134.285767
-67.554161 60.055626 -133.542999
-67.554161 60.055626 -133.542999
-68.314880 62.853302 -132.773514
-68.314880 62.853302 -132.773514
-68.610641 63.670609 -132.549423
-68.610641 63.670609 -132.549423
-69.341034 65.642502 -132.035599
-69.341034 65.642509 -132.035614
-70.407784 68.443031 -131.398148
-70.407784 68.443031 -131.398148
-70.730988 69.135574 -131.252243
-70.730980 69.135574 -131.252243
-71.775856 71.236107 -130.827347
-71.775856 71.236107 -130.827347
-72.757057 73.070473 -130.460999
-72.757057 73.070480 -130.461014
-73.346703 74.012711 -130.262726
-73.346703 74.012726 -130.262726
-74.718857 76.147064 -129.779160
-74.718857 76.147064 -129.779160
-75.181946 76.750633 -129.622910
-75.181946 76.750633 -129.622910
-76.615059 78.587234 -129.097488
-76.615059 78.587234 -129.097488
-77.409508 79.414612 -128.816528
-77.409508 79.414612 -128.816528
-78.447884 80.521217 -128.418472
-78.447876 80.521217 -128.418472
-80.190933 81.897026 -127.810547
-80.190933 81.897026 -127.810547
-80.293861 81.957214 -127.778389
-80.293854 81.957207 -127.778366
-81.877075 82.926033 -127.267189
-81.877075 82.926033 -127.267189
-83.454231 83.427078 -126.866737
-83.454239 83.427094 -126.866753
-84.929779 83.488632 -126.590096
-84.929779 83.488632 -126.590096
-86.301582 83.143707 -126.423523
-86.301582 83.143707 -126.423523
-87.573990 82.439728 -126.348175
-87.573990 82.439720 -126.348175
-88.748596 81.399345 -126.359230
-88.748596 81.399345 -126.359230
-89.072983 80.968529 -126.393036
-89.072983 80.968544 -126.393059
-89.849762 80.125412 -126.430756
-89.849762 80.125412 -126.430756
-90.922363 78.791870 -126.517998
-90.922356 78.791870 -126.517998
-91.455109 77.906471 -126.606277
-91.455109 77.906471 -126.606277
-91.920174 77.227386 -126.661316
-91.920174 77.227386 -126.661316
-92.929085 75.762291 -126.769981
-92.929085 75.762291 -126.769981
-93.376335 74.918030 -126.852486
-93.376335 74.918030 -126.852486
-93.866211 74.088936 -126.921501
-93.866211 74.088936 -126.921509
-94.839539 72.607269 -127.021988
-94.839539 72.607269 -127.021988
-95.155617 71.965286 -127.086617
-95.155624 71.965286 -127.086617
-95.744675 70.923317 -127.177521
-95.744675 70.923317 -127.177521
-96.702621 69.482018 -127.274376
-96.702614 69.482018 -127.274384
-96.912476 69.040161 -127.321747
-96.912476 69.040161 -127.321747
-97.595886 67.847908 -127.420372
-97.595886 67.847908 -127.420372
-98.542572 66.465286 -127.483063
-98.542572 66.465286 -127.483063
-98.700508 66.127510 -127.514046
-98.700508 66.127510 -127.514046
-99.423508 64.891861 -127.584152
-99.423500 64.891861 -127.584152
-100.367203 63.597633 -127.601166
-100.367203 63.597633 -127.601166
-100.553238 63.216644 -127.630508
-100.553230 63.216637 -127.630508
-101.237297 62.069675 -127.691368
-101.237297 62.069675 -127.691368
-102.195740 60.893818 -127.703041
-102.195740 60.893822 -127.703049
-102.511780 60.322952 -127.747993
-102.511780 60.322952 -127.747993
-103.058281 59.402039 -127.812683
-103.058281 59.402039 -127.812683
-104.018311 58.306053 -127.811142
-104.018311 58.306053 -127.811142
-104.563232 57.445454 -127.849258
-104.563232 57.445454 -127.849258
-104.872520 56.882549 -127.880775
-104.872520 56.882549 -127.880775
-105.798798 55.765476 -127.852379
-105.798798 55.765476 -127.852379
-106.647247 54.571068 -127.859283
-106.647247 54.571064 -127.859283
-106.677589 54.509602 -127.863335
-106.677589 54.509602 -127.863335
-107.554863 53.261002 -127.892395
-107.554863 53.261002 -127.892395
-108.474854 52.166664 -127.908829
-108.474831 52.166664 -127.908813
-108.736809 51.730034 -127.939117
-108.736809 51.730034 -127.939117
-109.310211 50.812061 -127.992439
-109.310211 50.812061 -127.992439
-110.212791 49.742931 -127.981346
-110.212791 49.742931 -127.981346
-110.772224 48.902603 -127.985558
-110.772224 48.902603 -127.985558
-111.027817 48.438755 -127.995491
-111.027817 48.438755 -127.995491
-111.882469 47.321835 -127.938583
-111.882469 47.321835 -127.938583
-112.723595 46.204128 -127.864288
-112.723595 46.204128 -127.864288
-112.814133 46.060764 -127.858673
-112.814133 46.060764 -127.858673
-113.518631 44.984707 -127.789558
-113.518631 44.984711 -127.789574
-114.339195 43.935966 -127.612144
-114.339195 43.935966 -127.612144
-114.835373 43.191025 -127.488472
-114.835373 43.191025 -127.488472
-115.090714 42.725780 -127.429947
-115.090714 42.725780 -127.429947
-115.849350 41.582954 -127.209854
-115.849350 41.582954 -127.209854
-116.589981 40.384289 -127.023094
-116.589981 40.384289 -127.023094
-116.619797 40.328747 -127.017593
-116.619804 40.328747 -127.017601
-117.287216 39.022335 -126.921608
-117.287201 39.022335 -126.921600
-117.962952 37.597950 -126.852547
-117.962952 37.597950 -126.852547
-117.979370 37.556187 -126.851990
-117.979370 37.556187 -126.851990
-118.561363 35.940983 -126.844742
-118.561363 35.940983 -126.844742
-118.903908 34.846218 -126.854378
-118.903908 34.846218 -126.854378
-119.096458 34.105625 -126.877426
-119.096458 34.105625 -126.877426
-119.592995 32.172981 -126.941254
-119.592979 32.172977 -126.941231
-119.593834 32.168896 -126.941452
-119.593834 32.168896 -126.941452
-120.054108 30.135998 -127.036949
-120.054108 30.135998 -127.036949
-120.193321 29.519163 -127.064758
-120.193321 29.519161 -127.064774
-120.508377 28.123369 -127.121658
-120.508362 28.123369 -127.121658
-120.830521 26.864874 -127.145584
-120.830521 26.864874 -127.145584
-120.988564 26.247553 -127.153069
-120.988564 26.247553 -127.153069
-121.529282 24.617842 -127.105499
-121.529282 24.617842 -127.105499
-121.694016 24.182804 -127.080017
-121.694016 24.182804 -127.080017
-122.110069 23.168123 -126.997543
-122.110069 23.168123 -126.997543
-122.765350 22.006603 -126.800957
-122.765350 22.006603 -126.800957
-123.178436 21.404102 -126.652824
-123.178436 21.404102 -126.652824
-123.456429 21.003099 -126.547775
-123.456429 21.003099 -126.547775
-124.220406 20.247318 -126.228333
-124.220390 20.247318 -126.228333
-125.050163 19.697773 -125.861862
-125.050163 19.697773 -125.861862
-125.942963 19.332325 -125.459671
-125.942963 19.332325 -125.459671
-126.906456 19.160690 -125.023056
-126.906456 19.160690 -125.023056
-127.953491 19.206694 -124.546997
-127.953491 19.206694 -124.546997
-129.101334 19.509323 -124.018303
-129.101334 19.509323 -124.018303
-130.376282 20.151520 -123.395721
-130.376297 20.151520 -123.395729
-130.526413 20.258173 -123.317604
-130.526413 20.258173 -123.317604
-131.790665 21.214870 -122.607582
-131.790665 21.214870 -122.607582
-133.032272 22.443878 -121.794441
-133.032272 22.443878 -121.794441
-133.357941 22.804327 -121.562370
-133.357941 22.804327 -121.562370
-134.855179 24.731123 -120.407898
-134.855179 24.731123 -120.407898
-135.150299 25.151663 -120.167519
-135.150299 25.151663 -120.167519
-136.377655 27.075211 -119.128632
-136.377640 27.075212 -119.128632
-137.323151 28.718460 -118.294868
-137.323151 28.718460 -118.294868
-137.730042 29.458706 -117.930260
-137.730072 29.458712 -117.930298
-138.928207 31.880405 -116.822632
-138.928207 31.880405 -116.822632
-140.033218 34.329033 -115.779137
-140.033218 34.329033 -115.779137
-140.277161 34.902580 -115.546059
-140.277161 34.902580 -115.546059
-141.068130 36.798790 -114.793526
-141.068115 36.798786 -114.793518
-142.033829 39.287178 -113.874550
-142.033829 39.287178 -113.874550
-142.966385 41.785141 -113.010292
-142.966385 41.785141 -113.010292
-143.892410 44.280537 -112.186470
-143.892410 44.280537 -112.186470
-144.833374 46.760681 -111.388832
-144.833374 46.760681 -111.388832
-145.807678 49.213402 -110.603981
-145.807678 49.213406 -110.603989
-146.827240 51.630589 -109.824837
-146.827240 51.630589 -109.824837
-147.895294 54.010017 -109.053802
-147.895294 54.010017 -109.053802
-149.015045 56.350285 -108.294365
-149.015045 56.350288 -108.294357
-150.190765 58.649654 -107.549042
-150.190765 58.649654 -107.549042
-151.424149 60.902596 -106.807922
-151.424149 60.902596 -106.807922
-152.714722 63.101410 -106.052826
-152.714706 63.101410 -106.052818
-154.061386 65.238716 -105.265526
-154.061386 65.238716 -105.265526
-155.463364 67.309097 -104.435051
-155.463364 67.309097 -104.435051
-156.405884 68.617043 -103.880493
-156.405884 68.617043 -103.880493
-156.922104 69.314583 -103.579979
-156.922104 69.314575 -103.579956
-158.443237 71.258400 -102.725044
-158.443253 71.258392 -102.725060
-160.033051 73.143524 -101.894821
-160.033051 73.143524 -101.894821
-161.677643 74.974052 -101.098328
-161.677643 74.974052 -101.098328
-163.347458 76.753563 -100.315216
-163.347443 76.753548 -100.315216
-165.010437 78.486801 -99.522186
-165.010437 78.486801 -99.522186
-166.633408 80.180908 -98.697639
-166.633408 80.180908 -98.697639
-168.186340 81.852791 -97.842316
-168.186356 81.852798 -97.842308
-168.869568 82.637421 -97.438721
-168.869568 82.637421 -97.438721
-169.627747 83.530235 -96.973816
-169.627747 83.530235 -96.973816
-170.978104 85.220398 -96.091309
-170.978104 85.220398 -96.091309
-172.225708 86.938446 -95.201241
-172.225662 86.938438 -95.201233
-172.761261 87.786888 -94.777908
-172.761261 87.786888 -94.777908
-173.287506 88.724998 -94.325317
-173.287506 88.724998 -94.325317
-174.210556 90.573410 -93.456619
-174.210556 90.573410 -93.456619
-174.567169 91.437408 -93.072227
-174.567169 91.437408 -93.072227
-174.889908 92.533676 -92.629166
-174.889893 92.533676 -92.629166
-175.331772 94.383194 -91.916351
-175.331772 94.383194 -91.916351
-175.344116 94.606613 -91.844681
-175.344116 94.606613 -91.844681
-175.404495 96.813248 -91.138519
-175.404495 96.813232 -91.138512
-175.393768 96.860268 -91.127266
-175.393768 96.860268 -91.127266
-174.955139 98.784019 -90.625946
-174.955139 98.784019 -90.625946
-174.566040 99.453491 -90.517868
-174.566040 99.453491 -90.517876
-174.097397 100.337219 -90.339539
-174.097397 100.337219 -90.339539
-172.886749 101.482399 -90.314743
-172.886749 101.482399 -90.314743
-171.355545 102.221558 -90.591461
-171.355545 102.221558 -90.591461
-169.485138 102.504730 -91.225868
-169.485138 102.504730 -91.225868
-167.315430 102.228615 -92.264397
-167.315430 102.228630 -92.264389
-167.202408 102.210098 -92.321289
-167.202408 102.210098 -92.321281
-164.560837 101.371140 -93.855064
-164.560837 101.371140 -93.855064
-164.136551 101.195267 -94.121941
-164.136551 101.195267 -94.121941
-161.687042 100.132637 -95.670837
-161.687042 100.132637 -95.670837
-161.333054 99.976730 -95.891289
-161.333054 99.976730 -95.891289
-158.899414 98.915092 -97.346748
-158.899414 98.915092 -97.346748
-158.364288 98.730614 -97.635559
-158.364304 98.730621 -97.635559
-156.507324 98.143265 -98.590683
-156.507324 98.143265 -98.590683
-154.673340 98.063225 -99.364304
-154.673340 98.063225 -99.364304
-153.465973 98.819557 -99.659798
-153.465973 98.819557 -99.659798
-152.805939 100.362549 -99.509956
-152.805939 100.362549 -99.509956
-152.781662 100.634361 -99.439583
-152.781647 100.634361 -99.439583
-152.744522 102.835922 -98.751297
-152.744522 102.835922 -98.751297
-152.764709 103.028809 -98.676376
-152.764709 103.028809 -98.676376
-153.241516 105.238144 -97.673470
-153.241516 105.238144 -97.673470
-153.991943 107.351608 -96.558105
-153.991928 107.351601 -96.558121
-154.193008 107.691925 -96.340981
-154.193008 107.691925 -96.340981
-155.167099 109.315422 -95.308014
-155.167099 109.315422 -95.308014
-155.544128 109.746742 -94.975166
-155.544128 109.746742 -94.975166
-156.795670 111.082695 -93.883621
-156.795670 111.082695 -93.883621
-158.919800 112.578751 -92.209969
-158.919800 112.578751 -92.209976
-159.371124 112.799088 -91.875603
-159.371124 112.799088 -91.875603
-161.614899 113.722618 -90.210510
-161.614899 113.722618 -90.210510
-161.871719 113.803001 -90.025963
-161.871719 113.803001 -90.025963
-164.156860 114.447578 -88.423645
-164.156845 114.447578 -88.423645
-164.747162 114.617424 -88.018654
-164.747162 114.617424 -88.018654
-166.506317 115.152222 -86.842667
-166.506317 115.152222 -86.842667
-167.730377 115.623863 -86.009308
-167.730392 115.623848 -86.009315
-169.188080 116.338646 -84.961388
-169.188080 116.338646 -84.961388
-170.105835 116.897064 -84.245148
-170.105835 116.897064 -84.245148
-171.909943 118.351776 -82.575218
-171.909943 118.351776 -82.575218
-173.299789 119.905457 -80.904243
-173.299789 119.905449 -80.904251
-173.427750 120.089912 -80.715973
-173.427750 120.089912 -80.715973
-174.394592 121.551308 -79.239586
-174.394592 121.551308 -79.239586
-175.280609 123.309387 -77.622177
-175.280609 123.309387 -77.622177
-175.457703 123.767281 -77.240067
-175.457703 123.767281 -77.240067
-176.019974 125.206398 -76.097168
-176.019974 125.206398 -76.097168
-176.645935 127.196678 -74.625237
-176.645935 127.196678 -74.625237
-177.161591 129.182434 -73.107750
-177.161591 129.182434 -73.107750
-177.545975 131.059586 -71.440216
-177.545975 131.059586 -71.440216
-177.747437 132.627869 -69.689804
-177.747437 132.627869 -69.689804
-177.759491 132.745087 -69.541847
-177.759491 132.745041 -69.541870
-177.851196 134.246292 -67.440262
-177.851196 134.246292 -67.440262
-177.880020 135.631271 -65.210556
-177.880020 135.631271 -65.210556
-177.846893 137.013168 -62.944546
-177.846893 137.013168 -62.944546
-177.831863 137.331848 -62.442364
-177.831863 137.331848 -62.442364
-177.772278 138.474838 -60.700611
-177.772278 138.474838 -60.700611
-177.694000 139.995575 -58.461853
-177.694000 139.995575 -58.461853
-177.532486 141.526337 -56.188831
-177.532501 141.526321 -56.188847
-177.496857 141.760315 -55.826134
-177.496857 141.760300 -55.826134
-177.231842 142.955719 -53.825359
-177.231842 142.955719 -53.825359
-176.764420 144.141037 -51.338444
-176.764420 144.141037 -51.338444
-176.470795 144.571625 -50.180080
-176.470795 144.571625 -50.180080
-176.020218 145.003052 -48.731628
-176.020218 145.003052 -48.731628
-174.970947 145.523376 -46.026119
-174.970947 145.523376 -46.026119
-174.914612 145.540436 -45.901428
-174.914612 145.540436 -45.901428
-173.540329 145.843033 -43.272930
-173.540329 145.843018 -43.272945
-173.200150 145.908844 -42.700207
-173.200150 145.908844 -42.700207
-171.714096 146.231415 -40.517967
-171.714096 146.231415 -40.517967
-171.475311 146.291595 -40.185043
-171.475311 146.291595 -40.185043
-169.768005 146.758545 -38.093639
-169.768005 146.758545 -38.093639
-169.470230 146.841904 -37.782310
-169.470230 146.841904 -37.782310
-168.071396 147.233978 -36.274719
-168.071411 147.233978 -36.274715
-166.680786 147.561508 -35.068150
-166.680786 147.561508 -35.068150
-166.380783 147.624176 -34.779686
-166.380783 147.624176 -34.779686
-164.700180 147.896484 -33.582390
-164.700180 147.896484 -33.582390
-163.052246 148.095169 -32.872845
-163.052246 148.095169 -32.872845
-161.447189 148.297699 -32.666119
-161.447189 148.297699 -32.666119
-159.885590 148.566864 -32.940758
-159.885620 148.566864 -32.940758
-158.360825 148.927963 -33.639168
-158.360825 148.927963 -33.639168
-156.861160 149.358398 -34.701782
-156.861160 149.358398 -34.701782
-155.863739 149.658905 -35.627686
-155.863739 149.658905 -35.627686
-155.367950 149.796661 -36.019089
-155.367950 149.796661 -36.019089
-153.860016 150.167618 -37.405685
-153.860016 150.167618 -37.405685
-152.737015 150.364136 -38.597141
-152.737015 150.364136 -38.597141
-152.331421 150.422226 -38.982254
-152.331421 150.422226 -38.982254
-150.777832 150.548965 -40.593536
-150.777847 150.548950 -40.593536
-149.920456 150.539658 -41.589783
-149.920456 150.539658 -41.589783
-149.195465 150.505798 -42.378044
-149.195465 150.505798 -42.378044
-147.583405 150.280807 -44.317749
-147.583405 150.280807 -44.317749
-147.378067 150.238480 -44.592205
-147.378067 150.238495 -44.592190
-145.960419 149.960815 -46.472519
-145.960419 149.960815 -46.472519
-145.225281 149.837708 -47.595924
-145.225281 149.837708 -47.595924
-144.371277 149.789200 -48.990623
-144.371277 149.789200 -48.990623
-143.547623 149.866837 -50.550915
-143.547623 149.866837 -50.550915
-142.857620 150.046143 -52.055042
-142.857620 150.046143 -52.055042
-142.303513 150.252930 -53.430740
-142.303513 150.252930 -53.430740
-141.381638 150.602493 -56.236931
-141.381638 150.602493 -56.236931
-141.351883 150.610077 -56.348194
-141.351883 150.610077 -56.348194
-140.676178 150.604904 -58.974792
-140.676193 150.604889 -58.974777
-140.122803 150.149155 -61.640553
-140.122803 150.149155 -61.640553
-139.690613 149.321716 -64.221207
-139.690613 149.321716 -64.221207
-139.364105 148.219040 -66.704453
-139.364105 148.219040 -66.704453
-139.126587 146.934235 -69.082886
-139.126587 146.934235 -69.082886
-138.984329 145.535309 -71.381020
-138.984329 145.535309 -71.381020
-138.984314 145.304337 -71.737289
-138.984314 145.304337 -71.737289
-138.955734 144.074127 -73.643951
-138.955765 144.074142 -73.643944
-138.967300 142.626801 -75.927284
-138.967300 142.626801 -75.927284
-139.032852 141.765472 -77.335175
-139.032852 141.765472 -77.335175
-139.088608 141.215836 -78.254997
-139.088608 141.215836 -78.254997
-139.186203 139.841843 -80.612564
-139.186203 139.841843 -80.612564
-139.232956 138.576218 -82.727364
-139.232956 138.576218 -82.727364
-139.242706 138.438263 -82.944710
-139.242706 138.438263 -82.944710
-139.180176 136.932434 -85.185196
-139.180176 136.932434 -85.185196
-138.881058 135.285019 -87.286285
-138.881058 135.285019 -87.286285
-138.346771 133.503799 -89.243111
-138.346756 133.503799 -89.243095
-137.542618 131.640503 -91.086418
-137.542618 131.640503 -91.086418
-136.434906 129.754730 -92.857674
-136.434906 129.754730 -92.857674
-135.009567 127.886169 -94.602585
-135.009583 127.886177 -94.602577
-133.205597 126.072861 -96.374702
-133.205597 126.072861 -96.374702
-132.970108 125.889244 -96.571404
-132.970108 125.889244 -96.571404
-131.083542 124.320816 -98.205109
-131.083542 124.320816 -98.205109
-130.185089 123.728088 -98.905945
-130.185089 123.728088 -98.905945
-128.642929 122.682823 -100.159859
-128.642929 122.682831 -100.159851
-127.714729 122.156754 -100.865875
-127.714729 122.156754 -100.865875
-125.943771 121.151260 -102.245232
-125.943771 121.151260 -102.245232
-125.408577 120.877655 -102.647133
-125.408569 120.877640 -102.647118
-123.224014 119.811935 -104.253929
-123.224014 119.811935 -104.253929
-122.989365 119.689758 -104.429520
-122.989365 119.689758 -104.429520
-121.082550 118.803627 -105.753571
-121.082550 118.803627 -105.753571
-119.817841 118.200394 -106.594315
-119.817841 118.200386 -106.594315
-118.945000 117.775787 -107.154549
-118.945015 117.775795 -107.154556
-116.872002 116.867317 -108.360535
-116.872002 116.867317 -108.360535
-116.368256 116.624702 -108.649918
-116.368256 116.624702 -108.649918
-114.769485 115.869064 -109.526505
-114.769485 115.869064 -109.526505
-112.730621 114.938271 -110.565521
-112.730621 114.938271 -110.565521
-112.699776 114.921860 -110.581795
-112.699776 114.921860 -110.581787
-110.643806 113.979935 -111.584419
-110.643806 113.979935 -111.584419
-108.906204 113.189186 -112.410568
-108.906204 113.189194 -112.410568
-108.597168 113.028610 -112.563889
-108.597168 113.028610 -112.563889
-106.591965 112.143684 -113.489044
-106.591980 112.143684 -113.489044
-104.898926 111.405228 -114.242508
-104.898926 111.405228 -114.242508
-104.597580 111.253403 -114.380211
-104.597580 111.253403 -114.380211
-102.644463 110.441261 -115.174751
-102.644463 110.441261 -115.174751
-100.737305 109.727730 -115.861839
-100.737305 109.727730 -115.861839
-100.322029 109.601738 -115.993828
-100.322029 109.601738 -115.993828
-98.872894 109.110252 -116.459053
-98.872894 109.110252 -116.459053
-97.107834 108.751175 -116.924675
-97.107834 108.751175 -116.924675
-95.450325 108.689964 -117.259285
-95.450340 108.689964 -117.259293
-93.919746 109.000885 -117.437515
-93.919746 109.000885 -117.437515
-92.535393 109.758293 -117.439339
-92.535393 109.758293 -117.439339
-91.316444 111.032745 -117.250778
-91.316444 111.032730 -117.250755
-91.210907 111.208855 -117.213272
-91.210907 111.208855 -117.213272
-90.227074 112.725685 -116.911728
-90.227074 112.725685 -116.911728
-89.470840 114.319618 -116.516006
-89.470840 114.319618 -116.516006
-89.245033 114.776115 -116.395859
-89.245033 114.776115 -116.395859
-88.294724 116.962593 -115.731812
-88.294724 116.962593 -115.731812
-88.163689 117.297943 -115.619354
-88.163673 117.297943 -115.619354
-87.356094 119.218590 -114.965034
-87.356094 119.218590 -114.965034
-86.931816 120.237823 -114.611717
-86.931816 120.237823 -114.611717
-86.407669 121.475960 -114.183578
-86.407669 121.475960 -114.183578
-85.601357 123.222412 -113.580681
-85.601357 123.222412 -113.580681
-85.414658 123.636986 -113.430176
-85.414650 123.636986 -113.430176
-84.344856 125.605621 -112.682877
-84.344864 125.605637 -112.682892
-83.949753 126.214012 -112.430611
-83.949753 126.214005 -112.430626
-83.200737 127.372147 -111.887650
-83.200737 127.372147 -111.887650
-81.952164 128.845917 -111.108635
-81.952164 128.845917 -111.108635
-81.688950 129.092590 -110.971764
-81.688950 129.092590 -110.971764
-80.632675 130.129868 -110.346733
-80.632675 130.129868 -110.346733
-79.225029 131.198929 -109.697853
-79.225029 131.198929 -109.697853
-77.952759 131.991806 -109.232208
-77.952759 131.991806 -109.232208
-77.754150 132.131454 -109.145370
-77.754150 132.131454 -109.145370
-76.241608 132.989090 -108.658791
-76.241592 132.989090 -108.658798
-74.686905 133.768997 -108.239922
-74.686905 133.768997 -108.239922
-73.116005 134.517944 -107.812286
-73.116005 134.517944 -107.812286
-71.659538 135.234833 -107.320412
-71.659538 135.234833 -107.320419
-71.560783 135.289825 -107.277702
-71.560776 135.289825 -107.277702
-70.086067 136.210205 -106.467033
-70.086067 136.210205 -106.467033
-68.711357 137.305374 -105.342621
-68.711357 137.305374 -105.342621
-68.380455 137.672607 -104.951340
-68.380455 137.672607 -104.951340
-67.545113 138.804962 -103.724899
-67.545113 138.804962 -103.724899
-67.040131 139.835953 -102.618523
-67.040131 139.835953 -102.618523
-66.646828 140.814026 -101.581360
-66.646828 140.814026 -101.581360
-66.359200 141.965012 -100.385643
-66.359192 141.964996 -100.385658
-66.043457 143.345490 -98.960373
-66.043465 143.345505 -98.960381
-65.951271 144.070114 -98.211449
-65.951271 144.070114 -98.211449
-65.650635 146.108017 -96.048782
-65.650635 146.108017 -96.048782
-65.649986 146.117279 -96.038658
-65.649986 146.117279 -96.038658
-65.459404 148.076782 -93.832420
-65.459404 148.076797 -93.832428
-65.352959 148.753204 -93.045914
-65.352959 148.753204 -93.045914
-65.250847 149.983093 -91.594109
-65.250847 149.983093 -91.594109
-65.070114 151.201111 -90.156898
-65.070099 151.201080 -90.156891
-65.015503 151.875885 -89.363594
-65.015503 151.875885 -89.363594
-64.785965 153.511093 -87.467728
-64.785965 153.511093 -87.467712
-64.765671 153.771729 -87.163834
-64.765671 153.771729 -87.163834
-64.533600 155.637741 -84.964958
-64.533600 155.637741 -84.964958
-64.525436 155.686325 -84.906937
-64.525436 155.686325 -84.906937
-64.356285 157.450684 -82.746841
-64.356285 157.450684 -82.746841
-64.316887 157.739456 -82.389893
-64.316887 157.739456 -82.389893
-64.210892 159.229431 -80.532356
-64.210892 159.229431 -80.532356
-64.162788 159.719330 -79.930199
-64.162788 159.719330 -79.930199
-64.110031 160.997803 -78.362534
-64.110031 160.997803 -78.362556
-64.075310 161.667816 -77.543472
-64.075310 161.667816 -77.543472
-64.069214 162.729034 -76.219353
-64.069214 162.729034 -76.219353
-64.066887 163.547455 -75.170082
-64.066887 163.547455 -75.170082
-64.089867 164.383987 -74.053604
-64.089867 164.383987 -74.053604
-64.127075 165.325836 -72.738602
0 1
2 3
4 5
6 7
8 9
10 11
12 13
14 15
16 17
18 19
20 21
22 23
24 25
26 27
28 29
30 31
32 33
34 35
36 37
38 39
40 41
42 43
44 45
46 47
48 49
50 51
52 53
54 55
56 57
58 59
60 61
62 63
64 65
66 67
68 69
70 71
72 73
74 75
76 77
78 79
80 81
82 83
84 85
86 87
88 89
90 91
92 93
94 95
96 97
98 99
100 101
102 103
104 105
106 107
108 109
110 111
112 113
114 115
116 117
118 119
120 121
122 123
124 125
126 127
128 129
130 131
132 133
134 135
136 137
138 139
140 141
142 143
144 145
146 147
148 149
150 151
152 153
154 155
156 157
158 159
160 161
162 163
164 165
166 167
168 169
170 171
172 173
174 175
176 177
178 179
180 181
182 183
184 185
186 187
188 189
190 191
192 193
194 195
196 197
198 199
200 201
202 203
204 205
206 207
208 209
210 211
212 213
214 215
216 217
218 219
220 221
222 223
224 225
226 227
228 229
230 231
232 233
234 235
236 237
238 239
240 241
242 243
244 245
246 247
248 249
250 251
252 253
254 255
256 257
258 259
260 261
262 263
264 265
266 267
268 269
270 271
272 273
274 275
276 277
278 279
280 281
282 283
284 285
286 287
288 289
290 291
292 293
294 295
296 297
298 299
300 301
302 303
304 305
306 307
308 309
310 311
312 313
314 315
316 317
318 319
320 321
322 323
324 325
326 327
328 329
330 331
332 333
334 335
336 337
338 339
340 341
342 343
344 345
346 347
348 349
350 351
352 353
354 355
356 357
358 359
360 361
362 363
364 365
366 367
368 369
370 371
372 373
374 375
376 377
378 379
380 381
382 383
384 385
386 387
388 389
390 391
392 393
394 395
396 397
398 399
400 401
402 403
404 405
406 407
408 409
410 411
412 413
414 415
416 417
418 419
420 421
422 423
424 425
426 427
428 429
430 431
432 433
434 435
436 437
438 439
440 441
442 443
444 445
446 447
448 449
450 451
452 453
454 455
456 457
458 459
460 461
462 463
464 465
466 467
468 469
470 471
472 473
474 475
476 477
478 479
480 481
482 483
484 485
486 487
488 489
490 491
492 493
494 495
496 497
498 499
500 501
502 503
504 505
506 507
508 509
510 511
512 513
514 515
516 517
518 519
520 521
522 523
524 525
526 527
528 529
530 531
532 533
534 535
536 537
538 539
540 541
542 543
544 545
546 547
548 549
550 551
552 553
554 555
556 557
558 559
560 561
562 563
564 565
566 567
568 569
570 571
572 573
574 575
576 577
578 579
580 581
582 583
584 585
586 587
588 589
590 591
592 593
594 595
596 597
598 599
600 601
602 603
604 605
606 607
608 609
610 611
612 613
614 615
616 617
618 619
620 621
622 623
624 625
626 627
628 629
630 631
632 633
634 635
636 637
638 639
640 641
642 643
644 645
646 647
648 649
650 651
652 653
654 655
656 657
658 659
660 661
662 663
664 665
666 667
668 669
670 671
672 673
674 675
676 677
678 679
680 681
682 683
684 685
686 687
688 689
690 691
692 693
694 695
696 697
698 699
700 701
702 703
704 705
706 707
708 709
710 711
712 713
714 715
716 717
718 719
720 721
722 723
724 725
726 727
728 729
730 731
732 733
