ply
format ascii 1.0
element vertex 108
property float x
property float y
property float z
element edge 54
property int vertex1
property int vertex2
end_header
-150.783951 133.232986 -83.142616
-150.773834 133.250488 -83.132240
-151.868851 131.849899 -83.678230
-150.783951 133.232986 -83.142616
-150.773834 133.250488 -83.132240
-149.784470 134.819687 -82.054871
-153.086273 130.740860 -83.795959
-151.868851 131.849899 -83.678230
-149.784470 134.819687 -82.054871
-149.449524 135.458084 -81.430275
-154.435242 129.887497 -83.621086
-153.086258 130.740875 -83.795952
-149.449524 135.458084 -81.430275
-148.835159 136.559555 -80.165352
-155.915253 129.279572 -83.201965
-154.435242 129.887497 -83.621086
-148.835159 136.559555 -80.165352
-148.546692 137.163055 -79.322983
-157.525513 128.910522 -82.555428
-155.915253 129.279572 -83.201965
-148.546692 137.163055 -79.322983
-147.953659 138.480515 -77.257454
-159.269333 128.784744 -81.679535
-157.525513 128.910522 -82.555428
-147.953659 138.480515 -77.257454
-147.902603 138.616821 -77.027031
-161.165466 128.939499 -80.533249
-159.269333 128.784744 -81.679535
-147.902603 138.616821 -77.027031
-147.557541 139.956940 -74.677750
-161.165771 128.939560 -80.533020
-161.165451 128.939499 -80.533249
-163.300247 129.553680 -78.917625
-161.165771 128.939560 -80.533020
-147.557541 139.956940 -74.677750
-147.449692 141.230637 -72.492050
-163.983276 129.854370 -78.313332
-163.300247 129.553680 -78.917625
-147.449722 141.230637 -72.492043
-147.446884 141.301743 -72.373589
-165.844986 131.017227 -76.339180
-163.983276 129.854370 -78.313332
-147.446884 141.301727 -72.373596
-147.644699 142.606171 -70.078400
-165.915665 131.070801 -76.253860
-165.844986 131.017227 -76.339180
-147.644699 142.606171 -70.078400
-148.116623 143.841965 -67.753616
-167.223328 132.432816 -74.240227
-165.915665 131.070801 -76.253860
-148.116623 143.841965 -67.753616
-148.888992 144.978577 -65.361313
-168.106186 133.787445 -72.168205
-167.223328 132.432816 -74.240227
-148.888992 144.978577 -65.361313
-149.089798 145.165009 -64.914490
-168.627213 135.064484 -69.986649
-168.106186 133.787445 -72.168205
-149.089783 145.165009 -64.914482
-150.051025 145.979599 -62.882477
-168.861771 136.324173 -67.731277
-168.627228 135.064468 -69.986664
-150.051025 145.979599 -62.882477
-151.293243 146.651093 -60.868183
-168.869110 137.679077 -65.472061
-168.861771 136.324173 -67.731277
-151.293243 146.651093 -60.868183
-151.661148 146.808899 -60.331730
-168.858368 137.760666 -65.349060
-168.869110 137.679077 -65.472061
-151.661148 146.808899 -60.331730
-153.149826 147.214600 -58.552750
-168.639404 139.269287 -63.286255
-168.858368 137.760666 -65.349060
-153.149826 147.214600 -58.552750
-153.977173 147.342621 -57.697083
-168.248306 141.075363 -61.193584
-168.639404 139.269287 -63.286255
-153.977158 147.342606 -57.697094
-154.887650 147.404755 -56.868004
-168.244492 141.088150 -61.179482
-168.248306 141.075363 -61.193584
-154.887650 147.404755 -56.868004
-156.553085 147.345337 -55.647770
-167.455444 142.992523 -59.078918
-168.244492 141.088150 -61.179482
-156.553085 147.345337 -55.647770
-157.965469 147.188293 -54.874985
-167.237381 143.374725 -58.633938
-167.455444 142.992523 -59.078918
-157.965469 147.188293 -54.874985
-158.184525 147.160767 -54.761475
-166.063721 144.749878 -56.890022
-167.237381 143.374725 -58.633942
-158.184525 147.160767 -54.761475
-159.795044 146.903473 -54.288868
-165.962570 144.839996 -56.759125
-166.063721 144.749863 -56.890034
-159.795044 146.903473 -54.288868
-161.394119 146.604431 -54.219761
-164.511688 145.697372 -55.455387
-165.962570 144.839996 -56.759125
-161.394119 146.604431 -54.219761
-162.931992 146.245438 -54.579418
-162.974976 146.234726 -54.590607
-164.511688 145.697372 -55.455387
-162.931992 146.245438 -54.579418
-162.974976 146.234726 -54.590607
0 1
2 3
4 5
6 7
8 9
10 11
12 13
14 15
16 17
18 19
20 21
22 23
24 25
26 27
28 29
30 31
32 33
34 35
36 37
38 39
40 41
42 43
44 45
46 47
48 49
50 51
52 53
54 55
56 57
58 59
60 61
62 63
64 65
66 67
68 69
70 71
72 73
74 75
76 77
78 79
80 81
82 83
84 85
86 87
88 89
90 91
92 93
94 95
96 97
98 99
100 101
102 103
104 105
106 107
