ply
format ascii 1.0
element vertex 68
property float x
property float y
property float z
element edge 34
property int vertex1
property int vertex2
end_header
-222.078949 130.112839 -25.093857
-223.885483 129.548950 -26.120424
-221.654434 130.199478 -24.842628
-222.078949 130.112839 -25.093857
-219.425461 130.553711 -23.631596
-221.654434 130.199478 -24.842628
-217.222366 130.837967 -22.272596
-219.425446 130.553696 -23.631592
-217.154846 130.847519 -22.224943
-217.222366 130.837967 -22.272596
-215.034409 131.217102 -20.528202
-217.154846 130.847519 -22.224943
-213.749084 131.469360 -19.321783
-215.034409 131.217102 -20.528202
-212.751328 131.592255 -18.220419
-213.749084 131.469360 -19.321783
-211.279755 131.613892 -16.545671
-212.751328 131.592255 -18.220419
-209.987335 131.313614 -14.907475
-211.279755 131.613892 -16.545671
-209.261642 131.053986 -14.020247
-209.987335 131.313614 -14.907475
-207.529831 129.985687 -11.688476
-209.261642 131.053986 -14.020247
-205.974213 128.662094 -9.455528
-207.529831 129.985703 -11.688488
-204.547546 127.293411 -7.235787
-205.974213 128.662094 -9.455528
-204.507858 127.252174 -7.167993
-204.547546 127.293411 -7.235787
-203.251389 125.978699 -4.986377
-204.507858 127.252174 -7.167993
-202.063156 124.682030 -2.726588
-203.251389 125.978699 -4.986377
-200.949219 123.352074 -0.484818
-202.063156 124.682030 -2.726588
-200.199570 122.338448 1.101772
-200.949219 123.352074 -0.484818
-199.901367 121.935654 1.711017
-200.199570 122.338448 1.101772
-198.903931 120.400414 3.808005
-199.901398 121.935654 1.711004
-197.958145 118.713638 5.727601
-198.903931 120.400414 3.808005
-197.124893 116.818436 7.375463
-197.958145 118.713638 5.727601
-196.920364 116.123466 7.842215
-197.124893 116.818436 7.375463
-196.523407 114.661812 8.682678
-196.920364 116.123466 7.842215
-196.321716 113.051453 9.432671
-196.523407 114.661812 8.682678
-196.291489 112.298973 9.747287
-196.321716 113.051453 9.432671
-196.440308 110.954201 10.255734
-196.291489 112.298973 9.747287
-196.752090 109.766777 10.663069
-196.440308 110.954201 10.255734
-196.901520 109.344749 10.799001
-196.752090 109.766777 10.663062
-197.657745 108.099869 11.118237
-196.901520 109.344749 10.799001
-198.563171 106.986305 11.306241
-197.657776 108.099892 11.118238
-198.592224 106.954903 11.309558
-198.563171 106.986305 11.306241
-199.631088 105.959030 11.335994
-198.592224 106.954903 11.309558
0 1
2 3
4 5
6 7
8 9
10 11
12 13
14 15
16 17
18 19
20 21
22 23
24 25
26 27
28 29
30 31
32 33
34 35
36 37
38 39
40 41
42 43
44 45
46 47
48 49
50 51
52 53
54 55
56 57
58 59
60 61
62 63
64 65
66 67
