ply
format ascii 1.0
element vertex 166
property float x
property float y
property float z
element edge 83
property int vertex1
property int vertex2
end_header
-152.769516 140.486771 -11.753279
-153.560120 140.590179 -11.857537
-151.979462 140.406540 -11.703975
-152.769501 140.486771 -11.753295
-153.560120 140.590179 -11.857537
-155.095886 140.655014 -11.718834
-150.394348 140.171539 -11.468971
-151.979462 140.406540 -11.703975
-155.095886 140.655014 -11.718834
-156.041412 140.552811 -11.259561
-148.813385 139.867401 -11.200130
-150.394348 140.171539 -11.468971
-156.041428 140.552841 -11.259577
-156.537659 140.513214 -11.050379
-147.246552 139.491165 -10.945158
-148.813385 139.867401 -11.200130
-156.537659 140.513214 -11.050380
-157.868851 140.120956 -9.809199
-145.696335 139.049118 -10.712190
-147.246552 139.491180 -10.945158
-157.868851 140.120956 -9.809199
-158.783676 139.405243 -8.118459
-144.800949 138.765869 -10.578807
-145.696335 139.049118 -10.712190
-158.783676 139.405243 -8.118459
-159.013992 139.242844 -7.773705
-144.168121 138.586014 -10.523406
-144.800949 138.765869 -10.578807
-159.013992 139.242844 -7.773705
-159.961685 137.823151 -5.461618
-142.664154 138.143753 -10.389336
-144.168121 138.586014 -10.523406
-159.961685 137.823151 -5.461618
-160.011215 137.753601 -5.366311
-141.171600 137.674744 -10.241056
-142.664154 138.143753 -10.389336
-160.011215 137.753601 -5.366311
-160.797745 135.818497 -3.124340
-139.688248 137.144623 -10.062900
-141.171600 137.674744 -10.241056
-160.797745 135.818497 -3.124340
-160.890228 135.619965 -2.914855
-138.211105 136.506714 -9.834949
-139.688248 137.144623 -10.062900
-160.890228 135.619965 -2.914855
-161.512146 133.605667 -0.916607
-137.968292 136.386917 -9.788345
-138.211105 136.506714 -9.834949
-161.512146 133.605667 -0.916607
-161.677002 133.172318 -0.487376
-136.746536 135.802673 -9.599174
-137.968292 136.386917 -9.788345
-161.676987 133.172302 -0.487378
-162.190414 131.356506 1.288106
-135.280045 134.986298 -9.282360
-136.746536 135.802658 -9.599173
-162.190414 131.356506 1.288106
-162.407196 130.752151 1.891894
-133.794098 133.986313 -8.788791
-135.280045 134.986298 -9.282360
-162.407196 130.752151 1.891894
-162.885162 129.116165 3.477348
-133.685440 133.903839 -8.743218
-133.794098 133.986313 -8.788791
-162.885178 129.116180 3.477336
-163.121613 128.453873 4.086483
-132.285553 132.785126 -8.098649
-133.685440 133.903839 -8.743218
-163.121613 128.453873 4.086483
-163.640793 126.765686 5.491554
-131.100815 131.571228 -7.309237
-132.285553 132.785126 -8.098649
-163.640793 126.765686 5.491554
-163.847809 126.181038 5.932234
-130.718460 131.113144 -6.995778
-131.100815 131.571228 -7.309237
-163.847809 126.181038 5.932234
-164.483673 124.259239 7.273263
-129.482834 129.282944 -5.661138
-130.718460 131.113144 -6.995778
-164.483673 124.259239 7.273263
-164.590591 123.961678 7.470624
-128.986664 128.352859 -4.928234
-129.482834 129.282944 -5.661138
-164.590591 123.961678 7.470624
-165.360016 121.911133 8.810602
-128.374786 127.043388 -3.833335
-128.986664 128.352859 -4.928234
-165.360016 121.911133 8.810602
-165.429749 121.700096 8.950302
-127.552223 124.841057 -1.878422
-128.374786 127.043411 -3.833347
-165.429749 121.700096 8.950302
-166.130157 119.989281 10.090424
-126.888916 122.613365 0.100538
-127.552223 124.841057 -1.878422
-166.130142 119.989273 10.090423
-166.436981 119.170937 10.646091
-126.327316 120.292175 2.007193
-126.888916 122.613365 0.100538
-166.436981 119.170937 10.646091
-166.878693 118.112320 11.357524
-126.135132 119.365860 2.700362
-126.327316 120.292175 2.007193
-166.878693 118.112320 11.357524
-167.492035 116.653214 12.306958
-125.841728 117.827209 3.777305
-126.135124 119.365852 2.700363
-167.492035 116.653214 12.306958
-167.627777 116.306244 12.525281
-125.404724 115.244377 5.454794
-125.841728 117.827209 3.777305
-167.627777 116.306244 12.525281
-168.404816 114.625237 13.508697
-124.985512 112.591057 7.112548
-125.404724 115.244377 5.454794
-168.404816 114.625237 13.508697
-168.602310 114.100082 13.795845
-124.558922 109.916527 8.826594
-124.985504 112.591080 7.112537
-168.602310 114.100090 13.795835
-169.110565 112.821632 14.438040
-124.111473 107.260330 10.651914
-124.558922 109.916527 8.826594
-169.110565 112.821632 14.438040
-169.606216 111.463837 15.043962
-123.643867 104.643242 12.605461
-124.111473 107.260330 10.651914
-169.606216 111.463837 15.043962
-169.764618 110.944603 15.262780
-123.158951 102.081337 14.697098
-123.643867 104.643242 12.605461
-169.764618 110.944603 15.262780
-170.398911 109.088074 16.010113
-122.659042 99.575928 16.928312
-123.158951 102.081337 14.697098
-170.398911 109.088074 16.010111
-170.489243 108.753807 16.144417
-122.136024 96.994705 19.253698
-122.659042 99.575928 16.928312
-170.489243 108.753807 16.144417
-170.923492 107.047874 16.829865
-121.573303 94.124435 21.604109
-122.136040 96.994736 19.253687
-170.923492 107.047874 16.829865
-171.132889 106.064552 17.223782
-120.950325 90.759079 23.919882
-121.573303 94.124435 21.604109
-171.132889 106.064552 17.223782
-171.321915 104.793312 17.723312
-171.321915 104.793312 17.723312
-171.486603 103.419441 18.238558
-171.486603 103.419441 18.238558
-171.534042 102.170357 18.675446
-171.534042 102.170357 18.675446
-171.551056 100.798187 19.111813
-171.551056 100.798187 19.111813
-171.384796 98.689003 19.723967
-171.384796 98.689003 19.723967
-171.335968 98.126907 19.880615
-171.336014 98.126938 19.880613
-170.871735 95.339203 20.709194
-170.871735 95.339203 20.709194
-170.343323 92.808960 21.621712
-170.343323 92.808960 21.621712
-170.260864 92.400444 21.789986
0 1
2 3
4 5
6 7
8 9
10 11
12 13
14 15
16 17
18 19
20 21
22 23
24 25
26 27
28 29
30 31
32 33
34 35
36 37
38 39
40 41
42 43
44 45
46 47
48 49
50 51
52 53
54 55
56 57
58 59
60 61
62 63
64 65
66 67
68 69
70 71
72 73
74 75
76 77
78 79
80 81
82 83
84 85
86 87
88 89
90 91
92 93
94 95
96 97
98 99
100 101
102 103
104 105
106 107
108 109
110 111
112 113
114 115
116 117
118 119
120 121
122 123
124 125
126 127
128 129
130 131
132 133
134 135
136 137
138 139
140 141
142 143
144 145
146 147
148 149
150 151
152 153
154 155
156 157
158 159
160 161
162 163
164 165
