ply
format ascii 1.0
element vertex 74
property float x
property float y
property float z
element edge 37
property int vertex1
property int vertex2
end_header
-74.895569 145.102402 -11.346004
-73.771561 146.028152 -11.287996
-76.002327 144.147385 -11.421999
-74.895569 145.102402 -11.346004
-77.118378 143.212494 -11.483995
-76.002327 144.147385 -11.421999
-78.268486 142.345642 -11.501216
-77.118378 143.212494 -11.483995
-79.463951 141.573044 -11.463307
-78.268486 142.345642 -11.501216
-79.775940 141.392990 -11.450784
-79.463951 141.573044 -11.463307
-80.696228 140.891907 -11.400002
-79.775940 141.392990 -11.450784
-81.951355 140.280289 -11.336067
-80.696228 140.891907 -11.400002
-83.214142 139.700851 -11.278864
-81.951363 140.280304 -11.336069
-84.477066 139.129044 -11.218392
-83.214142 139.700851 -11.278864
-85.738312 138.547775 -11.128107
-84.477066 139.129044 -11.218392
-86.997147 137.937515 -10.972425
-85.738304 138.547760 -11.128107
-88.254539 137.276001 -10.703741
-86.997147 137.937515 -10.972425
-89.511192 136.527420 -10.259264
-88.254539 137.276001 -10.703741
-90.762947 135.613373 -9.540189
-89.511192 136.527420 -10.259264
-90.996231 135.396576 -9.344877
-90.762947 135.613373 -9.540189
-91.989990 134.349365 -8.384744
-90.996231 135.396576 -9.344877
-92.940155 132.877472 -7.058894
-91.989983 134.349365 -8.384743
-93.141739 132.405182 -6.645194
-92.940147 132.877487 -7.058906
-93.692238 130.442291 -5.004818
-93.141739 132.405182 -6.645194
-93.897598 128.027069 -3.058594
-93.692238 130.442291 -5.004818
-93.778511 125.677200 -1.121939
-93.897598 128.027069 -3.058594
-93.436119 123.434181 0.867930
-93.778511 125.677200 -1.121939
-92.975296 121.268257 2.920765
-93.436119 123.434181 0.867930
-92.465233 119.145882 5.035209
-92.975296 121.268257 2.920765
-91.977760 117.494736 6.783617
-92.465233 119.145874 5.035196
-91.854210 117.089844 7.223394
-91.977760 117.494736 6.783617
-91.254562 115.050835 9.471743
-91.854210 117.089844 7.223394
-90.636696 113.032043 11.757398
-91.254562 115.050835 9.471743
-90.630501 113.015953 11.776350
-90.636696 113.032043 11.757398
-90.001396 111.015930 14.048765
-90.630501 113.015953 11.776351
-89.381676 108.963867 16.317167
-90.001396 111.015930 14.048765
-89.357880 108.899467 16.389685
-89.381676 108.963867 16.317167
-88.740326 106.856583 18.611589
-89.357880 108.899467 16.389685
-88.122635 104.627472 21.026512
-88.740349 106.856613 18.611582
-88.062065 104.442551 21.233847
-88.122635 104.627472 21.026512
-87.451385 102.267342 23.660173
-88.062065 104.442551 21.233847
0 1
2 3
4 5
6 7
8 9
10 11
12 13
14 15
16 17
18 19
20 21
22 23
24 25
26 27
28 29
30 31
32 33
34 35
36 37
38 39
40 41
42 43
44 45
46 47
48 49
50 51
52 53
54 55
56 57
58 59
60 61
62 63
64 65
66 67
68 69
70 71
72 73
