ply
format ascii 1.0
element vertex 96
property float x
property float y
property float z
element edge 48
property int vertex1
property int vertex2
end_header
-75.200096 154.097717 -19.945581
-76.248573 153.005142 -19.733526
-76.248573 153.005142 -19.733526
-77.322662 151.982880 -19.551888
-77.322662 151.982880 -19.551888
-77.749535 151.603622 -19.508242
-77.749535 151.603607 -19.508255
-78.409554 151.038361 -19.473963
-78.409554 151.038361 -19.473963
-79.499886 150.154083 -19.511580
-79.499886 150.154083 -19.511580
-80.594536 149.317917 -19.635071
-80.594536 149.317917 -19.635071
-81.709785 148.557816 -19.808304
-81.709785 148.557800 -19.808306
-82.860550 147.896881 -19.992479
-82.860558 147.896912 -19.992483
-84.058357 147.348099 -20.148376
-84.058357 147.348099 -20.148376
-85.293617 146.880234 -20.264912
-85.293617 146.880234 -20.264912
-86.544250 146.434311 -20.345638
-86.544250 146.434296 -20.345638
-87.789368 145.949783 -20.388033
-87.789368 145.949783 -20.388033
-89.013435 145.375107 -20.380579
-89.013435 145.375107 -20.380579
-90.218742 144.695312 -20.286474
-90.218742 144.695312 -20.286474
-91.413185 143.911972 -20.066402
-91.413185 143.911972 -20.066402
-92.608780 143.039673 -19.675125
-92.608780 143.039658 -19.675123
-93.817795 142.090942 -19.047226
-93.817795 142.090942 -19.047226
-94.417542 141.572052 -18.600245
-94.417542 141.572052 -18.600245
-95.045532 141.067947 -18.126043
-95.045532 141.067947 -18.126043
-96.291000 140.001251 -16.953987
-96.291000 140.001251 -16.953987
-97.033195 139.252731 -16.051134
-97.033195 139.252731 -16.051134
-97.524384 138.694656 -15.378427
-97.524384 138.694656 -15.378427
-98.582512 137.145859 -13.615057
-98.582512 137.145859 -13.615057
-98.702454 136.899246 -13.348524
-98.702454 136.899246 -13.348524
-99.401772 134.971802 -11.413799
-99.401772 134.971802 -11.413799
-99.663254 133.194931 -9.762252
-99.663254 133.194931 -9.762252
-99.711929 132.745651 -9.367709
-99.711929 132.745651 -9.367709
-99.643791 130.506195 -7.398940
-99.643814 130.506210 -7.398952
-99.309273 128.274170 -5.457793
-99.309273 128.274170 -5.457793
-99.001839 127.030457 -4.355620
-99.001839 127.030457 -4.355620
-98.777748 126.068527 -3.513258
-98.777748 126.068527 -3.513258
-98.157494 123.890121 -1.541673
-98.157494 123.890121 -1.541673
-97.497391 121.761078 0.487232
-97.497391 121.761078 0.487232
-97.110298 120.759735 1.503295
-97.110298 120.759735 1.503295
-96.725410 119.706932 2.583175
-96.725410 119.706932 2.583175
-96.013885 117.648407 4.731271
-96.013885 117.648415 4.731259
-95.538475 116.479393 6.010313
-95.538475 116.479393 6.010313
-95.203918 115.637138 6.941473
-95.203918 115.637138 6.941473
-94.496704 113.591560 9.198129
-94.496704 113.591560 9.198129
-94.112679 112.646034 10.286605
-94.112671 112.646034 10.286605
-93.702911 111.594910 11.500264
-93.702911 111.594910 11.500264
-93.020912 109.556656 13.812912
-93.020912 109.556656 13.812912
-92.765121 108.916000 14.560525
-92.765121 108.916000 14.560525
-92.262878 107.545746 16.126621
-92.262878 107.545746 16.126621
-91.599487 105.434479 18.466333
-91.599503 105.434502 18.466322
-91.413788 104.914429 19.055027
-91.413788 104.914429 19.055027
-90.883881 103.238602 20.927906
-90.883881 103.238602 20.927906
-90.256844 100.837685 23.598980
0 1
2 3
4 5
6 7
8 9
10 11
12 13
14 15
16 17
18 19
20 21
22 23
24 25
26 27
28 29
30 31
32 33
34 35
36 37
38 39
40 41
42 43
44 45
46 47
48 49
50 51
52 53
54 55
56 57
58 59
60 61
62 63
64 65
66 67
68 69
70 71
72 73
74 75
76 77
78 79
80 81
82 83
84 85
86 87
88 89
90 91
92 93
94 95
