ply
format ascii 1.0
element vertex 320
property float x
property float y
property float z
element edge 160
property int vertex1
property int vertex2
end_header
-127.520119 33.675034 -123.036720
-127.509560 33.695503 -123.038071
-128.299973 32.743008 -122.840584
-127.520119 33.675034 -123.036720
-127.509560 33.695503 -123.038071
-126.874863 35.036617 -123.107658
-129.190521 32.184875 -122.516998
-128.299942 32.743004 -122.840569
-126.874863 35.036617 -123.107658
-126.353432 36.441532 -123.122108
-130.196716 32.040871 -122.027878
-129.190521 32.184875 -122.516998
-126.353432 36.441532 -123.122108
-126.298126 36.618046 -123.118713
-131.334534 32.377724 -121.332375
-130.196716 32.040871 -122.027878
-126.298126 36.618046 -123.118713
-125.785614 38.431431 -123.044746
-132.222672 32.992886 -120.698730
-131.334534 32.377724 -121.332375
-125.785614 38.431431 -123.044746
-125.596970 39.129913 -123.006058
-132.660812 33.374050 -120.366814
-132.222672 32.992886 -120.698730
-125.596970 39.129910 -123.006073
-125.285797 40.316616 -122.932701
-134.228607 35.257416 -119.085777
-132.660812 33.374050 -120.366814
-125.285797 40.316616 -122.932701
-124.822388 41.820091 -122.880478
-134.279419 35.332664 -119.042236
-134.228607 35.257416 -119.085777
-124.822388 41.820091 -122.880478
-124.746422 42.075176 -122.872917
-135.626465 37.632442 -117.854263
-134.279419 35.332664 -119.042236
-124.746422 42.075176 -122.872917
-124.155655 43.649429 -122.901878
-136.745575 39.899567 -116.838799
-135.626480 37.632439 -117.854256
-124.155655 43.649429 -122.901878
-123.696449 44.575981 -122.981918
-136.816299 40.049263 -116.774529
-136.745575 39.899574 -116.838799
-123.696449 44.575981 -122.981918
-123.486282 44.976967 -123.021957
-137.810318 42.499928 -115.830803
-136.816299 40.049263 -116.774529
-123.486282 44.976967 -123.021957
-122.724014 46.037426 -123.221275
-138.687317 44.965343 -114.976059
-137.810318 42.499928 -115.830803
-122.724014 46.037426 -123.221275
-121.878082 46.869671 -123.479370
-139.466675 47.436047 -114.198669
-138.687317 44.965343 -114.976059
-121.878082 46.869671 -123.479370
-121.082703 47.545471 -123.732643
-139.853470 48.831749 -113.799377
-139.466675 47.436047 -114.198669
-121.082703 47.545471 -123.732643
-120.997200 47.616428 -123.760338
-140.138641 49.908005 -113.504173
-139.853470 48.831745 -113.799362
-120.997200 47.616428 -123.760338
-120.092094 48.297081 -124.072395
-140.690628 52.379578 -112.898109
-140.138626 49.908016 -113.504181
-120.092102 48.297081 -124.072411
-119.163185 48.904259 -124.426445
-141.048203 54.346642 -112.470299
-140.690628 52.379578 -112.898109
-119.163185 48.904259 -124.426445
-118.230057 49.498962 -124.803558
-141.108627 54.850868 -112.377548
-141.048203 54.346642 -112.470299
-118.230057 49.498962 -124.803558
-117.307465 50.145073 -125.166420
-141.298782 57.334854 -111.973152
-141.108627 54.850868 -112.377548
-117.307465 50.145073 -125.166420
-116.575226 50.820534 -125.414139
-141.298767 57.334877 -111.973129
-141.298782 57.334854 -111.973152
-141.172226 59.438187 -111.769508
-141.298767 57.334885 -111.973129
-116.575226 50.820534 -125.414139
-116.427368 50.963741 -125.460945
-141.086823 59.862400 -111.757881
-141.172226 59.438187 -111.769508
-116.427368 50.963741 -125.460945
-115.542610 51.809452 -125.729576
-140.824097 61.070518 -111.731461
-141.086823 59.862400 -111.757881
-115.542618 51.809452 -125.729576
-114.628441 52.598938 -126.001831
-140.310959 62.385559 -111.802200
-140.824097 61.070518 -111.731461
-114.628441 52.598938 -126.001831
-113.737312 53.510139 -126.215363
-140.268921 62.477226 -111.809273
-140.310959 62.385559 -111.802200
-113.737312 53.510139 -126.215363
-113.495857 53.879341 -126.244492
-139.734238 63.604488 -111.894547
-140.268921 62.477226 -111.809273
-113.495842 53.879341 -126.244492
-112.901443 54.664806 -126.318489
-139.127258 64.792938 -111.989754
-139.734253 63.604488 -111.894539
-112.901443 54.664806 -126.318489
-111.965759 55.581444 -126.426468
-138.982224 65.167587 -111.996704
-139.127258 64.792938 -111.989754
-111.965759 55.581444 -126.426468
-111.050262 56.647820 -126.430481
-138.590134 66.144829 -112.024544
-138.982224 65.167587 -111.996696
-111.050262 56.647820 -126.430481
-110.964584 56.799389 -126.417397
-138.178284 67.757759 -111.974823
-138.590134 66.144829 -112.024544
-110.964584 56.799389 -126.417397
-110.159554 57.851639 -126.366394
-138.175278 67.793816 -111.970917
-138.178284 67.757759 -111.974823
-110.159569 57.851639 -126.366402
-109.183723 58.800564 -126.380486
-137.972549 69.782295 -111.779648
-138.175278 67.793816 -111.970917
-109.183723 58.800564 -126.380486
-108.583511 59.678638 -126.341995
-137.989197 70.320526 -111.693398
-137.972549 69.782295 -111.779648
-108.583511 59.678638 -126.341995
-108.320419 60.125751 -126.315788
-138.009109 72.280670 -111.392891
-137.989197 70.320526 -111.693398
-108.320419 60.125751 -126.315788
-107.374268 61.192451 -126.342018
-138.065994 72.796326 -111.286728
-138.009109 72.280670 -111.392891
-107.374268 61.192451 -126.342018
-106.439423 62.327866 -126.348915
-138.279068 75.222900 -110.798737
-138.065994 72.796326 -111.286713
-106.439423 62.327866 -126.348915
-106.309097 62.588963 -126.326828
-138.281433 75.237907 -110.795143
-138.279083 75.222893 -110.798737
-106.309105 62.588966 -126.326836
-105.565071 63.710278 -126.273018
-138.625778 77.643723 -110.224617
-138.281433 75.237900 -110.795151
-105.565071 63.710278 -126.273018
-104.598152 64.821159 -126.268913
-138.709763 78.457306 -110.041634
-138.625778 77.643723 -110.224617
-104.598152 64.821159 -126.268913
-104.243172 65.490395 -126.209457
-138.974289 80.041656 -109.632919
-138.709763 78.457306 -110.041634
-104.243172 65.490395 -126.209457
-103.753143 66.382484 -126.136513
-139.207047 81.803719 -109.203423
-138.974289 80.041656 -109.632919
-103.753143 66.382477 -126.136497
-102.806702 67.628899 -126.110199
-139.315811 82.440193 -109.036766
-139.207047 81.803719 -109.203423
-102.806702 67.628899 -126.110199
-102.436668 68.388107 -126.046227
-139.681625 84.835983 -108.435097
-139.315811 82.440178 -109.036758
-102.436668 68.388107 -126.046227
-101.985497 69.334923 -125.968033
-139.717560 85.160126 -108.360962
-139.681625 84.835983 -108.435097
-101.985497 69.334923 -125.968033
-101.084396 70.804070 -125.906921
-140.038437 87.239914 -107.853340
-139.717560 85.160126 -108.360962
-101.084396 70.804062 -125.906914
-100.885849 71.285103 -125.861298
-140.174866 88.412102 -107.591225
-140.038437 87.239914 -107.853340
-100.885849 71.285110 -125.861290
-100.284988 72.660713 -125.740692
-140.342773 89.663925 -107.301186
-140.174866 88.412102 -107.591225
-100.284988 72.660713 -125.740692
-99.607544 74.170425 -125.613998
-140.543549 91.531143 -106.882904
-140.342789 89.663918 -107.301201
-99.607544 74.170425 -125.613998
-99.484840 74.553947 -125.569214
-140.601105 92.105225 -106.752556
-140.543549 91.531143 -106.882904
-99.484840 74.553947 -125.569214
-98.690895 76.508087 -125.384415
-140.801849 94.519081 -106.189529
-140.601105 92.105225 -106.752556
-98.690895 76.508087 -125.384399
-98.498322 77.055855 -125.324486
-140.804092 94.560913 -106.179680
-140.801880 94.519081 -106.189529
-98.498322 77.055855 -125.324486
-97.985634 78.806686 -125.102928
-140.919327 97.028847 -105.556137
-140.804092 94.560913 -106.179680
-97.985634 78.806686 -125.102928
-97.636673 79.923996 -124.959839
-140.927292 97.368813 -105.465729
-140.919327 97.028831 -105.556129
-97.636658 79.923988 -124.959831
-97.338982 81.357437 -124.729767
-140.906342 99.517456 -104.884964
-140.927292 97.368813 -105.465729
-97.338982 81.357437 -124.729767
-96.993637 82.767166 -124.498428
-140.898178 100.042847 -104.736015
-140.906342 99.517456 -104.884964
-96.993652 82.767166 -124.498428
-96.803871 84.346130 -124.173378
-140.764420 102.043320 -104.199844
-140.898178 100.042847 -104.736015
-96.803871 84.346130 -124.173370
-96.604622 85.570175 -123.913292
-140.739075 102.554611 -104.060814
-140.764420 102.043320 -104.199844
-96.604622 85.570175 -123.913292
-96.571289 88.315948 -123.199364
-140.497025 104.644341 -103.583252
-140.739075 102.554611 -104.060814
-96.571289 88.315948 -123.199364
-96.589874 88.452477 -123.158737
-140.476868 104.915718 -103.522156
-140.497025 104.644333 -103.583267
-96.589874 88.452477 -123.158737
-96.900681 91.006416 -122.388275
-140.118195 107.131035 -103.133423
-140.476868 104.915718 -103.522156
-96.900681 91.006401 -122.388275
-97.725319 93.625336 -121.490295
-140.060211 107.360641 -103.103279
-140.118210 107.131035 -103.133423
-97.725319 93.625336 -121.490295
-99.074020 96.164680 -120.517006
-139.656891 109.210037 -102.824905
-140.060211 107.360641 -103.103279
-99.074020 96.164680 -120.517006
-99.088181 96.183487 -120.509003
-139.284851 110.204666 -102.716331
-139.656891 109.210037 -102.824905
-99.088181 96.183487 -120.509003
-100.849617 98.620682 -119.457893
-139.017990 111.037384 -102.587318
-139.284851 110.204666 -102.716331
-100.849632 98.620689 -119.457924
-101.858284 99.685974 -118.923752
-138.172501 112.554459 -102.428749
-139.017990 111.037384 -102.587318
-101.858276 99.685982 -118.923767
-103.047554 100.964325 -118.255974
-137.538589 113.284058 -102.403030
-138.172501 112.554459 -102.428749
-103.047554 100.964325 -118.255974
-104.290031 102.064316 -117.590706
-137.140167 113.774353 -102.358627
-137.538605 113.284058 -102.403046
-104.290031 102.064316 -117.590706
-105.551437 103.187836 -116.881058
-135.916809 114.665253 -102.431824
-137.140167 113.774353 -102.358627
-105.551437 103.187836 -116.881058
-106.594955 103.992493 -116.313545
-134.504868 115.209816 -102.697769
-135.916809 114.665253 -102.431824
-106.594955 103.992493 -116.313545
-108.309822 105.297943 -115.366905
-132.939392 115.458328 -103.147018
-134.504883 115.209824 -102.697769
-108.309814 105.297928 -115.366920
-108.838676 105.667374 -115.083031
-131.243698 115.444008 -103.769592
-132.939392 115.458328 -103.147018
-108.838676 105.667389 -115.083031
-111.021286 107.107124 -113.937462
-130.407776 115.311478 -104.141769
-131.243698 115.444008 -103.769592
-111.021286 107.107124 -113.937462
-111.317345 107.309860 -113.779839
-129.440079 115.198647 -104.554245
-130.407761 115.311478 -104.141754
-111.317345 107.309860 -113.779839
-113.193726 108.452370 -112.824921
-127.586220 114.828247 -105.432594
-129.440079 115.198647 -104.554245
-113.193726 108.452370 -112.824921
-114.511063 109.241219 -112.153900
-125.662529 114.286980 -106.425461
-127.586220 114.828247 -105.432594
-114.511063 109.241219 -112.153900
-115.367615 109.738884 -111.718689
-125.488968 114.218559 -106.523743
-125.662529 114.286980 -106.425461
-115.367607 109.738899 -111.718689
-117.474762 110.821495 -110.678604
-123.681976 113.600922 -107.481430
-125.488968 114.218559 -106.523743
-117.474762 110.821495 -110.678604
-117.933640 111.065643 -110.444504
-121.664284 112.813408 -108.538475
-123.681976 113.600922 -107.481430
-117.933632 111.065643 -110.444527
-119.592415 111.884697 -109.603912
-121.544701 112.754845 -108.604065
-121.664276 112.813393 -108.538467
-119.592415 111.884697 -109.603912
-121.544701 112.754845 -108.604065
0 1
2 3
4 5
6 7
8 9
10 11
12 13
14 15
16 17
18 19
20 21
22 23
24 25
26 27
28 29
30 31
32 33
34 35
36 37
38 39
40 41
42 43
44 45
46 47
48 49
50 51
52 53
54 55
56 57
58 59
60 61
62 63
64 65
66 67
68 69
70 71
72 73
74 75
76 77
78 79
80 81
82 83
84 85
86 87
88 89
90 91
92 93
94 95
96 97
98 99
100 101
102 103
104 105
106 107
108 109
110 111
112 113
114 115
116 117
118 119
120 121
122 123
124 125
126 127
128 129
130 131
132 133
134 135
136 137
138 139
140 141
142 143
144 145
146 147
148 149
150 151
152 153
154 155
156 157
158 159
160 161
162 163
164 165
166 167
168 169
170 171
172 173
174 175
176 177
178 179
180 181
182 183
184 185
186 187
188 189
190 191
192 193
194 195
196 197
198 199
200 201
202 203
204 205
206 207
208 209
210 211
212 213
214 215
216 217
218 219
220 221
222 223
224 225
226 227
228 229
230 231
232 233
234 235
236 237
238 239
240 241
242 243
244 245
246 247
248 249
250 251
252 253
254 255
256 257
258 259
260 261
262 263
264 265
266 267
268 269
270 271
272 273
274 275
276 277
278 279
280 281
282 283
284 285
286 287
288 289
290 291
292 293
294 295
296 297
298 299
300 301
302 303
304 305
306 307
308 309
310 311
312 313
314 315
316 317
318 319
