ply
format ascii 1.0
element vertex 130
property float x
property float y
property float z
element edge 65
property int vertex1
property int vertex2
end_header
-144.710953 128.349625 0.068334
-143.781448 128.145920 0.000352
-146.115387 128.550323 0.264029
-144.710938 128.349609 0.068332
-143.781448 128.145950 0.000339
-143.292343 128.037384 -0.039785
-147.505112 128.652267 0.545463
-146.115387 128.550323 0.264029
-143.292343 128.037384 -0.039785
-141.863449 127.616554 -0.069719
-148.875031 128.651474 0.925490
-147.505112 128.652267 0.545463
-141.863449 127.616554 -0.069719
-140.423035 127.083855 -0.010997
-149.897888 128.551895 1.311089
-148.875031 128.651474 0.925490
-140.423035 127.083855 -0.010997
-138.962845 126.411133 0.174295
-150.214844 128.520676 1.429447
-149.897903 128.551926 1.311077
-138.962845 126.411133 0.174295
-137.460709 125.508949 0.579552
-151.518677 128.243225 2.060477
-150.214844 128.520676 1.429447
-137.460709 125.508949 0.579552
-137.392532 125.458397 0.607935
-152.776550 127.795868 2.834981
-151.518677 128.243225 2.060477
-137.392532 125.458397 0.607935
-135.911850 124.344582 1.228101
-153.968079 127.138428 3.805346
-152.776535 127.795876 2.834980
-135.911850 124.344582 1.228101
-134.552643 123.062973 2.034121
-154.484787 126.695717 4.396945
-153.968079 127.138428 3.805346
-134.552643 123.062973 2.034121
-134.296051 122.792099 2.209507
-155.066467 126.222954 5.038942
-154.484787 126.695717 4.396945
-134.296051 122.792099 2.209507
-132.625366 120.661102 3.616041
-156.115204 125.177612 6.372430
-155.066467 126.222954 5.038942
-132.625366 120.661102 3.616041
-132.586792 120.604218 3.653011
-156.469040 124.675232 6.944103
-156.115204 125.177612 6.372430
-132.586792 120.604218 3.653011
-131.222412 118.165413 5.209611
-157.083801 123.850182 7.809416
-156.469040 124.675232 6.944103
-131.222412 118.165413 5.209611
-130.728485 117.119804 5.845646
-157.996002 122.359291 9.064322
-157.083801 123.850182 7.809416
-130.728485 117.119804 5.845646
-130.092575 115.568115 6.766603
-158.025391 122.307030 9.102373
-157.996002 122.359291 9.064322
-130.092575 115.568115 6.766603
-129.202805 112.887001 8.311849
-158.949814 120.593201 10.208207
-158.025406 122.307030 9.102372
-129.202805 112.887009 8.311839
-128.544952 110.685417 9.543537
-159.350769 119.707771 10.717048
-158.949814 120.593201 10.208207
-128.544952 110.685417 9.543539
-128.386780 110.136620 9.848962
-159.823837 118.723076 11.263428
-159.350769 119.707771 10.717048
-128.386780 110.136620 9.848962
-127.678986 107.352859 11.440061
-160.661743 117.001411 12.229404
-159.823837 118.723076 11.263428
-127.678986 107.352859 11.440061
-127.042030 104.579262 13.131417
-160.689362 116.939095 12.265242
-160.661743 117.001411 12.229404
-127.042030 104.579262 13.131417
-126.434464 101.861160 14.967322
-161.532394 115.221313 13.269235
-160.689362 116.939095 12.265242
-126.434464 101.861160 14.967322
-125.836205 99.233582 16.992407
-161.903015 114.365021 13.764988
-161.532394 115.221313 13.269235
-125.836205 99.233582 16.992407
-125.236404 96.592903 19.200182
-162.316223 113.417198 14.293868
-161.903030 114.365044 13.764978
-125.236420 96.592934 19.200172
-124.627563 93.734459 21.535549
-163.093491 111.691994 15.156979
-162.316223 113.417198 14.293868
-124.627563 93.734459 21.535549
-124.162506 91.319389 23.324877
-163.102905 111.665718 15.168790
-163.093491 111.691994 15.156979
-124.162506 91.319389 23.324877
-124.004440 90.438820 23.924986
-163.848572 109.820419 15.916969
-163.102890 111.665718 15.168790
-164.161301 108.901100 16.238165
-163.848572 109.820419 15.916969
-164.511703 107.786652 16.599916
-164.161301 108.901100 16.238165
-165.050583 106.059120 17.138556
-164.511703 107.786652 16.599916
-165.131119 105.720490 17.245300
-165.050583 106.059120 17.138556
-165.687622 103.591888 17.963276
-165.131119 105.720490 17.245300
-165.751740 103.282486 18.076479
-165.687622 103.591888 17.963276
-166.120422 101.234779 18.884773
-165.751740 103.282486 18.076479
-166.211319 100.638763 19.130335
-166.120422 101.234779 18.884773
-166.393585 98.505455 19.981611
-166.211319 100.638763 19.130335
-166.424835 98.008324 20.170002
-166.393570 98.505455 19.981611
-166.347992 95.240265 21.164284
-166.424866 98.008354 20.170000
-166.311676 94.747932 21.337162
-166.347992 95.240265 21.164284
-166.040161 92.255234 22.239347
-166.311676 94.747932 21.337162
0 1
2 3
4 5
6 7
8 9
10 11
12 13
14 15
16 17
18 19
20 21
22 23
24 25
26 27
28 29
30 31
32 33
34 35
36 37
38 39
40 41
42 43
44 45
46 47
48 49
50 51
52 53
54 55
56 57
58 59
60 61
62 63
64 65
66 67
68 69
70 71
72 73
74 75
76 77
78 79
80 81
82 83
84 85
86 87
88 89
90 91
92 93
94 95
96 97
98 99
100 101
102 103
104 105
106 107
108 109
110 111
112 113
114 115
116 117
118 119
120 121
122 123
124 125
126 127
128 129
