ply
format ascii 1.0
element vertex 96
property float x
property float y
property float z
element edge 48
property int vertex1
property int vertex2
end_header
-53.591984 14.942365 -137.987595
-53.169903 13.342040 -137.817352
-53.872288 16.300461 -138.119644
-53.591984 14.942365 -137.987595
-54.367970 19.266441 -138.348129
-53.872288 16.300461 -138.119644
-54.405636 19.521723 -138.362778
-54.367970 19.266441 -138.348129
-54.714798 22.230886 -138.454575
-54.405636 19.521723 -138.362778
-55.008766 25.191744 -138.422745
-54.714798 22.230886 -138.454575
-55.285419 27.978525 -138.278091
-55.008766 25.191744 -138.422745
-55.300018 28.147884 -138.266373
-55.285419 27.978525 -138.278091
-55.531105 31.096634 -138.024277
-55.300018 28.147884 -138.266373
-55.750515 34.040318 -137.736099
-55.531105 31.096636 -138.024277
-55.973469 36.978329 -137.432785
-55.750526 34.040321 -137.736115
-56.211376 39.912682 -137.124390
-55.973469 36.978329 -137.432785
-56.473255 42.847286 -136.810059
-56.211376 39.912682 -137.124390
-56.697563 45.136414 -136.561569
-56.473255 42.847282 -136.810059
-56.756546 45.785774 -136.490616
-56.697563 45.136410 -136.561569
-57.021534 48.729843 -136.163635
-56.756546 45.785774 -136.490616
-57.293839 51.674267 -135.806976
-57.021534 48.729843 -136.163635
-57.578545 54.611103 -135.390091
-57.293839 51.674267 -135.806976
-57.877968 57.532154 -134.881042
-57.578545 54.611103 -135.390091
-58.190842 60.434307 -134.272675
-57.877960 57.532154 -134.881027
-58.511837 63.323292 -133.600723
-58.190842 60.434307 -134.272675
-58.831417 66.206680 -132.908356
-58.511837 63.323292 -133.600723
-59.134670 69.092545 -132.238205
-58.831413 66.206680 -132.908371
-59.400517 71.983696 -131.595154
-59.134670 69.092545 -132.238205
-59.599190 74.879173 -130.956192
-59.400517 71.983696 -131.595154
-59.687588 77.778496 -130.295425
-59.599186 74.879173 -130.956177
-59.597881 80.684357 -129.594528
-59.687588 77.778496 -130.295425
-59.461758 81.892281 -129.294113
-59.597881 80.684357 -129.594528
-59.079853 83.615135 -128.861069
-59.461750 81.892281 -129.294113
-58.379772 85.492210 -128.385818
-59.079849 83.615120 -128.861053
-57.624969 86.607399 -128.101395
-58.379772 85.492210 -128.385818
-57.051315 87.242157 -127.932114
-57.624973 86.607407 -128.101410
-55.607864 88.109268 -127.644653
-57.051315 87.242157 -127.932114
-54.113079 88.485939 -127.367531
-55.607864 88.109268 -127.644653
-52.594109 88.500183 -127.034447
-54.113079 88.485939 -127.367531
-51.061928 88.251678 -126.663422
-52.594116 88.500183 -127.034439
-49.520348 87.815674 -126.300377
-51.061928 88.251678 -126.663422
-47.969410 87.239586 -125.997910
-49.520348 87.815674 -126.300377
-46.709667 86.673050 -125.819489
-47.969402 87.239571 -125.997902
-46.409321 86.526260 -125.783913
-46.709663 86.673058 -125.819496
-44.846386 85.672127 -125.633728
-46.409317 86.526260 -125.783905
-43.288937 84.699112 -125.510597
-44.846386 85.672127 -125.633728
-41.967094 83.711761 -125.419807
-43.288937 84.699112 -125.510597
-41.741467 83.530365 -125.404648
-41.967102 83.711754 -125.419807
-40.209595 82.154305 -125.329056
-41.741467 83.530365 -125.404648
-38.876938 80.722801 -125.333344
-40.209595 82.154305 -125.329056
-38.696720 80.519295 -125.339043
-38.876938 80.722801 -125.333344
-37.208607 78.610535 -125.486862
-38.696720 80.519295 -125.339043
0 1
2 3
4 5
6 7
8 9
10 11
12 13
14 15
16 17
18 19
20 21
22 23
24 25
26 27
28 29
30 31
32 33
34 35
36 37
38 39
40 41
42 43
44 45
46 47
48 49
50 51
52 53
54 55
56 57
58 59
60 61
62 63
64 65
66 67
68 69
70 71
72 73
74 75
76 77
78 79
80 81
82 83
84 85
86 87
88 89
90 91
92 93
94 95
