ply
format ascii 1.0
element vertex 128
property float x
property float y
property float z
element edge 64
property int vertex1
property int vertex2
end_header
-107.549698 134.526978 -99.611206
-106.781898 135.440781 -99.287262
-108.804115 133.447098 -99.941093
-107.549698 134.526978 -99.611206
-106.781891 135.440765 -99.287270
-106.435577 135.916824 -99.108932
-110.178612 132.630173 -100.172142
-108.804115 133.447098 -99.941093
-106.435600 135.916824 -99.108940
-105.438553 137.564545 -98.399666
-111.669708 132.067520 -100.277649
-110.178604 132.630173 -100.172150
-105.438553 137.564545 -98.399666
-105.038612 138.366989 -97.978363
-113.271851 131.752258 -100.178535
-111.669708 132.067520 -100.277649
-105.038612 138.366989 -97.978363
-104.551033 139.439392 -97.322327
-114.985153 131.688583 -99.807312
-113.271851 131.752258 -100.178535
-104.551033 139.439392 -97.322327
-103.962814 140.862000 -96.264679
-116.812935 131.882568 -99.121826
-114.985153 131.688583 -99.807312
-103.962814 140.862000 -96.264679
-103.746780 141.456833 -95.749161
-118.787949 132.394379 -98.108185
-116.812935 131.882568 -99.121826
-103.746765 141.456802 -95.749153
-103.251595 142.988174 -94.235123
-119.277962 132.602936 -97.798180
-118.787949 132.394379 -98.108185
-103.251610 142.988174 -94.235138
-103.079399 143.681503 -93.466103
-121.112671 133.633362 -96.456795
-119.277954 132.602936 -97.798187
-103.079399 143.681503 -93.466103
-102.846024 144.888931 -92.044182
-121.916595 134.200714 -95.764877
-121.112663 133.633362 -96.456795
-102.846024 144.888931 -92.044182
-102.734505 146.432220 -90.142685
-123.673180 135.851715 -93.721283
-121.916595 134.200714 -95.764877
-102.734505 146.432220 -90.142685
-102.727219 146.705536 -89.805649
-124.390869 136.796799 -92.438553
-123.673180 135.851715 -93.721283
-102.727219 146.705536 -89.805649
-102.938934 148.511230 -87.563240
-124.832664 137.406616 -91.524307
-124.390869 136.796799 -92.438553
-102.938934 148.511230 -87.563240
-103.386726 150.277924 -85.302498
-125.519714 138.883133 -89.209923
-124.832672 137.406616 -91.524315
-103.386726 150.277924 -85.302498
-104.023338 151.888214 -82.973686
-125.598465 139.220139 -88.677818
-125.519714 138.883133 -89.209923
-104.023338 151.888214 -82.973686
-104.814034 153.212387 -80.522308
-125.823868 140.330948 -86.850685
-125.598465 139.220139 -88.677818
-104.814034 153.212387 -80.522308
-105.725304 154.176407 -77.915184
-125.862694 141.773666 -84.499237
-125.823868 140.330948 -86.850685
-105.725281 154.176407 -77.915192
-106.765450 154.908539 -75.196037
-125.731110 142.898376 -82.702370
-125.862694 141.773666 -84.499237
-106.765450 154.908539 -75.196037
-107.964859 155.586746 -72.429085
-125.667763 143.239685 -82.162750
-125.731117 142.898361 -82.702362
-107.964859 155.586746 -72.429085
-108.564079 155.909485 -71.213692
-125.269310 144.745743 -79.820892
-125.667763 143.239685 -82.162750
-108.564079 155.909485 -71.213692
-109.463936 156.355194 -69.667496
-125.138718 145.134949 -79.228798
-125.269310 144.745743 -79.820892
-109.463936 156.355194 -69.667496
-111.030495 157.104080 -67.303238
-124.689995 146.316498 -77.488396
-125.138718 145.134949 -79.228798
-111.030495 157.104080 -67.303238
-111.353355 157.201935 -66.931160
-124.405060 147.058334 -76.439415
-124.689995 146.316498 -77.488396
-111.353355 157.201935 -66.931160
-113.029060 157.613052 -65.142197
-124.013290 147.979202 -75.225235
-124.405060 147.058334 -76.439415
-113.029068 157.613068 -65.142204
-114.715660 157.591232 -64.120857
-123.647217 148.893417 -74.075562
-124.013283 147.979187 -75.225235
-114.715660 157.591232 -64.120857
-114.912422 157.546585 -64.093018
-123.253014 149.781082 -73.053078
-123.647217 148.893417 -74.075554
-114.912422 157.546585 -64.093018
-116.207626 157.245071 -63.920952
-122.865852 150.707031 -71.995667
-123.253014 149.781082 -73.053078
-116.207626 157.245071 -63.920952
-116.379715 157.169022 -63.985065
-122.367363 151.705338 -70.905457
-122.865852 150.707031 -71.995667
-116.379715 157.169022 -63.985065
-117.565010 156.670166 -64.370331
-122.017975 152.413651 -70.078491
-122.367363 151.705338 -70.905457
-117.564987 156.670166 -64.370331
-118.823669 155.923004 -65.317894
-121.255478 153.581863 -68.680969
-122.017975 152.413651 -70.078491
-118.823669 155.923004 -65.317894
-119.664131 155.252487 -66.329330
-121.064201 153.868881 -68.290131
-121.255478 153.581863 -68.680969
-119.664131 155.252487 -66.329330
-119.989624 155.003632 -66.681534
-119.989624 155.003632 -66.681534
-121.064201 153.868866 -68.290131
0 1
2 3
4 5
6 7
8 9
10 11
12 13
14 15
16 17
18 19
20 21
22 23
24 25
26 27
28 29
30 31
32 33
34 35
36 37
38 39
40 41
42 43
44 45
46 47
48 49
50 51
52 53
54 55
56 57
58 59
60 61
62 63
64 65
66 67
68 69
70 71
72 73
74 75
76 77
78 79
80 81
82 83
84 85
86 87
88 89
90 91
92 93
94 95
96 97
98 99
100 101
102 103
104 105
106 107
108 109
110 111
112 113
114 115
116 117
118 119
120 121
122 123
124 125
126 127
