ply
format ascii 1.0
element vertex 36
property float x
property float y
property float z
element edge 18
property int vertex1
property int vertex2
end_header
-73.389412 129.859833 3.331605
-72.012672 130.345474 3.252966
-74.765823 129.217224 3.629115
-73.389412 129.859833 3.331605
-76.128197 128.397598 4.108887
-74.765823 129.217224 3.629115
-76.231972 128.320267 4.159260
-76.128197 128.397598 4.108887
-77.467575 127.214386 4.903459
-76.231972 128.320267 4.159260
-78.770790 125.725952 5.880552
-77.467575 127.214386 4.903459
-79.176529 125.142776 6.272367
-78.770790 125.725952 5.880552
-80.041336 123.426666 7.503827
-79.176521 125.142776 6.272353
-80.457970 122.367012 8.279390
-80.041336 123.426674 7.503827
-81.042320 119.812546 10.305646
-80.457970 122.367012 8.279390
-81.250862 117.416756 12.368878
-81.042320 119.812546 10.305646
-81.195877 115.167206 14.463557
-81.250862 117.416756 12.368878
-80.982704 113.048187 16.585848
-81.195877 115.167206 14.463557
-80.661522 110.982880 18.768719
-80.982704 113.048187 16.585848
-80.523727 110.377991 19.431065
-80.661530 110.982918 18.768709
-80.119507 108.904335 21.057461
-80.523735 110.377998 19.431065
-79.573860 107.223694 22.880507
-80.119507 108.904335 21.057461
-79.354927 106.674599 23.472298
-79.573860 107.223694 22.880507
0 1
2 3
4 5
6 7
8 9
10 11
12 13
14 15
16 17
18 19
20 21
22 23
24 25
26 27
28 29
30 31
32 33
34 35
