ply
format ascii 1.0
element vertex 180
property float x
property float y
property float z
element edge 90
property int vertex1
property int vertex2
end_header
-117.604561 58.523304 -123.503586
-117.647560 58.490677 -123.487968
-116.701309 59.191734 -123.837242
-117.604561 58.523304 -123.503586
-117.647560 58.490677 -123.487968
-118.662949 58.010719 -123.076859
-115.759941 59.943497 -124.155914
-116.701309 59.191734 -123.837242
-118.662949 58.010719 -123.076859
-119.746643 57.739841 -122.610786
-114.807198 60.724022 -124.418961
-115.759941 59.943497 -124.155914
-119.746643 57.739841 -122.610786
-120.901276 57.684883 -122.077049
-113.869476 61.640503 -124.561752
-114.807198 60.724022 -124.418961
-120.901276 57.684883 -122.077049
-121.873070 57.843422 -121.588234
-113.797722 61.735706 -124.563652
-113.869476 61.640503 -124.561752
-121.873070 57.843422 -121.588234
-122.151825 57.913551 -121.442604
-112.958023 62.719841 -124.588326
-113.797722 61.735714 -124.563652
-122.151825 57.913551 -121.442604
-123.548798 58.555267 -120.652573
-111.979851 63.648590 -124.632164
-112.958023 62.719841 -124.588326
-123.548767 58.555271 -120.652565
-125.150352 59.732391 -119.661163
-111.063293 64.688538 -124.629005
-111.979858 63.648590 -124.632179
-125.150352 59.732391 -119.661163
-125.305298 59.875904 -119.559982
-111.039001 64.724976 -124.627075
-111.063293 64.688538 -124.629005
-125.305298 59.875904 -119.559990
-127.064713 62.157413 -118.300133
-110.125969 65.908836 -124.601891
-111.039001 64.724976 -124.627075
-127.064713 62.157413 -118.300133
-127.757042 63.409805 -117.745277
-109.160561 66.959572 -124.621719
-110.125969 65.908836 -124.601891
-127.757042 63.409805 -117.745277
-128.345306 64.503540 -117.270973
-108.712082 67.622467 -124.589943
-109.160561 66.959572 -124.621719
-128.345306 64.503540 -117.270973
-129.369980 66.880486 -116.369125
-108.283997 68.323296 -124.542343
-108.712082 67.622467 -124.589943
-129.369965 66.880486 -116.369133
-130.240601 69.273399 -115.548447
-107.352943 69.552063 -124.502998
-108.283997 68.323296 -124.542343
-130.240601 69.273399 -115.548447
-130.244629 69.286972 -115.544220
-106.762657 70.528320 -124.435753
-107.352943 69.552063 -124.502998
-130.244629 69.286972 -115.544220
-131.007355 71.674835 -114.782608
-106.503761 71.067909 -124.383179
-106.762650 70.528320 -124.435753
-131.007355 71.674835 -114.782608
-131.718323 74.075798 -114.039444
-105.644791 72.578232 -124.283890
-106.503761 71.067909 -124.383179
-131.718307 74.075798 -114.039429
-132.344284 76.482445 -113.320679
-105.271461 73.406624 -124.211296
-105.644798 72.578224 -124.283875
-132.344284 76.482445 -113.320686
-132.358383 76.551445 -113.301529
-104.892662 74.447670 -124.102554
-105.271461 73.406624 -124.211296
-132.358383 76.551445 -113.301529
-132.890518 78.895546 -112.618843
-104.203278 76.260925 -123.936874
-104.892662 74.447670 -124.102554
-132.890518 78.895546 -112.618843
-133.371979 81.285797 -111.939697
-104.164917 76.419762 -123.916641
-104.203278 76.260925 -123.936874
-133.371994 81.285797 -111.939697
-133.377151 81.314789 -111.931747
-103.562859 78.813599 -123.620262
-104.164917 76.419762 -123.916641
-133.377151 81.314789 -111.931747
-133.779129 83.751480 -111.281570
-103.500549 79.085335 -123.584503
-103.562851 78.813599 -123.620255
-133.779129 83.751465 -111.281563
-133.947174 85.084221 -110.953079
-103.157288 81.846176 -123.122810
-103.500534 79.085327 -123.584480
-133.947174 85.084221 -110.953079
-134.071075 86.217903 -110.685135
-103.154572 81.866096 -123.119385
-103.157288 81.846176 -123.122810
-103.154160 84.591652 -122.521378
-103.154587 81.866089 -123.119400
-134.071075 86.217903 -110.685135
-134.257355 88.353127 -110.210892
-103.433281 86.962090 -121.876045
-103.154160 84.591652 -122.521378
-134.257355 88.353127 -110.210892
-134.275024 88.716049 -110.137398
-103.465881 87.258926 -121.793259
-103.433281 86.962090 -121.876045
-134.275024 88.716049 -110.137398
-134.340271 91.210381 -109.653908
-104.155701 89.853973 -120.932220
-103.465881 87.258926 -121.793259
-134.340271 91.210381 -109.653908
-134.339111 91.261154 -109.644951
-105.231819 92.370674 -119.947754
-104.155701 89.853966 -120.932228
-134.339127 91.261162 -109.644966
-134.194626 93.693527 -109.226608
-105.430649 92.702705 -119.799042
-105.231819 92.370674 -119.947754
-134.194626 93.693527 -109.226608
-134.174454 93.867928 -109.197998
-106.711090 94.799141 -118.843239
-105.430649 92.702705 -119.799042
-134.174454 93.867928 -109.197998
-133.843155 95.864807 -108.871475
-108.551277 97.136871 -117.628708
-106.711090 94.799141 -118.843239
-133.843170 95.864799 -108.871475
-133.678497 96.545074 -108.761955
-108.604965 97.191978 -117.596588
-108.551285 97.136879 -117.628731
-133.678497 96.545074 -108.761955
-133.325577 97.796822 -108.555710
-110.806488 99.361977 -116.290977
-108.604965 97.191978 -117.596588
-133.325577 97.796822 -108.555710
-132.708710 99.328232 -108.352364
-111.078827 99.591393 -116.139381
-110.806488 99.361977 -116.290977
-132.708710 99.328224 -108.352356
-132.650375 99.481285 -108.330009
-113.342194 101.337852 -114.923309
-111.078819 99.591393 -116.139374
-132.650375 99.481285 -108.330009
-131.839020 100.935875 -108.227562
-113.510910 101.459366 -114.835388
-113.342194 101.337852 -114.923309
-131.839020 100.935875 -108.227562
-130.920563 102.205177 -108.239998
-115.473473 102.672363 -113.876923
-113.510910 101.459366 -114.835388
-130.920563 102.205177 -108.239998
-130.729675 102.421890 -108.258110
-116.790642 103.400917 -113.264709
-115.473473 102.672363 -113.876923
-130.729675 102.421890 -108.258110
-129.910828 103.315765 -108.350441
-117.542732 103.789566 -112.923859
-116.790627 103.400902 -113.264702
-129.910828 103.315765 -108.350441
-128.766647 104.177696 -108.597878
-119.473450 104.548859 -112.110481
-117.542740 103.789581 -112.923874
-128.766663 104.177689 -108.597878
-127.510925 104.828285 -108.958084
-121.076706 105.061096 -111.444740
-119.473450 104.548859 -112.110481
-127.510925 104.828285 -108.958084
-126.145050 105.263069 -109.426468
-121.340134 105.145592 -111.331665
-121.076706 105.061096 -111.444740
-126.145050 105.263069 -109.426468
-124.664986 105.470390 -109.989639
-123.068123 105.442596 -110.627228
-121.340134 105.145592 -111.331665
-124.664986 105.470390 -109.989639
-123.068123 105.442596 -110.627228
0 1
2 3
4 5
6 7
8 9
10 11
12 13
14 15
16 17
18 19
20 21
22 23
24 25
26 27
28 29
30 31
32 33
34 35
36 37
38 39
40 41
42 43
44 45
46 47
48 49
50 51
52 53
54 55
56 57
58 59
60 61
62 63
64 65
66 67
68 69
70 71
72 73
74 75
76 77
78 79
80 81
82 83
84 85
86 87
88 89
90 91
92 93
94 95
96 97
98 99
100 101
102 103
104 105
106 107
108 109
110 111
112 113
114 115
116 117
118 119
120 121
122 123
124 125
126 127
128 129
130 131
132 133
134 135
136 137
138 139
140 141
142 143
144 145
146 147
148 149
150 151
152 153
154 155
156 157
158 159
160 161
162 163
164 165
166 167
168 169
170 171
172 173
174 175
176 177
178 179
