ply
format ascii 1.0
element vertex 58
property float x
property float y
property float z
element edge 29
property int vertex1
property int vertex2
end_header
-72.745483 139.462173 -5.041993
-73.927719 138.611755 -5.200682
-73.927719 138.611755 -5.200682
-75.140732 137.783264 -5.230955
-75.140732 137.783264 -5.230955
-76.387054 136.988571 -5.134466
-76.387054 136.988571 -5.134466
-77.663727 136.223175 -4.911785
-77.663727 136.223175 -4.911785
-78.368576 135.806885 -4.737244
-78.368576 135.806885 -4.737244
-78.959045 135.456741 -4.569593
-78.959045 135.456741 -4.569593
-80.259010 134.700760 -4.190511
-80.259010 134.700760 -4.190511
-81.548126 133.923340 -3.804725
-81.548141 133.923355 -3.804725
-82.814247 133.066071 -3.394376
-82.814247 133.066071 -3.394376
-84.056709 132.074036 -2.893169
-84.056709 132.074036 -2.893169
-84.618172 131.540329 -2.589602
-84.618172 131.540329 -2.589602
-85.274750 130.818390 -2.141980
-85.274750 130.818390 -2.141980
-86.465813 129.234680 -1.092963
-86.465813 129.234680 -1.092963
-86.880684 128.501297 -0.573172
-86.880684 128.501297 -0.573172
-87.579185 126.604210 0.857793
-87.579185 126.604210 0.857793
-87.772644 125.878967 1.414526
-87.772644 125.878967 1.414526
-88.039856 123.450287 3.415016
-88.039856 123.450287 3.415016
-87.999985 121.139236 5.461775
-87.999962 121.139252 5.461762
-87.787376 118.920746 7.577936
-87.787376 118.920746 7.577936
-87.479942 116.771347 9.763435
-87.479942 116.771347 9.763435
-87.178192 115.224319 11.406201
-87.178192 115.224319 11.406201
-87.069336 114.678726 11.988585
-87.069336 114.678726 11.988585
-86.620834 112.596924 14.217781
-86.620834 112.596924 14.217781
-86.170082 110.497169 16.429991
-86.170082 110.497169 16.429991
-85.996674 109.850204 17.123825
-85.996674 109.850204 17.123825
-85.618279 108.398766 18.679337
-85.618294 108.398804 18.679325
-85.094086 106.181854 21.052490
-85.094086 106.181854 21.052490
-84.820908 105.210052 22.123276
-84.820908 105.210045 22.123276
-84.421013 103.851028 23.629442
0 1
2 3
4 5
6 7
8 9
10 11
12 13
14 15
16 17
18 19
20 21
22 23
24 25
26 27
28 29
30 31
32 33
34 35
36 37
38 39
40 41
42 43
44 45
46 47
48 49
50 51
52 53
54 55
56 57
