ply
format ascii 1.0
element vertex 92
property float x
property float y
property float z
element edge 46
property int vertex1
property int vertex2
end_header
-137.948822 115.879684 8.314995
-138.111145 116.039268 8.276135
-136.622604 114.455956 8.724218
-137.948822 115.879684 8.314995
-138.111145 116.039268 8.276135
-139.519806 117.051575 8.154251
-135.501709 112.962868 9.302244
-136.622604 114.455956 8.724218
-139.519806 117.051575 8.154251
-140.885178 117.714417 8.217437
-135.030945 112.257210 9.622347
-135.501709 112.962875 9.302236
-140.885178 117.714417 8.217437
-142.218063 118.104713 8.418300
-133.854996 110.196419 10.703968
-135.030945 112.257210 9.622347
-142.218048 118.104713 8.418298
-143.520462 118.255882 8.732513
-133.227173 108.961548 11.421764
-133.854996 110.196419 10.703968
-143.520462 118.255882 8.732513
-144.793945 118.193161 9.134881
-132.571472 107.486450 12.310680
-133.227173 108.961548 11.421764
-144.793945 118.193161 9.134881
-146.040085 117.940628 9.602474
-131.544968 104.748978 13.975752
-132.571472 107.486450 12.310680
-146.040085 117.940628 9.602474
-147.258179 117.522392 10.128735
-130.962723 102.974579 15.040649
-131.544968 104.748978 13.975752
-147.258179 117.522392 10.128735
-148.442902 116.950371 10.726468
-130.657120 101.960899 15.643052
-130.962723 102.974564 15.040649
-148.442902 116.950371 10.726468
-148.686157 116.794495 10.870817
-129.931458 99.127785 17.324219
-130.657120 101.960899 15.643052
-148.686157 116.794495 10.870817
-149.578156 116.179649 11.423444
-129.288788 96.242828 19.127916
-129.931458 99.127785 17.324219
-149.578125 116.179642 11.423442
-150.688400 115.326775 12.141424
-128.699829 93.273575 21.214581
-129.288803 96.242859 19.127911
-150.688400 115.326775 12.141424
-151.768143 114.345451 12.858168
-128.147156 90.178444 23.731533
-128.699829 93.273575 21.214581
-151.768143 114.345451 12.858168
-151.861877 114.237778 12.927254
-151.861862 114.237793 12.927246
-152.795212 113.134369 13.587854
-152.795212 113.134369 13.587854
-153.812057 111.897293 14.254551
-153.812057 111.897293 14.254551
-154.095398 111.487991 14.460066
-154.095398 111.487991 14.460066
-154.769928 110.477768 14.957284
-154.769913 110.477745 14.957283
-155.713943 109.090332 15.631677
-155.713943 109.090332 15.631677
-155.919083 108.734146 15.798460
-155.919083 108.734146 15.798460
-156.584869 107.513336 16.353954
-156.584869 107.513336 16.353954
-157.438232 105.962097 17.017748
-157.438232 105.962097 17.017748
-157.440857 105.956238 17.020100
-157.440857 105.956238 17.020100
-158.215942 104.170601 17.703653
-158.215942 104.170601 17.703653
-158.638763 103.155724 18.072350
-158.638763 103.155724 18.072350
-158.940460 102.287758 18.387754
-158.940460 102.287758 18.387754
-159.607086 100.417236 19.103737
-159.607086 100.417236 19.103737
-159.621292 100.363190 19.125383
-159.621292 100.363182 19.125383
-160.173187 98.112877 20.061754
-160.173187 98.112877 20.061754
-160.253128 97.730637 20.224176
-160.253143 97.730667 20.224173
-160.552002 95.343369 21.203959
-160.552002 95.343369 21.203959
-160.589020 94.931038 21.361485
-160.589020 94.931038 21.361485
-160.577682 91.822205 22.387289
0 1
2 3
4 5
6 7
8 9
10 11
12 13
14 15
16 17
18 19
20 21
22 23
24 25
26 27
28 29
30 31
32 33
34 35
36 37
38 39
40 41
42 43
44 45
46 47
48 49
50 51
52 53
54 55
56 57
58 59
60 61
62 63
64 65
66 67
68 69
70 71
72 73
74 75
76 77
78 79
80 81
82 83
84 85
86 87
88 89
90 91
