ply
format ascii 1.0
element vertex 126
property float x
property float y
property float z
element edge 63
property int vertex1
property int vertex2
end_header
-59.866879 13.967436 -138.282242
-59.763504 16.815399 -138.481506
-59.763504 16.815399 -138.481506
-59.663418 19.681976 -138.578888
-59.663418 19.681976 -138.578888
-59.581532 22.563559 -138.578491
-59.581532 22.563559 -138.578491
-59.528122 25.455917 -138.485123
-59.528122 25.455917 -138.485123
-59.508934 28.355350 -138.308411
-59.508934 28.355350 -138.308411
-59.525627 31.259325 -138.064911
-59.525627 31.259325 -138.064911
-59.578651 34.165245 -137.771957
-59.578667 34.165249 -137.771973
-59.668209 37.070713 -137.446579
-59.668209 37.070713 -137.446579
-59.795742 39.976372 -137.101685
-59.795742 39.976372 -137.101685
-59.964390 42.884811 -136.747299
-59.964386 42.884808 -136.747314
-60.179657 45.798523 -136.393311
-60.179657 45.798523 -136.393311
-60.451466 48.717693 -136.040756
-60.451466 48.717693 -136.040756
-60.797615 51.633831 -135.655319
-60.797615 51.633831 -135.655319
-60.928711 52.536217 -135.521759
-60.928715 52.536217 -135.521759
-61.215366 54.536102 -135.193771
-61.215366 54.536102 -135.193771
-61.628387 57.416248 -134.618484
-61.628384 57.416252 -134.618469
-62.051632 60.272919 -133.926392
-62.051632 60.272919 -133.926392
-62.513905 63.116070 -133.175110
-62.513905 63.116070 -133.175110
-63.052040 65.956268 -132.429367
-63.052044 65.956261 -132.429382
-63.718021 68.802437 -131.751572
-63.718021 68.802437 -131.751572
-63.738026 68.880402 -131.734222
-63.738026 68.880402 -131.734222
-64.414223 71.660088 -131.152191
-64.414223 71.660088 -131.152191
-65.094719 74.523201 -130.585281
-65.094719 74.523216 -130.585281
-65.818306 77.378265 -129.992889
-65.818306 77.378265 -129.992889
-66.601463 80.215378 -129.329880
-66.601463 80.215378 -129.329880
-66.770653 80.845711 -129.172821
-66.770653 80.845711 -129.172821
-67.369347 83.038773 -128.601379
-67.369339 83.038773 -128.601364
-68.059212 85.855087 -127.825066
-68.059212 85.855087 -127.825058
-68.656357 88.668533 -127.019463
-68.656357 88.668533 -127.019463
-69.098000 91.488945 -126.201004
-69.098000 91.488945 -126.201004
-69.284309 94.332253 -125.380432
-69.284309 94.332230 -125.380432
-69.245888 95.099998 -125.163513
-69.245888 95.099998 -125.163513
-69.011299 97.225243 -124.568901
-69.011299 97.225243 -124.568901
-68.455368 99.137199 -124.047691
-68.455368 99.137199 -124.047691
-67.954842 100.201431 -123.760338
-67.954842 100.201431 -123.760338
-67.258514 101.230293 -123.483627
-67.258514 101.230293 -123.483612
-65.882042 102.514671 -123.146667
-65.882042 102.514671 -123.146667
-64.416649 103.409561 -122.934013
-64.416649 103.409561 -122.934021
-64.411423 103.412422 -122.933380
-64.411423 103.412422 -122.933380
-62.860889 104.000656 -122.840424
-62.860886 104.000656 -122.840424
-61.254868 104.407990 -122.838295
-61.254868 104.407990 -122.838295
-59.613899 104.701485 -122.871353
-59.613899 104.701485 -122.871353
-57.958126 104.920456 -122.864456
-57.958126 104.920456 -122.864456
-56.304794 105.095879 -122.744781
-56.304794 105.095879 -122.744781
-54.667023 105.262230 -122.459816
-54.667027 105.262222 -122.459824
-53.048237 105.479980 -122.031288
-53.048237 105.479980 -122.031288
-51.449242 105.821091 -121.497833
-51.449242 105.821091 -121.497833
-49.871998 106.371399 -120.888947
-49.871990 106.371376 -120.888924
-48.559158 107.092918 -120.303955
-48.559158 107.092918 -120.303955
-48.323471 107.238411 -120.193535
-48.323479 107.238419 -120.193542
-46.805428 108.457893 -119.378510
-46.805428 108.457893 -119.378510
-45.505905 109.962311 -118.495659
-45.505905 109.962311 -118.495659
-45.338120 110.195602 -118.365074
-45.338120 110.195602 -118.365074
-43.948715 112.628517 -117.064026
-43.948715 112.628517 -117.064026
-43.869068 112.797615 -116.975586
-43.869068 112.797592 -116.975586
-42.837677 115.599060 -115.527267
-42.837677 115.599060 -115.527267
-42.702606 116.079460 -115.277779
-42.702606 116.079460 -115.277779
-42.130249 118.360260 -114.059875
-42.130249 118.360260 -114.059875
-41.702507 120.912224 -112.651535
-41.702507 120.912224 -112.651535
-41.673801 121.078804 -112.555817
-41.673805 121.078796 -112.555817
-41.321445 123.754379 -110.990372
-41.321445 123.754379 -110.990372
-41.109821 126.389778 -109.389397
-41.109821 126.389778 -109.389397
-41.047951 127.320427 -108.807220
0 1
2 3
4 5
6 7
8 9
10 11
12 13
14 15
16 17
18 19
20 21
22 23
24 25
26 27
28 29
30 31
32 33
34 35
36 37
38 39
40 41
42 43
44 45
46 47
48 49
50 51
52 53
54 55
56 57
58 59
60 61
62 63
64 65
66 67
68 69
70 71
72 73
74 75
76 77
78 79
80 81
82 83
84 85
86 87
88 89
90 91
92 93
94 95
96 97
98 99
100 101
102 103
104 105
106 107
108 109
110 111
112 113
114 115
116 117
118 119
120 121
122 123
124 125
