ply
format ascii 1.0
element vertex 84
property float x
property float y
property float z
element edge 42
property int vertex1
property int vertex2
end_header
-118.527451 71.446579 -120.637825
-118.442856 71.489952 -120.666946
-119.697556 71.187744 -120.137314
-118.527451 71.446579 -120.637825
-118.442856 71.489952 -120.666946
-117.473747 72.069229 -120.954872
-119.931534 71.208763 -120.018852
-119.697556 71.187744 -120.137314
-117.473747 72.069229 -120.954872
-116.473083 72.892586 -121.154060
-121.085236 71.519142 -119.390076
-119.931534 71.208763 -120.018852
-116.473083 72.892586 -121.154060
-115.491074 73.817192 -121.287117
-122.967590 73.058052 -118.193398
-121.085236 71.519142 -119.390076
-115.491089 73.817200 -121.287132
-114.598587 74.750809 -121.361618
-123.085197 73.199081 -118.111855
-122.967583 73.058044 -118.193398
-114.598587 74.750809 -121.361618
-114.530518 74.848221 -121.360367
-124.373779 75.541656 -117.080971
-123.085197 73.199081 -118.111855
-114.530518 74.848221 -121.360367
-113.690254 76.257309 -121.284576
-125.245499 77.955383 -116.228302
-124.373772 75.541656 -117.080963
-113.690254 76.257309 -121.284576
-112.870659 77.650238 -121.189468
-125.475418 78.958664 -115.929901
-125.245483 77.955383 -116.228302
-112.870651 77.650230 -121.189461
-112.849350 77.710327 -121.181358
-125.771965 80.429504 -115.503326
-125.475418 78.958664 -115.929909
-112.849350 77.710327 -121.181358
-112.234634 79.813339 -120.864586
-126.031761 82.954300 -114.867004
-125.771965 80.429504 -115.503326
-112.234634 79.813339 -120.864586
-112.084679 80.423485 -120.767494
-126.032784 83.229462 -114.809288
-126.031761 82.954300 -114.867004
-112.084679 80.423485 -120.767509
-111.958862 82.839256 -120.262718
-125.915291 85.568375 -114.377190
-126.032784 83.229462 -114.809288
-111.958862 82.839256 -120.262718
-111.955933 83.112114 -120.203033
-125.868774 85.898705 -114.330444
-125.915283 85.568359 -114.377190
-111.955933 83.112114 -120.203033
-112.482475 85.695229 -119.464844
-125.401360 87.928574 -114.133362
-125.868774 85.898705 -114.330444
-112.482475 85.695229 -119.464844
-113.588951 88.164925 -118.548782
-125.269142 88.326614 -114.115013
-125.401360 87.928574 -114.133362
-113.588943 88.164902 -118.548782
-114.526619 89.419319 -117.955048
-124.708092 89.499084 -114.142799
-125.269142 88.326614 -114.115013
-114.526619 89.419319 -117.955048
-115.471596 90.467201 -117.400101
-123.857948 90.766693 -114.275444
-124.708092 89.499084 -114.142799
-115.471596 90.467201 -117.400101
-116.832161 91.442863 -116.726646
-123.149666 91.472519 -114.437973
-123.857948 90.766693 -114.275444
-116.832161 91.442863 -116.726646
-118.690903 92.323822 -115.900887
-122.844727 91.721519 -114.513329
-123.149666 91.472519 -114.437973
-118.690903 92.323822 -115.900887
-119.032402 92.393158 -115.770622
-121.632179 92.278755 -114.876923
-122.844727 91.721512 -114.513313
-119.032402 92.393158 -115.770622
-120.255142 92.505249 -115.325867
-120.255142 92.505249 -115.325867
-121.632179 92.278755 -114.876923
0 1
2 3
4 5
6 7
8 9
10 11
12 13
14 15
16 17
18 19
20 21
22 23
24 25
26 27
28 29
30 31
32 33
34 35
36 37
38 39
40 41
42 43
44 45
46 47
48 49
50 51
52 53
54 55
56 57
58 59
60 61
62 63
64 65
66 67
68 69
70 71
72 73
74 75
76 77
78 79
80 81
82 83
