ply
format ascii 1.0
element vertex 82
property float x
property float y
property float z
element edge 41
property int vertex1
property int vertex2
end_header
-214.058701 114.614182 -78.058464
-213.727905 114.826797 -77.984161
-216.384476 113.445236 -78.476601
-214.058701 114.614182 -78.058464
-213.727905 114.826797 -77.984161
-211.878738 116.010536 -77.601562
-218.923660 112.498756 -78.834091
-216.384476 113.445236 -78.476601
-211.878738 116.010536 -77.601562
-209.827545 117.526802 -77.002724
-221.766388 111.686241 -79.011894
-218.923676 112.498787 -78.834099
-209.827545 117.526802 -77.002724
-208.143753 118.900055 -76.254639
-224.978058 110.918335 -78.875984
-221.766388 111.686241 -79.011894
-208.143753 118.900055 -76.254639
-207.906357 119.093796 -76.130951
-207.906357 119.093796 -76.130951
-206.118942 120.682648 -74.915161
-206.118942 120.682648 -74.915169
-205.130676 121.651207 -74.057030
-205.130676 121.651207 -74.057030
-204.470337 122.366478 -73.399818
-204.470337 122.366478 -73.399818
-203.101440 124.072296 -71.851120
-203.101440 124.072296 -71.851120
-202.966675 124.281357 -71.666245
-202.966675 124.281357 -71.666245
-201.767914 126.436829 -69.836380
-201.767899 126.436806 -69.836388
-201.662979 126.701660 -69.613556
-201.662979 126.701660 -69.613556
-200.963013 128.686050 -67.911682
-200.963013 128.686050 -67.911682
-200.683289 130.063095 -66.601730
-200.683289 130.063095 -66.601730
-200.557861 130.691177 -65.941605
-200.557861 130.691177 -65.941605
-200.545898 132.289368 -63.805344
-200.545898 132.289368 -63.805344
-200.887756 133.447998 -61.455441
-200.887756 133.447998 -61.455441
-201.641144 134.308044 -58.970963
-201.641144 134.308044 -58.970963
-202.220490 134.643387 -57.787598
-202.220490 134.643387 -57.787598
-202.907410 135.013428 -56.450172
-202.907410 135.013412 -56.450191
-204.498184 135.551453 -54.281189
-204.498184 135.551453 -54.281189
-204.743790 135.622375 -53.965561
-204.743790 135.622375 -53.965561
-206.582092 135.871765 -52.114319
-206.582092 135.871765 -52.114319
-207.226990 135.900208 -51.482994
-207.226990 135.900208 -51.482994
-208.563034 135.820892 -50.387794
-208.563034 135.820892 -50.387794
-210.464676 135.570908 -48.913651
-210.464676 135.570908 -48.913651
-210.491043 135.566559 -48.895664
-210.491028 135.566559 -48.895660
-212.409943 135.242493 -47.764435
-212.409943 135.242493 -47.764435
-214.344879 134.953369 -46.847076
-214.344879 134.953369 -46.847076
-215.593048 134.758743 -46.381290
-215.593048 134.758743 -46.381290
-216.276825 134.640274 -46.160347
-216.276825 134.640274 -46.160347
-218.176010 134.204895 -45.767887
-218.176010 134.204895 -45.767887
-220.020477 133.596191 -45.603470
-220.020477 133.596191 -45.603470
-221.843216 132.844864 -45.689270
-221.843262 132.844879 -45.689278
-223.710739 132.029663 -46.070614
-223.710739 132.029663 -46.070614
-225.570068 131.250488 -46.759003
-225.570068 131.250488 -46.759003
-225.682663 131.205536 -46.807106
0 1
2 3
4 5
6 7
8 9
10 11
12 13
14 15
16 17
18 19
20 21
22 23
24 25
26 27
28 29
30 31
32 33
34 35
36 37
38 39
40 41
42 43
44 45
46 47
48 49
50 51
52 53
54 55
56 57
58 59
60 61
62 63
64 65
66 67
68 69
70 71
72 73
74 75
76 77
78 79
80 81
