ply
format ascii 1.0
element vertex 186
property float x
property float y
property float z
element edge 93
property int vertex1
property int vertex2
end_header
-71.804153 17.655691 -138.596619
-72.426453 15.114373 -138.627701
-71.617119 18.431330 -138.606979
-71.804153 17.655691 -138.596619
-72.426453 15.114373 -138.627701
-72.471275 14.947446 -138.635132
-71.172516 20.404940 -138.647552
-71.617119 18.431330 -138.606979
-70.811279 22.045086 -138.679077
-71.172516 20.404940 -138.647552
-70.566872 23.181477 -138.689331
-70.811279 22.045086 -138.679092
-70.018631 25.973692 -138.628098
-70.566872 23.181477 -138.689331
-69.996872 26.080200 -138.622559
-70.018631 25.973692 -138.628098
-69.531990 28.774054 -138.417419
-69.996872 26.080200 -138.622559
-69.198067 30.818211 -138.198212
-69.531990 28.774054 -138.417419
-69.077965 31.583473 -138.107697
-69.198067 30.818211 -138.198212
-68.769402 34.408482 -137.760086
-69.077957 31.583471 -138.107697
-68.511360 37.199924 -137.429550
-68.769417 34.408489 -137.760117
-68.506813 37.248337 -137.423996
-68.511368 37.199924 -137.429535
-68.381973 40.101002 -137.095963
-68.506813 37.248337 -137.423996
-68.397285 42.959080 -136.746033
-68.381973 40.101002 -137.095963
-68.526108 45.815765 -136.348801
-68.397293 42.959076 -136.746048
-68.777161 48.665024 -135.882462
-68.526108 45.815765 -136.348801
-69.161629 51.501957 -135.338806
-68.777161 48.665024 -135.882462
-69.685966 54.321629 -134.712189
-69.161629 51.501957 -135.338806
-70.385757 57.118511 -134.000046
-69.685966 54.321629 -134.712189
-70.531799 57.565468 -133.876968
-70.385750 57.118511 -134.000046
-71.348633 59.889122 -133.220367
-70.531799 57.565475 -133.876984
-72.478264 62.644638 -132.436325
-71.348633 59.889122 -133.220367
-72.531044 62.751717 -132.405823
-72.478264 62.644638 -132.436325
-73.992905 65.379883 -131.673462
-72.531044 62.751717 -132.405823
-74.356560 65.959229 -131.517654
-73.992912 65.379890 -131.673462
-75.988426 68.088966 -130.940170
-74.356560 65.959229 -131.517654
-76.091438 68.215904 -130.905945
-75.988426 68.088966 -130.940170
-77.737091 69.752907 -130.435944
-76.091423 68.215912 -130.905930
-79.089394 70.700363 -130.083435
-77.737091 69.752907 -130.435944
-79.324249 70.861084 -130.020966
-79.089394 70.700363 -130.083435
-80.829063 71.489441 -129.671616
-79.324249 70.861084 -130.020966
-82.260941 71.740616 -129.381165
-80.829071 71.489456 -129.671631
-83.629593 71.696388 -129.147003
-82.260941 71.740616 -129.381165
-84.940315 71.404236 -128.970383
-83.629593 71.696388 -129.147003
-86.198074 70.901428 -128.847153
-84.940315 71.404236 -128.970367
-87.401794 70.193283 -128.777863
-86.198074 70.901428 -128.847153
-87.717072 69.931488 -128.775070
-87.401794 70.193283 -128.777863
-88.545631 69.262901 -128.767548
-87.717072 69.931488 -128.775070
-89.673706 68.305092 -128.772583
-88.545631 69.262901 -128.767548
-90.771996 67.264503 -128.804062
-89.673706 68.305092 -128.772583
-91.097801 66.864037 -128.832779
-90.771996 67.264503 -128.804062
-91.809082 66.013725 -128.893234
-91.097801 66.864037 -128.832779
-92.860756 64.869019 -128.965302
-91.809082 66.013725 -128.893234
-93.610733 63.910133 -129.048767
-92.860756 64.869019 -128.965302
-93.859543 63.552704 -129.084564
-93.610733 63.910130 -129.048767
-94.858696 62.291451 -129.182770
-93.859543 63.552704 -129.084564
-95.837029 61.007858 -129.262497
-94.858696 62.291451 -129.182770
-95.843773 60.996449 -129.263443
-95.837029 61.007858 -129.262497
-96.773369 59.625359 -129.328491
-95.843773 60.996449 -129.263443
-97.724098 58.364223 -129.332520
-96.773369 59.625359 -129.328491
-97.886223 58.089638 -129.342514
-97.724091 58.364223 -129.332520
-98.617493 56.923782 -129.371384
-97.886223 58.089638 -129.342514
-99.553902 55.686874 -129.370758
-98.617493 56.923782 -129.371384
-99.849068 55.206806 -129.392273
-99.553902 55.686874 -129.370758
-100.431007 54.245487 -129.441635
-99.849060 55.206802 -129.392273
-101.353371 53.020493 -129.465012
-100.431015 54.245487 -129.441650
-101.768471 52.360561 -129.492310
-101.353371 53.020493 -129.465012
-102.208817 51.589012 -129.529053
-101.768471 52.360561 -129.492310
-103.095299 50.333881 -129.532120
-102.208817 51.589012 -129.529053
-103.587929 49.530243 -129.545807
-103.095299 50.333881 -129.532120
-103.921928 48.896240 -129.570099
-103.587929 49.530243 -129.545807
-104.773109 47.581036 -129.586288
-103.921928 48.896240 -129.570099
-105.273010 46.727253 -129.615784
-104.773109 47.581036 -129.586288
-105.576103 46.108734 -129.653503
-105.273010 46.727253 -129.615784
-106.392982 44.721054 -129.708130
-105.576103 46.108734 -129.653503
-106.802986 43.959518 -129.744080
-106.392982 44.721050 -129.708145
-107.154869 43.173923 -129.794724
-106.802986 43.959518 -129.744080
-107.927406 41.706863 -129.857452
-107.154869 43.173923 -129.794724
-108.166565 41.218468 -129.882751
-107.927406 41.706863 -129.857452
-108.646149 40.066883 -129.966034
-108.166573 41.218468 -129.882767
-109.378334 38.506691 -130.066895
-108.646149 40.066883 -129.966034
-109.380043 38.501598 -130.067352
-109.378334 38.506691 -130.066895
-110.049553 36.750629 -130.193970
-109.380043 38.501598 -130.067352
-110.421181 35.813076 -130.240097
-110.049553 36.750629 -130.193970
-110.677605 34.929119 -130.293121
-110.421181 35.813076 -130.240097
-111.247902 33.133804 -130.350433
-110.677597 34.929111 -130.293106
-111.265274 33.051487 -130.354813
-111.247879 33.133801 -130.350403
-111.766464 30.924475 -130.450455
-111.265274 33.051487 -130.354813
-111.875687 30.481440 -130.469864
-111.766464 30.924475 -130.450455
-112.197266 28.582331 -130.600464
-111.875687 30.481438 -130.469864
-112.330742 27.862019 -130.646255
-112.197266 28.582331 -130.600464
-112.546410 26.009005 -130.791809
-112.330742 27.862019 -130.646255
-112.646324 25.268873 -130.839188
-112.546410 26.009005 -130.791809
-112.813843 23.229700 -130.993774
-112.646324 25.268873 -130.839188
-112.873505 22.697613 -131.027039
-112.813843 23.229700 -130.993774
-113.049690 20.402496 -131.178101
-112.873505 22.697613 -131.027039
-113.080093 20.149574 -131.187866
-113.049690 20.402496 -131.178101
-113.308006 17.800140 -131.226456
-113.080093 20.149574 -131.187866
-113.336967 17.619671 -131.218964
-113.308006 17.800140 -131.226456
-113.637238 15.668448 -131.055527
-113.336967 17.619671 -131.218964
-113.798500 15.082742 -130.956146
-113.637238 15.668448 -131.055527
0 1
2 3
4 5
6 7
8 9
10 11
12 13
14 15
16 17
18 19
20 21
22 23
24 25
26 27
28 29
30 31
32 33
34 35
36 37
38 39
40 41
42 43
44 45
46 47
48 49
50 51
52 53
54 55
56 57
58 59
60 61
62 63
64 65
66 67
68 69
70 71
72 73
74 75
76 77
78 79
80 81
82 83
84 85
86 87
88 89
90 91
92 93
94 95
96 97
98 99
100 101
102 103
104 105
106 107
108 109
110 111
112 113
114 115
116 117
118 119
120 121
122 123
124 125
126 127
128 129
130 131
132 133
134 135
136 137
138 139
140 141
142 143
144 145
146 147
148 149
150 151
152 153
154 155
156 157
158 159
160 161
162 163
164 165
166 167
168 169
170 171
172 173
174 175
176 177
178 179
180 181
182 183
184 185
