ply
format ascii 1.0
element vertex 34
property float x
property float y
property float z
element edge 17
property int vertex1
property int vertex2
end_header
-181.669830 103.012787 17.224518
-183.062164 103.767334 16.616850
-180.775589 102.224411 17.687601
-181.669830 103.012787 17.224518
-183.062164 103.767334 16.616850
-184.521149 103.813896 16.280964
-179.595795 100.688652 18.363298
-180.775589 102.224411 17.687601
-184.521149 103.813896 16.280964
-185.759201 103.487595 16.165524
-178.068024 98.163498 19.232260
-179.595795 100.688652 18.363298
-185.759201 103.487595 16.165524
-186.901688 103.011086 16.138275
-176.740356 95.498940 20.113995
-178.068039 98.163521 19.232260
-186.901688 103.011086 16.138275
-187.981277 102.449783 16.154064
-175.568237 92.720329 21.234512
-176.740356 95.498940 20.113995
-187.981277 102.449783 16.154064
-188.144409 102.342224 16.165798
-188.144409 102.342224 16.165798
-188.980042 101.794014 16.217377
-188.980042 101.794014 16.217377
-189.945969 101.114822 16.279810
-189.945969 101.114822 16.279810
-190.899750 100.409698 16.323635
-190.899750 100.409721 16.323637
-191.856857 99.654228 16.344934
-191.856857 99.654228 16.344934
-191.992874 99.540054 16.347460
-191.992874 99.540054 16.347460
-192.808395 98.809250 16.369078
0 1
2 3
4 5
6 7
8 9
10 11
12 13
14 15
16 17
18 19
20 21
22 23
24 25
26 27
28 29
30 31
32 33
