ply
format ascii 1.0
element vertex 128
property float x
property float y
property float z
element edge 64
property int vertex1
property int vertex2
end_header
-178.389893 143.788681 -17.471031
-179.791245 144.119736 -18.105204
-177.796494 143.616089 -17.170092
-178.389893 143.788681 -17.471031
-179.791245 144.119736 -18.105204
-181.716812 144.281754 -18.610744
-175.685333 142.664734 -15.532102
-177.796494 143.616089 -17.170092
-181.716812 144.281754 -18.610744
-183.580185 144.144318 -18.831894
-175.190369 142.369812 -14.999456
-175.685349 142.664734 -15.532102
-183.580185 144.144318 -18.831894
-185.380569 143.735916 -18.846331
-173.364609 141.107666 -12.378138
-175.190369 142.369812 -14.999456
-185.380569 143.735916 -18.846331
-187.131042 143.141098 -18.697374
-173.182602 140.948425 -12.001468
-173.364609 141.107666 -12.378138
-187.131012 143.141098 -18.697372
-188.844299 142.448288 -18.397411
-172.187531 139.989014 -9.660820
-173.182602 140.948425 -12.001468
-188.844299 142.448288 -18.397411
-190.518768 141.709732 -17.926418
-171.399689 138.796387 -6.979980
-172.187531 139.989029 -9.660836
-190.518768 141.709732 -17.926418
-191.911377 141.011932 -17.325220
-170.899460 137.303177 -4.466608
-171.399689 138.796387 -6.979980
-191.911377 141.011932 -17.325220
-192.128677 140.900299 -17.236910
-170.760803 136.215866 -3.078019
-170.899460 137.303177 -4.466608
-192.128677 140.900299 -17.236910
-193.651917 139.958481 -16.368393
-170.659576 135.412170 -2.182287
-170.760803 136.215866 -3.078019
-193.651917 139.958481 -16.368393
-194.999207 138.733765 -15.113963
-170.637558 133.223907 -0.089918
-170.659576 135.412170 -2.182287
-194.999207 138.733765 -15.113963
-195.119568 138.572769 -14.934365
-170.748383 131.936203 1.004288
-170.637558 133.223907 -0.089918
-195.119568 138.572769 -14.934365
-196.074493 137.074417 -13.413678
-170.837830 130.874786 1.872402
-170.748367 131.936203 1.004288
-196.074493 137.074417 -13.413677
-196.283386 136.417770 -12.714128
-171.172165 128.867554 3.464822
-170.837830 130.874786 1.872402
-196.283386 136.417770 -12.714128
-196.623901 134.620392 -10.860861
-171.238098 128.487671 3.758791
-171.172165 128.867554 3.464822
-196.623901 134.620392 -10.860861
-196.623260 134.345322 -10.564042
-171.768921 126.403893 5.298494
-171.238083 128.487671 3.758781
-196.623260 134.345337 -10.564055
-196.446091 132.400223 -8.385532
-171.858841 126.045937 5.546852
-171.768921 126.403893 5.298494
-196.446091 132.400223 -8.385532
-196.093430 130.703812 -6.189246
-172.453568 124.228699 6.715196
-171.858841 126.045937 5.546852
-196.093430 130.703812 -6.189246
-196.077759 130.649902 -6.110437
-172.693848 123.463379 7.163056
-172.453568 124.228699 6.715196
-196.077759 130.649902 -6.110437
-195.510757 129.160568 -3.722723
-173.174164 122.188881 7.850536
-172.693848 123.463379 7.163056
-195.510757 129.160568 -3.722723
-194.802231 127.763603 -1.332791
-173.726486 120.743858 8.584805
-173.174164 122.188881 7.850536
-194.802231 127.763603 -1.332791
-193.929413 126.314575 0.959032
-173.918869 120.287567 8.815970
-173.726486 120.743858 8.584805
-193.929413 126.314575 0.959032
-192.862228 124.686417 3.062872
-174.744461 118.680939 9.646444
-173.918869 120.287567 8.815970
-192.862259 124.686424 3.062860
-191.611633 122.859314 4.956854
-175.080780 118.072166 9.984669
-174.744461 118.680923 9.646445
-191.611633 122.859314 4.956854
-190.212799 120.878639 6.658990
-175.594864 117.232491 10.475303
-175.080780 118.072166 9.984669
-190.212799 120.878639 6.658990
-188.693314 118.792839 8.189705
-176.510742 116.001938 11.251086
-175.594864 117.232491 10.475303
-188.693314 118.792839 8.189705
-187.063843 116.656509 9.590228
-176.891312 115.568275 11.536677
-176.510742 116.001938 11.251086
-187.063843 116.656509 9.590228
-185.277084 114.515991 10.952117
-177.467804 114.905762 11.968704
-176.891312 115.568275 11.536677
-185.277084 114.515991 10.952117
-184.816544 114.020073 11.279085
-178.494003 113.965012 12.509992
-177.467804 114.905762 11.968704
-184.816544 114.020073 11.279085
-182.616638 112.527000 12.496115
-179.563675 113.114075 12.874011
-178.494003 113.965012 12.509992
-182.616638 112.527008 12.496106
-182.241699 112.373398 12.662213
-179.922424 112.954422 12.899662
-179.563675 113.114075 12.874011
-182.241699 112.373398 12.662213
-180.761169 112.499245 12.961256
-180.761185 112.499237 12.961254
-179.922409 112.954437 12.899653
0 1
2 3
4 5
6 7
8 9
10 11
12 13
14 15
16 17
18 19
20 21
22 23
24 25
26 27
28 29
30 31
32 33
34 35
36 37
38 39
40 41
42 43
44 45
46 47
48 49
50 51
52 53
54 55
56 57
58 59
60 61
62 63
64 65
66 67
68 69
70 71
72 73
74 75
76 77
78 79
80 81
82 83
84 85
86 87
88 89
90 91
92 93
94 95
96 97
98 99
100 101
102 103
104 105
106 107
108 109
110 111
112 113
114 115
116 117
118 119
120 121
122 123
124 125
126 127
