ply
format ascii 1.0
element vertex 104
property float x
property float y
property float z
element edge 52
property int vertex1
property int vertex2
end_header
-109.414566 129.996857 -9.431743
-109.736206 130.217911 -9.642832
-108.334198 129.430939 -8.845429
-109.414566 129.996857 -9.431743
-109.736206 130.217911 -9.642832
-111.083450 130.556747 -9.967014
-107.069733 128.236862 -7.574807
-108.334190 129.430954 -8.845429
-111.083450 130.556747 -9.967014
-112.373657 130.390411 -9.817332
-106.867920 128.072479 -7.388224
-107.069725 128.236877 -7.574818
-112.373665 130.390442 -9.817334
-113.620773 129.819580 -9.314005
-105.481270 126.416405 -5.548959
-106.867920 128.072479 -7.388224
-113.620773 129.819580 -9.314005
-114.231697 129.337296 -8.896531
-105.364616 126.288010 -5.403320
-105.481270 126.416405 -5.548959
-114.231697 129.337296 -8.896531
-114.836090 128.940826 -8.549169
-104.162956 124.525078 -3.490582
-105.364616 126.288010 -5.403320
-114.836090 128.940826 -8.549169
-116.028694 127.850975 -7.585450
-103.828575 124.059441 -2.995100
-104.162956 124.525078 -3.490582
-116.028671 127.850967 -7.585451
-116.879997 126.780457 -6.612038
-102.958519 122.553902 -1.457239
-103.828568 124.059448 -2.995100
-116.879990 126.780479 -6.612051
-117.173462 126.436142 -6.289493
-102.259064 121.379913 -0.283360
-102.958519 122.553902 -1.457239
-117.173462 126.436142 -6.289493
-118.261276 124.771423 -4.694895
-101.816048 120.527512 0.557583
-102.259071 121.379936 -0.283360
-118.261276 124.771423 -4.694895
-118.434425 124.415260 -4.347898
-100.772430 118.469482 2.598713
-101.816048 120.527512 0.557583
-118.434425 124.415260 -4.347898
-119.244987 122.674446 -2.597796
-100.682312 118.305061 2.764639
-100.772430 118.469482 2.598713
-119.244972 122.674446 -2.597797
-119.423912 122.148216 -2.065857
-99.794151 116.404785 4.694094
-100.682312 118.305061 2.764639
-119.423912 122.148216 -2.065857
-120.049393 119.897163 0.174279
-99.141167 115.042877 6.121734
-99.794151 116.404800 4.694080
-120.049393 119.897163 0.174279
-120.068130 119.817436 0.250935
-98.823807 114.352882 6.856503
-99.141167 115.042877 6.121734
-120.068130 119.817436 0.250935
-120.416626 117.558830 2.275928
-97.968651 112.281593 9.088297
-98.823807 114.352882 6.856503
-120.416626 117.558830 2.275928
-120.633812 115.108795 4.257149
-97.644569 111.562599 9.887989
-97.968651 112.281593 9.088297
-120.633812 115.108795 4.257149
-120.634659 115.095703 4.267340
-120.634659 115.095703 4.267340
-120.696404 112.587135 6.188959
-97.093575 110.232529 11.370317
-97.644569 111.562599 9.887990
-120.696396 112.587158 6.188947
-120.618256 110.060921 8.176629
-96.297684 108.167931 13.680327
-97.093575 110.232529 11.370317
-120.618256 110.060921 8.176629
-120.441017 107.566994 10.280044
-96.198174 107.928551 13.951991
-96.297684 108.167931 13.680327
-120.441017 107.566994 10.280044
-120.187904 105.089005 12.469065
-95.521660 106.097107 15.997206
-96.198174 107.928551 13.951991
-120.187904 105.089005 12.469065
-119.868698 102.603905 14.701494
-94.772179 103.969238 18.350367
-95.521660 106.097107 15.997206
-119.868698 102.603905 14.701494
-119.485611 100.082420 16.937113
-94.746521 103.897354 18.429918
-94.772194 103.969261 18.350357
-119.485611 100.082420 16.937113
-119.024857 97.438606 19.188337
-94.066727 101.712646 20.811420
-94.746521 103.897354 18.429918
-119.024872 97.438637 19.188326
-118.467331 94.550842 21.502857
-93.405907 99.269051 23.462528
-94.066727 101.712646 20.811420
-118.467331 94.550842 21.502857
-117.797668 91.305115 23.937756
0 1
2 3
4 5
6 7
8 9
10 11
12 13
14 15
16 17
18 19
20 21
22 23
24 25
26 27
28 29
30 31
32 33
34 35
36 37
38 39
40 41
42 43
44 45
46 47
48 49
50 51
52 53
54 55
56 57
58 59
60 61
62 63
64 65
66 67
68 69
70 71
72 73
74 75
76 77
78 79
80 81
82 83
84 85
86 87
88 89
90 91
92 93
94 95
96 97
98 99
100 101
102 103
