ply
format ascii 1.0
element vertex 226
property float x
property float y
property float z
element edge 113
property int vertex1
property int vertex2
end_header
-135.768204 13.298442 -120.807961
-134.780029 11.606391 -121.569489
-136.146576 13.959685 -120.526543
-135.768204 13.298442 -120.807961
-137.473419 16.336977 -119.553619
-136.146576 13.959685 -120.526543
-138.738724 18.735229 -118.603004
-137.473419 16.336977 -119.553619
-139.454926 20.149286 -118.040504
-138.738724 18.735229 -118.603004
-139.951035 21.149216 -117.637764
-139.454926 20.149286 -118.040504
-141.099945 23.581074 -116.660820
-139.951035 21.149216 -117.637764
-142.173523 26.035980 -115.694267
-141.099945 23.581074 -116.660820
-143.172470 28.516840 -114.750732
-142.173523 26.035980 -115.694267
-144.095078 31.026987 -113.843513
-143.172501 28.516844 -114.750755
-144.954788 33.564476 -112.981842
-144.095078 31.026987 -113.843513
-145.109741 34.042866 -112.826447
-144.954788 33.564476 -112.981842
-145.780640 36.122280 -112.167686
-145.109741 34.042866 -112.826447
-146.587616 38.694313 -111.408234
-145.780624 36.122276 -112.167679
-147.402740 41.270103 -110.697800
-146.587616 38.694313 -111.408234
-148.253159 43.831928 -110.012459
-147.402740 41.270103 -110.697800
-149.165253 46.360825 -109.325615
-148.253159 43.831928 -110.012459
-150.164169 48.838463 -108.612228
-149.165253 46.360825 -109.325615
-151.260620 51.255638 -107.862907
-150.164169 48.838467 -108.612228
-152.443970 53.616817 -107.091782
-151.260620 51.255638 -107.862907
-153.701767 55.927795 -106.314926
-152.443970 53.616817 -107.091782
-155.023438 58.193130 -105.546806
-153.701782 55.927795 -106.314949
-156.412247 60.403984 -104.786621
-155.023438 58.193130 -105.546806
-157.230118 61.621101 -104.357140
-156.412247 60.403984 -104.786621
-157.881851 62.543152 -104.023109
-157.230118 61.621101 -104.357140
-159.447006 64.593597 -103.244408
-157.881851 62.543152 -104.023102
-161.112411 66.542778 -102.443092
-159.447006 64.593597 -103.244408
-162.867767 68.392998 -101.620865
-161.112411 66.542778 -102.443092
-164.697311 70.150276 -100.782883
-162.867783 68.392998 -101.620850
-166.583435 71.821236 -99.935760
-164.697296 70.150269 -100.782890
-168.508987 73.412201 -99.086853
-166.583435 71.821236 -99.935760
-170.457733 74.928879 -98.242630
-168.508987 73.412201 -99.086853
-172.411438 76.378685 -97.407555
-170.457733 74.928871 -98.242630
-174.348770 77.772263 -96.582703
-172.411438 76.378685 -97.407555
-176.243759 79.135223 -95.767586
-174.348770 77.772263 -96.582703
-178.066696 80.502762 -94.963005
-176.243774 79.135231 -95.767601
-178.150864 80.569008 -94.924995
-178.066696 80.502762 -94.963005
-179.845886 81.885056 -94.160538
-178.150864 80.569008 -94.924995
-181.556213 83.307907 -93.363258
-179.845886 81.885056 -94.160538
-183.170624 84.790512 -92.560638
-181.556213 83.307899 -93.363258
-184.660828 86.348846 -91.738235
-183.170624 84.790512 -92.560638
-184.879471 86.595634 -91.608833
-184.660828 86.348846 -91.738235
-186.085861 87.959503 -90.878067
-184.879471 86.595634 -91.608833
-187.432144 89.637016 -89.995567
-186.085846 87.959503 -90.878059
-188.660660 91.415733 -89.133034
-187.432144 89.637016 -89.995567
-189.109085 92.147018 -88.806953
-188.660660 91.415733 -89.133034
-189.795670 93.301369 -88.321121
-189.109085 92.147018 -88.806953
-190.843567 95.301239 -87.576530
-189.795670 93.301369 -88.321121
-191.714767 97.424889 -86.864479
-190.843567 95.301239 -87.576530
-191.784195 97.631104 -86.796738
-191.714767 97.424889 -86.864479
-192.432785 99.617012 -86.121841
-191.784195 97.631104 -86.796738
-192.901489 101.872047 -85.290756
-192.432800 99.617004 -86.121841
-192.931259 102.174034 -85.172310
-192.901489 101.872047 -85.290756
-193.093750 104.175034 -84.331009
-192.931259 102.174034 -85.172310
-193.019424 105.675804 -83.671494
-193.093750 104.175034 -84.331009
-192.947754 106.571503 -83.270439
-193.019424 105.675804 -83.671494
-192.572403 108.635941 -82.368752
-192.947739 106.571487 -83.270447
-192.478790 109.087837 -82.177383
-192.572403 108.635941 -82.368752
-191.852234 111.325508 -81.294609
-192.478790 109.087837 -82.177383
-191.734879 111.736359 -81.140594
-191.852234 111.325508 -81.294609
-191.010651 113.889008 -80.345451
-191.734879 111.736359 -81.140594
-190.828461 114.447937 -80.128250
-191.010651 113.889008 -80.345451
-190.129517 116.373466 -79.309578
-190.828476 114.447929 -80.128258
-189.892212 117.067398 -78.968521
-190.129501 116.373459 -79.309578
-189.253693 118.798393 -77.982254
-189.892212 117.067398 -78.968521
-189.026184 119.470490 -77.536812
-189.253693 118.798393 -77.982254
-188.418411 121.229652 -76.235809
-189.026184 119.470490 -77.536812
-188.286087 121.672012 -75.886635
-188.418411 121.229652 -76.235809
-187.712021 123.811661 -74.193146
-188.286087 121.672012 -75.886635
-187.685974 123.918335 -74.110649
-187.712021 123.811661 -74.193146
-187.316101 125.977303 -72.551361
-187.685974 123.918335 -74.110649
-187.142731 127.218597 -71.641319
-187.316101 125.977303 -72.551361
-187.042145 128.168121 -70.940445
-187.142731 127.218597 -71.641319
-186.915253 130.281540 -69.267860
-187.042145 128.168121 -70.940445
-186.868179 131.367371 -68.289993
-186.915237 130.281525 -69.267860
-186.830688 132.213806 -67.439201
-186.868179 131.367371 -68.289993
-186.837570 133.875275 -65.414940
-186.830688 132.213806 -67.439201
-186.885452 135.248230 -63.195793
-186.837570 133.875275 -65.414940
-186.996124 136.386398 -60.824787
-186.885452 135.248230 -63.195793
-187.101883 136.817780 -59.810577
-186.996124 136.386398 -60.824787
-187.241302 137.420670 -58.371223
-187.101898 136.817795 -59.810577
-187.665924 138.462952 -55.883335
-187.241302 137.420670 -58.371223
-187.716614 138.549225 -55.680779
-187.665924 138.462967 -55.883347
-188.321823 139.602478 -53.402836
-187.716614 138.549225 -55.680782
-189.203537 140.757126 -50.929497
-188.321823 139.602478 -53.402836
-190.304642 141.716644 -48.431568
-189.203537 140.757126 -50.929497
-190.535507 141.850922 -47.970306
-190.304642 141.716644 -48.431568
-191.641769 142.250977 -45.864563
-190.535507 141.850922 -47.970306
-192.479721 142.304611 -44.374969
-191.641769 142.250977 -45.864563
-193.220352 142.234146 -43.180325
-192.479721 142.304611 -44.374969
-194.224426 142.066772 -41.650272
-193.220367 142.234146 -43.180336
-195.186844 141.874176 -40.410717
-194.224426 142.066772 -41.650272
-195.952759 141.724182 -39.441666
-195.186844 141.874176 -40.410717
-197.696991 141.356979 -37.676781
-195.952759 141.724182 -39.441666
-197.737442 141.347580 -37.640984
-197.696991 141.356979 -37.676781
-199.418015 140.874634 -36.110821
-197.737442 141.347580 -37.640984
-201.078979 140.225967 -34.959229
-199.418015 140.874634 -36.110825
-201.105957 140.213730 -34.938606
-201.078979 140.225967 -34.959229
-202.762268 139.431854 -33.892521
-201.105957 140.213730 -34.938606
-204.458023 138.695709 -33.153851
-202.762268 139.431854 -33.892521
-206.232864 138.125427 -32.610569
-204.458023 138.695709 -33.153851
-206.989136 137.931778 -32.438812
-206.232864 138.125427 -32.610569
-208.070160 137.666748 -32.196175
-206.989136 137.931778 -32.438812
-209.942474 137.218552 -31.957172
-208.070160 137.666748 -32.196175
-211.809586 136.656464 -31.903427
-209.942459 137.218552 -31.957170
-213.655151 135.942490 -32.015110
-211.809586 136.656464 -31.903427
-215.507507 135.186874 -32.255684
-213.655151 135.942490 -32.015110
-217.397614 134.509125 -32.596352
-215.507507 135.186874 -32.255684
-219.035767 134.075562 -32.966988
-217.397614 134.509125 -32.596352
-219.349655 134.002655 -33.033974
-219.035767 134.075562 -32.966988
-221.365891 133.594849 -33.571922
-219.349655 134.002655 -33.033974
-223.450714 133.145294 -34.187733
-221.365891 133.594864 -33.571930
-225.643494 132.591248 -34.898167
-223.450714 133.145294 -34.187733
0 1
2 3
4 5
6 7
8 9
10 11
12 13
14 15
16 17
18 19
20 21
22 23
24 25
26 27
28 29
30 31
32 33
34 35
36 37
38 39
40 41
42 43
44 45
46 47
48 49
50 51
52 53
54 55
56 57
58 59
60 61
62 63
64 65
66 67
68 69
70 71
72 73
74 75
76 77
78 79
80 81
82 83
84 85
86 87
88 89
90 91
92 93
94 95
96 97
98 99
100 101
102 103
104 105
106 107
108 109
110 111
112 113
114 115
116 117
118 119
120 121
122 123
124 125
126 127
128 129
130 131
132 133
134 135
136 137
138 139
140 141
142 143
144 145
146 147
148 149
150 151
152 153
154 155
156 157
158 159
160 161
162 163
164 165
166 167
168 169
170 171
172 173
174 175
176 177
178 179
180 181
182 183
184 185
186 187
188 189
190 191
192 193
194 195
196 197
198 199
200 201
202 203
204 205
206 207
208 209
210 211
212 213
214 215
216 217
218 219
220 221
222 223
224 225
