ply
format ascii 1.0
element vertex 272
property float x
property float y
property float z
element edge 136
property int vertex1
property int vertex2
end_header
-102.500259 122.741577 -110.543167
-102.510643 122.736130 -110.542839
-102.510643 122.736130 -110.542839
-104.021027 122.230804 -110.326508
-101.086540 123.480499 -110.562302
-102.500267 122.741577 -110.543159
-104.021027 122.230804 -110.326508
-105.607216 121.937332 -109.932892
-99.748474 124.464149 -110.373154
-101.086555 123.480507 -110.562302
-105.607216 121.937332 -109.932892
-105.773865 121.928314 -109.878258
-98.508698 125.716667 -109.954857
-99.748474 124.464149 -110.373154
-105.773857 121.928307 -109.878273
-107.258629 121.824120 -109.387802
-98.136986 126.233055 -109.747131
-98.508698 125.716667 -109.954857
-107.258629 121.824120 -109.387802
-108.959679 121.842621 -108.736420
-97.394188 127.301292 -109.322144
-98.136986 126.233055 -109.747131
-108.959679 121.842621 -108.736420
-110.701958 121.962936 -108.010010
-96.383636 129.158981 -108.564621
-97.394180 127.301277 -109.322128
-110.701950 121.962936 -108.010025
-112.493988 122.197433 -107.195999
-96.356918 129.220367 -108.538483
-96.383636 129.158981 -108.564621
-112.493988 122.197433 -107.195999
-113.381668 122.399605 -106.734756
-95.464149 131.252502 -107.640205
-96.356918 129.220367 -108.538483
-113.381668 122.399605 -106.734756
-114.364960 122.609428 -106.217049
-95.133247 132.085052 -107.215790
-95.464149 131.252502 -107.640205
-114.364960 122.609428 -106.217049
-116.249733 123.047264 -105.153778
-94.584877 133.442368 -106.419792
-95.133240 132.085052 -107.215790
-116.249733 123.047264 -105.153778
-117.759430 123.518211 -104.182465
-94.083145 134.673187 -105.553658
-94.584877 133.442368 -106.419800
-117.759430 123.518211 -104.182465
-118.225121 123.680122 -103.866417
-93.712112 135.600677 -104.800781
-94.083145 134.673187 -105.553658
-118.225121 123.680122 -103.866417
-120.270180 124.450150 -102.434814
-93.154564 136.983414 -103.552734
-93.712112 135.600677 -104.800781
-120.270180 124.450150 -102.434814
-121.096909 124.842293 -101.810791
-92.880844 137.759842 -102.809464
-93.154564 136.983414 -103.552734
-121.096909 124.842293 -101.810806
-122.497284 125.587532 -100.730789
-92.399689 139.177795 -101.438255
-92.880844 137.759842 -102.809464
-122.497269 125.587524 -100.730789
-123.838913 126.397408 -99.690964
-92.168518 140.083008 -100.564781
-92.399681 139.177780 -101.438248
-123.838913 126.397408 -99.690964
-124.979904 127.220581 -98.783089
-91.849930 141.352341 -99.356125
-92.168518 140.082977 -100.564774
-124.979904 127.220581 -98.783089
-126.193962 128.163696 -97.820686
-91.635918 142.692581 -98.036293
-91.849930 141.352341 -99.356125
-126.193962 128.163696 -97.820686
-127.967926 129.838135 -96.269012
-91.499657 143.443970 -97.267265
-91.635918 142.692596 -98.036301
-127.967926 129.838135 -96.269012
-128.184952 130.041306 -96.075905
-91.353020 145.347977 -95.065559
-91.499657 143.443970 -97.267265
-128.184937 130.041290 -96.075912
-129.790817 131.931976 -94.327271
-91.356636 145.581512 -94.766876
-91.353020 145.347977 -95.065582
-129.790817 131.931976 -94.327271
-131.020584 133.741150 -92.459404
-91.360161 147.088608 -92.741646
-91.356636 145.581512 -94.766876
-131.020584 133.741150 -92.459404
-131.905792 135.418488 -90.417297
-91.606003 148.741119 -90.356552
-91.360161 147.088608 -92.741646
-131.905792 135.418503 -90.417305
-132.487213 136.984055 -88.232239
-91.761177 149.333130 -89.508751
-91.606003 148.741119 -90.356552
-132.487213 136.984055 -88.232239
-132.815247 138.459412 -85.940331
-92.027939 150.432220 -88.005554
-91.761177 149.333130 -89.508751
-132.815247 138.459412 -85.940331
-132.895096 139.837296 -83.675873
-92.640457 152.142349 -85.699226
-92.027939 150.432220 -88.005554
-132.895096 139.837296 -83.675873
-132.895584 139.886154 -83.593819
-93.388824 153.756836 -83.379776
-92.640457 152.142349 -85.699226
-132.895584 139.886154 -83.593819
-132.819809 141.290573 -81.231819
-94.206467 155.150681 -80.980072
-93.388824 153.756836 -83.379776
-132.819809 141.290573 -81.231819
-132.658630 142.707550 -78.888023
-95.040833 156.244614 -78.451332
-94.206467 155.150681 -80.980072
-132.658630 142.707550 -78.888023
-132.639481 142.812210 -78.721848
-95.881454 157.152374 -75.825455
-95.040833 156.244583 -78.451347
-132.639481 142.812210 -78.721848
-132.424683 144.195663 -76.592827
-96.727386 158.036545 -73.155312
-95.881454 157.152374 -75.825455
-132.424683 144.195663 -76.592827
-132.241150 145.501633 -74.735367
-97.576294 159.056747 -70.493660
-96.727386 158.036545 -73.155312
-132.241135 145.501633 -74.735367
-132.188980 145.790268 -74.344322
-98.389099 160.214310 -67.867920
-97.576294 159.056747 -70.493660
-132.188965 145.790283 -74.344337
-131.980652 147.436447 -72.100983
-99.072197 161.267120 -65.266380
-98.389099 160.214310 -67.867920
-131.980652 147.436447 -72.100983
-131.870117 148.286026 -70.918739
-99.534698 161.955856 -62.673683
-99.072197 161.267120 -65.266380
-131.870117 148.286026 -70.918739
-131.727493 149.046463 -69.832603
-99.701218 162.050858 -60.073696
-99.534691 161.955872 -62.673698
-131.727493 149.046463 -69.832603
-131.489197 150.495163 -67.511337
-99.700752 162.047867 -60.034950
-99.701218 162.050858 -60.073696
-131.489197 150.495163 -67.511337
-131.425339 150.862518 -66.850471
-99.567657 161.626755 -57.460007
-99.700752 162.047867 -60.034946
-131.425339 150.862518 -66.850471
-131.194733 151.746674 -65.135246
-99.256729 160.917496 -54.827660
-99.567657 161.626755 -57.460007
-131.194733 151.746674 -65.135246
-130.914124 152.755096 -62.698372
-99.018661 160.452896 -53.242058
-99.256729 160.917496 -54.827660
-130.914124 152.755096 -62.698372
-130.843277 152.981552 -61.989822
-98.842255 160.156006 -52.174995
-99.018661 160.452896 -53.242058
-130.843277 152.981567 -61.989822
-130.587692 153.422653 -60.195004
-98.432266 159.480133 -49.508598
-98.842255 160.156006 -52.174995
-130.587692 153.422638 -60.195023
-130.222443 153.548096 -57.608303
-98.159721 158.967392 -47.494835
-98.432259 159.480133 -49.508617
-130.222443 153.548096 -57.608303
-129.812134 153.212631 -55.042183
-98.062393 158.802155 -46.862789
-98.159721 158.967392 -47.494835
-129.812134 153.212631 -55.042183
-129.792496 153.195328 -54.943241
-97.753792 157.991364 -44.278702
-98.062393 158.802155 -46.862789
-129.792496 153.195328 -54.943241
-129.348938 152.648590 -52.215103
-97.543083 156.925674 -41.789600
-97.753792 157.991364 -44.278702
-129.348938 152.648590 -52.215103
-128.942535 152.255585 -49.442947
-97.466461 155.559265 -39.397423
-97.543083 156.925674 -41.789600
-128.942535 152.255585 -49.442947
-128.586700 152.275131 -46.653858
-97.602242 153.940231 -37.068710
-97.466461 155.559265 -39.397423
-128.586685 152.275146 -46.653877
-128.224182 152.497604 -43.893738
-98.040154 152.132187 -34.766239
-97.602242 153.940231 -37.068710
-128.224182 152.497604 -43.893738
-128.135666 152.538818 -43.326347
-98.290237 151.543945 -34.062088
-98.040146 152.132202 -34.766258
-128.135666 152.538818 -43.326347
-127.771362 152.593460 -41.214333
-98.881813 150.220200 -32.433060
-98.290237 151.543945 -34.062088
-127.771362 152.593460 -41.214333
-127.118828 152.250137 -38.671265
-99.479469 149.304092 -31.315901
-98.881813 150.220200 -32.433060
-127.118828 152.250137 -38.671265
-126.651535 151.864532 -37.470127
-100.214035 148.274338 -30.014906
-99.479469 149.304092 -31.315901
-126.651535 151.864517 -37.470119
-126.137718 151.358734 -36.302105
-100.720169 147.711380 -29.306005
-100.214035 148.274338 -30.014906
-126.137718 151.358734 -36.302105
-125.175125 150.481094 -34.756618
-101.977631 146.419769 -27.684036
-100.720177 147.711380 -29.306005
-125.175125 150.481094 -34.756618
-124.727066 150.051849 -34.110966
-102.129799 146.275864 -27.509962
-101.977631 146.419769 -27.684036
-124.727066 150.051849 -34.110966
-123.711426 149.199646 -32.974670
-103.232437 145.303925 -26.398405
-102.129799 146.275864 -27.509962
-123.711426 149.199646 -32.974670
-122.844612 148.480560 -32.071484
-104.482613 144.282806 -25.322418
-103.232437 145.303925 -26.398405
-122.844604 148.480560 -32.071495
-122.259407 148.060349 -31.551987
-104.931023 143.968094 -25.016342
-104.482605 144.282776 -25.322418
-122.259407 148.060349 -31.551987
-120.820961 147.115051 -30.291342
-105.738159 143.403931 -24.454023
-104.931023 143.968094 -25.016342
-120.820961 147.115051 -30.291342
-120.569878 146.960083 -30.068817
-107.009567 142.726349 -23.801857
-105.738152 143.403946 -24.454023
-120.569878 146.960083 -30.068817
-119.392174 146.309753 -29.099298
-108.303429 142.293976 -23.389654
-107.009567 142.726349 -23.801857
-119.392174 146.309753 -29.099298
-118.087280 145.616440 -28.049318
-109.622536 142.134247 -23.276352
-108.303429 142.293976 -23.389654
-118.087280 145.616440 -28.049318
-117.968452 145.552338 -27.954102
-110.969254 142.260071 -23.506887
-109.622528 142.134232 -23.276352
-117.968452 145.552338 -27.954105
-116.548813 144.783310 -26.861876
-112.342911 142.672821 -24.098452
-110.969254 142.260071 -23.506887
-116.548813 144.783310 -26.861876
-115.483040 144.203339 -26.101780
-112.538757 142.762543 -24.224819
-112.342911 142.672821 -24.098452
-115.483040 144.203339 -26.101780
-115.135849 143.998322 -25.834566
-113.732185 143.262451 -24.883387
-112.538757 142.762543 -24.224819
-115.135849 143.998322 -25.834566
-113.732201 143.262466 -24.883394
0 1
2 3
4 5
6 7
8 9
10 11
12 13
14 15
16 17
18 19
20 21
22 23
24 25
26 27
28 29
30 31
32 33
34 35
36 37
38 39
40 41
42 43
44 45
46 47
48 49
50 51
52 53
54 55
56 57
58 59
60 61
62 63
64 65
66 67
68 69
70 71
72 73
74 75
76 77
78 79
80 81
82 83
84 85
86 87
88 89
90 91
92 93
94 95
96 97
98 99
100 101
102 103
104 105
106 107
108 109
110 111
112 113
114 115
116 117
118 119
120 121
122 123
124 125
126 127
128 129
130 131
132 133
134 135
136 137
138 139
140 141
142 143
144 145
146 147
148 149
150 151
152 153
154 155
156 157
158 159
160 161
162 163
164 165
166 167
168 169
170 171
172 173
174 175
176 177
178 179
180 181
182 183
184 185
186 187
188 189
190 191
192 193
194 195
196 197
198 199
200 201
202 203
204 205
206 207
208 209
210 211
212 213
214 215
216 217
218 219
220 221
222 223
224 225
226 227
228 229
230 231
232 233
234 235
236 237
238 239
240 241
242 243
244 245
246 247
248 249
250 251
252 253
254 255
256 257
258 259
260 261
262 263
264 265
266 267
268 269
270 271
